<?xml version="1.0" encoding="UTF-8"?>
<svg version="1.1" xmlns="http://www.w3.org/2000/svg" width="128" height="128">
<path d="M0 0 C2.6875 0.5625 2.6875 0.5625 3.6875 1.5625 C4.84772709 8.02662233 1.20798245 12.49272862 -2.3125 17.5625 C-6.11177232 22.73944668 -10.06838743 27.80461652 -14.12109375 32.78515625 C-15.56796027 34.56147936 -15.56796027 34.56147936 -15.1875 37.125 C-14.27202916 39.6752402 -13.37949293 40.8549841 -11.3125 42.5625 C-10.77625 42.294375 -10.24 42.02625 -9.6875 41.75 C-8.90375 41.358125 -8.12 40.96625 -7.3125 40.5625 C-6.301875 40.02625 -5.29125 39.49 -4.25 38.9375 C-1.3125 37.5625 -1.3125 37.5625 1.6875 37.5625 C1.625625 36.36625 1.56375 35.17 1.5 33.9375 C1.49268375 29.8184528 2.45499153 27.08299413 4.6875 23.5625 C7.57611709 22.11819145 9.48397701 22.18561494 12.6875 22.5625 C15.5625 24.5 15.5625 24.5 17.6875 27.5625 C18.52669828 32.4246591 18.11964578 36.2549647 15.6875 40.5625 C16.656875 41.2225 17.62625 41.8825 18.625 42.5625 C21.22879408 44.78902225 21.70471856 45.61606887 22.8125 49.0625 C23.1404798 54.13654048 21.22899115 58.71621154 19.5 63.4140625 C18.16214575 68.5982477 19.69704824 72.94104652 21.25 77.9375 C21.51941406 78.81148438 21.78882812 79.68546875 22.06640625 80.5859375 C22.27136719 81.23820312 22.47632812 81.89046875 22.6875 82.5625 C35.54451969 83.38316083 45.4250308 80.33709788 55.6875 72.5625 C56.3475 72.8925 57.0075 73.2225 57.6875 73.5625 C48.02387271 83.1794431 37.41613302 87.5625 23.6875 87.5625 C23.6875 88.2225 23.6875 88.8825 23.6875 89.5625 C30.1225 88.5725 30.1225 88.5725 36.6875 87.5625 C32.88159895 90.41692578 30.01159846 91.81622947 25.6875 93.5625 C25.6875 94.2225 25.6875 94.8825 25.6875 95.5625 C26.32300781 95.81 26.95851563 96.0575 27.61328125 96.3125 C31.7340586 97.98803844 35.80433833 99.76919973 39.875 101.5625 C40.69419922 101.91828125 41.51339844 102.2740625 42.35742188 102.640625 C43.14052734 102.98609375 43.92363281 103.3315625 44.73046875 103.6875 C45.79817505 104.15542969 45.79817505 104.15542969 46.88745117 104.6328125 C48.6875 105.5625 48.6875 105.5625 50.6875 107.5625 C50.6875 108.5525 50.6875 109.5425 50.6875 110.5625 C51.326875 110.76875 51.96625 110.975 52.625 111.1875 C54.6875 112.5625 54.6875 112.5625 55.5625 115.5625 C55.60375 116.5525 55.645 117.5425 55.6875 118.5625 C53.6875 120.5625 53.6875 120.5625 51.7421875 120.7578125 C49.72395833 120.69270833 47.70572917 120.62760417 45.6875 120.5625 C45.460625 119.758125 45.23375 118.95375 45 118.125 C44.566875 117.279375 44.13375 116.43375 43.6875 115.5625 C42.02988472 115.18673347 40.36026611 114.86373483 38.6875 114.5625 C36.28830583 113.66210958 33.92626297 112.73432181 31.5625 111.75 C26.87544476 109.80854113 22.22135478 108.07978677 17.375 106.5625 C12.90336253 104.96832155 12.90336253 104.96832155 11.125 101.625 C10.980625 100.614375 10.83625 99.60375 10.6875 98.5625 C10.36528312 95.75668437 10.36528312 95.75668437 8.6875 93.5625 C6.28089768 92.83728587 3.9068675 92.46721708 1.421875 92.09375 C-2.09377758 91.41070893 -5.01597899 90.05138944 -8.20703125 88.46484375 C-10.55322397 87.45933258 -12.80164526 86.98754871 -15.3125 86.5625 C-15.11914062 87.28953125 -14.92578125 88.0165625 -14.7265625 88.765625 C-13.08521421 95.10350452 -11.74566233 101.4013218 -10.7421875 107.87109375 C-10.348787 110.58363034 -10.348787 110.58363034 -9.6328125 113.28515625 C-9.52710938 114.03667969 -9.42140625 114.78820312 -9.3125 115.5625 C-12.12118032 118.37118032 -14.97580456 118.09236819 -18.75 118.3125 C-19.43126953 118.36792969 -20.11253906 118.42335938 -20.81445312 118.48046875 C-24.61630569 118.72623003 -26.05115796 118.73672803 -29.3125 116.5625 C-28.9825 115.2425 -28.6525 113.9225 -28.3125 112.5625 C-24.8475 111.5725 -24.8475 111.5725 -21.3125 110.5625 C-22.67686935 105.42670319 -24.07623757 100.30620191 -25.625 95.22265625 C-25.8516333 94.47363037 -26.0782666 93.72460449 -26.31176758 92.95288086 C-26.76419987 91.46365801 -27.22221324 89.97611723 -27.6862793 88.49047852 C-28.81027387 84.77695185 -29.79305599 81.44873543 -29.3125 77.5625 C-28.6525 76.5725 -27.9925 75.5825 -27.3125 74.5625 C-27.94865234 73.95728516 -27.94865234 73.95728516 -28.59765625 73.33984375 C-32.85472489 68.933076 -35.63502011 64.38757759 -38.1875 58.875 C-38.63428101 57.91291626 -38.63428101 57.91291626 -39.09008789 56.93139648 C-43.09091007 47.96997361 -43.98564536 37.26601791 -41.25 27.75 C-39.28896859 22.68558877 -35.82845294 18.63715232 -32.3125 14.5625 C-31.9825 15.2225 -31.6525 15.8825 -31.3125 16.5625 C-32.2734375 19.0234375 -32.2734375 19.0234375 -33.6875 21.9375 C-36.03660674 26.806319 -37.3125 30.13513901 -37.3125 35.5625 C-36.3225 35.0675 -36.3225 35.0675 -35.3125 34.5625 C-34.9825 37.5325 -34.6525 40.5025 -34.3125 43.5625 C-34.3125 41.9125 -34.3125 40.2625 -34.3125 38.5625 C-32.33080871 41.53503693 -31.60412948 43.72684475 -30.625 47.125 C-28.53175891 53.52058533 -25.61939917 58.41716759 -21.3125 63.5625 C-20.7040625 64.30371094 -20.095625 65.04492188 -19.46875 65.80859375 C-17.47391898 67.90561898 -15.9319287 69.32052949 -13.3125 70.5625 C-9.42542666 70.53679184 -6.00112253 69.74909732 -2.3125 68.5625 C-2.6425 67.9025 -2.9725 67.2425 -3.3125 66.5625 C-3.44665472 63.8901379 -3.35568541 61.23999512 -3.3125 58.5625 C-3.91578125 58.54832031 -4.5190625 58.53414062 -5.140625 58.51953125 C-11.80239114 58.12197424 -11.80239114 58.12197424 -14.25 55.4375 C-14.930625 54.48875 -15.61125 53.54 -16.3125 52.5625 C-18.8045199 50.67485702 -21.36943176 48.941201 -23.97265625 47.2109375 C-25.99420499 45.78674123 -27.64027041 44.37179759 -29.3125 42.5625 C-28.17095615 37.61580998 -27.11160273 34.91464947 -23.3125 31.5625 C-19.01090683 26.70022909 -16.22549294 21.11447252 -13.19921875 15.41992188 C-5.33604559 0.90612095 -5.33604559 0.90612095 0 0 Z M-33.3125 48.5625 C-32.3125 51.5625 -32.3125 51.5625 -32.3125 51.5625 Z M-36.3125 50.5625 C-35.3125 52.5625 -35.3125 52.5625 -35.3125 52.5625 Z M-32.3125 51.5625 C-31.3125 53.5625 -31.3125 53.5625 -31.3125 53.5625 Z M-22.3125 67.5625 C-21.26375002 70.18437494 -20.66318687 71.35621361 -18.1875 72.8125 C-17.56875 73.06 -16.95 73.3075 -16.3125 73.5625 C-17.95419528 71.54195196 -19.62161778 69.54206942 -21.3125 67.5625 C-21.6425 67.5625 -21.9725 67.5625 -22.3125 67.5625 Z M2.6875 84.5625 C2.6875 85.2225 2.6875 85.8825 2.6875 86.5625 C3.6775 86.8925 4.6675 87.2225 5.6875 87.5625 C5.6875 86.5725 5.6875 85.5825 5.6875 84.5625 C4.6975 84.5625 3.7075 84.5625 2.6875 84.5625 Z " fill="#F05B15" transform="translate(56.3125,3.4375)"/>
<path d="M0 0 C2.6875 0.5625 2.6875 0.5625 3.6875 1.5625 C4.84772709 8.02662233 1.20798245 12.49272862 -2.3125 17.5625 C-6.11177232 22.73944668 -10.06838743 27.80461652 -14.12109375 32.78515625 C-15.56796027 34.56147936 -15.56796027 34.56147936 -15.1875 37.125 C-14.27202916 39.6752402 -13.37949293 40.8549841 -11.3125 42.5625 C-10.77625 42.294375 -10.24 42.02625 -9.6875 41.75 C-8.90375 41.358125 -8.12 40.96625 -7.3125 40.5625 C-6.301875 40.02625 -5.29125 39.49 -4.25 38.9375 C-1.3125 37.5625 -1.3125 37.5625 1.6875 37.5625 C1.625625 36.36625 1.56375 35.17 1.5 33.9375 C1.49268375 29.8184528 2.45499153 27.08299413 4.6875 23.5625 C7.57611709 22.11819145 9.48397701 22.18561494 12.6875 22.5625 C15.5625 24.5 15.5625 24.5 17.6875 27.5625 C18.52669828 32.4246591 18.11964578 36.2549647 15.6875 40.5625 C16.656875 41.2225 17.62625 41.8825 18.625 42.5625 C21.22879408 44.78902225 21.70471856 45.61606887 22.8125 49.0625 C23.1404798 54.13654048 21.22899115 58.71621154 19.5 63.4140625 C18.13357416 68.70896263 19.80515644 73.28631861 21.25 78.4375 C21.51941406 79.40429688 21.78882813 80.37109375 22.06640625 81.3671875 C22.27136719 82.09164062 22.47632813 82.81609375 22.6875 83.5625 C20.31087178 83.4748127 17.93766873 83.36786886 15.5625 83.25 C14.89734375 83.22744141 14.2321875 83.20488281 13.546875 83.18164062 C8.88466364 82.93024687 5.74121866 81.80196695 1.6875 79.5625 C0.1769355 79.07138051 -1.34365228 78.60937397 -2.875 78.1875 C-7.22232553 76.81427386 -9.40455442 75.03327376 -12.3125 71.5625 C-11.02240357 71.05846232 -9.73036211 70.55940074 -8.4375 70.0625 C-7.71820313 69.7840625 -6.99890625 69.505625 -6.2578125 69.21875 C-4.3125 68.5625 -4.3125 68.5625 -2.3125 68.5625 C-2.8075 67.5725 -2.8075 67.5725 -3.3125 66.5625 C-3.44665472 63.8901379 -3.35568541 61.23999512 -3.3125 58.5625 C-3.91578125 58.54832031 -4.5190625 58.53414062 -5.140625 58.51953125 C-11.80239114 58.12197424 -11.80239114 58.12197424 -14.25 55.4375 C-14.930625 54.48875 -15.61125 53.54 -16.3125 52.5625 C-18.8045199 50.67485702 -21.36943176 48.941201 -23.97265625 47.2109375 C-25.99420499 45.78674123 -27.64027041 44.37179759 -29.3125 42.5625 C-28.17095615 37.61580998 -27.11160273 34.91464947 -23.3125 31.5625 C-19.01090683 26.70022909 -16.22549294 21.11447252 -13.19921875 15.41992188 C-5.33604559 0.90612095 -5.33604559 0.90612095 0 0 Z " fill="#134DAE" transform="translate(56.3125,3.4375)"/>
<path d="M0 0 C5.61 0 11.22 0 17 0 C17.33 0.99 17.66 1.98 18 3 C20.12422114 4.04261658 20.12422114 4.04261658 23 5 C26.07752756 6.29886661 29.13063765 7.65332161 32.1875 9 C33.00669922 9.35578125 33.82589844 9.7115625 34.66992188 10.078125 C35.45302734 10.42359375 36.23613281 10.7690625 37.04296875 11.125 C37.75477295 11.43695313 38.46657715 11.74890625 39.19995117 12.0703125 C41 13 41 13 43 15 C43 15.99 43 16.98 43 18 C43.9590625 18.309375 43.9590625 18.309375 44.9375 18.625 C47 20 47 20 47.875 23 C47.91625 23.99 47.9575 24.98 48 26 C46 28 46 28 44.0546875 28.1953125 C42.03645833 28.13020833 40.01822917 28.06510417 38 28 C37.6596875 26.7934375 37.6596875 26.7934375 37.3125 25.5625 C36.879375 24.716875 36.44625 23.87125 36 23 C34.34238472 22.62423347 32.67276611 22.30123483 31 22 C28.60080583 21.09960958 26.23876297 20.17182181 23.875 19.1875 C19.18794476 17.24604113 14.53385478 15.51728677 9.6875 14 C5.20806031 12.39878227 5.20806031 12.39878227 3.5 9.125 C3.335 8.09375 3.17 7.0625 3 6 C2.01 4.02 1.02 2.04 0 0 Z " fill="#144EAB" transform="translate(64,96)"/>
<path d="M0 0 C3 0 3 0 5.0625 1.9375 C5.701875 2.618125 6.34125 3.29875 7 4 C7.66 4.33 8.32 4.66 9 5 C9 5.66 9 6.32 9 7 C10.4540625 7.433125 10.4540625 7.433125 11.9375 7.875 C15 9 15 9 16 11 C14.68 11 13.36 11 12 11 C12.19335938 11.72703125 12.38671875 12.4540625 12.5859375 13.203125 C14.22728579 19.54100452 15.56683767 25.8388218 16.5703125 32.30859375 C16.963713 35.02113034 16.963713 35.02113034 17.6796875 37.72265625 C17.78539063 38.47417969 17.89109375 39.22570312 18 40 C15.19131968 42.80868032 12.33669544 42.52986819 8.5625 42.75 C7.88123047 42.80542969 7.19996094 42.86085937 6.49804688 42.91796875 C2.69619431 43.16373003 1.26134204 43.17422803 -2 41 C-1.67 39.68 -1.34 38.36 -1 37 C1.31 36.34 3.62 35.68 6 35 C4.63563065 29.86420319 3.23626243 24.74370191 1.6875 19.66015625 C1.4608667 18.91113037 1.2342334 18.16210449 1.00073242 17.39038086 C0.54830013 15.90115801 0.09028676 14.41361723 -0.3737793 12.92797852 C-1.49516731 9.22306359 -2.49392414 5.87980992 -2 2 C-1.34 1.34 -0.68 0.68 0 0 Z " fill="#144DAC" transform="translate(29,79)"/>
<path d="M0 0 C0.82757813 0.56203125 1.65515625 1.1240625 2.5078125 1.703125 C6.17861771 4.07486405 9.3955466 5.77063219 13.6328125 6.953125 C14.8084375 7.4790625 14.8084375 7.4790625 16.0078125 8.015625 C27.38797582 12.07996904 43.92127983 11.5922885 55.03125 7.2421875 C59.17471914 5.18911721 62.9503087 2.74290061 66.6328125 -0.046875 C67.6228125 0.448125 67.6228125 0.448125 68.6328125 0.953125 C58.96918521 10.5700681 48.36144552 14.953125 34.6328125 14.953125 C34.6328125 15.943125 34.6328125 16.933125 34.6328125 17.953125 C21.96310863 18.50665575 21.96310863 18.50665575 16.6328125 14.953125 C16.6328125 13.963125 16.6328125 12.973125 16.6328125 11.953125 C15.6428125 11.953125 14.6528125 11.953125 13.6328125 11.953125 C13.6328125 12.613125 13.6328125 13.273125 13.6328125 13.953125 C6.58651536 12.88359776 0.07225017 9.06849145 -4.4921875 3.578125 C-5.1109375 2.711875 -5.7296875 1.845625 -6.3671875 0.953125 C-3.77077029 -0.84163344 -2.97104857 -1.31392907 0 0 Z " fill="#C2A340" transform="translate(45.3671875,76.046875)"/>
<path d="M0 0 C3.37462715 0.54723683 5.08235 1.0549 8 3 C8.33 2.34 8.66 1.68 9 1 C9.44988281 1.50789063 9.89976563 2.01578125 10.36328125 2.5390625 C17.62467141 10.30976861 25.75184274 14.75048648 36.00390625 17.45703125 C38 18 38 18 40 19 C48.48787184 19.60327023 56.66241316 18.50614472 65 17 C56.21223468 23.90467275 45.82813434 23.37798007 35 23 C25.90555066 21.63991286 17.40115204 17.41417608 10 12 C10 11.34 10 10.68 10 10 C9.195625 9.731875 8.39125 9.46375 7.5625 9.1875 C6.716875 8.795625 5.87125 8.40375 5 8 C4.67 7.01 4.34 6.02 4 5 C1.99983534 3.79117904 1.99983534 3.79117904 0 3 C0 2.01 0 1.02 0 0 Z " fill="#ED5818" transform="translate(28,74)"/>
<path d="M0 0 C0.66 0.33 1.32 0.66 2 1 C-6.71224257 9.67015444 -15.68979408 13.95196896 -28 15 C-32.04141524 14.95730899 -36.03546931 14.8220766 -40 14 C-40.33 13.34 -40.66 12.68 -41 12 C-39.69546875 11.90203125 -38.3909375 11.8040625 -37.046875 11.703125 C-23.04333055 10.5499077 -11.47093773 8.69010434 0 0 Z " fill="#EBB50E" transform="translate(112,76)"/>
<path d="M0 0 C0.33 0.66 0.66 1.32 1 2 C0.0390625 4.4609375 0.0390625 4.4609375 -1.375 7.375 C-4.62297542 14.10683732 -5.21946273 19.45471273 -5.62109375 26.90625 C-5.97392892 29.78713099 -6.51390746 31.54523986 -8 34 C-10.80588062 31.19411938 -10.29982542 29.35394546 -10.3125 25.4375 C-10.11031476 14.42963717 -7.14912538 8.28515078 0 0 Z " fill="#F05C19" transform="translate(24,18)"/>
<path d="M0 0 C1.98169129 2.97253693 2.70837052 5.16434475 3.6875 8.5625 C6.96781052 18.58499857 12.77906644 25.5513716 21 32 C20.67 32.99 20.34 33.98 20 35 C9.9969489 29.84691307 4.76264944 21.03679838 1.18359375 10.625 C0.21845356 7.06140544 -0.23032019 3.68512303 0 0 Z " fill="#E8B209" transform="translate(22,42)"/>
<path d="M0 0 C5.61 0 11.22 0 17 0 C14 3 14 3 10.8125 3.1875 C9.4203125 3.0946875 9.4203125 3.0946875 8 3 C8 5.31 8 7.62 8 10 C9.32 10 10.64 10 12 10 C12 10.99 12 11.98 12 13 C9.69 12.67 7.38 12.34 5 12 C4.731875 11.13375 4.46375 10.2675 4.1875 9.375 C2.89559238 5.47869429 2.89559238 5.47869429 0 0 Z " fill="#1151AC" transform="translate(64,96)"/>
<path d="M0 0 C-6.51444639 3.8469926 -11.68553772 4.66639059 -19.1875 4.8125 C-20.15880859 4.85052734 -21.13011719 4.88855469 -22.13085938 4.92773438 C-26.62176867 5.07240383 -30.59963439 5.00390251 -35 4 C-35 3.01 -35 2.02 -35 1 C-34.07888428 1.01571045 -34.07888428 1.01571045 -33.13916016 1.03173828 C-30.30115003 1.07384209 -27.46320599 1.09949622 -24.625 1.125 C-23.17673828 1.15013672 -23.17673828 1.15013672 -21.69921875 1.17578125 C-15.91436807 1.21460575 -10.69290357 0.73355071 -5.07177734 -0.66455078 C-3 -1 -3 -1 0 0 Z " fill="#F25A13" transform="translate(93,92)"/>
<path d="M0 0 C0.66 0 1.32 0 2 0 C2 0.66 2 1.32 2 2 C2.99 2.3403125 2.99 2.3403125 4 2.6875 C6.55021893 3.80322078 8.61934519 4.99164207 10.9375 6.5 C14.18468158 8.58879422 17.25246468 9.96942779 21 11 C20.01 11.495 20.01 11.495 19 12 C19 12.66 19 13.32 19 14 C11.95370286 12.93047276 5.43943767 9.11536645 0.875 3.625 C0.25625 2.75875 -0.3625 1.8925 -1 1 C-0.67 0.67 -0.34 0.34 0 0 Z " fill="#51538C" transform="translate(40,76)"/>
<path d="M0 0 C5.94 0.66 11.88 1.32 18 2 C18 3.32 18 4.64 18 6 C5.33029613 6.55353075 5.33029613 6.55353075 0 3 C0 2.01 0 1.02 0 0 Z " fill="#3B4F98" transform="translate(62,88)"/>
<path d="M0 0 C3 0 3 0 5.0625 1.9375 C5.701875 2.618125 6.34125 3.29875 7 4 C7.66 4.33 8.32 4.66 9 5 C8.67 5.66 8.34 6.32 8 7 C5.525 6.01 5.525 6.01 3 5 C3 5.66 3 6.32 3 7 C2.01 7 1.02 7 0 7 C-0.33 8.32 -0.66 9.64 -1 11 C-1.22174933 9.54364629 -1.42698698 8.08477044 -1.625 6.625 C-1.74101562 5.81289062 -1.85703125 5.00078125 -1.9765625 4.1640625 C-1.98429687 3.44992188 -1.99203125 2.73578125 -2 2 C-1.34 1.34 -0.68 0.68 0 0 Z " fill="#194EA2" transform="translate(29,79)"/>
<path d="M0 0 C0.99 0 1.98 0 3 0 C3 0.66 3 1.32 3 2 C3.804375 2.268125 4.60875 2.53625 5.4375 2.8125 C6.283125 3.204375 7.12875 3.59625 8 4 C8.33 4.99 8.66 5.98 9 7 C7.68 7 6.36 7 5 7 C5 6.34 5 5.68 5 5 C4.34 5 3.68 5 3 5 C3 4.34 3 3.68 3 3 C-0.46941546 3.45822468 -3.67395049 3.89131683 -7 5 C-7 4.01 -7 3.02 -7 2 C-7.99 1.67 -8.98 1.34 -10 1 C-9.36191406 1.01160156 -8.72382812 1.02320312 -8.06640625 1.03515625 C-7.24011719 1.04417969 -6.41382812 1.05320312 -5.5625 1.0625 C-4.32693359 1.07990234 -4.32693359 1.07990234 -3.06640625 1.09765625 C-1.00836062 1.23267348 -1.00836062 1.23267348 0 0 Z " fill="#1A4AB2" transform="translate(79,97)"/>
<path d="M0 0 C0 0.66 0 1.32 0 2 C3.63 2.66 7.26 3.32 11 4 C11 4.33 11 4.66 11 5 C8.60325733 4.88543872 6.20818782 4.75871281 3.8125 4.625 C3.13896484 4.5940625 2.46542969 4.563125 1.77148438 4.53125 C-2.19678975 4.29896078 -5.40729879 3.71612524 -9 2 C-9 1.67 -9 1.34 -9 1 C-2.25 0 -2.25 0 0 0 Z " fill="#33558C" transform="translate(68,82)"/>
<path d="M0 0 C0.33 0.99 0.66 1.98 1 3 C-0.27358732 4.71275535 -1.61423077 6.37667033 -3 8 C-3.70885894 9.31138904 -4.39456452 10.63777017 -5 12 C-6.04745167 6.76274165 -6.04745167 6.76274165 -6 4 C-3.1 0 -3.1 0 0 0 Z " fill="#1151A1" transform="translate(44,30)"/>
<path d="M0 0 C5.61 0 11.22 0 17 0 C14 3 14 3 10.8984375 3.14453125 C9.73570313 3.03496094 8.57296875 2.92539063 7.375 2.8125 C6.20710938 2.71582031 5.03921875 2.61914062 3.8359375 2.51953125 C2.43214844 2.26236328 2.43214844 2.26236328 1 2 C0.67 1.34 0.34 0.68 0 0 Z " fill="#6C5180" transform="translate(64,96)"/>
<path d="M0 0 C0 0.99 0 1.98 0 3 C0.99 3.33 1.98 3.66 3 4 C1.35 4.33 -0.3 4.66 -2 5 C-2 4.34 -2 3.68 -2 3 C-3.32 3 -4.64 3 -6 3 C-6.33 2.01 -6.66 1.02 -7 0 C-4.3333581 -1.33332095 -2.83319697 -0.67102033 0 0 Z " fill="#F4570E" transform="translate(44,82)"/>
<path d="M0 0 C1.98 1.65 3.96 3.3 6 5 C4.68 6.32 3.36 7.64 2 9 C-2.875 7.25 -2.875 7.25 -4 5 C-2.35 5 -0.7 5 1 5 C0.67 3.35 0.34 1.7 0 0 Z " fill="#DF5631" transform="translate(36,75)"/>
<path d="M0 0 C3.465 1.485 3.465 1.485 7 3 C6.360625 3.45375 5.72125 3.9075 5.0625 4.375 C2.90297594 5.83921726 2.90297594 5.83921726 2 8 C-0.64 6.35 -3.28 4.7 -6 3 C-4.68 2.67 -3.36 2.34 -2 2 C-2 2.66 -2 3.32 -2 4 C-0.68 3.67 0.64 3.34 2 3 C1.34 2.67 0.68 2.34 0 2 C0 1.34 0 0.68 0 0 Z " fill="#D95A36" transform="translate(44,83)"/>
<path d="M0 0 C1.98 0.495 1.98 0.495 4 1 C3.01 1 2.02 1 1 1 C1.33 1.66 1.66 2.32 2 3 C4.35599235 3.46751788 4.35599235 3.46751788 7.0625 3.625 C8.44115234 3.73714844 8.44115234 3.73714844 9.84765625 3.8515625 C10.55792969 3.90054688 11.26820312 3.94953125 12 4 C12 4.33 12 4.66 12 5 C10.39773045 5.22245393 8.79303233 5.42746669 7.1875 5.625 C6.29417969 5.74101563 5.40085937 5.85703125 4.48046875 5.9765625 C2 6 2 6 -1 4 C-0.67 2.68 -0.34 1.36 0 0 Z " fill="#16509F" transform="translate(28,116)"/>
<path d="M0 0 C0.33 0 0.66 0 1 0 C1.17942163 3.94727588 1.09350689 6.5980513 -1 10 C-1.99 10 -2.98 10 -4 10 C-3.4359146 6.05140217 -2.2568294 3.29120954 0 0 Z " fill="#0A52AC" transform="translate(42,104)"/>
<path d="M0 0 C0 1.98 0 3.96 0 6 C-3.65316671 4.75023244 -4.78065836 4.32901247 -7 1 C-3.375 -1.125 -3.375 -1.125 0 0 Z " fill="#295497" transform="translate(51,74)"/>
<path d="M0 0 C2.31 0 4.62 0 7 0 C6.34 1.65 5.68 3.3 5 5 C2.525 4.01 2.525 4.01 0 3 C0 2.01 0 1.02 0 0 Z " fill="#1E5AC4" transform="translate(62,43)"/>
<path d="M0 0 C1.65 0 3.3 0 5 0 C5 0.66 5 1.32 5 2 C4.34 2 3.68 2 3 2 C3 3.32 3 4.64 3 6 C2.34 6 1.68 6 1 6 C0.67 4.02 0.34 2.04 0 0 Z " fill="#F3580C" transform="translate(21,64)"/>
<path d="M0 0 C0.99 0.99 1.98 1.98 3 3 C2.6875 6.6875 2.6875 6.6875 2 10 C1.34 9.67 0.68 9.34 0 9 C0 6.03 0 3.06 0 0 Z " fill="#FB5514" transform="translate(15,42)"/>
<path d="M0 0 C0.99 0 1.98 0 3 0 C2.49396008 2.16874252 2.00016187 3.99967627 1 6 C0.34 6 -0.32 6 -1 6 C-1.625 4.125 -1.625 4.125 -2 2 C-1.34 1.34 -0.68 0.68 0 0 Z " fill="#0F50B0" transform="translate(45,26)"/>
<path d="M0 0 C-4.77830905 2.91360308 -7.55106131 3.19876651 -13 2 C-13 1.67 -13 1.34 -13 1 C-11.39796533 0.63631108 -9.79325797 0.28438048 -8.1875 -0.0625 C-7.29417969 -0.25972656 -6.40085937 -0.45695312 -5.48046875 -0.66015625 C-3 -1 -3 -1 0 0 Z " fill="#EF6427" transform="translate(93,92)"/>
<path d="M0 0 C0 0.66 0 1.32 0 2 C0.99 2.33 1.98 2.66 3 3 C2 4 2 4 -0.5625 4.0625 C-1.7690625 4.0315625 -1.7690625 4.0315625 -3 4 C-3 3.34 -3 2.68 -3 2 C-3.66 1.67 -4.32 1.34 -5 1 C-3 0 -3 0 0 0 Z " fill="#F55407" transform="translate(55,89)"/>
<path d="M0 0 C1.98 0.99 3.96 1.98 6 3 C5.67 3.66 5.34 4.32 5 5 C2.525 4.01 2.525 4.01 0 3 C0 3.66 0 4.32 0 5 C-0.66 5 -1.32 5 -2 5 C-1.125 1.125 -1.125 1.125 0 0 Z " fill="#2C4B9F" transform="translate(32,81)"/>
<path d="M0 0 C1.32 0 2.64 0 4 0 C4 0.66 4 1.32 4 2 C4.66 2 5.32 2 6 2 C6 2.66 6 3.32 6 4 C5.01 4.33 4.02 4.66 3 5 C2.01 3.35 1.02 1.7 0 0 Z " fill="#0F57A3" transform="translate(65,98)"/>
<path d="M0 0 C0.99 0 1.98 0 3 0 C3 1.65 3 3.3 3 5 C2.01 5.33 1.02 5.66 0 6 C0 4.02 0 2.04 0 0 Z " fill="#F4560B" transform="translate(17,53)"/>
</svg>
