<?xml version="1.0" encoding="UTF-8"?>
<svg version="1.1" xmlns="http://www.w3.org/2000/svg" width="128" height="128">
<path d="M0 0 C2.10426686 0.14438035 4.20840769 0.29059774 6.3125 0.4375 C8.07013672 0.55931641 8.07013672 0.55931641 9.86328125 0.68359375 C11.98771364 0.83348339 14.09806666 1.01114738 16.21435547 1.25170898 C25.0393823 2.21675662 33.86365768 2.18608658 42.73046875 2.18530273 C45.46630807 2.18747327 48.20173249 2.20563836 50.9375 2.22460938 C61.40666469 2.25681239 71.62182296 1.70958936 82.01367188 0.4309082 C85.3584738 0.03008196 88.62767286 -0.08444168 92 0 C93.67512837 3.66631871 94.25605 6.54099857 94.265625 10.5625 C94.26949219 12.12871094 94.26949219 12.12871094 94.2734375 13.7265625 C94.26570313 14.80679688 94.25796875 15.88703125 94.25 17 C94.26160156 18.62035156 94.26160156 18.62035156 94.2734375 20.2734375 C94.27085938 21.31757812 94.26828125 22.36171875 94.265625 23.4375 C94.26336914 24.38496094 94.26111328 25.33242187 94.25878906 26.30859375 C93.98133791 29.19408577 93.19956812 31.37453014 92 34 C91.42668945 33.93941406 90.85337891 33.87882812 90.26269531 33.81640625 C74.66623204 32.1682857 74.66623204 32.1682857 59 32 C59.515625 33.0725 60.03125 34.145 60.5625 35.25 C61.63240282 37.71477612 62.03572782 38.72132303 61.6875 41.4375 C61.460625 41.953125 61.23375 42.46875 61 43 C59.35 42.67 57.7 42.34 56 42 C55.67 42.99 55.34 43.98 55 45 C53.1875 44.9375 53.1875 44.9375 51 44 C49.25 40.4375 49.25 40.4375 48 37 C46.22293791 39.66559313 45.12451727 42.0280615 44 45 C42.35 44.67 40.7 44.34 39 44 C39 43.34 39 42.68 39 42 C36.525 42.495 36.525 42.495 34 43 C32.78613064 39.35839192 33.3325305 38.66834531 34.9375 35.3125 C35.50791016 34.10013672 35.50791016 34.10013672 36.08984375 32.86328125 C36.39019531 32.24839844 36.69054688 31.63351563 37 31 C32.89573241 31.31118329 28.79160594 31.62419251 24.6875 31.9375 C22.96563477 32.06801758 22.96563477 32.06801758 21.20898438 32.20117188 C14.1333813 32.74236531 7.06499561 33.33426864 0 34 C-1.67512837 30.33368129 -2.25605 27.45900143 -2.265625 23.4375 C-2.26820312 22.39335938 -2.27078125 21.34921875 -2.2734375 20.2734375 C-2.26570312 19.19320312 -2.25796875 18.11296875 -2.25 17 C-2.25773438 15.91976562 -2.26546875 14.83953125 -2.2734375 13.7265625 C-2.27085938 12.68242188 -2.26828125 11.63828125 -2.265625 10.5625 C-2.26336914 9.61503906 -2.26111328 8.66757813 -2.25878906 7.69140625 C-1.98133791 4.80591423 -1.19956812 2.62546986 0 0 Z " fill="#F9E195" transform="translate(18,67)"/>
<path d="M0 0 C1.07636719 0.40283203 2.15273437 0.80566406 3.26171875 1.22070312 C4.35613281 1.64158203 5.45054688 2.06246094 6.578125 2.49609375 C8.77842894 3.33813806 10.98147091 4.17307092 13.1875 5 C14.63334473 5.55602905 14.63334473 5.55602905 16.10839844 6.12329102 C18.83781237 6.93647996 20.99923384 7.09279124 23.828125 6.93359375 C24.323125 8.41859375 24.323125 8.41859375 24.828125 9.93359375 C25.88 10.11921875 25.88 10.11921875 26.953125 10.30859375 C30.00468887 10.9719772 32.88153438 11.9057133 35.828125 12.93359375 C35.828125 14.25359375 35.828125 15.57359375 35.828125 16.93359375 C29.203125 19.93359375 29.203125 19.93359375 25.828125 19.93359375 C25.828125 23.23359375 25.828125 26.53359375 25.828125 29.93359375 C21.078125 31.05859375 21.078125 31.05859375 18.828125 29.93359375 C18.203125 26.87109375 18.203125 26.87109375 17.828125 23.93359375 C15.848125 24.26359375 13.868125 24.59359375 11.828125 24.93359375 C11.88033203 26.18076172 11.88033203 26.18076172 11.93359375 27.453125 C11.96066406 28.53980469 11.98773438 29.62648437 12.015625 30.74609375 C12.06783203 32.36451172 12.06783203 32.36451172 12.12109375 34.015625 C11.828125 36.93359375 11.828125 36.93359375 10.55859375 38.54296875 C4.85622112 43.12546233 -4.57261934 42.2838504 -11.484375 42.24609375 C-12.49387207 42.24335449 -13.50336914 42.24061523 -14.54345703 42.23779297 C-21.60407265 42.13882832 -28.61571973 41.85041385 -35.171875 38.93359375 C-36.55413516 36.16907342 -36.26712887 33.88745745 -36.234375 30.80859375 C-36.22535156 29.71289062 -36.21632813 28.6171875 -36.20703125 27.48828125 C-36.19542969 26.64523438 -36.18382813 25.8021875 -36.171875 24.93359375 C-36.90108154 24.80218994 -37.63028809 24.67078613 -38.3815918 24.53540039 C-40.98291472 23.97434859 -43.32763999 23.23585855 -45.81640625 22.3046875 C-46.65751953 21.99208984 -47.49863281 21.67949219 -48.36523438 21.35742188 C-49.22955078 21.03193359 -50.09386719 20.70644531 -50.984375 20.37109375 C-51.86802734 20.04173828 -52.75167969 19.71238281 -53.66210938 19.37304688 C-55.83330995 18.56324774 -58.00315389 17.75000482 -60.171875 16.93359375 C-60.171875 15.61359375 -60.171875 14.29359375 -60.171875 12.93359375 C-53.93757859 10.61002793 -47.69285564 8.31637912 -41.44018555 6.04272461 C-39.31660513 5.2666175 -37.19545728 4.48381916 -35.0769043 3.6940918 C-32.02234741 2.55679495 -28.95970536 1.44424984 -25.89453125 0.3359375 C-24.95666275 -0.01920425 -24.01879425 -0.37434601 -23.05250549 -0.74024963 C-14.6275962 -3.73874169 -8.32240989 -3.19533458 0 0 Z " fill="#3A4048" transform="translate(76.171875,19.06640625)"/>
<path d="M0 0 C2.82154027 0.11382123 5.64243603 0.23269106 8.46313477 0.3659668 C9.42413086 0.40141602 10.38512695 0.43686523 11.37524414 0.47338867 C27.2299606 1.18968402 27.2299606 1.18968402 33.02563477 5.0534668 C33.41381836 6.97705078 33.41381836 6.97705078 33.42407227 9.29956055 C33.42987305 10.55542969 33.42987305 10.55542969 33.43579102 11.83666992 C33.42418945 12.71258789 33.41258789 13.58850586 33.40063477 14.4909668 C33.41223633 15.36301758 33.42383789 16.23506836 33.43579102 17.13354492 C33.43192383 17.97208008 33.42805664 18.81061523 33.42407227 19.67456055 C33.42068848 20.4421167 33.41730469 21.20967285 33.41381836 22.00048828 C32.91837617 24.62072312 32.14001518 25.45982106 30.02563477 27.0534668 C23.60528324 29.53162999 16.49312645 29.40300367 9.71313477 29.3659668 C8.7036377 29.36322754 7.69414063 29.36048828 6.65405273 29.35766602 C-0.40656289 29.25870137 -7.41820997 28.9702869 -13.97436523 26.0534668 C-15.34689255 23.30841217 -15.10665779 21.05019268 -15.09936523 17.9909668 C-15.10194336 16.90686523 -15.10452148 15.82276367 -15.10717773 14.70581055 C-14.97436523 12.0534668 -14.97436523 12.0534668 -13.97436523 11.0534668 C-13.60675792 8.72528716 -13.27194943 6.3916283 -12.97436523 4.0534668 C-11.98436523 4.0534668 -10.99436523 4.0534668 -9.97436523 4.0534668 C-9.97436523 3.3934668 -9.97436523 2.7334668 -9.97436523 2.0534668 C-8.27280273 1.8369043 -8.27280273 1.8369043 -6.53686523 1.6159668 C-3.59991713 1.15223815 -2.61139611 0.07071791 0 0 Z " fill="#474E5C" transform="translate(54.974365234375,31.946533203125)"/>
<path d="M0 0 C1.67512837 3.66631871 2.25605 6.54099857 2.265625 10.5625 C2.26949219 12.12871094 2.26949219 12.12871094 2.2734375 13.7265625 C2.26570313 14.80679688 2.25796875 15.88703125 2.25 17 C2.26160156 18.62035156 2.26160156 18.62035156 2.2734375 20.2734375 C2.27085938 21.31757812 2.26828125 22.36171875 2.265625 23.4375 C2.26336914 24.38496094 2.26111328 25.33242187 2.25878906 26.30859375 C1.98133791 29.19408577 1.19956812 31.37453014 0 34 C-0.56807373 33.94465088 -1.13614746 33.88930176 -1.72143555 33.83227539 C-4.3766629 33.57434822 -7.0320551 33.3181778 -9.6875 33.0625 C-10.64108398 32.9704126 -11.59466797 32.8783252 -12.57714844 32.78344727 C-18.97963101 32.17232089 -25.37768246 31.64935072 -31.796875 31.24609375 C-34 31 -34 31 -35 30 C-35.23481693 27.81707226 -35.41363323 25.62796826 -35.5625 23.4375 C-35.64628906 22.23996094 -35.73007813 21.04242188 -35.81640625 19.80859375 C-35.87699219 18.88175781 -35.93757813 17.95492187 -36 17 C-36.66 17 -37.32 17 -38 17 C-38.33 12.38 -38.66 7.76 -39 3 C-34.41047768 2.56923105 -29.82063608 2.14210255 -25.23046875 1.71826172 C-23.67080668 1.57374079 -22.11123446 1.42824649 -20.55175781 1.28173828 C-18.30296703 1.07064489 -16.05387036 0.86311888 -13.8046875 0.65625 C-13.1138205 0.59062866 -12.42295349 0.52500732 -11.71115112 0.45739746 C-7.79317119 0.10097298 -3.93358092 -0.06422173 0 0 Z " fill="#F9E196" transform="translate(110,67)"/>
<path d="M0 0 C4.95 0 9.9 0 15 0 C15.85221996 3.40887983 16.10783755 5.80434631 16.0625 9.25 C16.05347656 10.14203125 16.04445313 11.0340625 16.03515625 11.953125 C16.02355469 12.62859375 16.01195313 13.3040625 16 14 C16.66 14 17.32 14 18 14 C19.23180078 16.46360156 19.17711724 18.31229595 19.3125 21.0625 C19.69701695 26.02863422 20.89498976 29.66834318 23.2578125 34.02734375 C24.15978995 36.42470486 23.83984279 37.62398907 23 40 C21.35 39.67 19.7 39.34 18 39 C17.67 39.99 17.34 40.98 17 42 C15.1875 41.9375 15.1875 41.9375 13 41 C11.25 37.4375 11.25 37.4375 10 34 C8.22293791 36.66559313 7.12451727 39.0280615 6 42 C4.35 41.67 2.7 41.34 1 41 C1 40.34 1 39.68 1 39 C-1.475 39.495 -1.475 39.495 -4 40 C-5 37 -5 37 -4.01489258 34.78198242 C-3.54204834 33.91935791 -3.0692041 33.0567334 -2.58203125 32.16796875 C0.6017997 25.48423647 0.57854937 19.60225265 0.3125 12.3125 C0.28994141 11.12205078 0.26738281 9.93160156 0.24414062 8.70507812 C0.18586254 5.80282952 0.0962091 2.90123889 0 0 Z " fill="#DD4E35" transform="translate(56,70)"/>
<path d="M0 0 C1.05960938 -0.020625 2.11921875 -0.04125 3.2109375 -0.0625 C10.46841802 -0.09807588 16.73479442 0.97669505 23.625 3.25 C23.295 4.57 22.965 5.89 22.625 7.25 C15.02601018 9.68826765 8.15674096 10.73776278 0.1875 10.625 C-0.81224854 10.61919922 -1.81199707 10.61339844 -2.84204102 10.60742188 C-10.05158839 10.4807637 -16.55115635 9.71538867 -23.375 7.25 C-23.705 5.93 -24.035 4.61 -24.375 3.25 C-17.75108876 -1.16594083 -7.74481805 0.03741458 0 0 Z " fill="#3A3F4B" transform="translate(64.375,50.75)"/>
<path d="M0 0 C3 1 3 1 4.203125 2.92578125 C4.54859375 3.71339844 4.8940625 4.50101562 5.25 5.3125 C5.78367187 6.48232422 5.78367187 6.48232422 6.328125 7.67578125 C7.0711335 10.24607227 6.88750996 11.51383429 6 14 C3.525 13.505 3.525 13.505 1 13 C0.67 13.99 0.34 14.98 0 16 C-1.8125 15.9375 -1.8125 15.9375 -4 15 C-5.75 11.4375 -5.75 11.4375 -7 8 C-8.77706209 10.66559313 -9.87548273 13.0280615 -11 16 C-12.65 15.67 -14.3 15.34 -16 15 C-16 14.34 -16 13.68 -16 13 C-17.65 13.33 -19.3 13.66 -21 14 C-22.21386936 10.35839192 -21.6674695 9.66834531 -20.0625 6.3125 C-19.68222656 5.50425781 -19.30195312 4.69601563 -18.91015625 3.86328125 C-18.45962891 2.94095703 -18.45962891 2.94095703 -18 2 C-16.33388095 1.957279 -14.66617115 1.95936168 -13 2 C-12.67 2.33 -12.34 2.66 -12 3 C-10.5444063 3.09858603 -9.08392081 3.12972143 -7.625 3.125 C-6.43777344 3.12886719 -6.43777344 3.12886719 -5.2265625 3.1328125 C-2.82656504 3.08617666 -2.82656504 3.08617666 0 2 C0 1.34 0 0.68 0 0 Z " fill="#B93D25" transform="translate(73,96)"/>
<path d="M0 0 C0.99 0.33 1.98 0.66 3 1 C3 1.66 3 2.32 3 3 C4.051875 3.185625 4.051875 3.185625 5.125 3.375 C8.17656387 4.03838345 11.05340938 4.97211955 14 6 C14 7.32 14 8.64 14 10 C7.375 13 7.375 13 4 13 C4 16.3 4 19.6 4 23 C-0.75 24.125 -0.75 24.125 -3 23 C-3.09765625 16.84765625 -3.09765625 16.84765625 -3 15 C-2.67 14.67 -2.34 14.34 -2 14 C-1.79068103 11.83703727 -1.63202931 9.6690529 -1.5 7.5 C-1.11111111 1.11111111 -1.11111111 1.11111111 0 0 Z " fill="#EAD347" transform="translate(98,26)"/>
<path d="M0 0 C1.9375 0.5625 1.9375 0.5625 4 2 C6.37293562 10.70076395 6.12050129 21.55629064 3 30 C2.65864073 31.33130115 2.32074044 32.66358148 2 34 C1.34 34 0.68 34 0 34 C-1.67512837 30.33368129 -2.25605 27.45900143 -2.265625 23.4375 C-2.26820312 22.39335938 -2.27078125 21.34921875 -2.2734375 20.2734375 C-2.26570312 19.19320312 -2.25796875 18.11296875 -2.25 17 C-2.25773438 15.91976562 -2.26546875 14.83953125 -2.2734375 13.7265625 C-2.27085938 12.68242188 -2.26828125 11.63828125 -2.265625 10.5625 C-2.26336914 9.61503906 -2.26111328 8.66757813 -2.25878906 7.69140625 C-1.98133791 4.80591423 -1.19956812 2.62546986 0 0 Z " fill="#E4C157" transform="translate(18,67)"/>
<path d="M0 0 C4.95 0 9.9 0 15 0 C15.9681648 3.8726592 16.07622858 7.03611362 16 11 C15.15695313 11.06058594 14.31390625 11.12117188 13.4453125 11.18359375 C12.34960938 11.26738281 11.25390625 11.35117188 10.125 11.4375 C8.48917969 11.55931641 8.48917969 11.55931641 6.8203125 11.68359375 C4.05271029 11.83001703 4.05271029 11.83001703 2 13 C1.66127487 11.58461283 1.32925376 10.16762037 1 8.75 C0.814375 7.96109375 0.62875 7.1721875 0.4375 6.359375 C0 4 0 4 0 0 Z " fill="#BC4022" transform="translate(56,70)"/>
<path d="M0 0 C4.19469571 0.59924224 8.00999834 1.57499941 12 3 C12 4.32 12 5.64 12 7 C8.37 8.32 4.74 9.64 1 11 C0 10 0 10 -0.09765625 7.71484375 C-0.08605469 6.79832031 -0.07445313 5.88179687 -0.0625 4.9375 C-0.05347656 4.01839844 -0.04445313 3.09929688 -0.03515625 2.15234375 C-0.02355469 1.44207031 -0.01195313 0.73179688 0 0 Z " fill="#3C4043" transform="translate(100,29)"/>
<path d="M0 0 C0.33 0 0.66 0 1 0 C1.01981934 0.62567871 1.03963867 1.25135742 1.06005859 1.89599609 C1.15514226 4.72276519 1.26488746 7.54877815 1.375 10.375 C1.4059375 11.35984375 1.436875 12.3446875 1.46875 13.359375 C1.50742188 14.30039062 1.54609375 15.24140625 1.5859375 16.2109375 C1.6173584 17.08024902 1.6487793 17.94956055 1.68115234 18.84521484 C1.81229433 21.20961794 1.81229433 21.20961794 4 23 C2.02 22.67 0.04 22.34 -2 22 C-2.09765625 15.84765625 -2.09765625 15.84765625 -2 14 C-1.67 13.67 -1.34 13.34 -1 13 C-0.76518307 10.81707226 -0.58636677 8.62796826 -0.4375 6.4375 C-0.35371094 5.23996094 -0.26992187 4.04242188 -0.18359375 2.80859375 C-0.12300781 1.88175781 -0.06242187 0.95492188 0 0 Z " fill="#E5CB51" transform="translate(97,27)"/>
<path d="M0 0 C2.475 0.495 2.475 0.495 5 1 C3.375 7.75 3.375 7.75 0 10 C0 6.7 0 3.4 0 0 Z " fill="#524F3E" transform="translate(100,29)"/>
<path d="M0 0 C0.99 0.33 1.98 0.66 3 1 C2.67 5.29 2.34 9.58 2 14 C1.34 14 0.68 14 0 14 C0 9.38 0 4.76 0 0 Z " fill="#EAC211" transform="translate(98,26)"/>
<path d="M0 0 C1.98 0 3.96 0 6 0 C6.33 1.65 6.66 3.3 7 5 C6.34 5 5.68 5 5 5 C5 4.34 5 3.68 5 3 C4.01 3 3.02 3 2 3 C2 2.34 2 1.68 2 1 C1.34 0.67 0.68 0.34 0 0 Z " fill="#F3E3A0" transform="translate(104,67)"/>
<path d="M0 0 C0.33 0.66 0.66 1.32 1 2 C2.65 2 4.3 2 6 2 C5.34 3.32 4.68 4.64 4 6 C3.34 6 2.68 6 2 6 C2 5.34 2 4.68 2 4 C1.34 4 0.68 4 0 4 C0 2.68 0 1.36 0 0 Z " fill="#F8D08E" transform="translate(72,80)"/>
</svg>
