<?xml version="1.0" encoding="UTF-8"?>
<svg version="1.1" xmlns="http://www.w3.org/2000/svg" width="128" height="128">
<path d="M0 0 C5.56348842 0.15805365 5.56348842 0.15805365 8 1.80859375 C10.10114381 5.14570451 10.2366766 8.19886185 10.37890625 12.0390625 C10.42080078 13.11220703 10.46269531 14.18535156 10.50585938 15.29101562 C10.54517578 16.41056641 10.58449219 17.53011719 10.625 18.68359375 C10.66818359 19.81474609 10.71136719 20.94589844 10.75585938 22.11132812 C10.86199099 24.90612729 10.96404385 27.70101537 11.0625 30.49609375 C11.5575 30.00109375 11.5575 30.00109375 12.0625 29.49609375 C19.37617292 29.02424388 19.37617292 29.02424388 22.0625 30.87109375 C23.0625 32.49609375 23.0625 32.49609375 23.0625 34.49609375 C23.59875 34.00109375 24.135 33.50609375 24.6875 32.99609375 C27.74495535 31.06506932 29.500673 31.05086538 33.0625 31.49609375 C36.1984157 33.2759378 36.90352736 34.01917582 38.0625 37.49609375 C39.0525 36.83609375 40.0425 36.17609375 41.0625 35.49609375 C44.5 35.05859375 44.5 35.05859375 48.0625 35.49609375 C50.44637021 37.60644426 51.85232293 39.33007325 52.42672729 42.51675415 C52.57578949 44.98390723 52.59058801 47.41915092 52.55859375 49.890625 C52.56004898 50.79681076 52.56150421 51.70299652 52.56300354 52.63664246 C52.56134681 54.55051899 52.5498108 56.46440915 52.52905273 58.37817383 C52.50019913 61.28850801 52.50842877 64.19700727 52.52148438 67.10742188 C52.51524309 68.97266501 52.50684911 70.83790243 52.49609375 72.703125 C52.49902939 73.56484818 52.50196503 74.42657135 52.50498962 75.31440735 C52.40535602 81.78790214 51.45602592 87.56670382 47.23046875 92.73828125 C46.57691406 93.27710937 45.92335938 93.8159375 45.25 94.37109375 C44.28126953 95.20253906 44.28126953 95.20253906 43.29296875 96.05078125 C36.47216609 100.47056581 29.0010936 99.82875266 21.1875 99.80859375 C19.32544922 99.83276367 19.32544922 99.83276367 17.42578125 99.85742188 C3.04486968 99.86507944 3.04486968 99.86507944 -2.72387695 94.98486328 C-8.21388487 89.2717458 -11.50626048 82.21363218 -15 75.18359375 C-16.17729351 72.85361463 -17.35566744 70.52418108 -18.53515625 68.1953125 C-19.09605957 67.0717334 -19.65696289 65.9481543 -20.23486328 64.79052734 C-22.34913966 60.69961173 -24.67199622 56.7459017 -27.06420898 52.81176758 C-27.9375 50.49609375 -27.9375 50.49609375 -27.19555664 48.26831055 C-25.58760225 46.00319491 -24.58944677 45.35618459 -21.9375 44.49609375 C-16.92152389 44.04009592 -13.93078398 44.36622252 -9.9375 47.49609375 C-8.58351727 49.14602899 -7.24749745 50.81102335 -5.9375 52.49609375 C-5.93163376 51.90362854 -5.92576752 51.31116333 -5.91972351 50.70074463 C-5.85580627 44.53618365 -5.77139098 38.37214555 -5.67504883 32.20800781 C-5.64178749 29.90729667 -5.61375937 27.60650369 -5.59106445 25.30566406 C-5.55754127 21.99899407 -5.5052254 18.69307487 -5.44921875 15.38671875 C-5.43963387 13.84277435 -5.43963387 13.84277435 -5.42985535 12.26763916 C-5.41006119 11.30694519 -5.39026703 10.34625122 -5.36987305 9.35644531 C-5.35876999 8.51261292 -5.34766693 7.66878052 -5.33622742 6.79937744 C-4.75674238 3.45193161 -3.4155726 0.87455186 0 0 Z " fill="#E0A273" transform="translate(51.9375,26.50390625)"/>
<path d="M0 0 C5.93130494 4.96574367 10.40639881 11.45323479 11.23828125 19.2265625 C11.4870556 27.265902 9.4380103 34.09782021 4.5625 40.5625 C1.80247362 43.18789094 0.63390748 43.46007051 -3 44 C-3.05607422 42.04707031 -3.05607422 42.04707031 -3.11328125 40.0546875 C-3.17896674 38.32809743 -3.24541318 36.60153619 -3.3125 34.875 C-3.34633789 33.59109375 -3.34633789 33.59109375 -3.38085938 32.28125 C-3.59705963 27.17106205 -4.13507468 23.40387801 -7 19 C-10.41234859 16.59584531 -12.38189691 16 -16.5625 16 C-20.6815454 17.19826775 -22.35713671 18.65755525 -25 22 C-25.95572746 24.91552064 -26.17934366 27.71108736 -26.31640625 30.765625 C-26.35830078 31.65507813 -26.40019531 32.54453125 -26.44335938 33.4609375 C-26.48267578 34.38132813 -26.52199219 35.30171875 -26.5625 36.25 C-26.60568359 37.18585937 -26.64886719 38.12171875 -26.69335938 39.0859375 C-26.7991805 41.39048641 -26.90126557 43.69513839 -27 46 C-31.13237764 44.6513881 -33.34731405 42.95618595 -36.1875 39.6875 C-36.86167969 38.92824219 -37.53585938 38.16898438 -38.23046875 37.38671875 C-42.45711338 31.68588019 -43.47556839 24.83494532 -42.7890625 17.85546875 C-41.22456304 10.3724383 -36.97529511 3.97817605 -31.00390625 -0.7421875 C-21.34074924 -6.8075609 -9.37994948 -6.35346693 0 0 Z " fill="#C75238" transform="translate(69,7)"/>
<path d="M0 0 C1.875 0.40625 1.875 0.40625 3.875 2.40625 C4.205 3.06625 4.535 3.72625 4.875 4.40625 C4.215 5.06625 3.555 5.72625 2.875 6.40625 C1.45865167 9.23894666 1.5286995 11.88091438 1.3125 15.03125 C1.22871094 16.21976563 1.14492188 17.40828125 1.05859375 18.6328125 C0.99800781 19.54804687 0.93742187 20.46328125 0.875 21.40625 C-0.775 21.73625 -2.425 22.06625 -4.125 22.40625 C-6.80427341 18.38733988 -6.28101248 16.16463077 -6.125 11.40625 C-6.785 11.40625 -7.445 11.40625 -8.125 11.40625 C-9.4351737 5.21270161 -9.4351737 5.21270161 -8.1875 1.96875 C-5.42919683 -0.12087361 -3.39871992 -0.14994353 0 0 Z " fill="#D29A72" transform="translate(56.125,26.59375)"/>
<path d="M0 0 C2.475 0.495 2.475 0.495 5 1 C5 4.96 5 8.92 5 13 C3.02 13.99 3.02 13.99 1 15 C0 14 0 14 -0.09765625 10.83984375 C-0.08025391 8.90818359 -0.08025391 8.90818359 -0.0625 6.9375 C-0.05347656 5.64714844 -0.04445312 4.35679688 -0.03515625 3.02734375 C-0.02355469 2.02832031 -0.01195312 1.02929688 0 0 Z " fill="#38202F" transform="translate(52,33)"/>
<path d="M0 0 C0.99 0 1.98 0 3 0 C3 5.94 3 11.88 3 18 C2.01 17.67 1.02 17.34 0 17 C0.08378906 15.94039062 0.16757812 14.88078125 0.25390625 13.7890625 C0.35706832 12.40106375 0.45991663 11.01304165 0.5625 9.625 C0.61857422 8.92632812 0.67464844 8.22765625 0.73242188 7.5078125 C1.11499904 3.63471135 1.11499904 3.63471135 0 0 Z " fill="#E3A166" transform="translate(58,31)"/>
<path d="M0 0 C0 0.66 0 1.32 0 2 C-0.99 2.495 -0.99 2.495 -2 3 C-2 4.32 -2 5.64 -2 7 C-2.99 7 -3.98 7 -5 7 C-5.33 7.99 -5.66 8.98 -6 10 C-6.66 8.02 -7.32 6.04 -8 4 C-2.25 0 -2.25 0 0 0 Z " fill="#D6A67D" transform="translate(32,71)"/>
<path d="M0 0 C0.99 0.33 1.98 0.66 3 1 C2.67 4.63 2.34 8.26 2 12 C1.34 12 0.68 12 0 12 C0 8.04 0 4.08 0 0 Z " fill="#0B0946" transform="translate(53,34)"/>
<path d="M0 0 C0.99 0 1.98 0 3 0 C2.67 1.65 2.34 3.3 2 5 C0.35 5 -1.3 5 -3 5 C-1.125 1.125 -1.125 1.125 0 0 Z " fill="#C84E46" transform="translate(35,9)"/>
</svg>
