<?xml version="1.0" encoding="UTF-8"?>
<svg version="1.1" xmlns="http://www.w3.org/2000/svg" width="128" height="128">
<path d="M0 0 C0.99 5.445 0.99 5.445 2 11 C-5.88487476 14.23261781 -14.09111129 16.27398189 -22.3125 18.44921875 C-23.71429021 18.82308026 -25.11598329 19.19730612 -26.51757812 19.57189941 C-31.67721322 20.9481684 -36.83871772 22.31742123 -42 23.6875 C-53.55 26.760625 -65.1 29.83375 -77 33 C-49.94 33.33 -22.88 33.66 5 34 C5 54.13 5 74.26 5 95 C-25.69 95 -56.38 95 -88 95 C-88.375 64.9375 -88.375 64.9375 -88.47802734 55.48022461 C-88.51324554 52.99592022 -88.54916815 50.51162567 -88.5859375 48.02734375 C-88.59729736 46.74605591 -88.60865723 45.46476807 -88.62036133 44.14465332 C-88.71987073 38.00564237 -89.07000635 32.81658488 -91 27 C-91.03780337 25.33376212 -91.04378819 23.66609135 -91 22 C-79.87680529 18.97105244 -68.75049211 15.95387441 -57.62003803 12.95170498 C-52.45188868 11.55732551 -47.28490362 10.15890668 -42.12036133 8.7512207 C-37.13680184 7.39302463 -32.15047269 6.04548689 -27.1620388 4.70530891 C-25.25881502 4.19198684 -23.35662273 3.67482449 -21.45549965 3.15377617 C-18.79367661 2.42494208 -16.12852197 1.70981607 -13.4621582 0.99780273 C-12.67597107 0.77914047 -11.88978394 0.56047821 -11.07977295 0.33518982 C-6.70992385 -0.81427108 -4.58372617 -0.91674523 0 0 Z " fill="#9F48F0" transform="translate(107,17)"/>
<path d="M0 0 C14.59015798 -1.52333436 14.59015798 -1.52333436 20.35546875 2.12109375 C22.88644874 4.63746491 25.07406226 6.99515857 27 10 C27 10.99 27 11.98 27 13 C26.25234375 13.04898438 25.5046875 13.09796875 24.734375 13.1484375 C23.25710937 13.26058594 23.25710937 13.26058594 21.75 13.375 C20.77546875 13.44460937 19.8009375 13.51421875 18.796875 13.5859375 C16.06634573 13.99017787 14.42366635 14.76813652 12 16 C10.68 16 9.36 16 8 16 C8.33 17.65 8.66 19.3 9 21 C0.585 21.495 0.585 21.495 -8 22 C-8 23.98 -8 25.96 -8 28 C14.44 28 36.88 28 60 28 C60 28.33 60 28.66 60 29 C46.8 29.33 33.6 29.66 20 30 C22.97 30.33 25.94 30.66 29 31 C28.67 31.99 28.34 32.98 28 34 C36.91 34 45.82 34 55 34 C55 34.66 55 35.32 55 36 C34.21 36 13.42 36 -8 36 C-8 37.32 -8 38.64 -8 40 C-2.39 40 3.22 40 9 40 C9.375 47.875 9.375 47.875 9.47802734 50.35107422 C9.58495779 54.63711588 9.58495779 54.63711588 12 58 C14.03467434 58.27686065 14.03467434 58.27686065 16.3515625 58.1953125 C17.62773438 58.18564453 17.62773438 58.18564453 18.9296875 58.17578125 C19.81914063 58.15902344 20.70859375 58.14226562 21.625 58.125 C22.5221875 58.11597656 23.419375 58.10695312 24.34375 58.09765625 C26.56276586 58.0740497 28.78125077 58.0411231 31 58 C31.33 58.66 31.66 59.32 32 60 C14.84 60 -2.32 60 -20 60 C-20 44.49 -20 28.98 -20 13 C-10.1 13 -0.2 13 10 13 C5.12042054 7.38734019 5.12042054 7.38734019 0 2 C0 1.34 0 0.68 0 0 Z " fill="#9E46F5" transform="translate(40,51)"/>
<path d="M0 0 C0.99 5.445 0.99 5.445 2 11 C-5.88487335 14.23261723 -14.09123694 16.27376736 -22.3125 18.44921875 C-23.89299746 18.87056398 -25.47339967 19.29226666 -27.05371094 19.71430969 C-31.18893874 20.81765857 -35.32543276 21.91618363 -39.46221924 23.01367188 C-43.6930439 24.13703473 -47.92263927 25.26500636 -52.15234375 26.39257812 C-60.43370695 28.59953677 -68.71641503 30.8013953 -77 33 C-76.30599594 33.0519754 -75.61199188 33.10395081 -74.8969574 33.15750122 C-73.9905098 33.2345932 -73.08406219 33.31168518 -72.15014648 33.39111328 C-70.7997654 33.50001389 -70.7997654 33.50001389 -69.42210388 33.6111145 C-67 34 -67 34 -64.59765625 35.7421875 C-64.09105469 36.44601563 -63.58445312 37.14984375 -63.0625 37.875 C-62.27552734 38.92300781 -62.27552734 38.92300781 -61.47265625 39.9921875 C-60.98667969 40.65476563 -60.50070313 41.31734375 -60 42 C-59.44183594 42.53882813 -58.88367187 43.07765625 -58.30859375 43.6328125 C-57 45 -57 45 -57 47 C-67.23 47 -77.46 47 -88 47 C-88.33 42.71 -88.66 38.42 -89 34 C-89.62298961 31.65462736 -90.27617509 29.31623971 -91 27 C-91.03632858 25.33372931 -91.04221618 23.66613192 -91 22 C-79.87680529 18.97105244 -68.75049211 15.95387441 -57.62003803 12.95170498 C-52.45188868 11.55732551 -47.28490362 10.15890668 -42.12036133 8.7512207 C-37.13680184 7.39302463 -32.15047269 6.04548689 -27.1620388 4.70530891 C-25.25881502 4.19198684 -23.35662273 3.67482449 -21.45549965 3.15377617 C-18.79367661 2.42494208 -16.12852197 1.70981607 -13.4621582 0.99780273 C-12.67597107 0.77914047 -11.88978394 0.56047821 -11.07977295 0.33518982 C-6.70992385 -0.81427108 -4.58372617 -0.91674523 0 0 Z " fill="#6D23BF" transform="translate(107,17)"/>
<path d="M0 0 C0.66 3.63 1.32 7.26 2 11 C-3.79912775 13.27108903 -9.59493053 15.09300296 -15.609375 16.69921875 C-16.49860657 16.9391304 -17.38783813 17.17904205 -18.30401611 17.42622375 C-20.16910312 17.92814586 -22.03473356 18.4280526 -23.90087891 18.92602539 C-26.75736969 19.68946967 -29.61114463 20.4625225 -32.46484375 21.23632812 C-34.28369859 21.72453831 -36.1027039 22.21218834 -37.921875 22.69921875 C-39.19850006 23.04601936 -39.19850006 23.04601936 -40.50091553 23.39982605 C-41.2956427 23.61037125 -42.09036987 23.82091644 -42.90917969 24.0378418 C-43.6045282 24.224207 -44.29987671 24.4105722 -45.01629639 24.60258484 C-47 25 -47 25 -51 25 C-50.34 23.02 -49.68 21.04 -49 19 C-48.34 19 -47.68 19 -47 19 C-46.9175 18.278125 -46.835 17.55625 -46.75 16.8125 C-45.7958523 13.23444614 -44.61779332 11.64028251 -42 9 C-39.3214383 7.73282658 -36.55756624 7.01605329 -33.69140625 6.2890625 C-32.88767075 6.07180511 -32.08393524 5.85454773 -31.25584412 5.63070679 C-29.5611438 5.17686924 -27.86403599 4.73193905 -26.16479492 4.29541016 C-23.56892529 3.6266553 -20.9828767 2.92707518 -18.39648438 2.22265625 C-16.74528124 1.78460872 -15.09360236 1.34834979 -13.44140625 0.9140625 C-12.67043106 0.70584869 -11.89945587 0.49763489 -11.1051178 0.28311157 C-6.74347452 -0.82093759 -4.5568821 -0.91137642 0 0 Z " fill="#6E26BA" transform="translate(107,17)"/>
<path d="M0 0 C13.91724179 -1.78087928 13.91724179 -1.78087928 18.98291016 1.14550781 C22.89053317 4.27538475 26.08493024 7.94473917 29 12 C29 12.66 29 13.32 29 14 C22.73 14 16.46 14 10 14 C10 14.66 10 15.32 10 16 C15.94 16 21.88 16 28 16 C27.01 17.65 26.02 19.3 25 21 C22.28332853 21.45760061 20.19522255 21.58717896 17.48828125 21.48828125 C16.76005661 21.48120651 16.03183197 21.47413177 15.28153992 21.46684265 C12.95747763 21.43887081 10.6358327 21.3761365 8.3125 21.3125 C6.73636295 21.28742031 5.16018809 21.26460655 3.58398438 21.24414062 C-0.27827398 21.18903626 -4.13872732 21.10275228 -8 21 C-8.33 19.35 -8.66 17.7 -9 16 C-6.69 15.34 -4.38 14.68 -2 14 C-2 13.67 -2 13.34 -2 13 C1.96 13 5.92 13 10 13 C7.74503349 9.24172249 6.33274902 7.11195504 3.3125 4.25 C2.19235549 3.1831957 1.08336187 2.10413867 0 1 C0 0.67 0 0.34 0 0 Z " fill="#9F48EC" transform="translate(57,51)"/>
<path d="M0 0 C22.11 0 44.22 0 67 0 C67.495 2.475 67.495 2.475 68 5 C45.56 5 23.12 5 0 5 C0 3.35 0 1.7 0 0 Z " fill="#BF77B1" transform="translate(32,73)"/>
<path d="M0 0 C-0.433125 0.8353125 -0.433125 0.8353125 -0.875 1.6875 C-2.0413253 4.08494645 -3.0339881 6.51596939 -4 9 C-4.66 9 -5.32 9 -6 9 C-6.66 11.31 -7.32 13.62 -8 16 C-13.61 17.32 -19.22 18.64 -25 20 C-24.67 18.35 -24.34 16.7 -24 15 C-23.34 15 -22.68 15 -22 15 C-21.87625 14.2265625 -21.87625 14.2265625 -21.75 13.4375 C-19.60794639 6.47582575 -19.60794639 6.47582575 -17 4 C-11.58818617 1.78490198 -5.88086087 0 0 0 Z " fill="#6C25BA" transform="translate(64,27)"/>
<path d="M0 0 C14.59015798 -1.52333436 14.59015798 -1.52333436 20.35546875 2.12109375 C22.88644874 4.63746491 25.07406226 6.99515857 27 10 C27 10.99 27 11.98 27 13 C13.86277618 14.63185089 13.86277618 14.63185089 9.16259766 11.95263672 C5.569071 9.09479269 2.64809956 5.73651336 0 2 C0 1.34 0 0.68 0 0 Z " fill="#7126B7" transform="translate(40,51)"/>
<path d="M0 0 C-5.39744886 14.20381278 -5.39744886 14.20381278 -11.765625 17.37890625 C-15.97018465 18.54246754 -19.6305753 19 -24 19 C-23.34 17.02 -22.68 15.04 -22 13 C-21.34 13 -20.68 13 -20 13 C-19.9175 12.278125 -19.835 11.55625 -19.75 10.8125 C-18.76411194 7.11541978 -17.8670417 5.59399011 -15 3 C-10.02078456 1.10063362 -5.33219004 0 0 0 Z " fill="#F9C30A" transform="translate(80,23)"/>
<path d="M0 0 C16.06550556 -1.22403852 16.06550556 -1.22403852 20.6484375 1.67578125 C22.34732953 3.70480732 23.66950879 5.71853475 25 8 C25.54785156 8.54011719 26.09570312 9.08023438 26.66015625 9.63671875 C28 11 28 11 28 13 C14.97459575 14.78520769 14.97459575 14.78520769 10.06445312 11.83837891 C6.20168483 8.67078308 3.00929801 4.97250134 0 1 C0 0.67 0 0.34 0 0 Z " fill="#6F26B6" transform="translate(74,51)"/>
<path d="M0 0 C15.2952577 -1.77518231 15.2952577 -1.77518231 20.578125 2.37890625 C23.39190495 5.02266394 25.79693348 7.83101015 28 11 C28 11.66 28 12.32 28 13 C14.97459575 14.78520769 14.97459575 14.78520769 10.06445312 11.83837891 C6.20168483 8.67078308 3.00929801 4.97250134 0 1 C0 0.67 0 0.34 0 0 Z " fill="#F7BD11" transform="translate(57,51)"/>
<path d="M0 0 C0.33 0.66 0.66 1.32 1 2 C0.00390625 4.1640625 0.00390625 4.1640625 -1.4375 6.625 C-1.91058594 7.44226562 -2.38367188 8.25953125 -2.87109375 9.1015625 C-3.24363281 9.72804688 -3.61617187 10.35453125 -4 11 C-4.66 11 -5.32 11 -6 11 C-6.33 12.65 -6.66 14.3 -7 16 C-8.41396902 16.50757862 -9.83131729 17.00574925 -11.25 17.5 C-12.03890625 17.7784375 -12.8278125 18.056875 -13.640625 18.34375 C-16 19 -16 19 -20 19 C-20 18.34 -20 17.68 -20 17 C-20.66 17 -21.32 17 -22 17 C-20.66763468 12.03391108 -19.11435363 7.25522615 -15 4 C-10.07571811 2.20982929 -5.129174 1.03873838 0 0 Z " fill="#F7BE11" transform="translate(46,31)"/>
<path d="M0 0 C0.66 3.63 1.32 7.26 2 11 C-12.51012146 16.70040486 -12.51012146 16.70040486 -18 15 C-16 11.66666667 -14 8.33333333 -12 5 C-11.47792969 4.08347656 -10.95585938 3.16695312 -10.41796875 2.22265625 C-9 0 -9 0 -7.125 -0.875 C-5 -1 -5 -1 0 0 Z " fill="#F8BE11" transform="translate(107,17)"/>
<path d="M0 0 C6.6 0 13.2 0 20 0 C20 4.29 20 8.58 20 13 C16.36734067 13.65506972 14.5072924 13.92692728 11 13 C6.83398586 9.74730434 3.30794364 6.1179261 0 2 C0 1.34 0 0.68 0 0 Z " fill="#F4B818" transform="translate(92,51)"/>
<path d="M0 0 C10.35609597 -1.22436603 10.35609597 -1.22436603 14.25 1.67578125 C15.97708524 3.71180631 17.4901391 5.80039763 19 8 C19.55558594 8.54011719 20.11117187 9.08023438 20.68359375 9.63671875 C22 11 22 11 22 13 C16.72 13 11.44 13 6 13 C5.34 10.69 4.68 8.38 4 6 C3.01193007 4.04620942 3.01193007 4.04620942 1.875 2.5625 C1.25625 1.716875 0.6375 0.87125 0 0 Z " fill="#F8BE13" transform="translate(28,51)"/>
<path d="M0 0 C21.78 0 43.56 0 66 0 C66 0.66 66 1.32 66 2 C50.82 2 35.64 2 20 2 C20 7.28 20 12.56 20 18 C19.34 18 18.68 18 18 18 C18 12.72 18 7.44 18 2 C12.06 2 6.12 2 0 2 C0 1.34 0 0.68 0 0 Z " fill="#ECAB36" transform="translate(32,88)"/>
<path d="M0 0 C4.18297144 2.59488056 7.25544438 5.05897203 10.375 8.9375 C11.06335937 9.77152344 11.75171875 10.60554688 12.4609375 11.46484375 C14.16782914 14.27644953 14.33474228 15.77377696 14 19 C13.34 18.67 12.68 18.34 12 18 C9.44014782 17.7275833 6.88070064 17.55435019 4.3125 17.37890625 C2 17 2 17 0 15 C-0.14497985 12.41935871 -0.18677545 9.95056116 -0.125 7.375 C-0.11597656 6.66859375 -0.10695313 5.9621875 -0.09765625 5.234375 C-0.07407603 3.48943902 -0.03820461 1.74467705 0 0 Z " fill="#AA54EE" transform="translate(20,44)"/>
<path d="M0 0 C9.57 0 19.14 0 29 0 C29 5.28 29 10.56 29 16 C28.01 16 27.02 16 26 16 C26 11.05 26 6.1 26 1 C17.75 1 9.5 1 1 1 C1 5.95 1 10.9 1 16 C0.67 16 0.34 16 0 16 C0 10.72 0 5.44 0 0 Z " fill="#C881A2" transform="translate(52,90)"/>
<path d="M0 0 C23.1 0 46.2 0 70 0 C69.34 0.99 68.68 1.98 68 3 C67.34 3 66.68 3 66 3 C66 2.34 66 1.68 66 1 C44.22 1 22.44 1 0 1 C0 0.67 0 0.34 0 0 Z " fill="#AC56CC" transform="translate(32,87)"/>
<path d="M0 0 C0.33 0 0.66 0 1 0 C1.06058594 1.07121094 1.12117188 2.14242187 1.18359375 3.24609375 C1.26798537 4.64324391 1.35263406 6.04037857 1.4375 7.4375 C1.47681641 8.14455078 1.51613281 8.85160156 1.55664062 9.58007812 C1.47624438 13.08690419 1.47624438 13.08690419 3 16 C5.54869892 16.24273323 8.09604532 16.38366867 10.65234375 16.5234375 C13 17 13 17 15 20 C10.05 20 5.1 20 0 20 C-1.20535714 5.80357143 -1.20535714 5.80357143 0 0 Z " fill="#7829C4" transform="translate(19,44)"/>
<path d="M0 0 C7.26 0 14.52 0 22 0 C21.34 1.98 20.68 3.96 20 6 C19.67 4.68 19.34 3.36 19 2 C12.73 2 6.46 2 0 2 C0 1.34 0 0.68 0 0 Z " fill="#9F45FD" transform="translate(56,91)"/>
<path d="M0 0 C0.33 0.66 0.66 1.32 1 2 C0.195625 2.45375 -0.60875 2.9075 -1.4375 3.375 C-4.08856572 4.74725665 -4.08856572 4.74725665 -5 7 C-7.375 6.8125 -7.375 6.8125 -10 6 C-11.3125 3.4375 -11.3125 3.4375 -12 1 C-10.02 1.66 -8.04 2.32 -6 3 C-6 2.34 -6 1.68 -6 1 C-4.02 0.67 -2.04 0.34 0 0 Z " fill="#7121C1" transform="translate(60,57)"/>
<path d="M0 0 C6 6 6 6 6.0625 8.5625 C6.041875 9.366875 6.02125 10.17125 6 11 C3.69 10.01 1.38 9.02 -1 8 C-1 6.68 -1 5.36 -1 4 C-0.34 4 0.32 4 1 4 C0.67 2.68 0.34 1.36 0 0 Z " fill="#BB72C1" transform="translate(28,52)"/>
<path d="M0 0 C5.61 0 11.22 0 17 0 C17 0.33 17 0.66 17 1 C13.04 1 9.08 1 5 1 C5 2.32 5 3.64 5 5 C3.02 5.99 3.02 5.99 1 7 C0.67 4.69 0.34 2.38 0 0 Z " fill="#9C40FD" transform="translate(82,91)"/>
<path d="M0 0 C0.33 1.32 0.66 2.64 1 4 C0.34 4 -0.32 4 -1 4 C-1 4.99 -1 5.98 -1 7 C-1.66 7 -2.32 7 -3 7 C-2.34 8.98 -1.68 10.96 -1 13 C-2.98 13.33 -4.96 13.66 -7 14 C-6.67 12.35 -6.34 10.7 -6 9 C-5.34 9 -4.68 9 -4 9 C-3.896875 8.443125 -3.79375 7.88625 -3.6875 7.3125 C-2.86866423 4.55823422 -1.54146219 2.41272343 0 0 Z " fill="#843897" transform="translate(46,33)"/>
<path d="M0 0 C1.42944945 2.35438733 2.08661261 3.48032433 1.625 6.25 C1.41875 6.8275 1.2125 7.405 1 8 C-0.32 8 -1.64 8 -3 8 C-3.33 9.32 -3.66 10.64 -4 12 C-4.66 12 -5.32 12 -6 12 C-4.68139111 7.38486888 -2.78644563 3.90102388 0 0 Z " fill="#844099" transform="translate(78,26)"/>
<path d="M0 0 C0.66 1.32 1.32 2.64 2 4 C1.01 4.86625 1.01 4.86625 0 5.75 C-2.44290923 7.99653977 -2.44290923 7.99653977 -2 12 C-3.32 12 -4.64 12 -6 12 C-5.34 10.02 -4.68 8.04 -4 6 C-3.34 6 -2.68 6 -2 6 C-1.855625 5.195625 -1.71125 4.39125 -1.5625 3.5625 C-1 1 -1 1 0 0 Z " fill="#E6AD35" transform="translate(62,30)"/>
<path d="M0 0 C1.4540625 0.0309375 1.4540625 0.0309375 2.9375 0.0625 C2.9375 1.3825 2.9375 2.7025 2.9375 4.0625 C0.6275 4.7225 -1.6825 5.3825 -4.0625 6.0625 C-4.105221 4.39638095 -4.10313832 2.72867115 -4.0625 1.0625 C-3.0625 0.0625 -3.0625 0.0625 0 0 Z " fill="#6723BF" transform="translate(85.0625,51.9375)"/>
<path d="M0 0 C0.66 0.33 1.32 0.66 2 1 C2 1.66 2 2.32 2 3 C1.34 3 0.68 3 0 3 C0 4.32 0 5.64 0 7 C1.32 7.33 2.64 7.66 4 8 C1.03 8 -1.94 8 -5 8 C-4.34 7.67 -3.68 7.34 -3 7 C-2.65846063 5.33499557 -2.32550502 3.66821323 -2 2 C-1.34 1.34 -0.68 0.68 0 0 Z " fill="#9C4AF3" transform="translate(27,53)"/>
<path d="M0 0 C2.97 1.98 2.97 1.98 6 4 C5.67 4.66 5.34 5.32 5 6 C2.4375 6.625 2.4375 6.625 0 7 C0 4.69 0 2.38 0 0 Z " fill="#B76AD8" transform="translate(20,44)"/>
<path d="M0 0 C-1.2491742 3.45925163 -2.67527795 6.14693203 -5 9 C-5 7.35 -5 5.7 -5 4 C-4.34 4 -3.68 4 -3 4 C-3 3.34 -3 2.68 -3 2 C-5.31 2.33 -7.62 2.66 -10 3 C-6.59538535 1.23899242 -3.90650339 0 0 0 Z " fill="#702EAC" transform="translate(30,36)"/>
<path d="M0 0 C2 1.3125 2 1.3125 4 3 C4 3.99 4 4.98 4 6 C2.35 6 0.7 6 -1 6 C-0.67 4.02 -0.34 2.04 0 0 Z " fill="#7834A2" transform="translate(63,58)"/>
<path d="M0 0 C4.95 0 9.9 0 15 0 C15 0.33 15 0.66 15 1 C11.37 1 7.74 1 4 1 C3.67 1.99 3.34 2.98 3 4 C2.01 2.68 1.02 1.36 0 0 Z " fill="#F6C21D" transform="translate(57,51)"/>
<path d="M0 0 C1.32 0 2.64 0 4 0 C3.67 1.32 3.34 2.64 3 4 C0.69 4.33 -1.62 4.66 -4 5 C-3.67 4.34 -3.34 3.68 -3 3 C-2.01 3 -1.02 3 0 3 C0 2.01 0 1.02 0 0 Z " fill="#C07E65" transform="translate(105,25)"/>
<path d="M0 0 C1.98 0 3.96 0 6 0 C5.01 0.495 5.01 0.495 4 1 C4.33 2.65 4.66 4.3 5 6 C3.2925002 4.71937515 1.62626404 3.38232443 0 2 C0 1.34 0 0.68 0 0 Z " fill="#772DA5" transform="translate(40,51)"/>
</svg>
