<?xml version="1.0" encoding="UTF-8"?>
<svg version="1.1" xmlns="http://www.w3.org/2000/svg" width="128" height="128">
<path d="M0 0 C6.6 0 13.2 0 20 0 C20.66 1.32 21.32 2.64 22 4 C25.54588501 5.29920746 25.54588501 5.29920746 29 6 C29.495 8.475 29.495 8.475 30 11 C33.96 11 37.92 11 42 11 C42 16.61 42 22.22 42 28 C42.99 28 43.98 28 45 28 C45 30.31 45 32.62 45 35 C46.98 35.495 46.98 35.495 49 36 C49.1875 38.875 49.1875 38.875 49 42 C48.01 42.66 47.02 43.32 46 44 C45.49095616 46.4157113 45.49095616 46.4157113 45.48828125 49.2265625 C45.43510742 50.7734375 45.43510742 50.7734375 45.38085938 52.3515625 C45.35830078 53.43179688 45.33574219 54.51203125 45.3125 55.625 C45.27833984 56.71296875 45.24417969 57.8009375 45.20898438 58.921875 C45.12631666 61.61448063 45.05722913 64.30675291 45 67 C46.98 67.495 46.98 67.495 49 68 C48.505 69.485 48.505 69.485 48 71 C47.01 71 46.02 71 45 71 C45 75.29 45 79.58 45 84 C46.98 84.495 46.98 84.495 49 85 C48.505 86.485 48.505 86.485 48 88 C47.01 88 46.02 88 45 88 C45 91.96 45 95.92 45 100 C48.3 100 51.6 100 55 100 C55 101.32 55 102.64 55 104 C25.3 104 -4.4 104 -35 104 C-35 102.68 -35 101.36 -35 100 C-31.7 100 -28.4 100 -25 100 C-25 96.04 -25 92.08 -25 88 C-26.32 87.67 -27.64 87.34 -29 87 C-28.67 86.01 -28.34 85.02 -28 84 C-27.01 84 -26.02 84 -25 84 C-25 79.71 -25 75.42 -25 71 C-26.32 70.67 -27.64 70.34 -29 70 C-28.67 69.01 -28.34 68.02 -28 67 C-27.01 67 -26.02 67 -25 67 C-25.08058849 63.20744328 -25.19345317 59.41652908 -25.3125 55.625 C-25.33505859 54.54476562 -25.35761719 53.46453125 -25.38085938 52.3515625 C-25.41630859 51.3203125 -25.45175781 50.2890625 -25.48828125 49.2265625 C-25.51446533 48.27346191 -25.54064941 47.32036133 -25.56762695 46.33837891 C-25.71031006 45.56671387 -25.85299316 44.79504883 -26 44 C-26.99 43.34 -27.98 42.68 -29 42 C-29.1875 38.375 -29.1875 38.375 -29 35 C-27.68 35 -26.36 35 -25 35 C-25 32.69 -25 30.38 -25 28 C-24.01 28 -23.02 28 -22 28 C-22 22.39 -22 16.78 -22 11 C-18.04 11 -14.08 11 -10 11 C-9.67 9.35 -9.34 7.7 -9 6 C-7.1875 4.9609375 -7.1875 4.9609375 -5 4.375 C-2.84359622 3.83475519 -2.84359622 3.83475519 -1 3 C-0.67 2.01 -0.34 1.02 0 0 Z M-1.2578125 61.6015625 C-2.22711336 63.03178965 -3.12104679 64.51254072 -4 66 C-2.515 66.99 -2.515 66.99 -1 68 C-1 68.66 -1 69.32 -1 70 C-1.99 70.33 -2.98 70.66 -4 71 C-4 75.29 -4 79.58 -4 84 C-3.01 84.33 -2.02 84.66 -1 85 C-1 85.66 -1 86.32 -1 87 C-1.99 87.33 -2.98 87.66 -4 88 C-4 91.96 -4 95.92 -4 100 C5.24 100 14.48 100 24 100 C24 96.04 24 92.08 24 88 C23.01 87.67 22.02 87.34 21 87 C21 86.34 21 85.68 21 85 C21.99 84.67 22.98 84.34 24 84 C24 79.71 24 75.42 24 71 C23.01 70.67 22.02 70.34 21 70 C21 69.34 21 68.68 21 68 C21.66 67.67 22.32 67.34 23 67 C22.58565093 62.16592748 20.62206046 60.10462326 17 57 C9.77308237 54.59102746 3.64382254 55.36035019 -1.2578125 61.6015625 Z " fill="#FCB05B" transform="translate(54,12)"/>
<path d="M0 0 C6.6 0 13.2 0 20 0 C20.66 1.32 21.32 2.64 22 4 C25.54588501 5.29920746 25.54588501 5.29920746 29 6 C29.495 8.475 29.495 8.475 30 11 C33.96 11 37.92 11 42 11 C42 16.61 42 22.22 42 28 C20.88 28 -0.24 28 -22 28 C-22 22.39 -22 16.78 -22 11 C-18.04 11 -14.08 11 -10 11 C-9.67 9.35 -9.34 7.7 -9 6 C-7.1875 4.9609375 -7.1875 4.9609375 -5 4.375 C-2.84359622 3.83475519 -2.84359622 3.83475519 -1 3 C-0.67 2.01 -0.34 1.02 0 0 Z " fill="#C56C22" transform="translate(54,12)"/>
<path d="M0 0 C8.91 0 17.82 0 27 0 C27 1.32 27 2.64 27 4 C26.01 4 25.02 4 24 4 C24 8.29 24 12.58 24 17 C25.32 17.33 26.64 17.66 28 18 C27.505 19.485 27.505 19.485 27 21 C26.01 21 25.02 21 24 21 C24 24.96 24 28.92 24 33 C43.47 33 62.94 33 83 33 C83 34.32 83 35.64 83 37 C53.3 37 23.6 37 -7 37 C-7 35.68 -7 34.36 -7 33 C-3.7 33 -0.4 33 3 33 C3 29.04 3 25.08 3 21 C1.68 20.67 0.36 20.34 -1 20 C-0.67 19.01 -0.34 18.02 0 17 C0.99 17 1.98 17 3 17 C3 12.71 3 8.42 3 4 C1.68 3.67 0.36 3.34 -1 3 C-0.67 2.01 -0.34 1.02 0 0 Z " fill="#E39142" transform="translate(26,79)"/>
<path d="M0 0 C23.1 0 46.2 0 70 0 C70 2.64 70 5.28 70 8 C46.9 8 23.8 8 0 8 C0 5.36 0 2.72 0 0 Z " fill="#FBAC58" transform="translate(29,40)"/>
<path d="M0 0 C10.02227763 -0.0231241 20.04454897 -0.04091543 30.0668478 -0.05181217 C34.72011186 -0.05704085 39.37335774 -0.06413823 44.02661133 -0.07543945 C48.51344546 -0.08626886 53.00026204 -0.09227695 57.48710823 -0.09487724 C59.20280293 -0.0967314 60.91849662 -0.10035182 62.63418388 -0.10573006 C65.02884913 -0.11294121 67.42344096 -0.11399091 69.81811523 -0.11352539 C70.53452682 -0.11712067 71.25093842 -0.12071594 71.98905945 -0.12442017 C76.88594784 -0.11405216 76.88594784 -0.11405216 78 1 C78.04080783 2.99958364 78.04254356 5.00045254 78 7 C74.36841487 9.27969821 71.3073418 9.25337399 67.07592773 9.25878906 C66.04352463 9.26404602 66.04352463 9.26404602 64.99026489 9.26940918 C62.72127113 9.27819277 60.45259054 9.27239006 58.18359375 9.265625 C56.60465943 9.26697247 55.02572551 9.26891368 53.4467926 9.27142334 C50.1406763 9.27436989 46.83466817 9.27009148 43.52856445 9.26074219 C39.28925452 9.24933853 35.05019757 9.25591577 30.81089687 9.26788712 C27.55184519 9.27511041 24.29285361 9.2728158 21.03380013 9.26763153 C19.47047966 9.26629682 17.90715375 9.26793652 16.34383965 9.27259064 C14.16063834 9.27766466 11.97784837 9.26993406 9.79467773 9.25878906 C7.93080666 9.25640228 7.93080666 9.25640228 6.02928162 9.25396729 C3 9 3 9 0 7 C-0.1875 3.375 -0.1875 3.375 0 0 Z " fill="#C56C22" transform="translate(25,47)"/>
<path d="M0 0 C8.91 0 17.82 0 27 0 C27 1.32 27 2.64 27 4 C26.01 4 25.02 4 24 4 C24.01160156 4.85464844 24.02320312 5.70929688 24.03515625 6.58984375 C24.04417969 7.69457031 24.05320312 8.79929687 24.0625 9.9375 C24.07410156 11.03964844 24.08570312 12.14179687 24.09765625 13.27734375 C24 16 24 16 23 17 C21.5112814 17.08669432 20.018555 17.10703494 18.52734375 17.09765625 C17.62822266 17.09443359 16.72910156 17.09121094 15.80273438 17.08789062 C14.85720703 17.07951172 13.91167969 17.07113281 12.9375 17.0625 C11.98810547 17.05798828 11.03871094 17.05347656 10.06054688 17.04882812 C7.70700469 17.03700128 5.35349468 17.01906521 3 17 C3 12.71 3 8.42 3 4 C1.68 3.67 0.36 3.34 -1 3 C-0.67 2.01 -0.34 1.02 0 0 Z " fill="#F9B159" transform="translate(75,96)"/>
<path d="M0 0 C6.6 0 13.2 0 20 0 C20.66 1.32 21.32 2.64 22 4 C25.54588501 5.29920746 25.54588501 5.29920746 29 6 C29.495 8.475 29.495 8.475 30 11 C16.8 11 3.6 11 -10 11 C-9.67 9.35 -9.34 7.7 -9 6 C-7.1875 4.9609375 -7.1875 4.9609375 -5 4.375 C-2.84359622 3.83475519 -2.84359622 3.83475519 -1 3 C-0.67 2.01 -0.34 1.02 0 0 Z " fill="#FDB15C" transform="translate(54,12)"/>
<path d="M0 0 C29.7 0 59.4 0 90 0 C90 1.32 90 2.64 90 4 C60.3 4 30.6 4 0 4 C0 2.68 0 1.36 0 0 Z " fill="#C96C29" transform="translate(19,112)"/>
<path d="M0 0 C6.93 0 13.86 0 21 0 C21 4.29 21 8.58 21 13 C14.07 13 7.14 13 0 13 C0 8.71 0 4.42 0 0 Z " fill="#FCB35C" transform="translate(78,83)"/>
<path d="M0 0 C4.62 0 9.24 0 14 0 C14 4.29 14 8.58 14 13 C9.38 13 4.76 13 0 13 C0 8.71 0 4.42 0 0 Z " fill="#FCB25C" transform="translate(29,83)"/>
<path d="M0 0 C4.62 0 9.24 0 14 0 C14 3.96 14 7.92 14 12 C9.38 12 4.76 12 0 12 C0 8.04 0 4.08 0 0 Z " fill="#FCB25A" transform="translate(29,100)"/>
<path d="M0 0 C12.54 0 25.08 0 38 0 C38 1.32 38 2.64 38 4 C25.46 4 12.92 4 0 4 C0 2.68 0 1.36 0 0 Z " fill="#F39D53" transform="translate(45,30)"/>
<path d="M0 0 C2.37507855 -0.02719556 4.74983964 -0.04693247 7.125 -0.0625 C8.12273438 -0.07506836 8.12273438 -0.07506836 9.140625 -0.08789062 C13.20681354 -0.10782292 17.0120092 0.21109839 21 1 C21 4.96 21 8.92 21 13 C18.65147472 14.17426264 17.26225935 14.11508173 14.6484375 14.09765625 C13.79765625 14.09443359 12.946875 14.09121094 12.0703125 14.08789062 C11.18085937 14.07951172 10.29140625 14.07113281 9.375 14.0625 C8.02921875 14.05573242 8.02921875 14.05573242 6.65625 14.04882812 C4.43743352 14.03702591 2.21874982 14.02056155 0 14 C0 13.67 0 13.34 0 13 C4.62 13 9.24 13 14 13 C14 9.04 14 5.08 14 1 C9.38 1 4.76 1 0 1 C0 0.67 0 0.34 0 0 Z " fill="#E49243" transform="translate(29,99)"/>
<path d="M0 0 C8.91 0 17.82 0 27 0 C27 1.32 27 2.64 27 4 C18.09 4 9.18 4 0 4 C0 2.68 0 1.36 0 0 Z " fill="#D0792A" transform="translate(75,96)"/>
<path d="M0 0 C8.91 0 17.82 0 27 0 C27 1.32 27 2.64 27 4 C18.09 4 9.18 4 0 4 C0 2.68 0 1.36 0 0 Z " fill="#D0792A" transform="translate(75,79)"/>
<path d="M0 0 C8.91 0 17.82 0 27 0 C27 1.32 27 2.64 27 4 C18.09 4 9.18 4 0 4 C0 2.68 0 1.36 0 0 Z " fill="#CB7327" transform="translate(26,79)"/>
<path d="M0 0 C3.375 -0.125 3.375 -0.125 7 0 C7.66 0.66 8.32 1.32 9 2 C8.8125 5 8.8125 5 8 8 C5 10 5 10 2.4375 9.75 C0 9 0 9 -2 7 C-2.125 4.375 -2.125 4.375 -2 2 C-1.34 2 -0.68 2 0 2 C0 1.34 0 0.68 0 0 Z " fill="#C77521" transform="translate(36,62)"/>
<path d="M0 0 C1.134375 0.020625 2.26875 0.04125 3.4375 0.0625 C4.81875018 2.82500036 4.62829306 5.00981099 4.4375 8.0625 C2.4375 10.0625 2.4375 10.0625 -0.6875 10.1875 C-1.63625 10.14625 -2.585 10.105 -3.5625 10.0625 C-5.14788318 7.54453847 -5.5998656 6.38384414 -5.25 3.375 C-4.15546746 -0.30660944 -4.11482112 0.07218984 0 0 Z " fill="#C2721F" transform="translate(88.5625,61.9375)"/>
<path d="M0 0 C1.09848267 0.00141495 2.19696533 0.0028299 3.32873535 0.00428772 C6.81293543 0.00985368 10.29706958 0.02239986 13.78125 0.03515625 C16.1536449 0.04017565 18.52604082 0.04473779 20.8984375 0.04882812 C26.69273056 0.05981195 32.48698557 0.07651595 38.28125 0.09765625 C38.28125 0.42765625 38.28125 0.75765625 38.28125 1.09765625 C37.10937134 1.13524048 37.10937134 1.13524048 35.91381836 1.17358398 C32.34865383 1.29015828 28.78371387 1.4126049 25.21875 1.53515625 C23.37506836 1.59413086 23.37506836 1.59413086 21.49414062 1.65429688 C14.56875199 1.88292118 14.56875199 1.88292118 7.6875 2.62890625 C2.41577882 3.35437247 -2.8425148 3.20115243 -8.15625 3.16015625 C-9.26935547 3.15564453 -10.38246094 3.15113281 -11.52929688 3.14648438 C-14.25917101 3.13476818 -16.98893174 3.11836324 -19.71875 3.09765625 C-19.71875 2.43765625 -19.71875 1.77765625 -19.71875 1.09765625 C-13.11202545 0.09904569 -6.67501603 -0.03273632 0 0 Z " fill="#C96B26" transform="translate(39.71875,111.90234375)"/>
<path d="M0 0 C0 0.66 0 1.32 0 2 C-1.36125 2.86625 -1.36125 2.86625 -2.75 3.75 C-6.1776463 5.80094637 -6.1776463 5.80094637 -8 9.25 C-8.66 10.1575 -9.32 11.065 -10 12 C-13.25 12.375 -13.25 12.375 -16 12 C-15.92840368 8.92135806 -15.76244337 6.75843051 -13.515625 4.5234375 C-8.94180111 1.18102773 -5.72590441 0 0 0 Z " fill="#E09742" transform="translate(60,67)"/>
<path d="M0 0 C8.91 0 17.82 0 27 0 C27 1.32 27 2.64 27 4 C18.09 4 9.18 4 0 4 C0 2.68 0 1.36 0 0 Z " fill="#C96F25" transform="translate(26,96)"/>
<path d="M0 0 C0.66 0.66 1.32 1.32 2 2 C2.33 1.67 2.66 1.34 3 1 C4.66617115 0.95936168 6.33388095 0.957279 8 1 C7.67 3.31 7.34 5.62 7 8 C2.25 7.25 2.25 7.25 0 5 C-0.125 2.375 -0.125 2.375 0 0 Z " fill="#D4802E" transform="translate(34,64)"/>
<path d="M0 0 C0.33 0.66 0.66 1.32 1 2 C3.52733235 2.65555119 3.52733235 2.65555119 6 3 C6 4.32 6 5.64 6 7 C4.35 7.33 2.7 7.66 1 8 C1.33 8.66 1.66 9.32 2 10 C1.01 9.67 0.02 9.34 -1 9 C-1.625 5.625 -1.625 5.625 -2 2 C-1.34 1.34 -0.68 0.68 0 0 Z " fill="#CE7D28" transform="translate(85,62)"/>
<path d="M0 0 C1.32 0 2.64 0 4 0 C4 1.32 4 2.64 4 4 C2.35 4 0.7 4 -1 4 C-0.67 2.68 -0.34 1.36 0 0 Z " fill="#DA8A37" transform="translate(87,65)"/>
</svg>
