<?xml version="1.0" encoding="UTF-8"?>
<svg version="1.1" xmlns="http://www.w3.org/2000/svg" width="128" height="128">
<path d="M0 0 C6.6093427 0.3537004 12.49842509 1.92940735 18.83300781 3.78198242 C31.31309133 7.35001497 40.63058993 9.01975411 52.94873047 4.69482422 C56.51073806 3.4882694 60.16265588 2.6457263 63.8125 1.75 C65.07707031 1.41484375 66.34164062 1.0796875 67.64453125 0.734375 C70.57671897 0.09263892 73.01877306 -0.15899877 76 0 C76.84836004 2.87483137 77.06238557 5.1603853 76.77807617 8.13842773 C76.70437302 8.94283798 76.63066986 9.74724823 76.55473328 10.57603455 C76.46835098 11.43652908 76.38196869 12.29702362 76.29296875 13.18359375 C76.20751297 14.07611343 76.12205719 14.96863312 76.03401184 15.88819885 C75.85152365 17.77386214 75.66554175 19.65919012 75.47631836 21.54418945 C75.18900616 24.42241165 74.91701575 27.30179842 74.64648438 30.18164062 C74.46706976 32.01571562 74.28676075 33.84970338 74.10546875 35.68359375 C74.02515915 36.54206406 73.94484955 37.40053436 73.86210632 38.28501892 C72.97011946 46.94709448 72.97011946 46.94709448 71 50 C68.20605469 51.28613281 68.20605469 51.28613281 64.671875 52.203125 C63.39699219 52.5434375 62.12210938 52.88375 60.80859375 53.234375 C59.45578729 53.57314887 58.10292215 53.91168845 56.75 54.25 C55.41227349 54.60232303 54.0750262 54.95647099 52.73828125 55.3125 C36.42774385 59.6026705 36.42774385 59.6026705 28.625 56.875 C27.22148701 56.40975531 25.81783673 55.94492462 24.4140625 55.48046875 C23.33366699 55.11574463 23.33366699 55.11574463 22.23144531 54.74365234 C18.50528786 53.50187164 14.75179116 52.34899025 11 51.1875 C9.64570589 50.76473094 8.29152712 50.34159213 6.9375 49.91796875 C5.968125 49.61503906 4.99875 49.31210938 4 49 C2.35166649 39.40156987 1.32557914 29.81955545 0.51245117 20.12060547 C0.30922944 17.71122446 0.09536584 15.3029311 -0.11914062 12.89453125 C-0.25063087 11.36203317 -0.38151404 9.82948284 -0.51171875 8.296875 C-0.57622726 7.57723572 -0.64073578 6.85759644 -0.7071991 6.1161499 C-0.8459529 4.41362078 -0.92882113 2.70669024 -1 1 C-0.67 0.67 -0.34 0.34 0 0 Z " fill="#DA6634" transform="translate(26,62)"/>
<path d="M0 0 C0.84836004 2.87483137 1.06238557 5.1603853 0.77807617 8.13842773 C0.70437302 8.94283798 0.63066986 9.74724823 0.55473328 10.57603455 C0.46835098 11.43652908 0.38196869 12.29702362 0.29296875 13.18359375 C0.20751297 14.07611343 0.12205719 14.96863312 0.03401184 15.88819885 C-0.14847635 17.77386214 -0.33445825 19.65919012 -0.52368164 21.54418945 C-0.81099384 24.42241165 -1.08298425 27.30179842 -1.35351562 30.18164062 C-1.53293024 32.01571562 -1.71323925 33.84970338 -1.89453125 35.68359375 C-1.97484085 36.54206406 -2.05515045 37.40053436 -2.13789368 38.28501892 C-3.01722811 46.82422685 -3.01722811 46.82422685 -5 50 C-7.45849609 51.21020508 -7.45849609 51.21020508 -10.5234375 52.01953125 C-11.626875 52.31923828 -12.7303125 52.61894531 -13.8671875 52.92773438 C-15.02476563 53.21970703 -16.18234375 53.51167969 -17.375 53.8125 C-19.09976563 54.27946289 -19.09976563 54.27946289 -20.859375 54.75585938 C-29.32299107 57 -29.32299107 57 -34 57 C-34 41.16 -34 25.32 -34 9 C-34.99 8.67 -35.98 8.34 -37 8 C-32.53617073 6.8530624 -28.0704359 5.71398419 -23.6027832 4.58203125 C-22.084335 4.19614696 -20.56642223 3.80814913 -19.04907227 3.41796875 C-16.86352877 2.85636072 -14.67615007 2.30247013 -12.48828125 1.75 C-11.81412674 1.57500977 -11.13997223 1.40001953 -10.44538879 1.21972656 C-6.88754499 0.32974099 -3.66904634 -0.19749282 0 0 Z " fill="#DA6735" transform="translate(102,62)"/>
<path d="M0 0 C2.64 0 5.28 0 8 0 C8 16.17 8 32.34 8 49 C2 50 2 50 0 49 C0 32.83 0 16.66 0 0 Z " fill="#C04F1E" transform="translate(60,71)"/>
<path d="M0 0 C0 1.98 0 3.96 0 6 C-6.44379938 8.26611377 -12.92704833 10.07610271 -19.5625 11.6875 C-20.47580078 11.91244141 -21.38910156 12.13738281 -22.33007812 12.36914062 C-24.55260261 12.91604456 -26.77588546 13.45960591 -29 14 C-28.07561715 10.30246861 -27.14529636 9.10340572 -23.9921875 6.859375 C-19.58148965 4.58657372 -14.92453994 3.41686063 -10.125 2.25 C-9.25875 2.02957031 -8.3925 1.80914062 -7.5 1.58203125 C-1.23083269 0 -1.23083269 0 0 0 Z " fill="#F39317" transform="translate(96,55)"/>
<path d="M0 0 C22.02017488 4.731083 22.02017488 4.731083 29 11 C28.67 11.99 28.34 12.98 28 14 C24.17195663 13.02581666 20.34509603 12.04713196 16.51928711 11.06420898 C15.21687242 10.73027733 13.91413788 10.39759068 12.61108398 10.06616211 C10.74119333 9.59033219 8.8725287 9.1096924 7.00390625 8.62890625 C5.87799072 8.34088135 4.7520752 8.05285645 3.59204102 7.75610352 C1 7 1 7 0 6 C-0.04080783 4.00041636 -0.04254356 1.99954746 0 0 Z " fill="#F69218" transform="translate(32,55)"/>
<path d="M0 0 C0 1.65 0 3.3 0 5 C-1.7325 5.6496875 -1.7325 5.6496875 -3.5 6.3125 C-4.22574219 6.58707031 -4.95148438 6.86164062 -5.69921875 7.14453125 C-7.1955098 7.70087716 -8.69800505 8.2409044 -10.20703125 8.76171875 C-13.91585958 10.062217 -16.27211269 11.24918927 -19 14 C-19.66 14 -20.32 14 -21 14 C-20.7151876 10.67718869 -20.04262581 9.05594638 -18 6.375 C-13.22919562 2.5981132 -6.20048825 0 0 0 Z " fill="#F7AF11" transform="translate(87,51)"/>
<path d="M0 0 C14.28920383 2.79847909 14.28920383 2.79847909 19 7 C20.78229676 9.67344514 21 10.73770359 21 14 C19.04795434 13.0304409 17.10252399 12.05422575 15.17578125 11.03515625 C10.26236452 8.47029091 5.29660975 6.61840853 0 5 C0 3.35 0 1.7 0 0 Z " fill="#F6B10C" transform="translate(41,51)"/>
<path d="M0 0 C0.66 0 1.32 0 2 0 C2.86021997 6.55917723 3.10962024 13.01875032 3.125 19.625 C3.12951172 20.42397705 3.13402344 21.2229541 3.13867188 22.04614258 C3.1261268 27.1159201 2.72348187 31.98156226 2 37 C1.34 37 0.68 37 0 37 C-1.43766982 24.65144317 -1.43766982 12.34855683 0 0 Z " fill="#F3BE26" transform="translate(63,8)"/>
<path d="M0 0 C2 1 2 1 2.67016602 2.6706543 C2.86280029 3.38133057 3.05543457 4.09200684 3.25390625 4.82421875 C3.46853516 5.60603516 3.68316406 6.38785156 3.90429688 7.19335938 C4.12150391 8.01642578 4.33871094 8.83949219 4.5625 9.6875 C4.78357422 10.49123047 5.00464844 11.29496094 5.23242188 12.12304688 C6.83146853 18.03130687 8.15579979 23.71721411 8.0625 29.875 C8.05347656 30.65617187 8.04445313 31.43734375 8.03515625 32.2421875 C8.02355469 32.82226562 8.01195312 33.40234375 8 34 C1.47029287 27.47029287 0.09848001 11.03190089 -0.046875 2.12890625 C-0.03140625 1.42636719 -0.0159375 0.72382813 0 0 Z " fill="#F3BE1F" transform="translate(49,11)"/>
<path d="M0 0 C0.33 0 0.66 0 1 0 C0.72396622 7.1630765 -0.29062126 13.97740506 -1.9375 20.9375 C-2.10733398 21.6586499 -2.27716797 22.3797998 -2.45214844 23.12280273 C-3.37357218 26.88265036 -4.45110631 30.45074136 -6 34 C-6.33 34 -6.66 34 -7 34 C-7.27192355 26.99439072 -6.33798358 20.96725804 -4.625 14.1875 C-4.40328125 13.26001953 -4.1815625 12.33253906 -3.953125 11.37695312 C-2.95933993 7.32289463 -1.98733691 3.69235166 0 0 Z " fill="#F6BC25" transform="translate(78,11)"/>
<path d="M0 0 C4.15483335 3.47611886 5.74135379 7.40685476 7.6875 12.3125 C7.99494141 13.04662109 8.30238281 13.78074219 8.61914062 14.53710938 C10.45051073 19.05342033 11.51939466 23.14909012 12 28 C4.42586725 21.34394395 1.29908453 9.72073596 0 0 Z " fill="#F7BD26" transform="translate(38,19)"/>
<path d="M0 0 C2.29773536 6.89320607 -3.1790246 15.60075473 -6.25 21.75 C-7.1585894 23.50420725 -8.07225847 25.25584593 -9 27 C-9.66 26.67 -10.32 26.34 -11 26 C-8.4882183 16.46771045 -4.93304212 8.46654138 0 0 Z " fill="#F4BD29" transform="translate(89,19)"/>
<path d="M0 0 C5.80266294 4.41002383 10.10352389 9.21430396 13 16 C12.67 16.99 12.34 17.98 12 19 C0 6.41747573 0 6.41747573 0 0 Z " fill="#F6BD29" transform="translate(29,29)"/>
<path d="M0 0 C0.33 0.66 0.66 1.32 1 2 C-1.63007108 8.60257428 -6.17379557 13.89562817 -11 19 C-12 16 -12 16 -10.7421875 13.4765625 C-7.49730104 8.52098277 -4.46408106 3.92298033 0 0 Z " fill="#F5BB2A" transform="translate(98,29)"/>
<path d="M0 0 C0.33 0.66 0.66 1.32 1 2 C-0.07826365 3.27513763 -1.16285519 4.54492569 -2.25 5.8125 C-2.85328125 6.52019531 -3.4565625 7.22789063 -4.078125 7.95703125 C-5.93811214 9.9342127 -7.73103544 11.51392197 -10 13 C-10.66 13 -11.32 13 -12 13 C-10.63924722 7.3868948 -6.37378806 4.38968575 -2 1 C-1.34 0.67 -0.68 0.34 0 0 Z " fill="#F7BB22" transform="translate(106,37)"/>
<path d="M0 0 C5.51588635 2.75794317 9.52375281 5.83019648 13 11 C13 11.66 13 12.32 13 13 C7.830455 11.59012409 4.24658648 8.13677955 1 4 C0.296875 1.7734375 0.296875 1.7734375 0 0 Z " fill="#F5BC28" transform="translate(21,37)"/>
<path d="M0 0 C1.03115279 3.26913624 0.9638984 5.86041348 0.5625 9.25 C0.46066406 10.14203125 0.35882813 11.0340625 0.25390625 11.953125 C0.17011719 12.62859375 0.08632812 13.3040625 0 14 C-0.33 14 -0.66 14 -1 14 C-1 10.7 -1 7.4 -1 4 C-1.99 4 -2.98 4 -4 4 C-4 3.34 -4 2.68 -4 2 C-5.65 2.33 -7.3 2.66 -9 3 C-9 2.34 -9 1.68 -9 1 C-5.92677456 0.08941469 -3.19902639 -0.08886184 0 0 Z " fill="#D46943" transform="translate(102,62)"/>
<path d="M0 0 C4.84166786 0.45038771 7.49668287 1.59972161 11 5 C11 5.66 11 6.32 11 7 C5.58657319 5.85485202 3.0657052 4.65987191 0 0 Z " fill="#F7BA2C" transform="translate(17,48)"/>
<path d="M0 0 C1.2065625 0.0309375 1.2065625 0.0309375 2.4375 0.0625 C2.4375 1.3825 2.4375 2.7025 2.4375 4.0625 C1.1175 4.0625 -0.2025 4.0625 -1.5625 4.0625 C-1.5625 7.3625 -1.5625 10.6625 -1.5625 14.0625 C-1.8925 14.0625 -2.2225 14.0625 -2.5625 14.0625 C-2.75643875 11.91723901 -2.94248676 9.77126323 -3.125 7.625 C-3.28162109 5.83255859 -3.28162109 5.83255859 -3.44140625 4.00390625 C-3.48136719 3.03324219 -3.52132813 2.06257813 -3.5625 1.0625 C-2.5625 0.0625 -2.5625 0.0625 0 0 Z " fill="#D56744" transform="translate(28.5625,61.9375)"/>
<path d="M0 0 C-1.10815825 3.21365891 -1.98529554 3.9914224 -5 5.75 C-8 7 -8 7 -10 7 C-8.2054392 2.26888516 -5.07937287 0 0 0 Z " fill="#F4BB2B" transform="translate(110,48)"/>
<path d="M0 0 C1.625 1.4375 1.625 1.4375 3 4 C2.66130379 8.23746588 2.04889258 11.95110742 -1 15 C-1.10251672 9.87416389 -1.03590199 5.05002222 0 0 Z " fill="#F0BE33" transform="translate(72,30)"/>
<path d="M0 0 C0.99 0.33 1.98 0.66 3 1 C3 1.66 3 2.32 3 3 C2.34 3 1.68 3 1 3 C1 3.66 1 4.32 1 5 C-1.97 4.67 -4.94 4.34 -8 4 C-8 3.67 -8 3.34 -8 3 C-7.05125 2.690625 -6.1025 2.38125 -5.125 2.0625 C-2.13919592 1.12605258 -2.13919592 1.12605258 0 0 Z M-12 5 C-9 6 -9 6 -9 6 Z " fill="#FC900B" transform="translate(85,58)"/>
<path d="M0 0 C0.33 0 0.66 0 1 0 C2.03590199 5.05002222 2.10251672 9.87416389 2 15 C-0.23983422 12.76016578 -0.54646123 11.65021671 -1.25 8.625 C-1.44078125 7.85414062 -1.6315625 7.08328125 -1.828125 6.2890625 C-2.03151185 3.58031945 -1.39894958 2.28634297 0 0 Z " fill="#F3BD33" transform="translate(55,30)"/>
<path d="M0 0 C3.375 0.3125 3.375 0.3125 7 1 C7.66 1.99 8.32 2.98 9 4 C6.69 4 4.38 4 2 4 C1.34 2.68 0.68 1.36 0 0 Z " fill="#F8BD24" transform="translate(15,56)"/>
<path d="M0 0 C-0.99 1.485 -0.99 1.485 -2 3 C-5.125 3.1875 -5.125 3.1875 -8 3 C-7.67 2.01 -7.34 1.02 -7 0 C-3.86650268 -1.04449911 -3.01031744 -0.93423645 0 0 Z " fill="#F2BE22" transform="translate(113,57)"/>
<path d="M0 0 C1.32 0.33 2.64 0.66 4 1 C4.33 2.32 4.66 3.64 5 5 C3.35 5.33 1.7 5.66 0 6 C0 4.02 0 2.04 0 0 Z " fill="#F88E23" transform="translate(32,55)"/>
<path d="M0 0 C2.79872437 2.52788007 4.45773019 4.20411134 5 8 C4.01 8.66 3.02 9.32 2 10 C1.34 6.7 0.68 3.4 0 0 Z " fill="#F3BF31" transform="translate(38,19)"/>
<path d="M0 0 C0.99 0.495 0.99 0.495 2 1 C2.99716532 4.98866127 3.0502717 8.0323069 2 12 C1.67 12 1.34 12 1 12 C0.67 8.04 0.34 4.08 0 0 Z " fill="#EEBF30" transform="translate(49,11)"/>
<path d="M0 0 C3 3.625 3 3.625 3 7 C-0.875 5.25 -0.875 5.25 -2 3 C-1.34 3 -0.68 3 0 3 C0 2.01 0 1.02 0 0 Z " fill="#F4AE17" transform="translate(59,58)"/>
<path d="M0 0 C0.33 0 0.66 0 1 0 C1 1.98 1 3.96 1 6 C0.01 6.495 0.01 6.495 -1 7 C-1 6.34 -1 5.68 -1 5 C-1.66 5 -2.32 5 -3 5 C-1.125 1.125 -1.125 1.125 0 0 Z " fill="#F99220" transform="translate(95,55)"/>
<path d="" fill="#E9B657" transform="translate(0,0)"/>
</svg>
