<?xml version="1.0" encoding="UTF-8"?>
<svg version="1.1" xmlns="http://www.w3.org/2000/svg" width="128" height="128">
<path d="M0 0 C6.6 0 13.2 0 20 0 C26.22774653 14.50619503 26.22774653 14.50619503 28.86157227 20.66455078 C29.20223221 21.46104034 29.54289215 22.25752991 29.89387512 23.07815552 C30.58694846 24.69863802 31.27997178 26.31914192 31.97294617 27.93966675 C33.84793738 32.32079871 35.73271101 36.69740961 37.6330719 41.06759644 C38.90719119 44.00081622 40.17113224 46.938427 41.4375 49.875 C41.90325439 50.9357373 42.36900879 51.99647461 42.84887695 53.08935547 C43.2687085 54.06791504 43.68854004 55.04647461 44.12109375 56.0546875 C44.66914673 57.31514893 44.66914673 57.31514893 45.22827148 58.60107422 C46.0658864 61.20480852 46.05575936 63.28322627 46 66 C33.68268582 66.0926177 21.36545428 66.16372334 9.04786301 66.20724869 C3.32849593 66.22813709 -2.39063318 66.25647798 -8.10986328 66.30175781 C-13.62766616 66.3451703 -19.14523992 66.36912766 -24.66320038 66.37950897 C-26.76999265 66.38690857 -28.87677218 66.401358 -30.9834671 66.42292023 C-33.93098703 66.45189273 -36.87755626 66.45595853 -39.82519531 66.45410156 C-40.69913437 66.46848267 -41.57307343 66.48286377 -42.47349548 66.49768066 C-48.35564193 66.45749407 -48.35564193 66.45749407 -51.54705811 64.19158936 C-54.26433011 60.092909 -53.35215657 55.86489 -52.48632812 51.27978516 C-51.80708299 48.27004392 -51.0435536 45.29404873 -50.25 42.3125 C-49.99734375 41.29349609 -49.7446875 40.27449219 -49.484375 39.22460938 C-46.9646512 29.59296515 -46.9646512 29.59296515 -43 26 C-39.75 25.6875 -39.75 25.6875 -37 26 C-36.938125 25.113125 -36.87625 24.22625 -36.8125 23.3125 C-35.81397923 19.24160762 -34.10938685 17.72071349 -31 15 C-30.67 14.67 -30.34 14.34 -30 14 C-26.6181762 13.56161543 -23.37774469 13.52270999 -20 14 C-16.84164831 16.43456276 -15.20018505 18.69972243 -13 22 C-13 23.32 -13 24.64 -13 26 C-9.81442589 25.32389258 -9.81442589 25.32389258 -8.74145508 22.59155273 C-8.33822021 21.54942627 -7.93498535 20.5072998 -7.51953125 19.43359375 C-7.07802734 18.30888672 -6.63652344 17.18417969 -6.18164062 16.02539062 C-5.72982422 14.84138672 -5.27800781 13.65738281 -4.8125 12.4375 C-4.34908203 11.24962891 -3.88566406 10.06175781 -3.40820312 8.83789062 C-2.26209481 5.89581878 -1.12975673 2.94838952 0 0 Z M-30 20 C-32.2773501 22.81509993 -32.2773501 22.81509993 -32 26 C-27.38 26 -22.76 26 -18 26 C-19.0231411 21.72090916 -19.0231411 21.72090916 -22 19 C-25.31648521 17.60921588 -27.03547108 18.02364739 -30 20 Z " fill="#FA3F32" transform="translate(67,48)"/>
<path d="M0 0 C4.00517781 0.02860841 4.95177897 0.14512129 8.25 2.6875 C12.25 8.0625 12.25 8.0625 12.25 12.375 C13.343125 12.478125 14.43625 12.58125 15.5625 12.6875 C20.1148086 13.5362355 20.1148086 13.5362355 22.25 16.375 C23.09375 19.01171875 23.09375 19.01171875 23.75 22.0625 C24.59810585 25.77801134 25.50217333 29.28146163 26.9375 32.8125 C28.11677681 36.0133942 28.56404745 38.02516057 28.25 41.375 C28.91 41.375 29.57 41.375 30.25 41.375 C30 44.75 30 44.75 29.25 48.375 C27.1875 49.8125 27.1875 49.8125 25.25 50.375 C25.25 51.035 25.25 51.695 25.25 52.375 C18.34501681 52.47637822 11.44022535 52.5464562 4.53466797 52.59472656 C2.18531116 52.61484814 -0.16399554 52.64214851 -2.51318359 52.67675781 C-5.88912315 52.7252504 -9.26440086 52.74796357 -12.640625 52.765625 C-13.69179504 52.78627014 -14.74296509 52.80691528 -15.82598877 52.82818604 C-23.07663692 52.83041971 -23.07663692 52.83041971 -26.41796875 50.57055664 C-29.41436815 45.63166004 -27.77743626 40.05244012 -26.578125 34.73828125 C-26.06237476 32.71869803 -25.5361089 30.70177454 -25 28.6875 C-24.74734375 27.66849609 -24.4946875 26.64949219 -24.234375 25.59960938 C-21.7146512 15.96796515 -21.7146512 15.96796515 -17.75 12.375 C-14.5 12.0625 -14.5 12.0625 -11.75 12.375 C-11.688125 11.488125 -11.62625 10.60125 -11.5625 9.6875 C-10.56397923 5.61660762 -8.85938685 4.09571349 -5.75 1.375 C-4.10843264 -0.26656736 -2.25784199 0.08684008 0 0 Z M-4.75 6.375 C-7.0273501 9.19009993 -7.0273501 9.19009993 -6.75 12.375 C-2.13 12.375 2.49 12.375 7.25 12.375 C6.2268589 8.09590916 6.2268589 8.09590916 3.25 5.375 C-0.06648521 3.98421588 -1.78547108 4.39864739 -4.75 6.375 Z " fill="#9E47F3" transform="translate(41.75,61.625)"/>
<path d="M0 0 C3.92628368 0.63100988 5.09485507 1.48391449 7.5 4.5625 C10.48365574 3.85851265 10.48365574 3.85851265 11.8125 2 C13.5 0.5625 13.5 0.5625 16.375 0.0625 C20.47825962 0.71902154 21.85177881 2.46029804 24.5 5.5625 C24.995 6.0575 24.995 6.0575 25.5 6.5625 C26.17071406 12.39398611 24.0752772 17.11479828 22 22.4375 C20.845 25.44875 19.69 28.46 18.5 31.5625 C11.9 31.5625 5.3 31.5625 -1.5 31.5625 C-2.675625 28.571875 -3.85125 25.58125 -5.0625 22.5 C-5.43705322 21.57179443 -5.81160645 20.64358887 -6.19750977 19.68725586 C-8.13922357 14.58118688 -8.95373305 11.01573784 -7.5 5.5625 C-5.34519806 1.66728112 -4.44158059 0.71382545 0 0 Z " fill="#FB3D33" transform="translate(68.5,15.4375)"/>
<path d="M0 0 C6.6 0 13.2 0 20 0 C24 9 24 9 24 12 C22.0625 11.625 22.0625 11.625 20 11 C19.67 10.34 19.34 9.68 19 9 C19 9.66 19 10.32 19 11 C18.34 11 17.68 11 17 11 C16.67 9.02 16.34 7.04 16 5 C12.7 5 9.4 5 6 5 C8.97 5.495 8.97 5.495 12 6 C12 7.65 12 9.3 12 11 C11.34 11 10.68 11 10 11 C9.67 11.66 9.34 12.32 9 13 C9.99 13 10.98 13 12 13 C12.19644384 14.89492746 12.38177288 16.79100903 12.5625 18.6875 C12.66691406 19.74324219 12.77132812 20.79898438 12.87890625 21.88671875 C12.99277552 24.81426086 12.70848415 27.17131144 12 30 C11.34 30 10.68 30 10 30 C9.14701624 26.32612505 8.89210529 22.9552607 8.9375 19.1875 C8.94652344 18.21167969 8.95554687 17.23585938 8.96484375 16.23046875 C8.97644531 15.49441406 8.98804687 14.75835937 9 14 C7.68 13.67 6.36 13.34 5 13 C4.9175 13.5775 4.835 14.155 4.75 14.75 C4 17 4 17 2 18.9375 C-0.29919283 21.30854261 -0.64136887 22.77231982 -1 26 C-2.61949011 23.42786866 -3.04408751 22.32330841 -2.625 19.25 C-2.41875 18.5075 -2.2125 17.765 -2 17 C-2.66 17 -3.32 17 -4 17 C-3.71561048 15.10306139 -3.42216208 13.20747973 -3.125 11.3125 C-2.96257812 10.25675781 -2.80015625 9.20101562 -2.6328125 8.11328125 C-2 5 -2 5 0 0 Z " fill="#F94729" transform="translate(67,48)"/>
<path d="M0 0 C0.91007812 0.00902344 1.82015625 0.01804688 2.7578125 0.02734375 C3.45648438 0.03894531 4.15515625 0.05054688 4.875 0.0625 C5.875 3.0625 5.875 3.0625 5.875 7.0625 C6.535 7.0625 7.195 7.0625 7.875 7.0625 C7.545 5.4125 7.215 3.7625 6.875 2.0625 C7.535 2.3925 8.195 2.7225 8.875 3.0625 C9.019375 3.7225 9.16375 4.3825 9.3125 5.0625 C9.498125 5.7225 9.68375 6.3825 9.875 7.0625 C10.865 7.3925 11.855 7.7225 12.875 8.0625 C12.545 10.3725 12.215 12.6825 11.875 15.0625 C10.555 15.3925 9.235 15.7225 7.875 16.0625 C7.875 15.0725 7.875 14.0825 7.875 13.0625 C8.535 13.0625 9.195 13.0625 9.875 13.0625 C9.545 11.7425 9.215 10.4225 8.875 9.0625 C7.885 9.3925 6.895 9.7225 5.875 10.0625 C5.81441406 10.85914063 5.75382812 11.65578125 5.69140625 12.4765625 C4.97914658 21.48390791 4.97914658 21.48390791 4.3125 25.1875 C3.77740227 28.7038565 3.86334545 32.09808614 3.90625 35.6484375 C3.8689909 38.52670265 3.46744106 41.24840495 2.875 44.0625 C0.895 43.4025 -1.085 42.7425 -3.125 42.0625 C-2.465 41.4025 -1.805 40.7425 -1.125 40.0625 C-1.125 40.7225 -1.125 41.3825 -1.125 42.0625 C-0.465 42.0625 0.195 42.0625 0.875 42.0625 C0.875 40.4125 0.875 38.7625 0.875 37.0625 C0.215 37.0625 -0.445 37.0625 -1.125 37.0625 C-1.125 36.4025 -1.125 35.7425 -1.125 35.0625 C-0.465 35.0625 0.195 35.0625 0.875 35.0625 C0.689375 33.804375 0.50375 32.54625 0.3125 31.25 C-0.21691587 26.58819917 0.10773828 22.24410698 0.6171875 17.59375 C0.90795427 14.73894898 0.95250299 11.9301105 0.875 9.0625 C-0.115 9.0625 -1.105 9.0625 -2.125 9.0625 C-1.795 8.0725 -1.465 7.0825 -1.125 6.0625 C-0.465 6.3925 0.195 6.7225 0.875 7.0625 C0.545 6.0725 0.215 5.0825 -0.125 4.0625 C0.205 3.4025 0.535 2.7425 0.875 2.0625 C0.00875 2.371875 0.00875 2.371875 -0.875 2.6875 C-3.64467567 3.14911261 -4.77061267 2.49194945 -7.125 1.0625 C-4.60024538 -0.19987731 -2.81299534 -0.03606404 0 0 Z " fill="#F9431F" transform="translate(78.125,51.9375)"/>
<path d="M0 0 C4.00517781 0.02860841 4.95177897 0.14512129 8.25 2.6875 C12.25 8.0625 12.25 8.0625 12.25 12.375 C10.6 12.375 8.95 12.375 7.25 12.375 C6.59 10.395 5.93 8.415 5.25 6.375 C0.1307825 5.14501102 0.1307825 5.14501102 -4.75 6.375 C-6.0545656 9.37115946 -6.0545656 9.37115946 -6.75 12.375 C-8.4 12.375 -10.05 12.375 -11.75 12.375 C-11.3757368 7.01056087 -9.7540457 4.87853999 -5.75 1.375 C-4.10843264 -0.26656736 -2.25784199 0.08684008 0 0 Z " fill="#F87822" transform="translate(41.75,61.625)"/>
<path d="M0 0 C6.6 0 13.2 0 20 0 C24 9 24 9 24 12 C22.0625 11.625 22.0625 11.625 20 11 C19.67 10.34 19.34 9.68 19 9 C19 9.66 19 10.32 19 11 C18.34 11 17.68 11 17 11 C16.67 9.02 16.34 7.04 16 5 C14.41676312 4.972807 12.83338938 4.95351694 11.25 4.9375 C10.36828125 4.92589844 9.4865625 4.91429687 8.578125 4.90234375 C6.02821052 4.91044356 6.02821052 4.91044356 3.734375 5.56640625 C3.16203125 5.70949219 2.5896875 5.85257813 2 6 C1.67 5.67 1.34 5.34 1 5 C0.896875 5.639375 0.79375 6.27875 0.6875 6.9375 C0.460625 7.618125 0.23375 8.29875 0 9 C-0.99 9.33 -1.98 9.66 -3 10 C-2.01 6.7 -1.02 3.4 0 0 Z " fill="#F44439" transform="translate(67,48)"/>
<path d="M0 0 C4.32326033 -0.0992011 8.64591024 -0.17162265 12.9699707 -0.21972656 C14.43948921 -0.23978825 15.90892841 -0.26704478 17.37817383 -0.30175781 C19.49580487 -0.35052141 21.61237687 -0.37302161 23.73046875 -0.390625 C25.00301514 -0.41157227 26.27556152 -0.43251953 27.58666992 -0.45410156 C31.59797633 0.07955339 33.1867472 1.14518155 36 4 C37.8907178 8.12520246 38.12302854 9.50788585 37 14 C35.68 10.7 34.36 7.4 33 4 C32.67 4.66 32.34 5.32 32 6 C28.04 5.67 24.08 5.34 20 5 C20 3.68 20 2.36 20 1 C16.04 1 12.08 1 8 1 C8 1.99 8 2.98 8 4 C5.36 4 2.72 4 0 4 C0 2.68 0 1.36 0 0 Z " fill="#B86EC6" transform="translate(28,74)"/>
<path d="M0 0 C1 4 1 4 1 6 C1.66 6 2.32 6 3 6 C3.33 5.01 3.66 4.02 4 3 C4 4.32 4 5.64 4 7 C3.34 7 2.68 7 2 7 C2.04125 8.093125 2.0825 9.18625 2.125 10.3125 C2 14 2 14 0 17 C0.66 17 1.32 17 2 17 C2.12375 18.010625 2.2475 19.02125 2.375 20.0625 C2.91580359 24.01701285 2.91580359 24.01701285 4.125 27.8125 C5 31 5 31 4 33 C3.319375 31.205625 3.319375 31.205625 2.625 29.375 C2.3465625 28.64539063 2.068125 27.91578125 1.78125 27.1640625 C1 25 1 25 0.125 21.75 C-1.01738386 18.32161864 -1.01738386 18.32161864 -6 15 C-4.02 10.05 -2.04 5.1 0 0 Z " fill="#F83F3B" transform="translate(63,58)"/>
<path d="M0 0 C1.485 0.99 1.485 0.99 3 2 C2.67 2.66 2.34 3.32 2 4 C2.763125 3.484375 3.52625 2.96875 4.3125 2.4375 C5.199375 1.963125 6.08625 1.48875 7 1 C7.99 1.33 8.98 1.66 10 2 C10.8125 5.25 10.8125 5.25 11 9 C8.5625 11.4375 8.5625 11.4375 6 13 C5.67 12.34 5.34 11.68 5 11 C5.33 10.34 5.66 9.68 6 9 C4.68 9.33 3.36 9.66 2 10 C2 8.35 2 6.7 2 5 C1.01 5 0.02 5 -1 5 C-0.67 3.35 -0.34 1.7 0 0 Z " fill="#F93F29" transform="translate(87,71)"/>
<path d="M0 0 C0.33 0.66 0.66 1.32 1 2 C1.66 2.33 2.32 2.66 3 3 C2.67 4.65 2.34 6.3 2 8 C2.66 8 3.32 8 4 8 C3.6875 9.875 3.6875 9.875 3 12 C2.01 12.66 1.02 13.32 0 14 C-1.06246527 15.96752828 -2.07137808 17.96587579 -3 20 C-4.37344385 15.60155678 -3.24307502 12.07495445 -2.0625 7.75 C-1.86720703 7.00492187 -1.67191406 6.25984375 -1.47070312 5.4921875 C-0.98895802 3.65920614 -0.49560775 1.82928182 0 0 Z " fill="#9B49EA" transform="translate(19,82)"/>
<path d="M0 0 C2.91517292 1.07401108 4.77810176 1.77810176 7 4 C8.70005894 8.11593218 9.10946457 9.5621417 8 14 C6.68 10.7 5.36 7.4 4 4 C3.67 4.66 3.34 5.32 3 6 C-0.96 5.67 -4.92 5.34 -9 5 C-9 4.01 -9 3.02 -9 2 C-6.03 2 -3.06 2 0 2 C0 1.34 0 0.68 0 0 Z " fill="#C265A8" transform="translate(57,74)"/>
<path d="M0 0 C2 1 2 1 3.125 4.25 C3.85463482 7.37700635 4.19234975 9.82622905 4 13 C4.66 13 5.32 13 6 13 C5.74438677 15.3431213 5.40729228 17.67843403 5 20 C4.34 20.33 3.68 20.66 3 21 C2.67 18.03 2.34 15.06 2 12 C0.68 12 -0.64 12 -2 12 C-2 10.68 -2 9.36 -2 8 C-1.01 8 -0.02 8 1 8 C0.67 5.36 0.34 2.72 0 0 Z " fill="#B442CF" transform="translate(66,90)"/>
<path d="M0 0 C0 1.32 0 2.64 0 4 C2.64 4 5.28 4 8 4 C8 4.33 8 4.66 8 5 C6.52168779 5.19412181 5.04230684 5.38012131 3.5625 5.5625 C2.73878906 5.66691406 1.91507813 5.77132812 1.06640625 5.87890625 C0.04353516 5.93884766 0.04353516 5.93884766 -1 6 C-1.33 5.67 -1.66 5.34 -2 5 C-2.99 6.485 -2.99 6.485 -4 8 C-4.66 8 -5.32 8 -6 8 C-6.6875 5.6875 -6.6875 5.6875 -7 3 C-4.87164172 -0.24854684 -4.06968429 0 0 0 Z " fill="#9E4DE9" transform="translate(28,74)"/>
<path d="M0 0 C1.32 0.66 2.64 1.32 4 2 C3.01 3.485 3.01 3.485 2 5 C2.66 5 3.32 5 4 5 C4.12375 6.010625 4.2475 7.02125 4.375 8.0625 C4.91580359 12.01701285 4.91580359 12.01701285 6.125 15.8125 C7 19 7 19 6 21 C5.319375 19.205625 5.319375 19.205625 4.625 17.375 C4.3465625 16.64539063 4.068125 15.91578125 3.78125 15.1640625 C3 13 3 13 2.125 9.75 C0.74443149 6.37527697 -1.02846172 5.03315777 -4 3 C-2.68 3 -1.36 3 0 3 C0 2.01 0 1.02 0 0 Z " fill="#F2404C" transform="translate(61,70)"/>
<path d="M0 0 C0.33 0.66 0.66 1.32 1 2 C3.3140622 2.73075648 5.64828869 3.40138258 8 4 C8 6.31 8 8.62 8 11 C7.34 11 6.68 11 6 11 C5.67 9.02 5.34 7.04 5 5 C3.9275 5.020625 2.855 5.04125 1.75 5.0625 C-1.14790424 5.0142016 -3.28612141 4.86844115 -6 4 C-6 3.34 -6 2.68 -6 2 C-3 0 -3 0 0 0 Z " fill="#FB5333" transform="translate(78,48)"/>
<path d="M0 0 C2.31 0.33 4.62 0.66 7 1 C7 2.65 7 4.3 7 6 C0.25 5.125 0.25 5.125 -2 4 C-1.34 2.68 -0.68 1.36 0 0 Z " fill="#F87222" transform="translate(74,23)"/>
<path d="M0 0 C0.66 0.33 1.32 0.66 2 1 C2.144375 1.66 2.28875 2.32 2.4375 3 C2.623125 3.66 2.80875 4.32 3 5 C3.99 5.33 4.98 5.66 6 6 C5.67 8.31 5.34 10.62 5 13 C3.68 13.33 2.36 13.66 1 14 C1 13.01 1 12.02 1 11 C1.66 11 2.32 11 3 11 C2.73323796 9.01508358 2.73323796 9.01508358 2 7 C1.01 6.67 0.02 6.34 -1 6 C-0.34 5.67 0.32 5.34 1 5 C0.67 3.35 0.34 1.7 0 0 Z " fill="#FC441A" transform="translate(85,54)"/>
<path d="M0 0 C0.66 0 1.32 0 2 0 C2.19644384 1.89492746 2.38177288 3.79100903 2.5625 5.6875 C2.66691406 6.74324219 2.77132812 7.79898438 2.87890625 8.88671875 C2.99277552 11.81426086 2.70848415 14.17131144 2 17 C1.34 17 0.68 17 0 17 C0 11.39 0 5.78 0 0 Z " fill="#FE643A" transform="translate(77,61)"/>
<path d="M0 0 C1.99097846 2.98646769 2.94124926 5.59687262 4 9 C1.33333333 9.66666667 -1.33333333 10.33333333 -4 11 C-3.34 9.35 -2.68 7.7 -2 6 C-1.01 6 -0.02 6 1 6 C0.67 4.02 0.34 2.04 0 0 Z " fill="#F94841" transform="translate(93,64)"/>
<path d="M0 0 C1.485 0.99 1.485 0.99 3 2 C2.67 2.66 2.34 3.32 2 4 C2.99 4 3.98 4 5 4 C5 5.65 5 7.3 5 9 C4.01 9.33 3.02 9.66 2 10 C2 8.35 2 6.7 2 5 C1.01 5 0.02 5 -1 5 C-0.67 3.35 -0.34 1.7 0 0 Z " fill="#F94E16" transform="translate(87,71)"/>
<path d="M0 0 C9.17286652 -0.63019694 9.17286652 -0.63019694 12.625 2 C13.07875 2.66 13.5325 3.32 14 4 C11 4 8 4 5 4 C5.66 3.67 6.32 3.34 7 3 C7 2.34 7 1.68 7 1 C4.69 1 2.38 1 0 1 C0 0.67 0 0.34 0 0 Z " fill="#F27E32" transform="translate(37,62)"/>
<path d="M0 0 C0.33 0.66 0.66 1.32 1 2 C1.66 2 2.32 2 3 2 C3 4.64 3 7.28 3 10 C3.66 10 4.32 10 5 10 C5 12.64 5 15.28 5 18 C4.34 18 3.68 18 3 18 C3.33 15.69 3.66 13.38 4 11 C3.34 11 2.68 11 2 11 C0.80712589 7.12315913 0 4.08378077 0 0 Z " fill="#E93F53" transform="translate(68,92)"/>
<path d="M0 0 C2.64 0 5.28 0 8 0 C8 1.65 8 3.3 8 5 C5.69 4.67 3.38 4.34 1 4 C0.67 2.68 0.34 1.36 0 0 Z " fill="#FA5C37" transform="translate(71,54)"/>
<path d="M0 0 C0.33 0.66 0.66 1.32 1 2 C4.465 1.505 4.465 1.505 8 1 C8 1.99 8 2.98 8 4 C5.36 4.66 2.72 5.32 0 6 C0 4.02 0 2.04 0 0 Z " fill="#F84415" transform="translate(66,66)"/>
<path d="M0 0 C0.66 0 1.32 0 2 0 C1.67558396 1.66842534 1.34060811 3.33480481 1 5 C0.855625 5.721875 0.71125 6.44375 0.5625 7.1875 C0 9 0 9 -2 11 C-3.10844919 7.67465243 -2.84454356 5.37817425 -2 2 C-1.34 2 -0.68 2 0 2 C0 1.34 0 0.68 0 0 Z " fill="#FE6A3F" transform="translate(67,63)"/>
<path d="M0 0 C0.99 0 1.98 0 3 0 C3.33 1.32 3.66 2.64 4 4 C3.34 4 2.68 4 2 4 C1.67 4.99 1.34 5.98 1 7 C-1 4 -1 4 -0.625 1.8125 C-0.41875 1.214375 -0.2125 0.61625 0 0 Z " fill="#FD4B3C" transform="translate(84,61)"/>
<path d="M0 0 C0.33 0 0.66 0 1 0 C1.08131463 1.43655854 1.13933559 2.8744483 1.1875 4.3125 C1.23970703 5.51326172 1.23970703 5.51326172 1.29296875 6.73828125 C0.93801608 9.47851584 0.10633718 10.29171079 -2 12 C-1 3.42857143 -1 3.42857143 0 0 Z " fill="#984FDA" transform="translate(17,90)"/>
<path d="M0 0 C1.134375 0.020625 2.26875 0.04125 3.4375 0.0625 C3.7675 0.7225 4.0975 1.3825 4.4375 2.0625 C1.625 2.6875 1.625 2.6875 -1.5625 3.0625 C-2.5525 2.4025 -3.5425 1.7425 -4.5625 1.0625 C-3.5625 0.0625 -3.5625 0.0625 0 0 Z " fill="#F93F4C" transform="translate(68.5625,15.9375)"/>
<path d="M0 0 C0.66 0.33 1.32 0.66 2 1 C1.34 2.98 0.68 4.96 0 7 C-0.66 7 -1.32 7 -2 7 C-2.33 5.35 -2.66 3.7 -3 2 C-2.01 2 -1.02 2 0 2 C0 1.34 0 0.68 0 0 Z " fill="#F43F46" transform="translate(87,40)"/>
</svg>
