<?xml version="1.0" encoding="UTF-8"?>
<svg version="1.1" xmlns="http://www.w3.org/2000/svg" width="128" height="128">
<path d="M0 0 C1.15563829 3.59531913 1.15563829 3.59531913 0.28686523 5.85424805 C-0.26511217 8.14861251 -0.26511217 8.14861251 1.53540039 10.21411133 C4.02709797 12.76579276 6.52587484 15.30534906 9.0625 17.8125 C9.92294922 18.70904297 10.78339844 19.60558594 11.66992188 20.52929688 C12.51232422 21.37169922 13.35472656 22.21410156 14.22265625 23.08203125 C14.99359619 23.85780518 15.76453613 24.6335791 16.55883789 25.43286133 C18.96625038 27.33531817 18.96625038 27.33531817 22.17358398 26.68237305 C23.10630127 26.45718994 24.03901855 26.23200684 25 26 C25.66 26.33 26.32 26.66 27 27 C27 33.25467924 24.64571367 36.45282347 20.3671875 40.9140625 C13.54672796 46.92417041 6.04322644 49.21065752 -3 49 C-4.485 48.505 -4.485 48.505 -6 48 C-5.505 49.2065625 -5.505 49.2065625 -5 50.4375 C-3.51068326 55.7431909 -3.01136174 60.65848834 -5.1875 65.8125 C-9.15510653 70.60099064 -12.84015533 72.90712433 -19 74 C-22.69690808 73.86529485 -26.3345045 73.4905003 -30 73 C-30.03867188 74.03447266 -30.03867188 74.03447266 -30.078125 75.08984375 C-30.7011319 85.41193543 -34.02972385 93.29784486 -41 101 C-44.4849167 103.96488068 -44.4849167 103.96488068 -47.75 104.1875 C-48.86375 104.0946875 -48.86375 104.0946875 -50 104 C-51 100 -51 100 -51.29614258 98.12988281 C-52.83461703 93.4744367 -57.29673743 90.14872834 -60.6875 86.75 C-61.49123047 85.90953125 -62.29496094 85.0690625 -63.12304688 84.203125 C-63.91130859 83.4090625 -64.69957031 82.615 -65.51171875 81.796875 C-66.22803467 81.06823242 -66.94435059 80.33958984 -67.68237305 79.58886719 C-70.62093767 77.57431135 -72.5103251 77.78072776 -76 78 C-77 77 -77 77 -77.4375 74.875 C-76.66290624 69.78481242 -73.09700052 66.69952983 -69.20703125 63.546875 C-62.49216956 58.95030988 -54.16412656 56.33804379 -46 57 C-46.10699219 56.31035156 -46.21398437 55.62070313 -46.32421875 54.91015625 C-47.27909631 47.4251483 -47.23582129 41.33833104 -42.58984375 35.109375 C-39.28469041 31.76515365 -36.64627074 30.62055588 -31.9375 30.5 C-28.03689369 30.73820497 -24.62335778 31.47437567 -21 33 C-21.226875 31.72125 -21.45375 30.4425 -21.6875 29.125 C-22.46082037 21.88080773 -20.45638027 15.69409054 -16.3125 9.75 C-11.90057765 4.35033384 -7.307116 -0.50655917 0 0 Z M-3 10 C-3.99 11.485 -3.99 11.485 -5 13 C1.27 19.27 7.54 25.54 14 32 C14.99 31.01 15.98 30.02 17 29 C13.85817898 25.8293305 10.71089125 22.66414446 7.5625 19.5 C6.66466797 18.59378906 5.76683594 17.68757813 4.84179688 16.75390625 C3.98779297 15.89667969 3.13378906 15.03945313 2.25390625 14.15625 C1.46314697 13.36025391 0.6723877 12.56425781 -0.14233398 11.74414062 C-1.69681756 9.88592007 -1.69681756 9.88592007 -3 10 Z M-7 16 C-7.79421088 17.80487192 -7.79421088 17.80487192 -8 20 C-6.75243864 21.93936723 -6.75243864 21.93936723 -4.81640625 23.671875 C-4.13642578 24.33574219 -3.45644531 24.99960937 -2.75585938 25.68359375 C-2.03205078 26.36550781 -1.30824219 27.04742187 -0.5625 27.75 C0.15744141 28.44738281 0.87738281 29.14476562 1.61914062 29.86328125 C3.40211461 31.58721636 5.19567826 33.29846609 7 35 C8.32 34.34 9.64 33.68 11 33 C6.04381506 27.00040771 0.80773381 21.19144551 -5 16 C-5.66 16 -6.32 16 -7 16 Z M-9 23 C-9 27.29 -9 31.58 -9 36 C-4.71 36 -0.42 36 4 36 C-0.01471821 31.10400219 -4.10400219 27.01471821 -9 23 Z M-32 39 C-32.40824942 42.89768049 -32.40824942 42.89768049 -30.43945312 45.01464844 C-29.37114258 46.05153809 -29.37114258 46.05153809 -28.28125 47.109375 C-27.51425781 47.86347656 -26.74726562 48.61757813 -25.95703125 49.39453125 C-25.14621094 50.17183594 -24.33539063 50.94914062 -23.5 51.75 C-22.68917969 52.54277344 -21.87835938 53.33554688 -21.04296875 54.15234375 C-19.0373034 56.11081698 -17.02291202 58.05937163 -15 60 C-14.01 59.67 -13.02 59.34 -12 59 C-13.42062515 55.7731002 -15.14245441 53.60057488 -17.625 51.109375 C-18.33140625 50.40039062 -19.0378125 49.69140625 -19.765625 48.9609375 C-20.50296875 48.23132812 -21.2403125 47.50171875 -22 46.75 C-22.73734375 46.00492188 -23.4746875 45.25984375 -24.234375 44.4921875 C-24.94078125 43.78835937 -25.6471875 43.08453125 -26.375 42.359375 C-27.02210937 41.71452148 -27.66921875 41.06966797 -28.3359375 40.40527344 C-29.89166356 38.78493391 -29.89166356 38.78493391 -32 39 Z M-24 41 C-19.50830072 46.53038493 -19.50830072 46.53038493 -14 51 C-14.93257834 46.89665529 -15.64129026 45.28397854 -19 42.625 C-21.72445799 40.84123895 -21.72445799 40.84123895 -24 41 Z M-34 46 C-34.48088212 49.55852772 -34.18706668 50.75118315 -31.98828125 53.67578125 C-31.10527344 54.54589844 -30.22226562 55.41601562 -29.3125 56.3125 C-28.00732422 57.63701172 -28.00732422 57.63701172 -26.67578125 58.98828125 C-23.75118315 61.18706668 -22.55852772 61.48088212 -19 61 C-23.39168507 55.72997792 -27.9426379 50.64697949 -33 46 C-33.33 46 -33.66 46 -34 46 Z M-32 57 C-32 57.66 -32 58.32 -32 59 C-31.34 58.67 -30.68 58.34 -30 58 C-30.66 57.67 -31.32 57.34 -32 57 Z M-53 71 C-51.6078125 72.670625 -51.6078125 72.670625 -50.1875 74.375 C-49.66542969 75.00148438 -49.14335938 75.62796875 -48.60546875 76.2734375 C-46.91774261 78.2221048 -46.91774261 78.2221048 -44 80 C-44 77.03 -44 74.06 -44 71 C-46.97 71 -49.94 71 -53 71 Z M-61 73 C-56.05 77.95 -51.1 82.9 -46 88 C-45.34 86.68 -44.68 85.36 -44 84 C-46.14285892 81.83031809 -48.28908232 79.66416525 -50.4375 77.5 C-51.04916016 76.87996094 -51.66082031 76.25992188 -52.29101562 75.62109375 C-52.87431641 75.03457031 -53.45761719 74.44804688 -54.05859375 73.84375 C-54.59798584 73.29912109 -55.13737793 72.75449219 -55.69311523 72.19335938 C-58.03097013 70.05858733 -58.04975881 71.03317254 -61 73 Z M-65 73 C-65.99 73.99 -66.98 74.98 -68 76 C-61.73 82.27 -55.46 88.54 -49 95 C-48.01 94.01 -47.02 93.02 -46 92 C-49.86917681 87.27100612 -54.00302036 82.88730678 -58.3125 78.5625 C-58.85229492 78.01819336 -59.39208984 77.47388672 -59.94824219 76.91308594 C-62.11243544 74.22370013 -62.11243544 74.22370013 -65 73 Z " fill="#1889F8" transform="translate(89,12)"/>
<path d="M0 0 C4.92784505 0.417313 6.9777145 2.54985927 10.3125 6.0625 C11.19550781 6.98160156 12.07851562 7.90070312 12.98828125 8.84765625 C13.65214844 9.55792969 14.31601563 10.26820312 15 11 C14.34 9.02 13.68 7.04 13 5 C21.27260482 6.31806701 21.27260482 6.31806701 24 8.875 C26.29029032 13.74186693 26.5226067 18.6979175 26 24 C23.77257092 29.27548992 20.08879982 32.12270408 14.875 34.3125 C9.76249983 35.21955648 5.11694128 34.68472632 0 34 C-0.03867188 35.03447266 -0.03867188 35.03447266 -0.078125 36.08984375 C-0.7011319 46.41193543 -4.02972385 54.29784486 -11 62 C-14.4849167 64.96488068 -14.4849167 64.96488068 -17.75 65.1875 C-18.86375 65.0946875 -18.86375 65.0946875 -20 65 C-21 61 -21 61 -21.29614258 59.12988281 C-22.83461703 54.4744367 -27.29673743 51.14872834 -30.6875 47.75 C-31.49123047 46.90953125 -32.29496094 46.0690625 -33.12304688 45.203125 C-33.91130859 44.4090625 -34.69957031 43.615 -35.51171875 42.796875 C-36.22803467 42.06823242 -36.94435059 41.33958984 -37.68237305 40.58886719 C-40.62093767 38.57431135 -42.5103251 38.78072776 -46 39 C-47 38 -47 38 -47.4375 35.875 C-46.66290624 30.78481242 -43.09700052 27.69952983 -39.20703125 24.546875 C-27.35467398 16.43350878 -14.635185 17.91579298 -1 19 C-1.66 18.34 -2.32 17.68 -3 17 C-2.625 14.875 -2.625 14.875 -2 13 C-1.53851563 13.55429688 -1.07703125 14.10859375 -0.6015625 14.6796875 C4.48902814 20.33366367 8.42035629 22.37871773 16 23 C16.83027203 20.71135799 16.83027203 20.71135799 17 18 C15.58069362 15.76940528 15.58069362 15.76940528 13.37890625 13.828125 C12.60869141 13.08175781 11.83847656 12.33539063 11.04492188 11.56640625 C10.22572266 10.80199219 9.40652344 10.03757812 8.5625 9.25 C6.95799436 7.71525548 5.35503822 6.1788888 3.75390625 4.640625 C3.03533447 3.96547852 2.3167627 3.29033203 1.57641602 2.59472656 C0 1 0 1 0 0 Z M-23 32 C-21.6078125 33.670625 -21.6078125 33.670625 -20.1875 35.375 C-19.66542969 36.00148438 -19.14335938 36.62796875 -18.60546875 37.2734375 C-16.91774261 39.2221048 -16.91774261 39.2221048 -14 41 C-14 38.03 -14 35.06 -14 32 C-16.97 32 -19.94 32 -23 32 Z M-31 34 C-26.05 38.95 -21.1 43.9 -16 49 C-15.34 47.68 -14.68 46.36 -14 45 C-16.14285892 42.83031809 -18.28908232 40.66416525 -20.4375 38.5 C-21.04916016 37.87996094 -21.66082031 37.25992188 -22.29101562 36.62109375 C-22.87431641 36.03457031 -23.45761719 35.44804688 -24.05859375 34.84375 C-24.59798584 34.29912109 -25.13737793 33.75449219 -25.69311523 33.19335938 C-28.03097013 31.05858733 -28.04975881 32.03317254 -31 34 Z M-35 34 C-35.99 34.99 -36.98 35.98 -38 37 C-31.73 43.27 -25.46 49.54 -19 56 C-18.01 55.01 -17.02 54.02 -16 53 C-19.86917681 48.27100612 -24.00302036 43.88730678 -28.3125 39.5625 C-28.85229492 39.01819336 -29.39208984 38.47388672 -29.94824219 37.91308594 C-32.11243544 35.22370013 -32.11243544 35.22370013 -35 34 Z " fill="#FA5B2F" transform="translate(59,51)"/>
<path d="M0 0 C1.15660058 3.59831292 1.15660058 3.59831292 0.27368164 5.86303711 C-0.27408243 8.16004956 -0.27408243 8.16004956 1.63061523 10.15063477 C2.43184814 10.90658936 3.23308105 11.66254395 4.05859375 12.44140625 C4.91904297 13.27220703 5.77949219 14.10300781 6.66601562 14.95898438 C7.58060547 15.81814453 8.49519531 16.67730469 9.4375 17.5625 C11.23438516 19.26528077 13.02509715 20.97460735 14.80859375 22.69140625 C15.61095459 23.44623291 16.41331543 24.20105957 17.23999023 24.97875977 C19 27 19 27 19 30 C15.63664406 28.54254576 13.45465995 26.68882146 10.890625 24.0859375 C10.13652344 23.32539062 9.38242188 22.56484375 8.60546875 21.78125 C7.82816406 20.9871875 7.05085938 20.193125 6.25 19.375 C5.06083984 18.17230469 5.06083984 18.17230469 3.84765625 16.9453125 C1.89385507 14.96797154 -0.05512103 12.98611091 -2 11 C-2.99 11.495 -2.99 11.495 -4 12 C-4.65213292 14.02463255 -4.65213292 14.02463255 -5 16 C-5.66 16 -6.32 16 -7 16 C-8.10789535 20.05308333 -8.33731267 24.07111374 -8.5625 28.25 C-8.60568359 28.99507812 -8.64886719 29.74015625 -8.69335938 30.5078125 C-8.79896725 32.338349 -8.89994201 34.16915176 -9 36 C-10.43791516 35.85831863 -11.8753237 35.71148957 -13.3125 35.5625 C-14.11300781 35.48128906 -14.91351563 35.40007813 -15.73828125 35.31640625 C-18 35 -18 35 -21 34 C-22.61066745 24.87935298 -21.68236943 17.46735334 -16.3125 9.75 C-11.90057765 4.35033384 -7.307116 -0.50655917 0 0 Z " fill="#FC5B2D" transform="translate(89,12)"/>
<path d="M0 0 C4 0 4 0 5.88671875 1.71484375 C6.48097656 2.44832031 7.07523438 3.18179688 7.6875 3.9375 C8.28949219 4.66839844 8.89148438 5.39929688 9.51171875 6.15234375 C10.00285156 6.76207031 10.49398437 7.37179688 11 8 C11.33 8.33 11.66 8.66 12 9 C12.33 6.69 12.66 4.38 13 2 C17.62 2 22.24 2 27 2 C27 13.38158939 24.10194917 22.79144624 16 31 C12.82054884 33.68797112 11.19693611 34.34974468 7 34 C6.06954067 31.44855176 5.91435909 30.25993522 6.77734375 27.640625 C7.16019531 26.85171875 7.54304688 26.0628125 7.9375 25.25 C8.31777344 24.45078125 8.69804688 23.6515625 9.08984375 22.828125 C9.39019531 22.22484375 9.69054687 21.6215625 10 21 C9.48501953 20.49549316 8.97003906 19.99098633 8.43945312 19.47119141 C6.12114016 17.19431436 3.81050842 14.90979529 1.5 12.625 C0.68917969 11.8309375 -0.12164063 11.036875 -0.95703125 10.21875 C-1.72402344 9.45820312 -2.49101562 8.69765625 -3.28125 7.9140625 C-3.99345703 7.2123291 -4.70566406 6.5105957 -5.43945312 5.78759766 C-7 4 -7 4 -7 2 C-3.57245533 2.58110671 -1.95461339 3.68553624 0.453125 6.16015625 C1.071875 6.78857422 1.690625 7.41699219 2.328125 8.06445312 C2.96234375 8.72380859 3.5965625 9.38316406 4.25 10.0625 C4.8996875 10.72572266 5.549375 11.38894531 6.21875 12.07226562 C7.8194676 13.70829317 9.41276193 15.35090912 11 17 C11.33 16.01 11.66 15.02 12 14 C10.700625 12.73542969 10.700625 12.73542969 9.375 11.4453125 C8.24973959 10.33880643 7.12475372 9.23202112 6 8.125 C5.42765625 7.56941406 4.8553125 7.01382813 4.265625 6.44140625 C2.80549218 4.99865596 1.39850702 3.5025626 0 2 C0 1.34 0 0.68 0 0 Z " fill="#1989F7" transform="translate(32,82)"/>
<path d="M0 0 C0.33 0 0.66 0 1 0 C1.144375 0.78375 1.28875 1.5675 1.4375 2.375 C1.87798925 4.96421018 1.87798925 4.96421018 3 7 C4.32 7 5.64 7 7 7 C7 9.31 7 11.62 7 14 C0.25 16.125 0.25 16.125 -2 15 C-3.14303229 10.35911703 -3.56320848 6.28001926 -1.625 1.875 C-1.08875 1.25625 -0.5525 0.6375 0 0 Z " fill="#198AF9" transform="translate(45,53)"/>
<path d="M0 0 C0.625 1.875 0.625 1.875 1 4 C0.34 4.66 -0.32 5.32 -1 6 C-1.33 5.67 -1.66 5.34 -2 5 C-3.32 6.65 -4.64 8.3 -6 10 C-5.34 10.66 -4.68 11.32 -4 12 C-4.375 14.125 -4.375 14.125 -5 16 C-5.66 16 -6.32 16 -7 16 C-7.33 16.99 -7.66 17.98 -8 19 C-8.92297463 13.3595995 -9.62165659 7.58313198 -8 2 C-4.77208445 -0.1519437 -3.71599191 -0.20086443 0 0 Z " fill="#FA5A38" transform="translate(89,12)"/>
<path d="M0 0 C2.76631774 0.26459195 5.53793588 0.4112503 8.3125 0.5625 C9.05306641 0.60568359 9.79363281 0.64886719 10.55664062 0.69335938 C12.37091464 0.79870432 14.1854355 0.89978316 16 1 C15.67 1.66 15.34 2.32 15 3 C13.81921875 3.06058594 12.6384375 3.12117188 11.421875 3.18359375 C9.8645723 3.26802582 8.30728121 3.35267249 6.75 3.4375 C5.97269531 3.47681641 5.19539063 3.51613281 4.39453125 3.55664062 C3.64042969 3.59853516 2.88632813 3.64042969 2.109375 3.68359375 C1.07248535 3.73858032 1.07248535 3.73858032 0.01464844 3.79467773 C-2.04082808 3.94378579 -2.04082808 3.94378579 -4.11621094 4.60961914 C-6 5 -6 5 -8.25 3.5625 C-8.8275 3.046875 -9.405 2.53125 -10 2 C-6.05017272 -0.8213052 -4.61914515 -1.01519674 0 0 Z " fill="#0E8AFE" transform="translate(73,48)"/>
<path d="M0 0 C4.07376031 1.61010527 6.76507069 4.53822271 9.75 7.625 C10.25660156 8.140625 10.76320313 8.65625 11.28515625 9.1875 C12.52803902 10.45383339 13.76465276 11.7263144 15 13 C14.67 13.99 14.34 14.98 14 16 C10.25678983 12.86792618 6.58550652 9.69171033 3.0625 6.3125 C2.47597656 5.75175781 1.88945313 5.19101562 1.28515625 4.61328125 C0 3 0 3 0 0 Z " fill="#1C87F2" transform="translate(80,32)"/>
<path d="M0 0 C1.65 0.33 3.3 0.66 5 1 C5 1.66 5 2.32 5 3 C5.99 3 6.98 3 8 3 C7.67 4.98 7.34 6.96 7 9 C6.34 9 5.68 9 5 9 C5 8.01 5 7.02 5 6 C4.505 6.165 4.01 6.33 3.5 6.5 C-0.03444089 7.20688818 -3.39690701 7.06005155 -7 7 C-7 6.67 -7 6.34 -7 6 C-4.69 6 -2.38 6 0 6 C0 4.02 0 2.04 0 0 Z " fill="#F95E24" transform="translate(77,69)"/>
<path d="M0 0 C1.1055189 0.93590504 2.20935453 1.87379858 3.3125 2.8125 C3.92738281 3.33457031 4.54226562 3.85664062 5.17578125 4.39453125 C8.51952278 7.3373102 8.51952278 7.3373102 10 9 C10 9.66 10 10.32 10 11 C7.73828125 11.25 7.73828125 11.25 5 11 C2.98046875 9.25 2.98046875 9.25 1.1875 7 C0.58292969 6.2575 -0.02164063 5.515 -0.64453125 4.75 C-1.09183594 4.1725 -1.53914063 3.595 -2 3 C-1.34 2.01 -0.68 1.02 0 0 Z " fill="#1B89F6" transform="translate(65,63)"/>
<path d="M0 0 C0.33 0 0.66 0 1 0 C1.33 4.95 1.66 9.9 2 15 C0.68 15 -0.64 15 -2 15 C-2 14.34 -2 13.68 -2 13 C-4.31 13 -6.62 13 -9 13 C-8.67 12.01 -8.34 11.02 -8 10 C-8 10.66 -8 11.32 -8 12 C-4.23563364 10.37236227 -4.23563364 10.37236227 -1 8 C-0.05915699 5.19885375 -0.05004625 3.00277471 0 0 Z " fill="#FE591B" transform="translate(78,32)"/>
<path d="M0 0 C-0.33 1.65 -0.66 3.3 -1 5 C-0.34 5.33 0.32 5.66 1 6 C-0.98 6.99 -0.98 6.99 -3 8 C-0.69 8 1.62 8 4 8 C4 8.66 4 9.32 4 10 C5.32 10.33 6.64 10.66 8 11 C6.56208484 10.85831863 5.1246763 10.71148957 3.6875 10.5625 C2.88699219 10.48128906 2.08648437 10.40007813 1.26171875 10.31640625 C-1 10 -1 10 -4 9 C-4.6875 6.1875 -4.6875 6.1875 -5 3 C-3.41464922 0.73521317 -2.79754986 0 0 0 Z " fill="#F1613F" transform="translate(72,37)"/>
<path d="M0 0 C6.8359375 1.26953125 6.8359375 1.26953125 9 2 C9.99 3.485 9.99 3.485 11 5 C10.21625 5.12375 9.4325 5.2475 8.625 5.375 C5.85942178 5.79117993 5.85942178 5.79117993 4 8 C2.68 5.36 1.36 2.72 0 0 Z " fill="#E86248" transform="translate(72,56)"/>
<path d="M0 0 C0.66 0.33 1.32 0.66 2 1 C2.59355614 3.64860427 2.74209269 6.29197322 3 9 C0.8535247 8.88655624 -1.29220592 8.75893655 -3.4375 8.625 C-4.63246094 8.55539063 -5.82742187 8.48578125 -7.05859375 8.4140625 C-8.02925781 8.27742188 -8.99992187 8.14078125 -10 8 C-10.33 7.34 -10.66 6.68 -11 6 C-7.04 6.33 -3.08 6.66 1 7 C0.67 4.69 0.34 2.38 0 0 Z " fill="#5D7CC7" transform="translate(54,62)"/>
<path d="M0 0 C0.66 0.33 1.32 0.66 2 1 C1.79375 1.61875 1.5875 2.2375 1.375 2.875 C1.25125 3.57625 1.1275 4.2775 1 5 C1.66 5.66 2.32 6.32 3 7 C2.625 9.125 2.625 9.125 2 11 C1.34 11 0.68 11 0 11 C-0.33 11.99 -0.66 12.98 -1 14 C-1.93402724 8.58264203 -2.20808081 5.19548425 0 0 Z " fill="#ED5E43" transform="translate(82,17)"/>
<path d="M0 0 C0.8353125 0.556875 0.8353125 0.556875 1.6875 1.125 C-1.7775 2.61 -1.7775 2.61 -5.3125 4.125 C-4.3225 5.115 -3.3325 6.105 -2.3125 7.125 C-6.7675 6.135 -6.7675 6.135 -11.3125 5.125 C-9.9925 4.795 -8.6725 4.465 -7.3125 4.125 C-7.3125 3.135 -7.3125 2.145 -7.3125 1.125 C-2.88173077 -1.09038462 -2.88173077 -1.09038462 0 0 Z " fill="#3684DF" transform="translate(69.3125,45.875)"/>
<path d="M0 0 C-1.0625 2 -1.0625 2 -3 4 C-6.6875 4.25 -6.6875 4.25 -10 4 C-9.01 3.67 -8.02 3.34 -7 3 C-7 2.34 -7 1.68 -7 1 C-3.375 -1.125 -3.375 -1.125 0 0 Z " fill="#2D88EE" transform="translate(115,39)"/>
<path d="M0 0 C0.33 1.32 0.66 2.64 1 4 C1.66 4 2.32 4 3 4 C3 4.99 3 5.98 3 7 C0.36 7 -2.28 7 -5 7 C-4.67 6.34 -4.34 5.68 -4 5 C-2.68 5 -1.36 5 0 5 C-0.2784375 4.0409375 -0.2784375 4.0409375 -0.5625 3.0625 C-0.706875 2.381875 -0.85125 1.70125 -1 1 C-0.67 0.67 -0.34 0.34 0 0 Z " fill="#0890FE" transform="translate(52,62)"/>
<path d="M0 0 C0.33 0.99 0.66 1.98 1 3 C1.66 3 2.32 3 3 3 C3 3.66 3 4.32 3 5 C3.99 5 4.98 5 6 5 C5.67 5.99 5.34 6.98 5 8 C3.68 8 2.36 8 1 8 C0.67 5.36 0.34 2.72 0 0 Z " fill="#0B8BFA" transform="translate(43,105)"/>
<path d="M0 0 C1.32 0 2.64 0 4 0 C7 3.21428571 7 3.21428571 7 6 C3.75728494 5.4409112 2.06942576 4.5867822 0 2 C0 1.34 0 0.68 0 0 Z " fill="#4483DD" transform="translate(32,82)"/>
<path d="M0 0 C0.99 0 1.98 0 3 0 C3 1.65 3 3.3 3 5 C2.34 5 1.68 5 1 5 C1 5.66 1 6.32 1 7 C-1.64 7 -4.28 7 -7 7 C-7 6.67 -7 6.34 -7 6 C-4.69 6 -2.38 6 0 6 C0 4.02 0 2.04 0 0 Z " fill="#FE5A1A" transform="translate(77,69)"/>
<path d="M0 0 C0.79921875 0.01804688 1.5984375 0.03609375 2.421875 0.0546875 C3.02515625 0.07789063 3.6284375 0.10109375 4.25 0.125 C0.68904445 2.00001642 -2.8622886 3.07830847 -6.75 4.125 C-7.41 3.465 -8.07 2.805 -8.75 2.125 C-5.68753253 0.34090198 -3.52920727 -0.10380021 0 0 Z " fill="#2182F8" transform="translate(75.75,50.875)"/>
<path d="M0 0 C3.36720387 1.39332574 4.9859524 2.9789286 7 6 C6.01 6.33 5.02 6.66 4 7 C2 5.1875 2 5.1875 0 3 C0 2.01 0 1.02 0 0 Z " fill="#3381E5" transform="translate(80,32)"/>
<path d="M0 0 C0.33 0 0.66 0 1 0 C1.33 2.64 1.66 5.28 2 8 C0.35 7.67 -1.3 7.34 -3 7 C-2.01 4.69 -1.02 2.38 0 0 Z " fill="#4083E6" transform="translate(42,104)"/>
<path d="M0 0 C0.99 0.66 1.98 1.32 3 2 C2.67 2.99 2.34 3.98 2 5 C-0.31 4.67 -2.62 4.34 -5 4 C-4.0409375 3.8453125 -4.0409375 3.8453125 -3.0625 3.6875 C-2.381875 3.460625 -1.70125 3.23375 -1 3 C-0.67 2.01 -0.34 1.02 0 0 Z " fill="#1F8AEF" transform="translate(87,56)"/>
<path d="M0 0 C1.65 1.65 3.3 3.3 5 5 C4.01 5.33 3.02 5.66 2 6 C0.68 4.35 -0.64 2.7 -2 1 C-1.34 0.67 -0.68 0.34 0 0 Z " fill="#2387EF" transform="translate(39,87)"/>
<path d="M0 0 C2 1.375 2 1.375 4 3 C4 3.66 4 4.32 4 5 C2.35 5 0.7 5 -1 5 C-1.33 4.01 -1.66 3.02 -2 2 C-1.34 2 -0.68 2 0 2 C0 1.34 0 0.68 0 0 Z " fill="#497EDD" transform="translate(71,69)"/>
<path d="M0 0 C2.375 0.3125 2.375 0.3125 5 1 C5.66 1.99 6.32 2.98 7 4 C6.34 4.66 5.68 5.32 5 6 C3.35 4.02 1.7 2.04 0 0 Z " fill="#F16042" transform="translate(59,51)"/>
<path d="M0 0 C3.3 0 6.6 0 10 0 C7 3 7 3 3.8125 3.1875 C2.4203125 3.0946875 2.4203125 3.0946875 1 3 C0.67 2.01 0.34 1.02 0 0 Z " fill="#FC563B" transform="translate(30,80)"/>
</svg>
