<?xml version="1.0" encoding="UTF-8"?>
<svg version="1.1" xmlns="http://www.w3.org/2000/svg" width="128" height="128">
<path d="M0 0 C9.30734021 6.93981329 14.71619529 15.6644732 17.5625 26.8125 C19.34372701 48.63253084 10.47532938 65.07433801 -3.33984375 81.421875 C-5.57271259 83.95757416 -7.8656908 86.42051599 -10.1875 88.875 C-10.67186523 89.40254883 -11.15623047 89.93009766 -11.65527344 90.47363281 C-13.2120993 92.16532495 -14.79050669 93.83423174 -16.375 95.5 C-16.86202393 96.03367187 -17.34904785 96.56734375 -17.85083008 97.1171875 C-20.22431026 99.56018047 -21.67172214 100.80958617 -25.09619141 101.24389648 C-28.83627363 100.79757961 -29.91924214 99.89234161 -32.54296875 97.24609375 C-33.32510742 96.46580811 -34.10724609 95.68552246 -34.91308594 94.8815918 C-35.72551758 94.0337915 -36.53794922 93.18599121 -37.375 92.3125 C-38.21708008 91.44858643 -39.05916016 90.58467285 -39.92675781 89.69458008 C-54.28172858 74.71962259 -67.7979895 56.90227655 -68.5625 35.3125 C-68.16159683 23.19825205 -63.34582492 12.59770414 -55.19921875 3.7265625 C-51.57840453 0.39400727 -47.57233085 -1.93258457 -43.1875 -4.125 C-42.52492188 -4.46660156 -41.86234375 -4.80820313 -41.1796875 -5.16015625 C-27.80950828 -10.79660435 -11.73758845 -7.51134632 0 0 Z " fill="#FD564D" transform="translate(89.1875,17.125)"/>
<path d="M0 0 C4.62531853 4.44030579 6.18367319 7.41291315 6.390625 13.8125 C6.17909439 18.99179488 5.80089804 22.51434753 2.953125 26.875 C-3.30430762 31.86790977 -9.11155357 33.59763236 -17.046875 32.875 C-23.68019466 30.66389345 -27.17805931 25.67822354 -30.921875 20.0625 C-32.75686595 14.86335898 -33.21825979 9.79845606 -31.1328125 4.59375 C-28.13213172 -0.59452386 -24.47777233 -3.91954959 -18.734375 -5.9375 C-10.83469485 -6.48864048 -6.09664806 -5.28660391 0 0 Z " fill="#FEFCFB" transform="translate(78.046875,40.125)"/>
<path d="M0 0 C0 0.33 0 0.66 0 1 C-5.61 1 -11.22 1 -17 1 C-16.01 2.65 -15.02 4.3 -14 6 C-15.5441248 7.5441248 -17.29683477 7.33779686 -19.4375 7.625 C-26.81493892 9.0327466 -32.26760011 13.19753858 -37.4375 18.5 C-39.35301123 21.56481796 -40.68700026 24.63187024 -42 28 C-42.26941406 28.59554687 -42.53882813 29.19109375 -42.81640625 29.8046875 C-45.35435742 35.71431292 -45.6918839 41.62518404 -46 48 C-46.33 46.68 -46.66 45.36 -47 44 C-47.66 44 -48.32 44 -49 44 C-50.63676257 45.9600281 -50.63676257 45.9600281 -52 48 C-52.70682334 34.46564191 -49.32824891 23.3920657 -40.8125 12.8125 C-36.81250001 8.45675163 -32.26162835 5.63081417 -27 3 C-26.33742188 2.65839844 -25.67484375 2.31679687 -24.9921875 1.96484375 C-17.23156808 -1.30678993 -8.24576148 -0.24016781 0 0 Z " fill="#FA5D57" transform="translate(73,10)"/>
<path d="M0 0 C-2.38536995 2.38536995 -4.78839042 3.02722077 -7.91015625 4.15625 C-13.24718382 6.31101253 -17.09323836 9.87619605 -21 14 C-21.66 14.66 -22.32 15.32 -23 16 C-24.06817282 18.32211482 -25.0479655 20.63163832 -26 23 C-26.27199219 23.59941406 -26.54398438 24.19882812 -26.82421875 24.81640625 C-29.35259613 30.72417582 -29.69211373 36.62993931 -30 43 C-33.45373127 37.11894756 -32.84389946 30.28956925 -31.1953125 23.86328125 C-27.1540782 12.97981921 -19.81574411 6.23636092 -9.59765625 1.01953125 C-6.10833953 -0.34995997 -3.689501 -0.49193347 0 0 Z " fill="#FE9389" transform="translate(57,15)"/>
<path d="M0 0 C0.66 0.33 1.32 0.66 2 1 C2.59809716 14.49041372 2.59809716 14.49041372 -1 20 C-7.21326863 24.95767059 -13.09974269 26.8061487 -21 26 C-24.5625 24.5 -24.5625 24.5 -27 23 C-23.24600202 21.7960663 -19.66782588 21.90122383 -15.75 21.9375 C-13.85507813 21.95103516 -13.85507813 21.95103516 -11.921875 21.96484375 C-10.95765625 21.97644531 -9.9934375 21.98804687 -9 22 C-9 21.34 -9 20.68 -9 20 C-8.236875 19.401875 -7.47375 18.80375 -6.6875 18.1875 C-3.00338967 15.18880554 -1.29315761 13.01510282 -0.59765625 8.234375 C-0.34077743 5.48964245 -0.13981855 2.75297897 0 0 Z " fill="#FEABA2" transform="translate(82,47)"/>
<path d="M0 0 C0.33 0 0.66 0 1 0 C1.33 5.61 1.66 11.22 2 17 C1.01 17 0.02 17 -1 17 C-2 16 -2 16 -2.09765625 14.15234375 C-2.06510417 12.1015625 -2.03255208 10.05078125 -2 8 C-1.67 8 -1.34 8 -1 8 C-0.67 5.36 -0.34 2.72 0 0 Z " fill="#FE6858" transform="translate(27,46)"/>
<path d="M0 0 C0.66 0 1.32 0 2 0 C1.84015625 0.55945312 1.6803125 1.11890625 1.515625 1.6953125 C0.00889992 8.42991702 0.55090998 14.00158257 4 20 C3.67 20.66 3.34 21.32 3 22 C0 20 0 20 -0.6796875 17.828125 C-1.06233061 14.44966634 -1.13211333 11.15017244 -1.125 7.75 C-1.12757812 6.50734375 -1.13015625 5.2646875 -1.1328125 3.984375 C-1 1 -1 1 0 0 Z " fill="#F76B6B" transform="translate(46,43)"/>
<path d="M0 0 C0.33 0.66 0.66 1.32 1 2 C-4.28 2 -9.56 2 -15 2 C-14 0 -14 0 -12 -0.6875 C-7.96375107 -1.1079426 -3.96083364 -0.94110717 0 0 Z " fill="#FFE2E4" transform="translate(71,35)"/>
<path d="M0 0 C1 3 1 3 0.00390625 5.26171875 C-0.47175781 6.06222656 -0.94742188 6.86273438 -1.4375 7.6875 C-1.91058594 8.49574219 -2.38367187 9.30398437 -2.87109375 10.13671875 C-3.24363281 10.75160156 -3.61617187 11.36648437 -4 12 C-4.65234375 10.265625 -4.65234375 10.265625 -5 8 C-4.00390625 5.859375 -4.00390625 5.859375 -2.5625 3.75 C-2.08941406 3.04359375 -1.61632813 2.3371875 -1.12890625 1.609375 C-0.75636719 1.07828125 -0.38382813 0.5471875 0 0 Z " fill="#FDE2D3" transform="translate(51,39)"/>
<path d="M0 0 C0.66 0.33 1.32 0.66 2 1 C0.86280581 4.41158256 -0.04342944 5.11854601 -3 7 C-3.66 7 -4.32 7 -5 7 C-5 6.01 -5 5.02 -5 4 C-3.35 3.34 -1.7 2.68 0 2 C0 1.34 0 0.68 0 0 Z " fill="#FF9E99" transform="translate(80,63)"/>
<path d="M0 0 C0.33 0 0.66 0 1 0 C1 1.65 1 3.3 1 5 C0.34 5 -0.32 5 -1 5 C-1 5.66 -1 6.32 -1 7 C-2.65 7.66 -4.3 8.32 -6 9 C-5.02501855 7.4972763 -4.04490611 5.99788037 -3.0625 4.5 C-2.51722656 3.6646875 -1.97195312 2.829375 -1.41015625 1.96875 C-0.94480469 1.3190625 -0.47945313 0.669375 0 0 Z " fill="#FABEB8" transform="translate(81,58)"/>
</svg>
