<?xml version="1.0" encoding="UTF-8"?>
<svg version="1.1" xmlns="http://www.w3.org/2000/svg" width="128" height="128">
<path d="M0 0 C2.5285187 1.31767876 4.36481944 1.97184218 7.21875 2.15625 C9.86074622 1.02403334 9.86074622 1.02403334 12.34375 -0.71875 C18.768473 -4.91727719 23.99257645 -5.75740142 31.55371094 -4.43554688 C33.91951384 -3.87829993 36.25462148 -3.25380112 38.59375 -2.59375 C39.75390625 -2.28630859 39.75390625 -2.28630859 40.9375 -1.97265625 C47.21020663 -0.26474108 53.06133689 1.91719069 59.21875 4.15625 C59.21875 31.21625 59.21875 58.27625 59.21875 86.15625 C55.2349858 87.15219105 54.47230016 87.19695751 50.84765625 85.9765625 C50.02587891 85.70714844 49.20410156 85.43773438 48.35742188 85.16015625 C47.50728516 84.87011719 46.65714844 84.58007812 45.78125 84.28125 C33.82441917 80.29260422 23.23618536 77.81853552 11.1796875 83.0859375 C9.06825084 84.11881679 9.06825084 84.11881679 7.21875 86.15625 C1.43641693 85.92949184 -1.97328106 84.05917464 -6.78125 81.15625 C-19.15421904 77.1532306 -33.00780722 81.86379489 -44.80175781 85.83691406 C-46.6640625 86.4453125 -46.6640625 86.4453125 -49.78125 87.15625 C-50.77125 86.49625 -51.76125 85.83625 -52.78125 85.15625 C-53.06769682 82.52367247 -53.15968744 80.12713158 -53.12182617 77.49365234 C-53.12226425 76.70332108 -53.12270233 75.91298981 -53.12315369 75.09870911 C-53.12105932 72.4796195 -53.09769826 69.86116563 -53.07421875 67.2421875 C-53.06862509 65.4290095 -53.06435391 63.61582697 -53.06135559 61.80264282 C-53.04988869 57.02510102 -53.02040575 52.24783186 -52.98724365 47.47039795 C-52.95658243 42.59749032 -52.94285871 37.72453874 -52.92773438 32.8515625 C-52.89553773 23.2863384 -52.8443192 13.72131685 -52.78125 4.15625 C-49.40751108 3.01706251 -46.0320448 1.88307927 -42.65625 0.75 C-41.70492187 0.42870117 -40.75359375 0.10740234 -39.7734375 -0.22363281 C-26.2206042 -4.76477314 -13.03469184 -7.67796917 0 0 Z " fill="#C3CACF" transform="translate(60.78125,22.84375)"/>
<path d="M0 0 C2.44133237 2.44133237 2.23458132 3.74108811 2.24884033 7.07189941 C2.24164978 7.77536499 2.23445923 8.47883057 2.22705078 9.20361328 C2.22734283 9.9451767 2.22763489 10.68674011 2.22793579 11.45077515 C2.22653994 13.90740571 2.21096698 16.36373478 2.1953125 18.8203125 C2.19158327 20.52139114 2.18873587 22.22247192 2.18673706 23.92355347 C2.17909349 28.40510976 2.15943884 32.88653683 2.1373291 37.36804199 C2.11688622 41.93935396 2.10773868 46.51068677 2.09765625 51.08203125 C2.07619359 60.05474434 2.04204896 69.02736143 2 78 C1.19560989 77.58808411 1.19560989 77.58808411 0.37496948 77.16784668 C-0.33545502 76.80759399 -1.04587952 76.44734131 -1.77783203 76.07617188 C-2.4790921 75.71906128 -3.18035217 75.36195068 -3.90286255 74.99401855 C-16.75565423 68.90194605 -30.04852738 71.73932191 -42.90478516 75.953125 C-43.75476074 76.22769531 -44.60473633 76.50226563 -45.48046875 76.78515625 C-46.23223389 77.04176025 -46.98399902 77.29836426 -47.75854492 77.56274414 C-50 78 -50 78 -55 77 C-55 52.58 -55 28.16 -55 3 C-15.57554945 -10.14148352 -15.57554945 -10.14148352 0 0 Z " fill="#D3D8DE" transform="translate(63,24)"/>
<path d="M0 0 C1.2065625 0.0309375 1.2065625 0.0309375 2.4375 0.0625 C2.7778125 1.8878125 2.7778125 1.8878125 3.125 3.75 C4.50202895 9.3072954 7.76820575 11.94963717 12.4375 15.0625 C14.4271995 15.45263716 16.42769869 15.79452649 18.4375 16.0625 C18.4375 20.0225 18.4375 23.9825 18.4375 28.0625 C13.99109804 29.17410049 14.08745466 28.98389123 10.4375 27.0625 C2.10827948 25.76532631 -5.46896392 27.8537474 -13.33056641 30.37133789 C-14.06581543 30.60071045 -14.80106445 30.83008301 -15.55859375 31.06640625 C-16.53590454 31.38847046 -16.53590454 31.38847046 -17.53295898 31.71704102 C-19.5625 32.0625 -19.5625 32.0625 -24.5625 31.0625 C-24.5625 27.4325 -24.5625 23.8025 -24.5625 20.0625 C-23.2425 19.7325 -21.9225 19.4025 -20.5625 19.0625 C-21.21734375 18.67449219 -21.8721875 18.28648438 -22.546875 17.88671875 C-24.5625 16.0625 -24.5625 16.0625 -24.953125 13.58203125 C-24.90671875 12.68871094 -24.8603125 11.79539062 -24.8125 10.875 C-24.77640625 9.97394531 -24.7403125 9.07289062 -24.703125 8.14453125 C-24.65671875 7.45746094 -24.6103125 6.77039062 -24.5625 6.0625 C-17.5496995 3.7640974 -10.91479072 1.76945103 -3.5625 1.0625 C-2.5625 0.0625 -2.5625 0.0625 0 0 Z " fill="#3EBDF5" transform="translate(39.5625,27.9375)"/>
<path d="M0 0 C0.886875 0.598125 1.77375 1.19625 2.6875 1.8125 C5.0301772 3.32167222 5.0301772 3.32167222 8 2.375 C10.81402719 1.08523754 13.37406322 -0.36766092 16 -2 C26.48637396 -5.49545799 37.07376729 -2.44230729 47.1484375 0.8203125 C51.71307527 2.28250997 56.18722498 3 61 3 C61 5.64 61 8.28 61 11 C57.73933785 12.08335304 55.86458669 11.90974594 52.62890625 10.8203125 C51.80712891 10.55089844 50.98535156 10.28148438 50.13867188 10.00390625 C49.28853516 9.71386719 48.43839844 9.42382812 47.5625 9.125 C35.60566917 5.13635422 25.01743536 2.66228552 12.9609375 7.9296875 C10.84950084 8.96256679 10.84950084 8.96256679 9 11 C3.21766693 10.77324184 -0.19203106 8.90292464 -5 6 C-17.37296904 1.9969806 -31.22655722 6.70754489 -43.02050781 10.68066406 C-44.8828125 11.2890625 -44.8828125 11.2890625 -48 12 C-48.99 11.34 -49.98 10.68 -51 10 C-51.1875 6.375 -51.1875 6.375 -51 3 C-49.28296875 2.83177734 -49.28296875 2.83177734 -47.53125 2.66015625 C-43.76205161 2.19066251 -40.32225729 1.27657639 -36.70874023 0.1328125 C-24.82210725 -3.60910535 -11.66085844 -5.83042922 0 0 Z " fill="#85898D" transform="translate(59,98)"/>
<path d="M0 0 C6.39256198 -0.37603306 6.39256198 -0.37603306 9.625 1.625 C10.40875 2.07875 11.1925 2.5325 12 3 C13.68272986 2.37498605 15.34630643 1.69822617 17 1 C19.43359375 0.6796875 19.43359375 0.6796875 22.125 0.5625 C22.97320312 0.52253906 23.82140625 0.48257813 24.6953125 0.44140625 C27 1 27 1 28.8046875 3.52734375 C29.19914062 4.34332031 29.59359375 5.15929688 30 6 C28.54980469 6.27263672 28.54980469 6.27263672 27.0703125 6.55078125 C20.27510025 7.85560193 13.68276638 9.20827309 7.1484375 11.546875 C5 12 5 12 0 11 C0 7.37 0 3.74 0 0 Z " fill="#283E58" transform="translate(15,48)"/>
<path d="M0 0 C6.64948761 -0.4749634 10.21374204 0.69356688 16 4 C16 7.3 16 10.6 16 14 C7.81976744 14.48837209 7.81976744 14.48837209 4.0625 12.25 C1.04457618 8.95771946 0.04853381 7.26187911 -0.125 2.75 C-0.08375 1.8425 -0.0425 0.935 0 0 Z " fill="#FADA4C" transform="translate(42,28)"/>
<path d="M0 0 C0.92167969 0.4640625 1.84335937 0.928125 2.79296875 1.40625 C3.45941406 1.7671875 4.12585937 2.128125 4.8125 2.5 C4.8125 3.82 4.8125 5.14 4.8125 6.5 C2.23663172 6.00464072 0.61276022 5.37196168 -1.625 3.9375 C-11.63305071 -0.10083625 -21.66516892 3.12588844 -31.4375 6.30859375 C-34.37182299 7.24085262 -37.16016672 7.98558985 -40.1875 8.5 C-40.1875 7.18 -40.1875 5.86 -40.1875 4.5 C-36.59154678 3.30693951 -32.98472017 2.15066772 -29.375 1 C-28.37017578 0.66613281 -27.36535156 0.33226563 -26.33007812 -0.01171875 C-17.37332128 -2.83410515 -8.67875053 -4.50844183 0 0 Z " fill="#52585D" transform="translate(54.1875,65.5)"/>
<path d="M0 0 C0.99966797 0.33386719 1.99933594 0.66773437 3.02929688 1.01171875 C5.46237933 1.82662675 7.88936936 2.65605666 10.3125 3.5 C10.3125 4.82 10.3125 6.14 10.3125 7.5 C8.70833333 7.0625 7.10416667 6.625 5.5 6.1875 C4.49195313 5.91679688 3.48390625 5.64609375 2.4453125 5.3671875 C0.47261284 4.82112849 -1.49269072 4.24680972 -3.4453125 3.6328125 C-10.49682458 1.47418635 -18.81837344 -0.56830155 -25.89453125 2.4375 C-27.51575561 3.42047393 -29.10481719 4.45610283 -30.6875 5.5 C-31.6775 5.17 -32.6675 4.84 -33.6875 4.5 C-32.3085298 1.0990165 -31.08491619 -0.23029136 -27.75 -1.75 C-18.16551855 -5.48853565 -9.39112454 -3.27582661 0 0 Z " fill="#576064" transform="translate(103.6875,66.5)"/>
<path d="M0 0 C2.20808336 0.72992329 4.41641924 1.45908311 6.625 2.1875 C8.41717462 2.79015822 10.2090279 3.39377748 12 4 C12 4.99 12 5.98 12 7 C6.7964548 6.58371638 2.23759531 5.50234421 -2.75 3.9375 C-10.43802279 1.67728729 -17.94040246 0.26017248 -25.5 3.5 C-26.7375 4.2425 -26.7375 4.2425 -28 5 C-29.32 5 -30.64 5 -32 5 C-31.00784299 2.43333294 -30.3354235 1.20899465 -27.96875 -0.265625 C-17.83249397 -4.30729671 -10.13761926 -3.54223831 0 0 Z " fill="#52585E" transform="translate(102,50)"/>
<path d="M0 0 C1.94507126 1.59950022 2.17921027 2.81862987 2.5390625 5.265625 C-0.1364425 4.730524 -2.11305425 3.93956663 -4.5859375 2.703125 C-12.76763775 -0.83481989 -21.30061914 1.70295119 -29.3984375 4.265625 C-31.23987137 4.83143582 -33.08228052 5.39408507 -34.92578125 5.953125 C-36.12642212 6.33017578 -36.12642212 6.33017578 -37.35131836 6.71484375 C-39.4609375 7.265625 -39.4609375 7.265625 -42.4609375 7.265625 C-42.19384766 5.37207031 -42.19384766 5.37207031 -41.4609375 3.265625 C-39.84130859 2.26074219 -39.84130859 2.26074219 -37.734375 1.5625 C-36.95690918 1.30388184 -36.17944336 1.04526367 -35.37841797 0.77880859 C-34.53939941 0.52695801 -33.70038086 0.27510742 -32.8359375 0.015625 C-31.98016113 -0.24524902 -31.12438477 -0.50612305 -30.24267578 -0.77490234 C-20.00235431 -3.69445094 -9.90956665 -4.67642471 0 0 Z " fill="#585D62" transform="translate(56.4609375,82.734375)"/>
<path d="M0 0 C0 0.99 0 1.98 0 3 C-4.60265808 2.48189975 -8.71105243 1.53695522 -13.10253906 0.08203125 C-20.55509615 -2.37165285 -27.19011015 -4.16706853 -35 -2 C-37.8334743 -0.48537267 -37.8334743 -0.48537267 -40 1 C-42.3125 0.6875 -42.3125 0.6875 -44 0 C-32.56022716 -12.4203248 -13.57460522 -6.78730261 0 0 Z " fill="#4E545B" transform="translate(114,38)"/>
<path d="M0 0 C1.34094727 0.37813843 1.34094727 0.37813843 2.70898438 0.76391602 C3.54236328 1.02229248 4.37574219 1.28066895 5.234375 1.546875 C5.98428711 1.77729492 6.73419922 2.00771484 7.50683594 2.24511719 C9.25 3.25 9.25 3.25 10.00097656 5.35644531 C10.12424316 6.29375488 10.12424316 6.29375488 10.25 7.25 C4.97316969 6.17674638 -0.0200018 4.84496355 -5.125 3.125 C-12.80557078 0.74106555 -19.88799783 -0.53612409 -27.25 3.3125 C-28.16265625 3.88677734 -28.16265625 3.88677734 -29.09375 4.47265625 C-30.75 5.25 -30.75 5.25 -33.75 4.25 C-32.48721868 0.46165605 -31.22887048 0.02988722 -27.75 -1.75 C-18.32688778 -4.63544978 -9.18286574 -2.67124525 0 0 Z " fill="#4A5056" transform="translate(103.75,82.75)"/>
<path d="M0 0 C4.79863646 1.66597179 6.58673817 3.45192963 9 8 C8.67 8.99 8.34 9.98 8 11 C5.6739143 11.38063221 3.33944736 11.71269945 1 12 C0 11 0 11 -0.09765625 8.49609375 C-0.08605469 7.48675781 -0.07445312 6.47742187 -0.0625 5.4375 C-0.05347656 4.42558594 -0.04445313 3.41367187 -0.03515625 2.37109375 C-0.02355469 1.58863281 -0.01195312 0.80617187 0 0 Z " fill="#1C2D3E" transform="translate(15,48)"/>
<path d="M0 0 C7.33813334 -0.5644718 13.16088115 1.44672896 20 4 C20 5.32 20 6.64 20 8 C13.24947898 6.22089072 6.59379663 4.29561809 0 2 C0 1.34 0 0.68 0 0 Z " fill="#495255" transform="translate(94,66)"/>
<path d="M0 0 C7.1446598 -0.48076215 14.03577893 -0.49397122 20 4 C20.7421875 6.140625 20.7421875 6.140625 21 8 C17.75324081 7.26833596 14.73311967 6.18404559 11.625 5 C7.75156095 3.56884983 4.12915072 2.44639467 0 2 C0 1.34 0 0.68 0 0 Z " fill="#4F555C" transform="translate(38,80)"/>
<path d="M0 0 C2.21322216 0.98133436 4.38855938 2.0052752 6.546875 3.1015625 C6.546875 4.4215625 6.546875 5.7415625 6.546875 7.1015625 C3.54283669 6.45057451 0.99772086 5.43660704 -1.765625 4.1015625 C-5.73728223 2.28669926 -9.11606349 1.47067412 -13.453125 1.1015625 C-9.1164 -1.6739415 -4.80379014 -1.75934989 0 0 Z " fill="#595F63" transform="translate(52.453125,64.8984375)"/>
<path d="M0 0 C3.37885612 -0.28526928 6.63291991 -0.46087248 10 0 C12.125 2.5 12.125 2.5 13 5 C9.37 5.33 5.74 5.66 2 6 C2 4.35 2 2.7 2 1 C1.34 0.67 0.68 0.34 0 0 Z " fill="#2A4767" transform="translate(32,49)"/>
<path d="M0 0 C0 0.99 0 1.98 0 3 C-1.093125 3.28875 -2.18625 3.5775 -3.3125 3.875 C-7.04013845 4.81893204 -7.04013845 4.81893204 -10 7 C-12.1875 6.625 -12.1875 6.625 -14 6 C-9.90404264 1.55296058 -6.27236639 -2.32309866 0 0 Z " fill="#52585F" transform="translate(84,32)"/>
<path d="M0 0 C0 0.66 0 1.32 0 2 C-1.57967807 2.67528223 -3.16391903 3.33989694 -4.75 4 C-6.07257813 4.556875 -6.07257813 4.556875 -7.421875 5.125 C-10 6 -10 6 -14 6 C-13.08486681 3.71216703 -12.34515354 2.26550272 -10.375 0.75 C-6.86146845 -0.35953628 -3.67700382 -0.12256679 0 0 Z " fill="#4F555C" transform="translate(84,65)"/>
<path d="M0 0 C0 0.33 0 0.66 0 1 C-1.65 1.33 -3.3 1.66 -5 2 C-4.01 2.66 -3.02 3.32 -2 4 C-6.95 4 -11.9 4 -17 4 C-17.33 3.34 -17.66 2.68 -18 2 C-11.92972642 -0.1583195 -6.40629424 -0.20852314 0 0 Z " fill="#666C71" transform="translate(48,63)"/>
<path d="M0 0 C13.34816248 -0.38878143 13.34816248 -0.38878143 18 2 C18.33 2.99 18.66 3.98 19 5 C17.68 5 16.36 5 15 5 C15 4.34 15 3.68 15 3 C14.113125 3.020625 13.22625 3.04125 12.3125 3.0625 C7.57644853 2.97314054 4.17868677 2.16868554 0 0 Z " fill="#A6C9DF" transform="translate(38,54)"/>
<path d="M0 0 C4.455 0.99 4.455 0.99 9 2 C9 3.32 9 4.64 9 6 C6.03 5.01 3.06 4.02 0 3 C0 2.01 0 1.02 0 0 Z " fill="#4F575D" transform="translate(105,68)"/>
<path d="M0 0 C0 0.66 0 1.32 0 2 C-3.72965139 4.03435531 -5.66905042 5 -10 5 C-9.01906046 2.54765115 -8.31296172 1.2190732 -6.125 -0.3125 C-3.64990694 -1.1132654 -2.41712366 -0.86325845 0 0 Z " fill="#4F555B" transform="translate(80,50)"/>
<path d="M0 0 C5.95703125 -0.29296875 5.95703125 -0.29296875 8 0 C8.99 0.99 9.98 1.98 11 3 C7.04 3 3.08 3 -1 3 C-0.67 2.01 -0.34 1.02 0 0 Z " fill="#464D54" transform="translate(84,31)"/>
<path d="M0 0 C0.33 0 0.66 0 1 0 C1 3.96 1 7.92 1 12 C-3 13 -3 13 -5.25 12.0625 C-5.8275 11.711875 -6.405 11.36125 -7 11 C-5 10 -5 10 -1 9 C-0.67 6.03 -0.34 3.06 0 0 Z " fill="#5AC2F6" transform="translate(57,44)"/>
<path d="M0 0 C1.32 0 2.64 0 4 0 C4 1.65 4 3.3 4 5 C2.35 4.67 0.7 4.34 -1 4 C-1 1 -1 1 0 0 Z " fill="#0D1F40" transform="translate(30,50)"/>
<path d="M0 0 C1.9375 0.75 1.9375 0.75 4 2 C4.875 4 4.875 4 5 6 C4.34 6.66 3.68 7.32 3 8 C3 7.34 3 6.68 3 6 C2.01 6 1.02 6 0 6 C0 4.02 0 2.04 0 0 Z " fill="#14213A" transform="translate(16,48)"/>
<path d="M0 0 C6.52307692 0.61538462 6.52307692 0.61538462 8.9375 2.5625 C9.288125 3.036875 9.63875 3.51125 10 4 C7.8125 4.8125 7.8125 4.8125 5 5 C2.1875 2.5625 2.1875 2.5625 0 0 Z " fill="#2F4C68" transform="translate(17,48)"/>
<path d="M0 0 C-2.62198774 2.15377564 -4.64404172 3.40072174 -8 4 C-8 2.68 -8 1.36 -8 0 C-5.13822943 -1.43088528 -3.06624227 -0.59991697 0 0 Z " fill="#585D64" transform="translate(79,84)"/>
<path d="M0 0 C2.62113708 0 4.50935112 0.31292445 7 1 C7 1.99 7 2.98 7 4 C2.545 3.01 2.545 3.01 -2 2 C-1.34 1.34 -0.68 0.68 0 0 Z " fill="#50575D" transform="translate(107,86)"/>
<path d="M0 0 C0.99 0.495 0.99 0.495 2 1 C2.6328125 3.28515625 2.6328125 3.28515625 3.125 6.0625 C3.29257812 6.98160156 3.46015625 7.90070312 3.6328125 8.84765625 C3.75398438 9.55792969 3.87515625 10.26820312 4 11 C2.29159719 9.36587557 1.06546953 8.13093906 0 6 C-0.039992 4.00039988 -0.04346799 1.99952758 0 0 Z " fill="#D9D875" transform="translate(42,28)"/>
<path d="M0 0 C3.3 0 6.6 0 10 0 C10 0.33 10 0.66 10 1 C5.82262526 2.59138085 2.46839215 3.21278058 -2 3 C-1.34 2.67 -0.68 2.34 0 2 C0 1.34 0 0.68 0 0 Z " fill="#A3D4E8" transform="translate(32,27)"/>
<path d="M0 0 C2.64 0 5.28 0 8 0 C8 0.66 8 1.32 8 2 C8.66 2.33 9.32 2.66 10 3 C6.7 2.67 3.4 2.34 0 2 C0 1.34 0 0.68 0 0 Z " fill="#494F54" transform="translate(38,80)"/>
<path d="M0 0 C1.9375 0.375 1.9375 0.375 4 1 C4.33 1.66 4.66 2.32 5 3 C2.03 3.66 -0.94 4.32 -4 5 C-2.68 3.35 -1.36 1.7 0 0 Z " fill="#CDEFF9" transform="translate(34,45)"/>
<path d="M0 0 C2.5 1.3125 2.5 1.3125 5 3 C5 3.99 5 4.98 5 6 C3.125 5.75 3.125 5.75 1 5 C-0.25 2.9375 -0.25 2.9375 -1 1 C-0.67 0.67 -0.34 0.34 0 0 Z " fill="#575D64" transform="translate(54,82)"/>
<path d="M0 0 C0 0.99 0 1.98 0 3 C-3.3 2.67 -6.6 2.34 -10 2 C-6.00889681 0.0044484 -4.30013434 -0.19546065 0 0 Z " fill="#474E53" transform="translate(49,64)"/>
<path d="M0 0 C0.66 0.33 1.32 0.66 2 1 C2 1.99 2 2.98 2 4 C0.35 4.33 -1.3 4.66 -3 5 C-3 3.68 -3 2.36 -3 1 C-2.01 0.67 -1.02 0.34 0 0 Z " fill="#64696D" transform="translate(17,69)"/>
</svg>
