<?xml version="1.0" encoding="UTF-8"?>
<svg version="1.1" xmlns="http://www.w3.org/2000/svg" width="128" height="128">
<path d="M0 0 C12.90260465 8.29895531 21.41876547 20.04190278 24.75 35.1875 C26.25575612 53.04888294 22.9105743 67.23062988 11.5625 81.375 C4.05283268 89.56285313 -8.09781553 96.41594956 -19.34960938 97.36450195 C-37.38682217 97.85703246 -51.66079256 94.80126299 -65.37109375 82.2265625 C-77.34553024 69.23143599 -80.05716863 54.54990459 -79.42919922 37.61035156 C-78.53461978 25.5152475 -71.05393337 13.29993669 -62.25 5.1875 C-43.60477089 -8.83944929 -20.59459356 -11.60390241 0 0 Z " fill="#429F41" transform="translate(91.25,18.8125)"/>
<path d="M0 0 C9.24 0 18.48 0 28 0 C28.33 1.65 28.66 3.3 29 5 C26.69 5 24.38 5 22 5 C23.0975223 7.99324263 23.67682892 8.84610901 26.625 10.25 C27.800625 10.62125 27.800625 10.62125 29 11 C29 12.32 29 13.64 29 15 C27.35 15 25.7 15 24 15 C23.9071875 15.8353125 23.9071875 15.8353125 23.8125 16.6875 C22.66383862 19.956767 20.51178856 21.67659558 18 24 C17.67 24.33 17.34 24.66 17 25 C15.48071962 25.07179964 13.95832518 25.08392007 12.4375 25.0625 C11.61121094 25.05347656 10.78492188 25.04445313 9.93359375 25.03515625 C8.97646484 25.01775391 8.97646484 25.01775391 8 25 C15.0835947 34.08151489 15.0835947 34.08151489 24 41 C23.67 42.65 23.34 44.3 23 46 C16.63212386 43.87667107 12.82047411 39.29597763 8.1875 34.625 C7.30384766 33.76132813 6.42019531 32.89765625 5.50976562 32.0078125 C4.25776367 30.75484375 4.25776367 30.75484375 2.98046875 29.4765625 C2.21629639 28.71424316 1.45212402 27.95192383 0.66479492 27.16650391 C-1 25 -1 25 -1 21 C0.55460937 20.97873047 0.55460937 20.97873047 2.140625 20.95703125 C3.51046057 20.91011907 4.88025087 20.86187173 6.25 20.8125 C6.93191406 20.80669922 7.61382812 20.80089844 8.31640625 20.79492188 C10.62119953 20.74328549 10.62119953 20.74328549 14 20 C15.32 18.35 16.64 16.7 18 15 C11.73 15 5.46 15 -1 15 C-0.67 13.35 -0.34 11.7 0 10 C5.94 10 11.88 10 18 10 C13.67672689 5.67672689 11.90883818 5.3676696 6.25 5.25 C5.55261719 5.22035156 4.85523438 5.19070312 4.13671875 5.16015625 C2.42509187 5.08981542 0.71254185 5.04260054 -1 5 C-0.67 3.35 -0.34 1.7 0 0 Z " fill="#F1FAF1" transform="translate(50,43)"/>
<path d="M0 0 C1.30324219 -0.0309375 1.30324219 -0.0309375 2.6328125 -0.0625 C8.53805254 -0.09796691 12.84388515 0.86125158 18.25 3.25 C17.92 3.91 17.59 4.57 17.25 5.25 C16.26 5.25 15.27 5.25 14.25 5.25 C14.25 6.9 14.25 8.55 14.25 10.25 C12.27 11.24 12.27 11.24 10.25 12.25 C10.0953125 11.2909375 10.0953125 11.2909375 9.9375 10.3125 C9.710625 9.631875 9.48375 8.95125 9.25 8.25 C6.34458095 7.28152698 4.28362546 7.05417188 1.25 7 C0.38375 6.97421875 -0.4825 6.9484375 -1.375 6.921875 C-4.17903194 7.30927415 -5.01286782 8.07858478 -6.75 10.25 C-6.75 9.59 -6.75 8.93 -6.75 8.25 C-8.19096586 8.67594588 -9.62768712 9.11626633 -11.0625 9.5625 C-11.86300781 9.80613281 -12.66351563 10.04976562 -13.48828125 10.30078125 C-15.84964573 11.29182023 -17.08879993 12.33074943 -18.75 14.25 C-18.09 14.58 -17.43 14.91 -16.75 15.25 C-18.73 16.24 -18.73 16.24 -20.75 17.25 C-20.75 15.93 -20.75 14.61 -20.75 13.25 C-21.41 13.724375 -22.07 14.19875 -22.75 14.6875 C-26.5433028 16.66317854 -29.50524068 16.89027463 -33.75 17.25 C-34.08 15.6 -34.41 13.95 -34.75 12.25 C-23.38296306 4.55672025 -13.71507945 0.07997131 0 0 Z " fill="#409D42" transform="translate(63.75,11.75)"/>
<path d="M0 0 C-1.33333333 4 -2.66666667 8 -4 12 C-3.01 12.66 -2.02 13.32 -1 14 C-1 14.66 -1 15.32 -1 16 C-2.32 16.33 -3.64 16.66 -5 17 C-5.66 20.63 -6.32 24.26 -7 28 C-5.35 28 -3.7 28 -2 28 C-2 28.66 -2 29.32 -2 30 C-2.66 30 -3.32 30 -4 30 C-4 30.99 -4 31.98 -4 33 C-4.99 33 -5.98 33 -7 33 C-6.67 35.64 -6.34 38.28 -6 41 C-5.34 41 -4.68 41 -4 41 C-4 42.32 -4 43.64 -4 45 C-5.485 45.495 -5.485 45.495 -7 46 C-7.33 46.66 -7.66 47.32 -8 48 C-11 47 -11 47 -11.94921875 45.41796875 C-16.18090976 32.63333613 -15.64653605 17.19981511 -10 5 C-9.66484375 4.26394531 -9.3296875 3.52789062 -8.984375 2.76953125 C-6.77217751 -1.20715709 -3.9734457 -1.15545806 0 0 Z " fill="#409D40" transform="translate(26,37)"/>
<path d="M0 0 C3.18755946 0.31543557 4.69369949 0.71284328 7.0625 2.93359375 C16.0395988 14.53504603 20.40274413 24.8009261 20.125 39.5 C20.11597656 40.4178125 20.10695313 41.335625 20.09765625 42.28125 C20.07432432 44.52111556 20.04159235 46.76041183 20 49 C19.34 49 18.68 49 18 49 C18 48.34 18 47.68 18 47 C16.68 46.67 15.36 46.34 14 46 C14.03480469 45.38511719 14.06960937 44.77023438 14.10546875 44.13671875 C14.13253906 43.32847656 14.15960938 42.52023438 14.1875 41.6875 C14.22230469 40.88699219 14.25710937 40.08648437 14.29296875 39.26171875 C13.93801608 36.52148416 13.10633718 35.70828921 11 34 C11.495 33.505 11.495 33.505 12 33 C12.16017882 28.83535074 11.98248196 25.05273808 11 21 C9.02 20.67 7.04 20.34 5 20 C5.66 19.67 6.32 19.34 7 19 C6.814375 18.05125 6.62875 17.1025 6.4375 16.125 C6 13 6 13 7 11 C5.35 10.67 3.7 10.34 2 10 C1.855625 9.360625 1.71125 8.72125 1.5625 8.0625 C1.18992819 6.02454854 1.18992819 6.02454854 0 5 C-0.04063832 3.33382885 -0.042721 1.66611905 0 0 Z " fill="#3E9C3E" transform="translate(96,25)"/>
<path d="M0 0 C3.83870274 1.56391593 6.30972363 3.8734626 9 7 C9.8125 9.8125 9.8125 9.8125 10 12 C10.66 11.9175 11.32 11.835 12 11.75 C16.21243694 12.10103641 19.34710677 13.96960773 23 16 C23 16.99 23 17.98 23 19 C21.906875 19.0825 20.81375 19.165 19.6875 19.25 C15.96714788 19.61009251 15.96714788 19.61009251 14.26953125 22.046875 C13.85058594 22.69140625 13.43164062 23.3359375 13 24 C5.78640589 19.82576833 0.06859981 15.66010555 -5 9 C-4.01 9 -3.02 9 -2 9 C-2 9.66 -2 10.32 -2 11 C-0.68 10.34 0.64 9.68 2 9 C1.855625 8.443125 1.71125 7.88625 1.5625 7.3125 C0.97230872 4.88615805 0.476571 2.45093655 0 0 Z " fill="#47A046" transform="translate(27,87)"/>
<path d="M0 0 C2.625 0.9375 2.625 0.9375 5 2 C1.8380614 10.70678745 -4.84214609 18.5175043 -13 23 C-15.7734375 23.18359375 -15.7734375 23.18359375 -18 23 C-17.62403791 20.21788056 -17.32681541 18.4120716 -15.5625 16.1875 C-14 15 -14 15 -12 15 C-12 14.01 -12 13.02 -12 12 C-11.01 11.67 -10.02 11.34 -9 11 C-8.690625 10.175 -8.38125 9.35 -8.0625 8.5 C-7.711875 7.675 -7.36125 6.85 -7 6 C-4.875 5.1875 -4.875 5.1875 -3 5 C-2.87625 4.360625 -2.7525 3.72125 -2.625 3.0625 C-2.41875 2.381875 -2.2125 1.70125 -2 1 C-1.34 0.67 -0.68 0.34 0 0 Z " fill="#3B9F3B" transform="translate(105,86)"/>
<path d="M0 0 C0.66 0 1.32 0 2 0 C2.33 0.66 2.66 1.32 3 2 C5.02463255 2.65213292 5.02463255 2.65213292 7 3 C7 2.34 7 1.68 7 1 C9.64 0.67 12.28 0.34 15 0 C16.4606285 2.64738916 17 3.89448334 17 7 C7.45623291 11.21934966 -2.80854342 10.28927715 -13 10 C-13.33 9.34 -13.66 8.68 -14 8 C-13.01 8 -12.02 8 -11 8 C-11 7.01 -11 6.02 -11 5 C-8.29120665 3.64560332 -5.99066732 3.93498549 -3 4 C-3 4.66 -3 5.32 -3 6 C-2.01 5.67 -1.02 5.34 0 5 C0 3.35 0 1.7 0 0 Z " fill="#3E9E3E" transform="translate(67,106)"/>
<path d="M0 0 C0.58201172 0.75216797 0.58201172 0.75216797 1.17578125 1.51953125 C2.92975791 3.24891882 2.92975791 3.24891882 5.48046875 3.07421875 C6.37378906 2.94660156 7.26710938 2.81898437 8.1875 2.6875 C9.08855469 2.56761719 9.98960938 2.44773437 10.91796875 2.32421875 C11.94857422 2.16373047 11.94857422 2.16373047 13 2 C11.58547791 5.4437318 10.02658169 6.91361889 6.9375 8.9375 C3.69090874 11.15114533 3.69090874 11.15114533 2.1875 14.6875 C2.125625 15.450625 2.06375 16.21375 2 17 C0.5625 18.5625 0.5625 18.5625 -1 20 C-2.17574711 22.09989652 -2.17574711 22.09989652 -3 24 C-3.99 23.67 -4.98 23.34 -6 23 C-5.52269162 21.5410574 -5.04308958 20.08286504 -4.5625 18.625 C-4.16224609 17.40683594 -4.16224609 17.40683594 -3.75390625 16.1640625 C-3 14 -3 14 -2 12 C-2.99 12.33 -3.98 12.66 -5 13 C-6.32 13 -7.64 13 -9 13 C-7.47987323 7.59510481 -3.72614782 4.01507372 0 0 Z " fill="#499E47" transform="translate(28,25)"/>
<path d="M0 0 C-0.62759865 2.92879371 -1.58622659 5.36095629 -3 8 C-3.66 8 -4.32 8 -5 8 C-5.33 8.99 -5.66 9.98 -6 11 C-6.66 11 -7.32 11 -8 11 C-8.33 12.65 -8.66 14.3 -9 16 C-8.01 16.33 -7.02 16.66 -6 17 C-7.98 17.66 -9.96 18.32 -12 19 C-12.33 17.68 -12.66 16.36 -13 15 C-16.98196457 13.94595055 -19.98195309 14.15901344 -24 15 C-24 14.01 -24 13.02 -24 12 C-22.75108386 11.51801537 -21.50081192 11.03954323 -20.25 10.5625 C-19.55390625 10.29566406 -18.8578125 10.02882813 -18.140625 9.75390625 C-16 9 -16 9 -14.0546875 8.65625 C-11.10559945 7.71433595 -9.22638808 5.92740603 -6.875 3.9375 C-2.21089631 0 -2.21089631 0 0 0 Z " fill="#48A04A" transform="translate(96,93)"/>
<path d="M0 0 C1.85772162 0.08984301 3.71247985 0.24611861 5.5625 0.4375 C7.08037109 0.59025391 7.08037109 0.59025391 8.62890625 0.74609375 C9.80259766 0.87177734 9.80259766 0.87177734 11 1 C11.33 2.65 11.66 4.3 12 6 C8.78548731 7.60725635 5.56387464 7.05748185 2 7 C2 7.99 2 8.98 2 10 C-3.41538462 11.23076923 -3.41538462 11.23076923 -6.375 10.0625 C-6.91125 9.711875 -7.4475 9.36125 -8 9 C-8 7.35 -8 5.7 -8 4 C-7.34 3.67 -6.68 3.34 -6 3 C-6 3.99 -6 4.98 -6 6 C-5.01 6 -4.02 6 -3 6 C-2.690625 5.195625 -2.38125 4.39125 -2.0625 3.5625 C-1 1 -1 1 0 0 Z " fill="#47A04A" transform="translate(54,104)"/>
<path d="M0 0 C0.66 0.66 1.32 1.32 2 2 C0.35 2.66 -1.3 3.32 -3 4 C-2.2884375 5.1446875 -2.2884375 5.1446875 -1.5625 6.3125 C0 9 0 9 1 12 C-3.82360189 12.19294408 -7.49646738 11.75747614 -12 10 C-11.66666667 8.33333333 -11.33333333 6.66666667 -11 5 C-10.896875 4.113125 -10.79375 3.22625 -10.6875 2.3125 C-10 0 -10 0 -8.3125 -1.4375 C-5.02464314 -2.23724897 -3.05485664 -1.32819854 0 0 Z " fill="#449B43" transform="translate(88,17)"/>
<path d="M0 0 C2.64 0.33 5.28 0.66 8 1 C8 1.33 8 1.66 8 2 C6.35 2 4.7 2 3 2 C3 3.65 3 5.3 3 7 C3.99 7 4.98 7 6 7 C7.42944945 9.35438733 8.08661261 10.48032433 7.625 13.25 C7.41875 13.8275 7.2125 14.405 7 15 C5.68 15 4.36 15 3 15 C2.67 14.34 2.34 13.68 2 13 C1.01 12.67 0.02 12.34 -1 12 C-3.29013653 8.5647952 -3.17842973 7.014669 -3 3 C-2.01 3 -1.02 3 0 3 C0 2.01 0 1.02 0 0 Z " fill="#3CA03C" transform="translate(22,83)"/>
<path d="M0 0 C1.32 0.99 2.64 1.98 4 3 C3.01 3 2.02 3 1 3 C2.05150217 6.31627608 3.20134731 9.51633049 4.625 12.6875 C6 16 6 16 6 19 C2.16129726 17.43608407 -0.30972363 15.1265374 -3 12 C-4.27114513 8.36815676 -3.94948785 5.69245273 -3 2 C-2.01 2 -1.02 2 0 2 C0 1.34 0 0.68 0 0 Z " fill="#459D46" transform="translate(95,22)"/>
<path d="M0 0 C1.32 0.33 2.64 0.66 4 1 C4 3.97 4 6.94 4 10 C4.99 10.33 5.98 10.66 7 11 C7.625 13.8125 7.625 13.8125 8 17 C7.34 17.99 6.68 18.98 6 20 C6 18.35 6 16.7 6 15 C5.34 15 4.68 15 4 15 C3.67 14.01 3.34 13.02 3 12 C1.68 12.33 0.36 12.66 -1 13 C-2.16045439 8.74500059 -1.82904781 5.31104861 -1 1 C-0.67 0.67 -0.34 0.34 0 0 Z " fill="#469844" transform="translate(107,61)"/>
<path d="M0 0 C1.8125 0.1875 1.8125 0.1875 4 1 C5.0409066 2.64142963 6.04504326 4.30712215 7 6 C7.66 6 8.32 6 9 6 C8.67 7.32 8.34 8.64 8 10 C7.13375 9.79375 6.2675 9.5875 5.375 9.375 C1.63571398 8.95952378 -0.54942141 9.60333724 -4 11 C-3.39301257 6.87248551 -1.96189209 3.6678852 0 0 Z " fill="#529E4F" transform="translate(103,78)"/>
<path d="M0 0 C0.66 0.33 1.32 0.66 2 1 C2 1.99 2 2.98 2 4 C2.66 4 3.32 4 4 4 C4 6.64 4 9.28 4 12 C3.01 12.33 2.02 12.66 1 13 C0.46375 12.030625 -0.0725 11.06125 -0.625 10.0625 C-2.72005826 6.72464389 -2.72005826 6.72464389 -6.25 6.125 C-7.1575 6.08375 -8.065 6.0425 -9 6 C-7.875 4.5 -7.875 4.5 -6 3 C-2.8125 2.8125 -2.8125 2.8125 0 3 C0 2.01 0 1.02 0 0 Z " fill="#37A139" transform="translate(109,72)"/>
<path d="M0 0 C1.58294782 -0.05437607 3.16644256 -0.09296271 4.75 -0.125 C5.63171875 -0.14820312 6.5134375 -0.17140625 7.421875 -0.1953125 C10.1135858 0.00860498 11.69904974 0.63448279 14 2 C14 3.32 14 4.64 14 6 C9.71 5.67 5.42 5.34 1 5 C0.67 3.35 0.34 1.7 0 0 Z " fill="#5DA95A" transform="translate(60,18)"/>
<path d="M0 0 C10.23 0 20.46 0 31 0 C31 0.33 31 0.66 31 1 C21.76 1.33 12.52 1.66 3 2 C2.67 3.32 2.34 4.64 2 6 C6.95 6 11.9 6 17 6 C17 6.33 17 6.66 17 7 C14.35409986 7.02684679 11.70846904 7.04676357 9.0625 7.0625 C7.93038086 7.07506836 7.93038086 7.07506836 6.77539062 7.08789062 C4.85005687 7.09652441 2.92464419 7.05224333 1 7 C0.67 6.67 0.34 6.34 0 6 C0 4.02 0 2.04 0 0 Z " fill="#63A463" transform="translate(47,42)"/>
<path d="M0 0 C1.485 0.99 1.485 0.99 3 2 C3 2.66 3 3.32 3 4 C4.98 4 6.96 4 9 4 C9.33 4.99 9.66 5.98 10 7 C9.401875 7.103125 8.80375 7.20625 8.1875 7.3125 C5.71756736 8.08876455 4.67748765 9.07088921 3 11 C0.84694043 7.14243493 -0.39253254 4.44870215 0 0 Z " fill="#37A138" transform="translate(15,46)"/>
<path d="M0 0 C0.66 0.33 1.32 0.66 2 1 C-2.23612487 6.18893107 -6.30615692 10.42739258 -12 14 C-12.66 14 -13.32 14 -14 14 C-14 13.34 -14 12.68 -14 12 C-8.58823529 8 -8.58823529 8 -6 8 C-5.67 6.35 -5.34 4.7 -5 3 C-3.68 3 -2.36 3 -1 3 C-0.67 2.01 -0.34 1.02 0 0 Z " fill="#489849" transform="translate(104,95)"/>
<path d="M0 0 C1.98 0 3.96 0 6 0 C5.67 0.66 5.34 1.32 5 2 C4.01 2 3.02 2 2 2 C2 3.65 2 5.3 2 7 C0.02 7.99 0.02 7.99 -2 9 C-2 6.69 -2 4.38 -2 2 C-1.34 2 -0.68 2 0 2 C0 1.34 0 0.68 0 0 Z " fill="#3AA038" transform="translate(76,15)"/>
<path d="M0 0 C3.3 0.33 6.6 0.66 10 1 C10 1.99 10 2.98 10 4 C2.57142857 4.14285714 2.57142857 4.14285714 -1 3 C-0.67 2.01 -0.34 1.02 0 0 Z " fill="#DAF0DB" transform="translate(55,105)"/>
<path d="M0 0 C0.99 0 1.98 0 3 0 C4.19287411 3.87684087 5 6.91621923 5 11 C4.01 11 3.02 11 2 11 C1.34 7.37 0.68 3.74 0 0 Z " fill="#D7F1D1" transform="translate(20,71)"/>
<path d="M0 0 C3.79379058 1.49041773 5.68343758 3.69062512 8 7 C8 7.66 8 8.32 8 9 C4.86493389 8.66410006 3.974751 7.97334828 1.75 5.625 C0 3 0 3 0 0 Z " fill="#E2F5E0" transform="translate(27,87)"/>
<path d="M0 0 C-0.70554068 3.66881155 -2.27735506 6.70450534 -4 10 C-4.99 9.67 -5.98 9.34 -7 9 C-4.4 0 -4.4 0 0 0 Z " fill="#D9F1D4" transform="translate(29,39)"/>
<path d="M0 0 C0 0.99 0 1.98 0 3 C-3.3 3.66 -6.6 4.32 -10 5 C-10 4.01 -10 3.02 -10 2 C-6.38026598 0.68373308 -3.90432869 0 0 0 Z " fill="#DFF6DA" transform="translate(82,103)"/>
<path d="M0 0 C-0.33589994 3.13506611 -1.02665172 4.025249 -3.375 6.25 C-6 8 -6 8 -9 8 C-7.47364599 4.11473526 -4.49771687 0 0 0 Z " fill="#E0F6E4" transform="translate(96,93)"/>
<path d="M0 0 C0.99 0.33 1.98 0.66 3 1 C2.67 4.3 2.34 7.6 2 11 C1.01 11 0.02 11 -1 11 C-1.14285714 3.57142857 -1.14285714 3.57142857 0 0 Z " fill="#DCF4DC" transform="translate(20,54)"/>
<path d="M0 0 C3 1 3 1 4.1875 3.25 C4.99938294 5.99791147 5.16260121 8.15447889 5 11 C4.01 10.67 3.02 10.34 2 10 C0.47839986 6.3962102 0 3.94779314 0 0 Z " fill="#DDF2D8" transform="translate(103,46)"/>
<path d="M0 0 C3.13506611 0.33589994 4.025249 1.02665172 6.25 3.375 C8 6 8 6 8 9 C4.20620942 7.50958227 2.31656242 5.30937488 0 2 C0 1.34 0 0.68 0 0 Z " fill="#E0F3E0" transform="translate(93,32)"/>
<path d="M0 0 C0.66 0 1.32 0 2 0 C1.52651586 4.1666604 0.95303159 6.92884715 -2 10 C-2.66 10 -3.32 10 -4 10 C-3.43697042 6.05879291 -2.3208055 3.2491277 0 0 Z " fill="#E1F5DC" transform="translate(103,79)"/>
<path d="M0 0 C0.99 0 1.98 0 3 0 C2.67 3.3 2.34 6.6 2 10 C1.01 10 0.02 10 -1 10 C-0.67 6.7 -0.34 3.4 0 0 Z " fill="#E1F5DB" transform="translate(106,63)"/>
<path d="M0 0 C-1.49041773 3.79379058 -3.69062512 5.68343758 -7 8 C-7.66 8 -8.32 8 -9 8 C-8.66410006 4.86493389 -7.97334828 3.974751 -5.625 1.75 C-3 0 -3 0 0 0 Z " fill="#E4F6E4" transform="translate(41,27)"/>
<path d="M0 0 C6.47556391 0.61090226 6.47556391 0.61090226 8.9375 2.4375 C10 4 10 4 10 6 C6.05879291 5.43697042 3.2491277 4.3208055 0 2 C0 1.34 0 0.68 0 0 Z " fill="#E2F3DC" transform="translate(79,23)"/>
<path d="M0 0 C0 0.99 0 1.98 0 3 C-3.63 3.66 -7.26 4.32 -11 5 C-11 4.34 -11 3.68 -11 3 C-7.14243493 0.84694043 -4.44870215 -0.39253254 0 0 Z " fill="#DFF6DC" transform="translate(57,20)"/>
<path d="M0 0 C3.66881155 0.70554068 6.70450534 2.27735506 10 4 C10 4.66 10 5.32 10 6 C5.8333396 5.52651586 3.07115285 4.95303159 0 2 C0 1.34 0 0.68 0 0 Z " fill="#DFF5DA" transform="translate(39,99)"/>
<path d="M0 0 C0.598125 0.20625 1.19625 0.4125 1.8125 0.625 C1.1525 2.605 0.4925 4.585 -0.1875 6.625 C-1.1775 6.625 -2.1675 6.625 -3.1875 6.625 C-3.1875 5.635 -3.1875 4.645 -3.1875 3.625 C-3.8475 3.625 -4.5075 3.625 -5.1875 3.625 C-5.1875 2.965 -5.1875 2.305 -5.1875 1.625 C-2.1875 -0.375 -2.1875 -0.375 0 0 Z " fill="#33A43A" transform="translate(24.1875,36.375)"/>
<path d="M0 0 C1.65 0 3.3 0 5 0 C4.01 0.33 3.02 0.66 2 1 C2 1.66 2 2.32 2 3 C4.475 3.99 4.475 3.99 7 5 C6.34 5.66 5.68 6.32 5 7 C3.02 6.34 1.04 5.68 -1 5 C-0.67 3.35 -0.34 1.7 0 0 Z " fill="#4FA750" transform="translate(77,22)"/>
<path d="M0 0 C3.3 0.33 6.6 0.66 10 1 C10 1.99 10 2.98 10 4 C6.7 3.67 3.4 3.34 0 3 C0 2.01 0 1.02 0 0 Z " fill="#E1F5DE" transform="translate(63,19)"/>
<path d="M0 0 C1.98 0.66 3.96 1.32 6 2 C6 3.32 6 4.64 6 6 C4.35 6 2.7 6 1 6 C0.67 4.02 0.34 2.04 0 0 Z " fill="#E5F6EB" transform="translate(73,52)"/>
<path d="M0 0 C2.8125 0.125 2.8125 0.125 6 1 C7.9375 3.9375 7.9375 3.9375 9 7 C8.67 7.66 8.34 8.32 8 9 C6.66368764 7.6905332 5.33102075 6.37734515 4 5.0625 C3.2575 4.33160156 2.515 3.60070312 1.75 2.84765625 C0 1 0 1 0 0 Z " fill="#62A565" transform="translate(62,73)"/>
<path d="M0 0 C1.65 0 3.3 0 5 0 C5.33 1.65 5.66 3.3 6 5 C4.35 4.67 2.7 4.34 1 4 C0.67 2.68 0.34 1.36 0 0 Z " fill="#56A656" transform="translate(72,48)"/>
<path d="M0 0 C0.99 0.33 1.98 0.66 3 1 C3 1.66 3 2.32 3 3 C4.65 3 6.3 3 8 3 C7.67 4.65 7.34 6.3 7 8 C3.75700849 5.61042731 1.49097658 3.7952131 0 0 Z " fill="#4D974A" transform="translate(22,95)"/>
<path d="M0 0 C1.98 0.495 1.98 0.495 4 1 C3.34 4.96 2.68 8.92 2 13 C1.34 12.67 0.68 12.34 0 12 C0.66 8.7 1.32 5.4 2 2 C1.01 1.67 0.02 1.34 -1 1 C-0.67 0.67 -0.34 0.34 0 0 Z " fill="#5DAB5C" transform="translate(107,61)"/>
<path d="M0 0 C0 0.66 0 1.32 0 2 C-2.31 2.33 -4.62 2.66 -7 3 C-7.33 1.68 -7.66 0.36 -8 -1 C-4.59745511 -2.2151946 -3.06748874 -1.86240388 0 0 Z " fill="#3BA03B" transform="translate(37,26)"/>
<path d="M0 0 C0.66 0.33 1.32 0.66 2 1 C-0.25 3.5625 -0.25 3.5625 -3 6 C-4.32 5.67 -5.64 5.34 -7 5 C-4.69 3.35 -2.38 1.7 0 0 Z " fill="#469A4C" transform="translate(36,19)"/>
</svg>
