<?xml version="1.0" encoding="UTF-8"?>
<svg version="1.1" xmlns="http://www.w3.org/2000/svg" width="128" height="128">
<path d="M0 0 C12.90260465 8.29895531 21.41876547 20.04190278 24.75 35.1875 C26.25575612 53.04888294 22.9105743 67.23062988 11.5625 81.375 C4.05283268 89.56285313 -8.09781553 96.41594956 -19.34960938 97.36450195 C-37.38682217 97.85703246 -51.66079256 94.80126299 -65.37109375 82.2265625 C-77.34553024 69.23143599 -80.05716863 54.54990459 -79.42919922 37.61035156 C-78.53461978 25.5152475 -71.05393337 13.29993669 -62.25 5.1875 C-43.60477089 -8.83944929 -20.59459356 -11.60390241 0 0 Z " fill="#E9493D" transform="translate(91.25,18.8125)"/>
<path d="M0 0 C6.50919874 5.2295075 12.62896935 13.27021844 14.06640625 21.66015625 C14.81445229 33.34684273 14.71294234 44.08555376 7.06640625 53.66015625 C3.70460851 52.21938579 1.47484357 50.41265604 -0.93359375 47.66015625 C-0.93359375 47.00015625 -0.93359375 46.34015625 -0.93359375 45.66015625 C-1.92359375 45.33015625 -2.91359375 45.00015625 -3.93359375 44.66015625 C-7.8475824 40.92922721 -11.44489263 36.95331577 -12.93359375 31.66015625 C-10.95359375 29.35015625 -8.97359375 27.04015625 -6.93359375 24.66015625 C-8.91359375 24.66015625 -10.89359375 24.66015625 -12.93359375 24.66015625 C-13.20171875 25.27890625 -13.46984375 25.89765625 -13.74609375 26.53515625 C-14.93359375 28.66015625 -14.93359375 28.66015625 -17.93359375 30.66015625 C-17.93359375 26.37015625 -17.93359375 22.08015625 -17.93359375 17.66015625 C-19.58359375 17.66015625 -21.23359375 17.66015625 -22.93359375 17.66015625 C-22.93359375 19.97015625 -22.93359375 22.28015625 -22.93359375 24.66015625 C-28.55663132 19.98549288 -33.73100929 14.98249958 -38.87109375 9.78515625 C-40.03995117 8.60953125 -40.03995117 8.60953125 -41.23242188 7.41015625 C-43.1351346 5.49577044 -45.03545546 3.57907591 -46.93359375 1.66015625 C-45.40794975 -1.63863536 -44.44995395 -2.96793505 -41.12109375 -4.52734375 C-40.45464844 -4.85089844 -39.78820313 -5.17445312 -39.1015625 -5.5078125 C-26.09899906 -10.4979855 -11.09324557 -7.8520886 0 0 Z " fill="#FDFBFA" transform="translate(87.93359375,33.33984375)"/>
<path d="M0 0 C3.54433654 1.41773462 4.33806119 2.67612238 6 6 C7.32520503 6.68268138 8.65812182 7.3507041 10 8 C10.33 8.99 10.66 9.98 11 11 C6.05 11 1.1 11 -4 11 C-4 19.25 -4 27.5 -4 36 C-2.35 36 -0.7 36 1 36 C1 32.7 1 29.4 1 26 C4.3 26 7.6 26 11 26 C11 24.68 11 23.36 11 22 C7.7 22 4.4 22 1 22 C1 20.02 1 18.04 1 16 C4.63 16 8.26 16 12 16 C12 14.68 12 13.36 12 12 C14.62187494 13.04874998 15.79371361 13.64931313 17.25 16.125 C17.4975 16.74375 17.745 17.3625 18 18 C17.01 18.66 16.02 19.32 15 20 C14.67 20.99 14.34 21.98 14 23 C14.7425 22.649375 15.485 22.29875 16.25 21.9375 C19.1322726 20.95490707 20.21176345 20.9673198 23 22 C23 22.66 23 23.32 23 24 C22.43410156 24.15855469 21.86820313 24.31710938 21.28515625 24.48046875 C19.07217157 25.18442345 17.05092603 25.90761203 15 27 C13.68098409 29.42410136 13.68098409 29.42410136 14 32 C14.66 32.99 15.32 33.98 16 35 C17.98465333 35.0650706 19.97290393 35.11857216 21.95703125 35.0390625 C24.41077919 34.99214571 26.62490098 35.40622524 29 36 C29 33.36 29 30.72 29 28 C29.99 28.66 30.98 29.32 32 30 C32.1875 33.125 32.1875 33.125 32 36 C33.22589844 35.7525 33.22589844 35.7525 34.4765625 35.5 C40.01659035 36.28616803 42.66598324 40.02940701 46.375 44 C47.11105469 44.763125 47.84710938 45.52625 48.60546875 46.3125 C50.41789848 48.19554387 52.21486682 50.09111959 54 52 C52.78995454 55.63013639 51.96377988 55.87693578 48.6875 57.625 C47.51767578 58.26308594 47.51767578 58.26308594 46.32421875 58.9140625 C38.43409469 62.60054063 27.32744707 62.11802303 18.91015625 60.3515625 C7.94093329 56.29658908 -0.10849148 48.15693422 -5.09765625 37.69921875 C-8.68099284 27.78254306 -8.53694566 15.59054758 -4.16796875 6.015625 C-2.92638288 3.87295508 -1.52935236 1.94565172 0 0 Z " fill="#FDFBFA" transform="translate(33,41)"/>
<path d="M0 0 C3.125 -0.1875 3.125 -0.1875 6 0 C4.70700306 2.88437779 3.34058637 4.87219421 1 7 C1.33 7.721875 1.66 8.44375 2 9.1875 C3.00603529 12.01697427 3.16977402 14.02895466 3 17 C3.66 17 4.32 17 5 17 C4.6875 18.875 4.6875 18.875 4 21 C3.01 21.66 2.02 22.32 1 23 C0.29875 22.525625 -0.4025 22.05125 -1.125 21.5625 C-4.16081337 19.91260143 -6.59168786 19.39631536 -10 19 C-10.66 16.69 -11.32 14.38 -12 12 C-12.33 14.31 -12.66 16.62 -13 19 C-15.10304477 19.1080023 -17.20766909 19.18558987 -19.3125 19.25 C-21.07013672 19.31960937 -21.07013672 19.31960937 -22.86328125 19.390625 C-26 19 -26 19 -27.9296875 17.1484375 C-29 15 -29 15 -28.8125 12.375 C-28 10 -28 10 -26 8 C-23.31160615 7.73008094 -20.70858064 7.91262643 -18 8 C-17.67 7.34 -17.34 6.68 -17 6 C-16.59136719 6.46019531 -16.18273438 6.92039062 -15.76171875 7.39453125 C-13.82536346 9.15914771 -12.27511002 9.83971622 -9.8125 10.6875 C-8.73935547 11.06455078 -8.73935547 11.06455078 -7.64453125 11.44921875 C-7.10183594 11.63097656 -6.55914062 11.81273438 -6 12 C-6.33 12.99 -6.66 13.98 -7 15 C-5.35 14.67 -3.7 14.34 -2 14 C-1.22757731 12.16299211 -1.22757731 12.16299211 -1 10 C-2.35444301 8.22809091 -2.35444301 8.22809091 -4 7 C-2.79618552 4.50638429 -1.54571278 2.31856917 0 0 Z " fill="#E34A3E" transform="translate(75,58)"/>
<path d="M0 0 C1.65 0 3.3 0 5 0 C5.02578125 0.89203125 5.0515625 1.7840625 5.078125 2.703125 C5.13484375 3.87359375 5.1915625 5.0440625 5.25 6.25 C5.29640625 7.41015625 5.3428125 8.5703125 5.390625 9.765625 C6.09502769 13.50437775 7.20270169 14.5502618 10 17 C9.91773794 19.71464802 9.23959034 20.73165881 7.4375 22.75 C6.963125 23.1625 6.48875 23.575 6 24 C6 23.34 6 22.68 6 22 C5.01 22 4.02 22 3 22 C2.67 21.01 2.34 20.02 2 19 C-0.31104818 17.94952356 -2.64583651 16.94992562 -5 16 C-5.66 15.34 -6.32 14.68 -7 14 C-7.33 14.33 -7.66 14.66 -8 15 C-9.66617115 15.04063832 -11.33388095 15.042721 -13 15 C-11.68 14.67 -10.36 14.34 -9 14 C-9.33 13.34 -9.66 12.68 -10 12 C-12.64 12.33 -15.28 12.66 -18 13 C-17.6875 11.0625 -17.6875 11.0625 -17 9 C-16.01 8.67 -15.02 8.34 -14 8 C-15.32 6.02 -16.64 4.04 -18 2 C-15.525 2.495 -15.525 2.495 -13 3 C-13 3.66 -13 4.32 -13 5 C-11.68 5.33 -10.36 5.66 -9 6 C-8.34 4.35 -7.68 2.7 -7 1 C-5.02 2.65 -3.04 4.3 -1 6 C-0.67 4.02 -0.34 2.04 0 0 Z " fill="#E9473F" transform="translate(65,51)"/>
<path d="M0 0 C4.0743356 0.84881992 5.54405875 2.30225596 8 5.625 C8.3125 8.9375 8.3125 8.9375 8 11.625 C4.37 11.625 0.74 11.625 -3 11.625 C-2.01 13.11 -2.01 13.11 -1 14.625 C1.45809998 14.8750773 1.45809998 14.8750773 4 14.625 C4.99 14.625 5.98 14.625 7 14.625 C6.67 15.945 6.34 17.265 6 18.625 C-1.82205246 20.34619237 -1.82205246 20.34619237 -6.0625 17.75 C-8.63469348 13.60130084 -9.06765024 10.38637567 -8 5.625 C-5.56887157 2.12131491 -4.17862962 0.87054784 0 0 Z " fill="#0D0E0C" transform="translate(91,57.375)"/>
<path d="M0 0 C2.47273574 3.78823115 2.38412706 7.68775439 2.375 12.0625 C2.37411377 12.81748779 2.37322754 13.57247559 2.37231445 14.3503418 C2.19966294 22.57188401 0.17626641 29.51854321 -5 36 C-8.36179774 34.55922954 -10.59156268 32.75249979 -13 30 C-13 29.34 -13 28.68 -13 28 C-13.99 27.67 -14.98 27.34 -16 27 C-17.60546875 25.37109375 -17.60546875 25.37109375 -19.1875 23.4375 C-19.98220703 22.47650391 -19.98220703 22.47650391 -20.79296875 21.49609375 C-21.19128906 21.00238281 -21.58960937 20.50867188 -22 20 C-21.01 19.67 -20.02 19.34 -19 19 C-18.67 17.35 -18.34 15.7 -18 14 C-17.67 14 -17.34 14 -17 14 C-16.83564453 14.93972656 -16.83564453 14.93972656 -16.66796875 15.8984375 C-16.50941406 16.71570313 -16.35085937 17.53296875 -16.1875 18.375 C-16.03667969 19.18710938 -15.88585937 19.99921875 -15.73046875 20.8359375 C-15.12455058 23.35820641 -15.12455058 23.35820641 -12 25 C-9.70285813 25.02639829 -9.70285813 25.02639829 -7.3125 24.625 C-6.50425781 24.51414062 -5.69601563 24.40328125 -4.86328125 24.2890625 C-4.24839844 24.19367188 -3.63351563 24.09828125 -3 24 C-3.33 23.01 -3.66 22.02 -4 21 C-4.33 21.33 -4.66 21.66 -5 22 C-6.66617115 22.04063832 -8.33388095 22.042721 -10 22 C-10.66 20.68 -11.32 19.36 -12 18 C-8.37 18 -4.74 18 -1 18 C-0.83012319 16.12528812 -0.66425224 14.25021305 -0.5 12.375 C-0.36078125 10.80878906 -0.36078125 10.80878906 -0.21875 9.2109375 C-0.00875645 6.12853212 0.03709727 3.08834771 0 0 Z " fill="#F7EDEE" transform="translate(100,51)"/>
<path d="M0 0 C3.96 0 7.92 0 12 0 C12 0.99 12 1.98 12 3 C9.69 3 7.38 3 5 3 C5 5.31 5 7.62 5 10 C8.3 10 11.6 10 15 10 C15 11.32 15 12.64 15 14 C11.7 14 8.4 14 5 14 C5 17.3 5 20.6 5 24 C3.35 24 1.7 24 0 24 C0 16.08 0 8.16 0 0 Z " fill="#0D0D0D" transform="translate(29,53)"/>
<path d="M0 0 C3.54433654 1.41773462 4.33806119 2.67612238 6 6 C7.32520503 6.68268138 8.65812182 7.3507041 10 8 C10.33 8.99 10.66 9.98 11 11 C6.05 11 1.1 11 -4 11 C-4 18.92 -4 26.84 -4 35 C-4.66 35 -5.32 35 -6 35 C-8.43322743 24.77253187 -8.35346185 13.23875021 -3 4 C-2.02401233 2.64899081 -1.02996324 1.31032572 0 0 Z " fill="#FAEEEA" transform="translate(33,41)"/>
<path d="M0 0 C1.26360352 -0.02416992 1.26360352 -0.02416992 2.55273438 -0.04882812 C8.55721678 -0.05345051 13.49441647 1.0877918 19.0625 3.3125 C19.0625 4.6325 19.0625 5.9525 19.0625 7.3125 C18.35867187 7.168125 17.65484375 7.02375 16.9296875 6.875 C8.96015546 5.37681121 1.17014444 4.81516946 -6.9375 5.3125 C-7.2675 5.6425 -7.5975 5.9725 -7.9375 6.3125 C-10.60808851 6.45365161 -13.26182238 6.35497107 -15.9375 6.3125 C-15.9375 5.6525 -15.9375 4.9925 -15.9375 4.3125 C-16.9275 4.6425 -17.9175 4.9725 -18.9375 5.3125 C-18.6075 4.3225 -18.2775 3.3325 -17.9375 2.3125 C-11.95031308 0.28052623 -6.28292439 -0.02392584 0 0 Z " fill="#E33C36" transform="translate(63.9375,11.6875)"/>
<path d="M0 0 C2 0.9375 2 0.9375 4 3 C4.36475845 6.02534949 4.22893297 8.96663814 4 12 C2.06601192 12.27585566 0.12746091 12.51987415 -1.8125 12.75 C-3.43091797 12.95882812 -3.43091797 12.95882812 -5.08203125 13.171875 C-8 13 -8 13 -9.8984375 11.1796875 C-11 9 -11 9 -10.8125 6.375 C-10 4 -10 4 -8 2 C-5.31160615 1.73008094 -2.70858064 1.91262643 0 2 C0 1.34 0 0.68 0 0 Z " fill="#191918" transform="translate(57,64)"/>
<path d="M0 0 C2.62187494 1.04874998 3.79371361 1.64931313 5.25 4.125 C5.4975 4.74375 5.745 5.3625 6 6 C5.01 6.66 4.02 7.32 3 8 C2.67 8.99 2.34 9.98 2 11 C1.01 11.33 0.02 11.66 -1 12 C-1 11.34 -1 10.68 -1 10 C-4.3 10 -7.6 10 -11 10 C-11 8.02 -11 6.04 -11 4 C-7.37 4 -3.74 4 0 4 C0 2.68 0 1.36 0 0 Z " fill="#F5F3F2" transform="translate(45,53)"/>
<path d="M0 0 C0.33 0.99 0.66 1.98 1 3 C3.01508358 3.73323796 3.01508358 3.73323796 5 4 C2.7504104 5.91631707 1.40240553 6.94111139 -1.5625 7.375 C-4.22846285 7.76731667 -4.22846285 7.76731667 -5.5625 10.375 C-6.036875 11.24125 -6.51125 12.1075 -7 13 C-8.32392972 14.01241685 -9.65599167 15.01439389 -11 16 C-11.33 16.99 -11.66 17.98 -12 19 C-12.99 19 -13.98 19 -15 19 C-15.66 19.66 -16.32 20.32 -17 21 C-15.88289311 13.04061341 -10.1910458 7.71060123 -4.0625 2.9375 C-2.71678578 1.94674879 -1.36565407 0.96308031 0 0 Z " fill="#E43E40" transform="translate(36,19)"/>
<path d="M0 0 C0 0.99 0 1.98 0 3 C-0.9590625 2.5978125 -0.9590625 2.5978125 -1.9375 2.1875 C-2.948125 1.795625 -3.95875 1.40375 -5 1 C-5.58523437 0.73574219 -6.17046875 0.47148437 -6.7734375 0.19921875 C-15.96328996 -3.51545341 -27.95270298 -3.57844505 -37.16015625 0.1328125 C-41.11495422 1.99654566 -41.11495422 1.99654566 -45 4 C-45 2.68 -45 1.36 -45 0 C-29.71155208 -5.09614931 -15.28431211 -6.24760203 0 0 Z " fill="#E36965" transform="translate(86,29)"/>
<path d="M0 0 C2.475 0.495 2.475 0.495 5 1 C5 1.66 5 2.32 5 3 C5.61875 3.433125 6.2375 3.86625 6.875 4.3125 C9.42042512 6.33386701 10.12577406 7.90047168 11 11 C10.67 11.66 10.34 12.32 10 13 C8.35 13 6.7 13 5 13 C6.32 12.67 7.64 12.34 9 12 C8.67 11.34 8.34 10.68 8 10 C5.36 10.33 2.72 10.66 0 11 C0.3125 9.0625 0.3125 9.0625 1 7 C1.99 6.67 2.98 6.34 4 6 C2.68 4.02 1.36 2.04 0 0 Z " fill="#D1615E" transform="translate(47,53)"/>
<path d="M0 0 C3.36704285 -0.2295711 5.41370268 -0.33943529 8.375 1.375 C8.91125 1.91125 9.4475 2.4475 10 3 C10 5 10 5 8.9375 6.625 C6.03661182 8.68369484 3.45519943 8.19557733 0 8 C0.50603992 5.83125748 0.99983813 4.00032373 2 2 C1.34 1.34 0.68 0.68 0 0 Z " fill="#1E1F1C" transform="translate(88,58)"/>
<path d="M0 0 C2 0.9375 2 0.9375 4 3 C4.36475845 6.02534949 4.22893297 8.96663814 4 12 C1.03 11.505 1.03 11.505 -2 11 C-1.505 10.1028125 -1.505 10.1028125 -1 9.1875 C0.20787988 6.94613529 0.20787988 6.94613529 0 4 C-1.98 4 -3.96 4 -6 4 C-5.67 3.34 -5.34 2.68 -5 2 C-3.35 2 -1.7 2 0 2 C0 1.34 0 0.68 0 0 Z " fill="#070200" transform="translate(57,64)"/>
<path d="M0 0 C5.78461538 4.30769231 5.78461538 4.30769231 6.875 7.8125 C6.936875 8.8953125 6.936875 8.8953125 7 10 C5.865625 10.12375 4.73125 10.2475 3.5625 10.375 C1.7990625 10.684375 1.7990625 10.684375 0 11 C-0.33 11.66 -0.66 12.32 -1 13 C-1.99 11.68 -2.98 10.36 -4 9 C-3.071875 8.87625 -3.071875 8.87625 -2.125 8.75 C0.18437567 8.18741541 0.18437567 8.18741541 1.25 5.9375 C1.4975 5.298125 1.745 4.65875 2 4 C1.34 4 0.68 4 0 4 C0 2.68 0 1.36 0 0 Z " fill="#EA5250" transform="translate(78,71)"/>
<path d="M0 0 C1.65 0 3.3 0 5 0 C5 3.96 5 7.92 5 12 C2.5 10.5 2.5 10.5 0 8 C-0.45442324 5.19861435 -0.23849927 2.86199125 0 0 Z " fill="#170E0E" transform="translate(65,51)"/>
<path d="M0 0 C3.125 -0.1875 3.125 -0.1875 6 0 C5.01469421 2.19798983 4.18695263 3.82052548 2.4375 5.5 C0.73683989 7.27460185 0.41205818 8.61006256 0 11 C-1.32 9.68 -2.64 8.36 -4 7 C-2.79618552 4.50638429 -1.54571278 2.31856917 0 0 Z " fill="#271E1E" transform="translate(75,58)"/>
<path d="M0 0 C4.95 0 9.9 0 15 0 C15.33 1.65 15.66 3.3 16 5 C12.37 5 8.74 5 5 5 C5 4.67 5 4.34 5 4 C7.31 4 9.62 4 12 4 C12 3.01 12 2.02 12 1 C8.04 1 4.08 1 0 1 C0 0.67 0 0.34 0 0 Z " fill="#4F514D" transform="translate(29,52)"/>
<path d="M0 0 C7.48291572 6.15034169 7.48291572 6.15034169 10 10 C8.35 10.33 6.7 10.66 5 11 C5 9.68 5 8.36 5 7 C3.68 6.34 2.36 5.68 1 5 C1 4.34 1 3.68 1 3 C0.01 2.67 -0.98 2.34 -2 2 C-1.34 2 -0.68 2 0 2 C0 1.34 0 0.68 0 0 Z " fill="#EA5653" transform="translate(41,35)"/>
<path d="M0 0 C3.63 0 7.26 0 11 0 C7.67692308 3.93846154 7.67692308 3.93846154 4.25 4.25 C3.5075 4.1675 2.765 4.085 2 4 C1.34 2.68 0.68 1.36 0 0 Z " fill="#E1E4DF" transform="translate(88,69)"/>
<path d="M0 0 C0.33 0.66 0.66 1.32 1 2 C0.34 2 -0.32 2 -1 2 C-1.33 3.65 -1.66 5.3 -2 7 C-5.63 7 -9.26 7 -13 7 C-11.68 6.34 -10.36 5.68 -9 5 C-7.41246851 4.13264008 -5.8291761 3.25748076 -4.25 2.375 C-3.45078125 1.92898437 -2.6515625 1.48296875 -1.828125 1.0234375 C-1.22484375 0.68570313 -0.6215625 0.34796875 0 0 Z " fill="#DD5F53" transform="translate(86,95)"/>
<path d="M0 0 C5.75 0.75 5.75 0.75 8 3 C7.01 4.485 7.01 4.485 6 6 C4.68 4.68 3.36 3.36 2 2 C1.67 4.31 1.34 6.62 1 9 C-0.65 9 -2.3 9 -4 9 C-2.68 8.67 -1.36 8.34 0 8 C0 5.36 0 2.72 0 0 Z " fill="#B5645E" transform="translate(61,68)"/>
<path d="M0 0 C2.5 0.3125 2.5 0.3125 5 1 C5.33 1.66 5.66 2.32 6 3 C2.91190305 4.76462683 1.76687864 5 -2 5 C-1.125 1.125 -1.125 1.125 0 0 Z " fill="#120C0A" transform="translate(49,59)"/>
<path d="M0 0 C1.96099207 1.96099207 2.80989009 3.41110058 4 5.875 C4.33 6.55304688 4.66 7.23109375 5 7.9296875 C5.33 8.61289063 5.66 9.29609375 6 10 C6.66481931 11.33425541 7.33094492 12.66786355 8 14 C6 14 6 14 4 12.375 C0.711668 8.47010575 0 5.04473312 0 0 Z " fill="#E1625C" transform="translate(27,76)"/>
<path d="M0 0 C-0.598125 0.53625 -1.19625 1.0725 -1.8125 1.625 C-4.21315594 4.23142645 -5.54018514 6.7884073 -7 10 C-8.46534385 6.19010598 -7.55203911 3.6758821 -6 0 C-3.50907189 -1.24546405 -2.58919267 -0.7767578 0 0 Z " fill="#D7584A" transform="translate(35,41)"/>
<path d="M0 0 C-0.33 1.98 -0.66 3.96 -1 6 C-3.31 4.35 -5.62 2.7 -8 1 C-4.93251126 -0.86240388 -3.40254489 -1.2151946 0 0 Z " fill="#E55249" transform="translate(94,32)"/>
<path d="M0 0 C2.97 0.495 2.97 0.495 6 1 C6 2.32 6 3.64 6 5 C4.02 5 2.04 5 0 5 C0 3.35 0 1.7 0 0 Z " fill="#843535" transform="translate(65,72)"/>
<path d="M0 0 C-3.96 1.98 -7.92 3.96 -12 6 C-12 4.68 -12 3.36 -12 2 C-10.56656 1.46809459 -9.12804633 0.94984742 -7.6875 0.4375 C-6.48673828 0.00244141 -6.48673828 0.00244141 -5.26171875 -0.44140625 C-3 -1 -3 -1 0 0 Z " fill="#DD5A53" transform="translate(53,27)"/>
<path d="M0 0 C1.65 0.33 3.3 0.66 5 1 C5 1.99 5 2.98 5 4 C3.02 4 1.04 4 -1 4 C-0.67 2.68 -0.34 1.36 0 0 Z " fill="#DDDFDD" transform="translate(89,62)"/>
<path d="M0 0 C1.10292424 4.41169694 0.88594563 5.95868794 -1 10 C-2.32 10.33 -3.64 10.66 -5 11 C-3.35 7.37 -1.7 3.74 0 0 Z " fill="#DA6962" transform="translate(100,76)"/>
<path d="M0 0 C4.75 0.75 4.75 0.75 7 3 C6.67 3.33 6.34 3.66 6 4 C6.66 4.66 7.32 5.32 8 6 C5 6 5 6 3.61328125 4.6875 C2.40885417 3.125 1.20442708 1.5625 0 0 Z " fill="#E85B55" transform="translate(78,84)"/>
<path d="M0 0 C1.65 0 3.3 0 5 0 C5.103125 0.61875 5.20625 1.2375 5.3125 1.875 C5.87525373 4.36526484 5.87525373 4.36526484 9 6 C5 6 5 6 3.515625 4.6875 C2.34375 3.125 1.171875 1.5625 0 0 Z " fill="#FED9D0" transform="translate(87,80)"/>
<path d="M0 0 C1.65 0 3.3 0 5 0 C5 1.32 5 2.64 5 4 C3.35 4 1.7 4 0 4 C0 2.68 0 1.36 0 0 Z " fill="#EFEFED" transform="translate(51,69)"/>
<path d="M0 0 C1.32 0.33 2.64 0.66 4 1 C3.01 2.98 2.02 4.96 1 7 C0.67 6.34 0.34 5.68 0 5 C-0.66 5 -1.32 5 -2 5 C-1.34 3.35 -0.68 1.7 0 0 Z " fill="#040604" transform="translate(87,59)"/>
<path d="M0 0 C2.475 0.495 2.475 0.495 5 1 C5 2.98 5 4.96 5 7 C3.29115995 5.37660195 1.62553283 3.70680947 0 2 C0 1.34 0 0.68 0 0 Z " fill="#E04C4D" transform="translate(21,93)"/>
<path d="M0 0 C0.33 0 0.66 0 1 0 C1 2.64 1 5.28 1 8 C-0.32 7.34 -1.64 6.68 -3 6 C-3 5.34 -3 4.68 -3 4 C-2.34 3.67 -1.68 3.34 -1 3 C-0.67 2.01 -0.34 1.02 0 0 Z " fill="#FDFDFE" transform="translate(100,66)"/>
<path d="M0 0 C2.66735273 2.48952921 4.55746343 4.63408134 6 8 C4.35 7.67 2.7 7.34 1 7 C0.67 4.69 0.34 2.38 0 0 Z " fill="#D54649" transform="translate(103,29)"/>
<path d="M0 0 C2.64 1.65 5.28 3.3 8 5 C4.86650268 6.04449911 4.01031744 5.93423645 1 5 C0.67 3.35 0.34 1.7 0 0 Z " fill="#D73F47" transform="translate(91,19)"/>
<path d="M0 0 C2.31 0.33 4.62 0.66 7 1 C6.38125 1.28875 5.7625 1.5775 5.125 1.875 C2.86674235 2.93720042 2.86674235 2.93720042 1 5 C0.34 4.34 -0.32 3.68 -1 3 C-0.67 2.01 -0.34 1.02 0 0 Z " fill="#D93F39" transform="translate(74,13)"/>
<path d="M0 0 C1 3 1 3 0.3125 5.125 C-1 7 -1 7 -5 8 C-3.35 5.36 -1.7 2.72 0 0 Z " fill="#D5454A" transform="translate(24,29)"/>
</svg>
