<?xml version="1.0" encoding="UTF-8"?>
<svg version="1.1" xmlns="http://www.w3.org/2000/svg" width="128" height="128">
<path d="M0 0 C5.00985775 5.80088792 6.37617405 12.47651903 6 20 C6.58007812 20.01417969 7.16015625 20.02835938 7.7578125 20.04296875 C12.51330166 20.3333204 16.2036027 20.83661715 19.79589844 24.31225586 C24.61723066 31.07013698 24.46567722 40.06070583 24.375 48 C24.38660156 49.01578125 24.39820312 50.0315625 24.41015625 51.078125 C24.38338466 58.03873818 24.03541532 65.86688476 19.76049805 71.68774414 C15.61342279 75.62505333 13.10385824 75.23701772 7 76 C7 81.61 7 87.22 7 93 C3.32263954 91.77421318 2.79668047 90.1656944 0.84204102 86.98339844 C-3.1168346 80.83564627 -3.1168346 80.83564627 -9.27734375 77.27539062 C-14.39762299 76.54334438 -19.51730659 76.74029851 -24.67236328 76.94970703 C-32.45584862 77.11788387 -38.86482617 75.71936448 -45 71 C-45.99 71 -46.98 71 -48 71 C-49.9179073 73.16729462 -51.65218091 75.3108349 -53.375 77.625 C-54.31945456 78.86783993 -55.2647612 80.11003283 -56.2109375 81.3515625 C-56.67209961 81.9590332 -57.13326172 82.56650391 -57.60839844 83.19238281 C-59.66658199 85.86585492 -61.78395772 88.45507512 -64 91 C-64.33 91 -64.66 91 -65 91 C-65.33 83.74 -65.66 76.48 -66 69 C-69.3 68.34 -72.6 67.68 -76 67 C-81.08145549 64.45927226 -83.91206089 61.24493862 -86 56 C-88.25226176 48.15712201 -88.33439011 40.2912205 -88.3125 32.1875 C-88.32861328 31.00607422 -88.34472656 29.82464844 -88.36132812 28.60742188 C-88.36616517 19.77981387 -88.27858498 8.7551021 -82.75 1.375 C-68.1012174 -11.27622134 -15.74557036 -11.11452026 0 0 Z " fill="#6A97CB" transform="translate(96,26)"/>
<path d="M0 0 C1.4305218 0.11647294 2.86005217 0.24516004 4.2890625 0.37890625 C5.08521973 0.44924072 5.88137695 0.5195752 6.70166016 0.59204102 C10.44687748 1.25682306 12.84338825 2.97715794 15 6 C18.11843953 13.15869791 18.46296944 20.29778648 18.375 28 C18.38660156 29.01578125 18.39820312 30.0315625 18.41015625 31.078125 C18.38338466 38.03873818 18.03541532 45.86688476 13.76049805 51.68774414 C9.61342279 55.62505333 7.10385824 55.23701772 1 56 C1 61.61 1 67.22 1 73 C-2.67736046 71.77421318 -3.20331953 70.1656944 -5.15795898 66.98339844 C-9.1168346 60.83564627 -9.1168346 60.83564627 -15.27734375 57.27539062 C-20.39762299 56.54334438 -25.51730659 56.74029851 -30.67236328 56.94970703 C-38.17690129 57.11185669 -45.24138397 55.95880825 -51 51 C-51 50.67 -51 50.34 -51 50 C-49.77651855 49.93268677 -49.77651855 49.93268677 -48.52832031 49.86401367 C-45.44127579 49.68860349 -42.35506826 49.50275727 -39.26904297 49.31030273 C-37.3009151 49.19059677 -35.33209497 49.08244892 -33.36328125 48.97460938 C-18.79444582 48.21059665 -18.79444582 48.21059665 -6 42 C-5.34 42 -4.68 42 -4 42 C-3.81824219 41.09121094 -3.81824219 41.09121094 -3.6328125 40.1640625 C-2 32 -2 32 -1.48779297 29.82568359 C-0.0161918 23.27203117 0.24129632 17.07545737 0.125 10.375 C0.11597656 9.37082031 0.10695312 8.36664063 0.09765625 7.33203125 C0.07437746 4.88775874 0.04168487 2.44401592 0 0 Z " fill="#416796" transform="translate(102,46)"/>
<path d="M0 0 C4.0000824 2.11325108 6.42141172 3.75216243 8 8 C8.84204996 15.69367751 9.27117763 23.16451162 4.3671875 29.55078125 C1.30584339 32.79580601 -1.39622091 34.77829208 -5.97265625 35.16796875 C-7.98246306 35.18675199 -9.99238034 35.09560094 -12 35 C-14 33 -14 33 -14.0625 30.5625 C-13 28 -13 28 -9.5625 26.1875 C-6 25 -6 25 -4 25 C-3.34 23.35 -2.68 21.7 -2 20 C-3.2375 20.103125 -4.475 20.20625 -5.75 20.3125 C-9.04626073 20.28912226 -9.78068715 20.16996746 -12.5 18.0625 C-14.51603204 13.94643458 -14.96999982 10.49949494 -14 6 C-9.74720123 0.62804366 -6.77223161 -0.56435263 0 0 Z " fill="#F9FBFD" transform="translate(74,41)"/>
<path d="M0 0 C3.56038537 2.1671911 5.50739163 4.14137923 7 8 C7.8253617 15.54119955 8.34970665 23.23249901 3.4765625 29.48046875 C-0.34869164 33.41703981 -3.26278548 35.21671497 -8.75 35.375 C-12.69204152 35.30795848 -12.69204152 35.30795848 -15 33 C-15.1875 30.625 -15.1875 30.625 -14 28 C-11.76052002 26.80183464 -9.52668228 25.92502416 -7.12890625 25.08984375 C-4.56574437 23.77769299 -4.00592816 22.64399696 -3 20 C-4.5778125 20.1546875 -4.5778125 20.1546875 -6.1875 20.3125 C-10 20 -10 20 -12.9375 18 C-15.26076185 14.62071004 -15.63042816 12.92019235 -15.359375 8.9296875 C-14.68133239 5.28889348 -13.21491846 2.94493658 -10.3125 0.6875 C-6.84416773 -0.34362581 -3.55274495 -0.57917512 0 0 Z " fill="#F9FBFD" transform="translate(48,41)"/>
<path d="M0 0 C0.99 0.33 1.98 0.66 3 1 C2.67 1.33 2.34 1.66 2 2 C1.41714689 7.42501744 1.55008768 11.54386325 5 16 C3.0625 15.625 3.0625 15.625 1 15 C-0.44207941 12.11584117 -0.09394887 9.58278472 -0.0625 6.375 C-0.05347656 5.18648437 -0.04445312 3.99796875 -0.03515625 2.7734375 C-0.02355469 1.85820313 -0.01195312 0.94296875 0 0 Z " fill="#7B96C0" transform="translate(59,45)"/>
<path d="M0 0 C0 0.66 0 1.32 0 2 C-1.11375 2.2475 -2.2275 2.495 -3.375 2.75 C-7.04615198 3.61005339 -7.04615198 3.61005339 -8.4375 6.125 C-8.623125 6.74375 -8.80875 7.3625 -9 8 C-9.33 7.01 -9.66 6.02 -10 5 C-7.48732962 1.23099443 -4.57078644 0 0 0 Z " fill="#E6F1FC" transform="translate(43,66)"/>
<path d="M0 0 C1.65 0 3.3 0 5 0 C4.25 2.4375 4.25 2.4375 3 5 C0.875 5.8125 0.875 5.8125 -1 6 C-0.67 4.02 -0.34 2.04 0 0 Z " fill="#7D9ECA" transform="translate(67,61)"/>
<path d="M0 0 C0.1875 2.875 0.1875 2.875 0 6 C-0.99 6.66 -1.98 7.32 -3 8 C-3.6875 5.6875 -3.6875 5.6875 -4 3 C-1.72413793 0 -1.72413793 0 0 0 Z " fill="#386C8C" transform="translate(116,91)"/>
<path d="M0 0 C0.7734375 0.7115625 0.7734375 0.7115625 1.5625 1.4375 C4.66782675 3.42809407 7.36632504 3.65060818 11 4 C10.67 4.66 10.34 5.32 10 6 C6.7 5.67 3.4 5.34 0 5 C0 3.35 0 1.7 0 0 Z " fill="#84A4C9" transform="translate(34,57)"/>
<path d="M0 0 C1.65 0 3.3 0 5 0 C5 0.99 5 1.98 5 3 C3.35 3.33 1.7 3.66 0 4 C0 2.68 0 1.36 0 0 Z " fill="#779DCF" transform="translate(38,63)"/>
</svg>
