<?xml version="1.0" encoding="UTF-8"?>
<svg version="1.1" xmlns="http://www.w3.org/2000/svg" width="128" height="128">
<path d="M0 0 C2.02350324 3.03525486 2.32124018 4.19426202 2.625 7.6875 C2.69976562 8.49574219 2.77453125 9.30398437 2.8515625 10.13671875 C2.90054688 10.75160156 2.94953125 11.36648437 3 12 C3.66 12 4.32 12 5 12 C5.04898438 11.38511719 5.09796875 10.77023438 5.1484375 10.13671875 C5.22320312 9.32847656 5.29796875 8.52023438 5.375 7.6875 C5.44460937 6.88699219 5.51421875 6.08648437 5.5859375 5.26171875 C6 3 6 3 8 0 C8.66 3.63 9.32 7.26 10 11 C11.32 7.7 12.64 4.4 14 1 C14.33 1 14.66 1 15 1 C15.495 6.445 15.495 6.445 16 12 C17.65 9.03 19.3 6.06 21 3 C21.33 3 21.66 3 22 3 C21.67 6.96 21.34 10.92 21 15 C24.465 10.545 24.465 10.545 28 6 C29.31625194 8.63250388 28.74813658 9.80179056 28.0625 12.625 C27.86785156 13.44226562 27.67320313 14.25953125 27.47265625 15.1015625 C27.23869141 16.04128906 27.23869141 16.04128906 27 17 C27.40992187 16.4946875 27.81984375 15.989375 28.2421875 15.46875 C28.78101562 14.8190625 29.31984375 14.169375 29.875 13.5 C30.40867187 12.8503125 30.94234375 12.200625 31.4921875 11.53125 C31.98976563 11.0259375 32.48734375 10.520625 33 10 C33.66 10 34.32 10 35 10 C34.5359375 11.36125 34.5359375 11.36125 34.0625 12.75 C33.28175145 15.13817205 32.60938416 17.56246334 32 20 C34.31 18.02 36.62 16.04 39 14 C39.99 14.495 39.99 14.495 41 15 C39.35 17.97 37.7 20.94 36 24 C37.27875 23.154375 38.5575 22.30875 39.875 21.4375 C42.0546875 19.99609375 42.0546875 19.99609375 44 19 C44.66 19.33 45.32 19.66 46 20 C44.02 22.64 42.04 25.28 40 28 C41.3303125 27.5359375 41.3303125 27.5359375 42.6875 27.0625 C45.46709155 26.1709329 48.13136375 25.50622993 51 25 C48.33333333 27.66666667 45.66666667 30.33333333 43 33 C46.63 32.34 50.26 31.68 54 31 C51.33333333 33.66666667 48.66666667 36.33333333 46 39 C49.63 38.67 53.26 38.34 57 38 C54.07175348 40.92824652 51.7020007 42.27239967 48 44 C53.445 44.495 53.445 44.495 59 45 C56.08260073 47.91739927 52.8774037 48.62414707 49 50 C52.63 50.66 56.26 51.32 60 52 C56.31265242 54.45823172 53.30300029 55.01242616 49 56 C52.63 56.99 56.26 57.98 60 59 C55.93274566 61.7115029 52.8452389 61.57867488 48 62 C51.63 63.32 55.26 64.64 59 66 C59 66.66 59 67.32 59 68 C55.04 68 51.08 68 47 68 C50.3 69.65 53.6 71.3 57 73 C56.67 73.66 56.34 74.32 56 75 C52.7 74.67 49.4 74.34 46 74 C48.64 75.98 51.28 77.96 54 80 C49.74938644 81.41687119 47.28148375 80.19320039 43 79 C46.96 82.465 46.96 82.465 51 86 C50.67 86.66 50.34 87.32 50 88 C46.7 86.68 43.4 85.36 40 84 C41.98 86.97 43.96 89.94 46 93 C42.29499816 91.51799926 39.32738 90.091496 36 88 C37.65 91.3 39.3 94.6 41 98 C36.96255494 95.98127747 34.37989325 93.91899872 31 91 C31.45052734 91.92232422 31.45052734 91.92232422 31.91015625 92.86328125 C32.29042969 93.67152344 32.67070313 94.47976562 33.0625 95.3125 C33.44535156 96.11300781 33.82820313 96.91351563 34.22265625 97.73828125 C35 100 35 100 34 103 C31.69 100.36 29.38 97.72 27 95 C27.99 100.445 27.99 100.445 29 106 C28.34 106 27.68 106 27 106 C24.81411281 103.46301176 22.95646243 100.72203468 21 98 C21.495 103.445 21.495 103.445 22 109 C19.07175348 106.07175348 17.72760033 103.7020007 16 100 C15.67 103.63 15.34 107.26 15 111 C12.08260073 108.08260073 11.37585293 104.8774037 10 101 C9.34 104.63 8.68 108.26 8 112 C5.97649676 108.96474514 5.67875982 107.80573798 5.375 104.3125 C5.30023438 103.50425781 5.22546875 102.69601563 5.1484375 101.86328125 C5.09945312 101.24839844 5.05046875 100.63351563 5 100 C4.34 100 3.68 100 3 100 C2.95101562 100.61488281 2.90203125 101.22976562 2.8515625 101.86328125 C2.77679688 102.67152344 2.70203125 103.47976562 2.625 104.3125 C2.55539063 105.11300781 2.48578125 105.91351563 2.4140625 106.73828125 C2 109 2 109 0 112 C-0.66 108.37 -1.32 104.74 -2 101 C-3.98 105.95 -3.98 105.95 -6 111 C-6.33 111 -6.66 111 -7 111 C-7.33 107.37 -7.66 103.74 -8 100 C-9.65 102.97 -11.3 105.94 -13 109 C-13.33 109 -13.66 109 -14 109 C-13.67 105.04 -13.34 101.08 -13 97 C-13.94875 98.485 -14.8975 99.97 -15.875 101.5 C-17.4921875 104.03125 -17.4921875 104.03125 -19 106 C-19.66 106 -20.32 106 -21 106 C-20.34 102.37 -19.68 98.74 -19 95 C-21.31 97.64 -23.62 100.28 -26 103 C-27 101 -27 101 -26.22265625 98.6171875 C-25.1484375 96.078125 -24.07421875 93.5390625 -23 91 C-25.64 93.31 -28.28 95.62 -31 98 C-31.66 97.67 -32.32 97.34 -33 97 C-31.35 94.03 -29.7 91.06 -28 88 C-29.918125 89.2684375 -29.918125 89.2684375 -31.875 90.5625 C-34.0546875 92.00390625 -34.0546875 92.00390625 -36 93 C-36.66 92.67 -37.32 92.34 -38 92 C-35.69 89.03 -33.38 86.06 -31 83 C-34.96 84.65 -38.92 86.3 -43 88 C-43 87.34 -43 86.68 -43 86 C-40.46837103 83.50227678 -37.72030095 81.29525393 -35 79 C-40.445 79.99 -40.445 79.99 -46 81 C-43.42215154 78.35247996 -41.08351902 76.05567935 -38 74 C-41.63 74 -45.26 74 -49 74 C-45.68366796 71.51275097 -42.70626844 69.76890085 -39 68 C-42.96 68 -46.92 68 -51 68 C-51 67.34 -51 66.68 -51 66 C-47.37 64.68 -43.74 63.36 -40 62 C-43.96 61.34 -47.92 60.68 -52 60 C-48.31265242 57.54176828 -45.30300029 56.98757384 -41 56 C-46.445 54.515 -46.445 54.515 -52 53 C-52 52.67 -52 52.34 -52 52 C-48.04 51.34 -44.08 50.68 -40 50 C-43.63 48.68 -47.26 47.36 -51 46 C-51 45.67 -51 45.34 -51 45 C-45.555 44.505 -45.555 44.505 -40 44 C-42.97 42.35 -45.94 40.7 -49 39 C-49 38.67 -49 38.34 -49 38 C-45.04 38.33 -41.08 38.66 -37 39 C-41.455 35.535 -41.455 35.535 -46 32 C-42.47968852 30.23984426 -38.69802625 32.10190791 -35 33 C-37.64 30.69 -40.28 28.38 -43 26 C-38.26378231 24.42126077 -35.40897131 26.89136155 -31 29 C-33.31 26.03 -35.62 23.06 -38 20 C-33.75354935 20 -31.61475228 21.81750806 -28 24 C-29.65 20.7 -31.3 17.4 -33 14 C-29.51236907 15.74381547 -26.96631949 17.52806709 -24 20 C-24.4640625 18.6696875 -24.4640625 18.6696875 -24.9375 17.3125 C-25.8290671 14.53290845 -26.49377007 11.86863625 -27 9 C-24.33333333 11.66666667 -21.66666667 14.33333333 -19 17 C-19.66 13.37 -20.32 9.74 -21 6 C-20.34 6 -19.68 6 -19 6 C-16.79855191 8.87442964 -14.95104804 11.94618567 -13 15 C-13.495 9.06 -13.495 9.06 -14 3 C-11.07175348 5.92824652 -9.72760033 8.2979993 -8 12 C-7.67 8.37 -7.34 4.74 -7 1 C-4.08260073 3.91739927 -3.37585293 7.1225963 -2 11 C-1.34 7.37 -0.68 3.74 0 0 Z " fill="#F79D1F" transform="translate(60,8)"/>
<path d="M0 0 C3.38247589 1.69123795 4.36437154 5.51325996 5.9375 8.8125 C8.01934107 13.15771558 9.97204534 17.2195359 13 21 C15.98526544 27.44188859 16.16284575 34.20305582 14.1015625 40.93359375 C12.37856989 44.28914566 11.18212931 45.9241234 8 48 C1.7400901 49.21217908 -4.6970009 48.56670322 -11 48 C-11.66 46.02 -12.32 44.04 -13 42 C-13.66 42 -14.32 42 -15 42 C-18.01759496 36.97067506 -18.46070653 33.71276096 -18 28 C-17 25.5 -17 25.5 -16 24 C-15.34 24 -14.68 24 -14 24 C-13.9175 23.13375 -13.835 22.2675 -13.75 21.375 C-12.87819227 17.45186521 -11.29695426 15.28136323 -9 12 C-7.928053 9.89867428 -6.91713639 7.77891158 -5.9296875 5.63671875 C-5 4 -5 4 -3 3 C-2.94208156 6.12492251 -2.90643254 9.24970766 -2.875 12.375 C-2.85824219 13.26445313 -2.84148438 14.15390625 -2.82421875 15.0703125 C-2.81777344 15.92109375 -2.81132813 16.771875 -2.8046875 17.6484375 C-2.79421387 18.43395996 -2.78374023 19.21948242 -2.77294922 20.02880859 C-3 22 -3 22 -5 24 C-4.67673447 27.59679066 -4.67673447 27.59679066 -4 31 C-2.02 31.33 -0.04 31.66 2 32 C2.33 29.36 2.66 26.72 3 24 C2.01 23.34 1.02 22.68 0 22 C-0.34057617 19.75341797 -0.34057617 19.75341797 -0.29296875 16.9921875 C-0.28330078 16.00605469 -0.27363281 15.01992188 -0.26367188 14.00390625 C-0.23853516 12.97136719 -0.21339844 11.93882813 -0.1875 10.875 C-0.16719727 9.31458984 -0.16719727 9.31458984 -0.14648438 7.72265625 C-0.11105228 5.14792373 -0.06165221 2.5742167 0 0 Z " fill="#FEE36F" transform="translate(65,32)"/>
<path d="M0 0 C10.56 0 21.12 0 32 0 C32 2.97 32 5.94 32 9 C29 12 29 12 26.3203125 12.37231445 C25.26585938 12.3693335 24.21140625 12.36635254 23.125 12.36328125 C21.97515625 12.36263672 20.8253125 12.36199219 19.640625 12.36132812 C18.43921875 12.34521484 17.2378125 12.32910156 16 12.3125 C14.79859375 12.31572266 13.5971875 12.31894531 12.359375 12.32226562 C3.40053925 12.26702617 3.40053925 12.26702617 0 10 C0 6.7 0 3.4 0 0 Z " fill="#473E3C" transform="translate(48,81)"/>
<path d="M0 0 C0.99 0.33 1.98 0.66 3 1 C3.01458252 1.62567871 3.02916504 2.25135742 3.04418945 2.89599609 C3.11852804 5.72296402 3.21523234 8.54873208 3.3125 11.375 C3.33505859 12.35984375 3.35761719 13.3446875 3.38085938 14.359375 C3.41630859 15.30039062 3.45175781 16.24140625 3.48828125 17.2109375 C3.51446533 18.08024902 3.54064941 18.94956055 3.56762695 19.84521484 C3.81345218 22.38600027 3.81345218 22.38600027 7 24 C7.47730962 27.72301503 7.1387261 28.79191085 5 32 C2 32.375 2 32.375 -1 32 C-3.14915785 28.77626323 -3.38286803 27.73296326 -3 24 C-2.34 23.34 -1.68 22.68 -1 22 C-0.73899896 19.78542976 -0.73899896 19.78542976 -0.83984375 17.24609375 C-0.85080078 16.30958984 -0.86175781 15.37308594 -0.87304688 14.40820312 C-0.89431641 13.42787109 -0.91558594 12.44753906 -0.9375 11.4375 C-0.9717801 9.49876968 -1.00195541 7.5599609 -1.02734375 5.62109375 C-1.04531006 4.7592749 -1.06327637 3.89745605 -1.08178711 3.00952148 C-1 1 -1 1 0 0 Z " fill="#F69D21" transform="translate(62,32)"/>
<path d="M0 0 C10.89 0 21.78 0 33 0 C33 11 33 11 31 16 C17.14 15.505 17.14 15.505 3 15 C3 14.01 3 13.02 3 12 C12.24 12 21.48 12 31 12 C31.33 8.37 31.66 4.74 32 1 C21.44 1 10.88 1 0 1 C0 0.67 0 0.34 0 0 Z " fill="#C89039" transform="translate(48,80)"/>
<path d="M0 0 C0.33 0 0.66 0 1 0 C1.33 7.59 1.66 15.18 2 23 C1.34 23 0.68 23 0 23 C0 24.65 0 26.3 0 28 C0.66 28.33 1.32 28.66 2 29 C1.67 29.99 1.34 30.98 1 32 C0.01 31.67 -0.98 31.34 -2 31 C-2.625 27.625 -2.625 27.625 -3 24 C-2.34 23.34 -1.68 22.68 -1 22 C-0.73899896 19.78542976 -0.73899896 19.78542976 -0.83984375 17.24609375 C-0.85080078 16.30958984 -0.86175781 15.37308594 -0.87304688 14.40820312 C-0.89431641 13.42787109 -0.91558594 12.44753906 -0.9375 11.4375 C-0.9717801 9.49876968 -1.00195541 7.5599609 -1.02734375 5.62109375 C-1.04531006 4.7592749 -1.06327637 3.89745605 -1.08178711 3.00952148 C-1 1 -1 1 0 0 Z " fill="#FAAE38" transform="translate(62,32)"/>
<path d="M0 0 C0.99 0 1.98 0 3 0 C3.0809313 2.60478883 3.14045434 5.20706653 3.1875 7.8125 C3.22520508 8.91948242 3.22520508 8.91948242 3.26367188 10.04882812 C3.33834499 15.54974762 3.33834499 15.54974762 1.48828125 18.01171875 C0.75158203 18.50091797 0.75158203 18.50091797 0 19 C-0.66 18.67 -1.32 18.34 -2 18 C-1.51015625 17.45472656 -1.0203125 16.90945312 -0.515625 16.34765625 C1.33995844 13.47341488 1.34222281 11.82668824 1.25 8.4375 C1.23453125 7.48746094 1.2190625 6.53742187 1.203125 5.55859375 C1.09356342 2.88042887 1.09356342 2.88042887 0 0 Z " fill="#F3B038" transform="translate(78,56)"/>
<path d="M0 0 C0.495 0.70125 0.99 1.4025 1.5 2.125 C-7.07142857 2.41071429 -7.07142857 2.41071429 -10.5 0.125 C-3.11538462 -2.33653846 -3.11538462 -2.33653846 0 0 Z " fill="#EFA02A" transform="translate(18.5,66.875)"/>
<path d="M0 0 C2.40072955 2.88087546 4.47291037 5.56404834 6 9 C2.63408134 7.55746343 0.48952921 5.66735273 -2 3 C-1.34 3 -0.68 3 0 3 C0 2.01 0 1.02 0 0 Z " fill="#EEA025" transform="translate(95,97)"/>
<path d="M0 0 C0.99 1.32 1.98 2.64 3 4 C-0.3 5.32 -3.6 6.64 -7 8 C-7 7.34 -7 6.68 -7 6 C-5.46875 4.4921875 -5.46875 4.4921875 -3.5 2.875 C-2.8503125 2.33617188 -2.200625 1.79734375 -1.53125 1.2421875 C-1.0259375 0.83226563 -0.520625 0.42234375 0 0 Z " fill="#EFA024" transform="translate(24,88)"/>
<path d="M0 0 C4.875 4.75 4.875 4.75 6 7 C5.34 7 4.68 7 4 7 C3.67 7.66 3.34 8.32 3 9 C0 3.375 0 3.375 0 0 Z " fill="#EFA024" transform="translate(33,17)"/>
<path d="M0 0 C0.99 0 1.98 0 3 0 C3.20086443 3.71599191 3.1519437 4.77208445 1 8 C0.01 7.67 -0.98 7.34 -2 7 C-1.34 7 -0.68 7 0 7 C0 4.69 0 2.38 0 0 Z " fill="#F7A02F" transform="translate(66,56)"/>
<path d="" fill="#E8A32D" transform="translate(0,0)"/>
</svg>
