<?xml version="1.0" encoding="UTF-8"?>
<svg version="1.1" xmlns="http://www.w3.org/2000/svg" width="128" height="128">
<path d="M0 0 C12.90260465 8.29895531 21.41876547 20.04190278 24.75 35.1875 C26.25575612 53.04888294 22.9105743 67.23062988 11.5625 81.375 C4.05283268 89.56285313 -8.09781553 96.41594956 -19.34960938 97.36450195 C-37.38682217 97.85703246 -51.66079256 94.80126299 -65.37109375 82.2265625 C-77.34553024 69.23143599 -80.05716863 54.54990459 -79.42919922 37.61035156 C-78.53461978 25.5152475 -71.05393337 13.29993669 -62.25 5.1875 C-43.60477089 -8.83944929 -20.59459356 -11.60390241 0 0 Z " fill="#FDEBD1" transform="translate(91.25,18.8125)"/>
<path d="M0 0 C12.90260465 8.29895531 21.41876547 20.04190278 24.75 35.1875 C26.25575612 53.04888294 22.9105743 67.23062988 11.5625 81.375 C4.05283268 89.56285313 -8.09781553 96.41594956 -19.34960938 97.36450195 C-37.38682217 97.85703246 -51.66079256 94.80126299 -65.37109375 82.2265625 C-77.34553024 69.23143599 -80.05716863 54.54990459 -79.42919922 37.61035156 C-78.53461978 25.5152475 -71.05393337 13.29993669 -62.25 5.1875 C-43.60477089 -8.83944929 -20.59459356 -11.60390241 0 0 Z M-55.25 13.1875 C-55.85585938 13.70054688 -56.46171875 14.21359375 -57.0859375 14.7421875 C-64.91585743 21.88827163 -69.53090275 31.41226093 -70.5 41.890625 C-71.07339448 55.58041817 -66.16034941 66.8847778 -57.0625 76.875 C-47.876212 85.61416779 -37.05384254 88.72919928 -24.69140625 88.5 C-15.086291 87.62779884 -6.71505191 84.24460499 0.75 78.1875 C1.37519531 77.68605469 2.00039062 77.18460937 2.64453125 76.66796875 C10.15173491 69.94583214 15.2393593 59.22505733 15.96484375 49.2265625 C16.32698558 36.7978548 12.84839261 25.18663382 4.4453125 15.7265625 C-6.59081161 5.70759269 -17.59024353 2.34581787 -32.1171875 2.83984375 C-41.2788851 3.42316498 -48.45348312 7.20078088 -55.25 13.1875 Z " fill="#AB4648" transform="translate(91.25,18.8125)"/>
<path d="M0 0 C0.66 0 1.32 0 2 0 C4.32622007 4.65244014 2.98524838 11.0737581 2 16 C2.66 16 3.32 16 4 16 C4 15.34 4 14.68 4 14 C4.66 14 5.32 14 6 14 C6.33 13.01 6.66 12.02 7 11 C9.50390625 9.61328125 9.50390625 9.61328125 12.5625 8.3125 C13.57441406 7.87550781 14.58632812 7.43851563 15.62890625 6.98828125 C16.41136719 6.66214844 17.19382813 6.33601563 18 6 C17.62109081 11.43103175 15.92114756 13.36576568 12 17 C10.70480005 19.16620544 10.70480005 19.16620544 10 21 C10.99 20.34 11.98 19.68 13 19 C15.76655324 18.85754103 18.42653306 18.81230555 21.1875 18.875 C21.93708984 18.88402344 22.68667969 18.89304687 23.45898438 18.90234375 C25.30612654 18.92587422 27.15310412 18.96174439 29 19 C27.26553463 22.81425417 25.81808445 24.13338094 22 26 C20.7625 26.350625 19.525 26.70125 18.25 27.0625 C17.1775 27.371875 16.105 27.68125 15 28 C13.85647084 30.28705831 13.89665561 31.59264762 13.9375 34.125 C13.958125 35.40375 13.97875 36.6825 14 38 C14.5775 38.20625 15.155 38.4125 15.75 38.625 C20.51432286 41.53653064 22.66392341 47.10536334 25 52 C25.33 52.66 25.66 53.32 26 54 C20.58145718 53.62196213 18.62367452 51.91748597 15 48 C14.01 47.67 13.02 47.34 12 47 C12 52.61 12 58.22 12 64 C11.34 64 10.68 64 10 64 C10 63.34 10 62.68 10 62 C9.34 62 8.68 62 8 62 C6.02 56.555 6.02 56.555 4 51 C3.443125 52.340625 2.88625 53.68125 2.3125 55.0625 C0.34787215 59.5128398 -2.0471689 63.14491495 -5 67 C-8.23869034 62.14196449 -7.05521777 57.53989331 -6 52 C-6.66 52 -7.32 52 -8 52 C-8 52.66 -8 53.32 -8 54 C-8.66 54 -9.32 54 -10 54 C-10 54.66 -10 55.32 -10 56 C-10.63808594 56.26554687 -11.27617188 56.53109375 -11.93359375 56.8046875 C-12.75988281 57.15789062 -13.58617188 57.51109375 -14.4375 57.875 C-15.26121094 58.22304687 -16.08492187 58.57109375 -16.93359375 58.9296875 C-19.15746715 59.8244937 -19.15746715 59.8244937 -20 62 C-20.66 62 -21.32 62 -22 62 C-21.125 56.25 -21.125 56.25 -20 54 C-19.34 54 -18.68 54 -18 54 C-18 53.34 -18 52.68 -18 52 C-17.34 52 -16.68 52 -16 52 C-16 51.34 -16 50.68 -16 50 C-15.34 50 -14.68 50 -14 50 C-14.33 49.34 -14.66 48.68 -15 48 C-15.99 48.495 -15.99 48.495 -17 49 C-19.71760108 49.07181821 -22.40859388 49.09299506 -25.125 49.0625 C-25.87910156 49.05798828 -26.63320313 49.05347656 -27.41015625 49.04882812 C-29.27347127 49.03703499 -31.13674555 49.01909942 -33 49 C-31.26553463 45.18574583 -29.81808445 43.86661906 -26 42 C-23.68308546 41.27833809 -21.35151077 40.59940471 -19 40 C-18.67 36.7 -18.34 33.4 -18 30 C-19.32 29.34 -20.64 28.68 -22 28 C-25.18053272 24.55442289 -26.98670272 20.18983488 -29 16 C-29.33 15.34 -29.66 14.68 -30 14 C-23.61479646 14.15963009 -20.33991635 17.78124883 -16 22 C-16 21.34 -16 20.68 -16 20 C-16 14.66666667 -16 9.33333333 -16 4 C-15.34 4 -14.68 4 -14 4 C-11.42974154 8.2837641 -9.41292095 12.1725201 -8 17 C-7.6596875 15.7315625 -7.6596875 15.7315625 -7.3125 14.4375 C-5.98448233 10.95935848 -4.40495922 8.59796032 -2.12109375 5.7109375 C-0.88475673 3.82412351 -0.42779682 2.2014713 0 0 Z " fill="#AF4F4E" transform="translate(66,30)"/>
<path d="M0 0 C8.87566122 6.0602633 15.17205114 13.76817577 18.6328125 24.015625 C19.2021912 27.18628289 19.12354422 30.2665993 19.09375 33.484375 C19.08472656 34.74765625 19.07570313 36.0109375 19.06640625 37.3125 C19.05480469 38.27671875 19.04320313 39.2409375 19.03125 40.234375 C17.05125 40.234375 15.07125 40.234375 13.03125 40.234375 C13.03125 39.574375 13.03125 38.914375 13.03125 38.234375 C11.979375 38.3375 10.9275 38.440625 9.84375 38.546875 C5.02368496 38.1517877 4.32176333 36.60514475 1.03125 33.234375 C-1.63647248 32.24022374 -4.15322749 31.75930292 -6.96875 31.234375 C-4.08434497 27.89551387 -1.17045693 27.22105277 2.97265625 26.078125 C5.38160055 25.31499913 5.38160055 25.31499913 7.03125 22.234375 C4.61428128 22.18026376 2.19853213 22.14065222 -0.21875 22.109375 C-1.24162109 22.08423828 -1.24162109 22.08423828 -2.28515625 22.05859375 C-6.0295735 22.02224018 -8.79227727 22.15493151 -11.96875 24.234375 C-10.79619291 20.89709714 -9.78006596 18.46000013 -6.96875 16.234375 C-6.30875 16.234375 -5.64875 16.234375 -4.96875 16.234375 C-4.63875 13.924375 -4.30875 11.614375 -3.96875 9.234375 C-5.61811913 10.01864852 -7.26316127 10.81202759 -8.90625 11.609375 C-9.82277344 12.05023438 -10.73929688 12.49109375 -11.68359375 12.9453125 C-14.09778802 14.02636662 -14.09778802 14.02636662 -14.96875 16.234375 C-15.62875 16.234375 -16.28875 16.234375 -16.96875 16.234375 C-16.96875 16.894375 -16.96875 17.554375 -16.96875 18.234375 C-17.62875 18.234375 -18.28875 18.234375 -18.96875 18.234375 C-19.29875 18.894375 -19.62875 19.554375 -19.96875 20.234375 C-20.09375 14.484375 -20.09375 14.484375 -18.96875 12.234375 C-18.89878986 10.52734765 -18.88434846 8.81769497 -18.90625 7.109375 C-18.91527344 6.19929688 -18.92429688 5.28921875 -18.93359375 4.3515625 C-18.94519531 3.65289062 -18.95679688 2.95421875 -18.96875 2.234375 C-19.62875 2.234375 -20.28875 2.234375 -20.96875 2.234375 C-21.030625 2.915 -21.0925 3.595625 -21.15625 4.296875 C-21.94771569 7.15832789 -22.70173144 8.38035237 -24.46875 10.671875 C-26.84376775 13.79293579 -27.67796147 16.26026511 -27.96875 20.234375 C-30.38305459 18.07633738 -31.5413573 16.28747031 -32.59375 13.234375 C-32.83351563 12.55375 -33.07328125 11.873125 -33.3203125 11.171875 C-33.87100052 9.52644575 -34.42005202 7.88046894 -34.96875 6.234375 C-35.62875 6.234375 -36.28875 6.234375 -36.96875 6.234375 C-36.82788398 8.83889771 -36.68126536 11.44287697 -36.53125 14.046875 C-36.49193359 14.78486328 -36.45261719 15.52285156 -36.41210938 16.28320312 C-36.22493965 19.46508842 -35.98154207 22.19599878 -34.96875 25.234375 C-38.3020067 24.18678004 -39.87576947 23.34026949 -42.21875 20.671875 C-45.59868998 17.67601911 -47.52275899 17.71984201 -51.875 17.48046875 C-54.57418818 17.16321342 -56.06470554 16.13841946 -57.96875 14.234375 C-57.1222 8.40111637 -52.22102751 4.89787563 -47.96875 1.234375 C-33.80815885 -8.55101689 -14.69036571 -8.73690171 0 0 Z " fill="#FDEDD3" transform="translate(86.96875,27.765625)"/>
<path d="M0 0 C2.80426348 3.36511617 3.64314815 6.45578177 3.4921875 10.8671875 C2.5533211 14.93560858 -0.05076623 18.12252374 -3 21 C-7.96123789 22.65374596 -14.15766119 23.39878879 -18.984375 21.0234375 C-21.74132543 18.79876958 -23.99770808 16.40779252 -25 13 C-25.4850824 7.76111007 -24.85631117 4.43220699 -22 0 C-14.94907221 -6.68934175 -7.54489948 -6.17309958 0 0 Z " fill="#F6C013" transform="translate(75,55)"/>
<path d="M0 0 C1.74330443 2.72391318 1.99753268 4.06661769 1.875 7.375 C2.02727881 11.79108552 3.24297901 13.61280278 6 17 C9.75197452 19.50131635 12.66884429 19.22518688 17 19.125 C17.72445312 19.11597656 18.44890625 19.10695313 19.1953125 19.09765625 C21.13032076 19.07266537 23.06518206 19.03689271 25 19 C25.99 19 26.98 19 28 19 C29 20 29 20 29.09765625 23.81640625 C29.09098089 25.39846682 29.07901875 26.98051159 29.0625 28.5625 C29.05798828 29.36880859 29.05347656 30.17511719 29.04882812 31.00585938 C29.03700518 33.00393756 29.01906914 35.00197783 29 37 C28.34 37 27.68 37 27 37 C27 36.34 27 35.68 27 35 C26.34 35 25.68 35 25 35 C23.68 31.37 22.36 27.74 21 24 C20.443125 25.340625 19.88625 26.68125 19.3125 28.0625 C17.34787215 32.5128398 14.9528311 36.14491495 12 40 C8.76130966 35.14196449 9.94478223 30.53989331 11 25 C10.34 25 9.68 25 9 25 C9 25.66 9 26.32 9 27 C8.34 27 7.68 27 7 27 C7 27.66 7 28.32 7 29 C6.36191406 29.26554687 5.72382812 29.53109375 5.06640625 29.8046875 C4.24011719 30.15789062 3.41382812 30.51109375 2.5625 30.875 C1.73878906 31.22304687 0.91507813 31.57109375 0.06640625 31.9296875 C-2.15746715 32.8244937 -2.15746715 32.8244937 -3 35 C-3.66 35 -4.32 35 -5 35 C-4.125 29.25 -4.125 29.25 -3 27 C-2.34 27 -1.68 27 -1 27 C-1 26.34 -1 25.68 -1 25 C-0.34 25 0.32 25 1 25 C1 24.34 1 23.68 1 23 C1.66 23 2.32 23 3 23 C2.67 22.34 2.34 21.68 2 21 C1.34 21.33 0.68 21.66 0 22 C-2.71760108 22.07181821 -5.40859388 22.09299506 -8.125 22.0625 C-8.87910156 22.05798828 -9.63320313 22.05347656 -10.41015625 22.04882812 C-12.27347127 22.03703499 -14.13674555 22.01909942 -16 22 C-14.26553463 18.18574583 -12.81808445 16.86661906 -9 15 C-6.68308546 14.27833809 -4.35151077 13.59940471 -2 13 C-1.67 9.7 -1.34 6.4 -1 3 C-1.66 2.67 -2.32 2.34 -3 2 C-2.01 1.34 -1.02 0.68 0 0 Z " fill="#AE4F4A" transform="translate(49,57)"/>
<path d="M0 0 C3 0 3 0 4.4375 1.375 C4.953125 1.91125 5.46875 2.4475 6 3 C6.94552734 3.37705078 6.94552734 3.37705078 7.91015625 3.76171875 C10.78787436 5.46683397 11.54348315 7.45718156 13 10.4375 C14.94244521 14.52790471 14.94244521 14.52790471 18.171875 17.5546875 C20 19 20 19 20.390625 21.26171875 C20.32101563 22.46248047 20.32101563 22.46248047 20.25 23.6875 C20.21390625 24.49574219 20.1778125 25.30398437 20.140625 26.13671875 C20.07101563 27.05904297 20.07101563 27.05904297 20 28 C17.375 28.3125 17.375 28.3125 14 28 C12.55063523 26.77609198 11.10394351 25.54634549 9.72265625 24.24609375 C6.56601502 21.96271835 2.78698265 21.56383964 -1 21 C-1 20.34 -1 19.68 -1 19 C-3.19117773 19.82201984 -3.19117773 19.82201984 -3.8515625 22.06640625 C-4.23441406 23.30197266 -4.23441406 23.30197266 -4.625 24.5625 C-4.88539062 25.38878906 -5.14578125 26.21507813 -5.4140625 27.06640625 C-5.60742188 27.70449219 -5.80078125 28.34257813 -6 29 C-6.33 29 -6.66 29 -7 29 C-7.51447471 17.91021182 -5.93819138 9.41920011 0 0 Z " fill="#FBE8CF" transform="translate(28,41)"/>
<path d="M0 0 C3.92265458 -0.26105232 6.00616828 0.28360919 9.3125 2.375 C17.50558488 7.13748284 25.69721511 7.46111917 35 8 C33.6875 9.5 33.6875 9.5 32 11 C31.01 11 30.02 11 29 11 C29.495 13.475 29.495 13.475 30 16 C32.97 16 35.94 16 39 16 C39 16.33 39 16.66 39 17 C24.10004728 17.53003784 8.89277762 17.59629034 -3 7 C-3.76953125 4.30859375 -3.76953125 4.30859375 -4 2 C-2.68 2 -1.36 2 0 2 C0 1.34 0 0.68 0 0 Z " fill="#AA4447" transform="translate(35,99)"/>
<path d="M0 0 C0.98613281 0.05800781 1.97226562 0.11601563 2.98828125 0.17578125 C3.98214844 0.22089844 4.97601563 0.26601563 6 0.3125 C6.75925781 0.37050781 7.51851562 0.42851563 8.30078125 0.48828125 C7.1957356 4.57695014 5.51144458 7.87958007 3.36328125 11.48828125 C-0.2206151 17.84115376 -1.51094425 24.3482108 -2.69921875 31.48828125 C-4.67921875 31.81828125 -6.65921875 32.14828125 -8.69921875 32.48828125 C-9.02921875 34.79828125 -9.35921875 37.10828125 -9.69921875 39.48828125 C-10.02921875 39.48828125 -10.35921875 39.48828125 -10.69921875 39.48828125 C-11.73251547 15.66840727 -11.73251547 15.66840727 -5.69921875 5.48828125 C-5.26609375 4.56789063 -4.83296875 3.6475 -4.38671875 2.69921875 C-2.69921875 0.48828125 -2.69921875 0.48828125 0 0 Z " fill="#AB4244" transform="translate(23.69921875,32.51171875)"/>
<path d="M0 0 C0.78375 0.04125 1.5675 0.0825 2.375 0.125 C2.375 0.785 2.375 1.445 2.375 2.125 C3.035 2.125 3.695 2.125 4.375 2.125 C3.76114212 14.40215764 -1.46541826 24.97474057 -9.625 34.125 C-10.285 34.125 -10.945 34.125 -11.625 34.125 C-11.955 32.475 -12.285 30.825 -12.625 29.125 C-13.615 28.795 -14.605 28.465 -15.625 28.125 C-14.98911006 24.75401716 -13.68985667 22.47668102 -11.8125 19.625 C-8.82289943 14.80722641 -7.07795895 10.01752696 -5.484375 4.59375 C-4.31894151 1.24577743 -3.62214311 0.17248301 0 0 Z " fill="#A94144" transform="translate(111.625,66.875)"/>
<path d="M0 0 C3.0390625 -0.29296875 3.0390625 -0.29296875 6.625 -0.1875 C7.81351563 -0.16042969 9.00203125 -0.13335937 10.2265625 -0.10546875 C11.14179687 -0.07066406 12.05703125 -0.03585938 13 0 C12.8125 1.8984375 12.8125 1.8984375 12 4 C9.75 4.9765625 9.75 4.9765625 7 5.625 C5.3197555 6.03074086 3.64821835 6.47920878 2 7 C0.85647084 9.28705831 0.89665561 10.59264762 0.9375 13.125 C0.958125 14.40375 0.97875 15.6825 1 17 C1.86625 17.309375 1.86625 17.309375 2.75 17.625 C7.51432286 20.53653064 9.66392341 26.10536334 12 31 C12.33 31.66 12.66 32.32 13 33 C7.5948229 32.62289462 5.57627944 30.96290424 2 27 C-0.78114056 24.66608797 -0.78114056 24.66608797 -3.6875 25.375 C-4.450625 25.58125 -5.21375 25.7875 -6 26 C-6 23 -6 23 -4 20.6875 C-0.86376178 16.36694804 -1.80557059 11.22976559 -2.0546875 6.14453125 C-2 3 -2 3 0 0 Z " fill="#AA4848" transform="translate(79,51)"/>
<path d="M0 0 C0.33 0.66 0.66 1.32 1 2 C1.66 2 2.32 2 3 2 C3 2.66 3 3.32 3 4 C5.64 4.33 8.28 4.66 11 5 C10.319375 5.53625 9.63875 6.0725 8.9375 6.625 C5.56615832 9.35076561 2.27934457 12.16483178 -1 15 C-1.33 14.34 -1.66 13.68 -2 13 C-1.34 13 -0.68 13 0 13 C0 12.34 0 11.68 0 11 C-1.27875 11.20625 -2.5575 11.4125 -3.875 11.625 C-6.0546875 11.9765625 -6.0546875 11.9765625 -8 12 C-8.66 11.34 -9.32 10.68 -10 10 C-8.90033225 8.70450101 -7.79508199 7.41373929 -6.6875 6.125 C-6.07261719 5.40570312 -5.45773438 4.68640625 -4.82421875 3.9453125 C-3 2 -3 2 0 0 Z " fill="#AC4A4A" transform="translate(32,22)"/>
<path d="M0 0 C2.64 0 5.28 0 8 0 C7.8576876 7.68486945 4.66758993 12.05278359 0 18 C-2.67038146 13.99442781 -2.43279167 11.28334916 -1.546875 6.609375 C-1.06010557 4.39805103 -0.54684974 2.19716412 0 0 Z " fill="#AE494D" transform="translate(61,79)"/>
<path d="M0 0 C5.6689026 0.14172256 8.27637811 2.66049806 12.16796875 6.40625 C14.01369964 8.21794071 14.01369964 8.21794071 17 9 C16.67 10.65 16.34 12.3 16 14 C12.97121688 14.97353743 10.97153543 15.24612776 8 14 C4.77490295 10.64052391 2.99867051 6.15939538 1 2 C0.67 1.34 0.34 0.68 0 0 Z " fill="#A94849" transform="translate(36,44)"/>
<path d="M0 0 C8.11389573 0.19445066 8.11389573 0.19445066 11.75 3.5 C12.86375 4.7375 12.86375 4.7375 14 6 C16.67790896 6.87238858 16.67790896 6.87238858 19 7 C19 7.66 19 8.32 19 9 C14.51962957 11.24018522 8.62233361 10.34808477 3.9375 9 C2.968125 8.67 1.99875 8.34 1 8 C0.67 5.36 0.34 2.72 0 0 Z " fill="#F7BF31" transform="translate(79,59)"/>
<path d="M0 0 C1.078125 3.75 1.078125 3.75 0.375 6 C-1.38232591 8.55611042 -3.56180655 10.09701974 -6 12 C-7.76323505 14.12603185 -7.76323505 14.12603185 -9 16 C-10.98 15.01 -12.96 14.02 -15 13 C-15 12.01 -15 11.02 -15 10 C-14.34 10 -13.68 10 -13 10 C-13 9.34 -13 8.68 -13 8 C-12.34 8 -11.68 8 -11 8 C-10.67 7.01 -10.34 6.02 -10 5 C-7.71484375 3.61328125 -7.71484375 3.61328125 -4.9375 2.3125 C-4.01839844 1.87550781 -3.09929687 1.43851563 -2.15234375 0.98828125 C-1.08693359 0.49908203 -1.08693359 0.49908203 0 0 Z " fill="#F5C01E" transform="translate(83,36)"/>
<path d="M0 0 C2.9719385 1.12451727 5.33440687 2.22293791 8 4 C8 4.66 8 5.32 8 6 C7.34 6 6.68 6 6 6 C6 6.66 6 7.32 6 8 C5.34 8 4.68 8 4 8 C4 8.66 4 9.32 4 10 C3.36191406 10.26554687 2.72382812 10.53109375 2.06640625 10.8046875 C1.24011719 11.15789062 0.41382813 11.51109375 -0.4375 11.875 C-1.26121094 12.22304687 -2.08492187 12.57109375 -2.93359375 12.9296875 C-5.15746715 13.8244937 -5.15746715 13.8244937 -6 16 C-6.66 16 -7.32 16 -8 16 C-7.125 10.25 -7.125 10.25 -6 8 C-5.34 8 -4.68 8 -4 8 C-4 7.34 -4 6.68 -4 6 C-3.34 6 -2.68 6 -2 6 C-2 5.34 -2 4.68 -2 4 C-1.34 4 -0.68 4 0 4 C0 2.68 0 1.36 0 0 Z " fill="#F6C32B" transform="translate(52,76)"/>
<path d="M0 0 C0.99 0.66 1.98 1.32 3 2 C3.2208564 4.95064148 3.28060989 7.68368231 3.1875 10.625 C3.17396484 11.42679688 3.16042969 12.22859375 3.14648438 13.0546875 C3.11109051 15.03674378 3.05728234 17.01845551 3 19 C2.34 19 1.68 19 1 19 C1 18.34 1 17.68 1 17 C0.34 17 -0.32 17 -1 17 C-1.41572266 15.84371094 -1.41572266 15.84371094 -1.83984375 14.6640625 C-2.20207031 13.66117188 -2.56429687 12.65828125 -2.9375 11.625 C-3.29714844 10.62726563 -3.65679687 9.62953125 -4.02734375 8.6015625 C-4.92349292 6.06495835 -4.92349292 6.06495835 -6 4 C-4.02 2.68 -2.04 1.36 0 0 Z " fill="#F8C135" transform="translate(75,75)"/>
<path d="M0 0 C11.52164009 -0.18451025 11.52164009 -0.18451025 17 1 C17 3.64 17 6.28 17 9 C13.8055348 9.47916978 11.69732648 9.43730644 8.92578125 7.69921875 C7.54185757 6.62738137 6.17611315 5.53155002 4.83203125 4.41015625 C2.94789321 2.80037292 2.94789321 2.80037292 0 2 C0 1.34 0 0.68 0 0 Z " fill="#F7C32B" transform="translate(31,60)"/>
<path d="M0 0 C0.33 0.66 0.66 1.32 1 2 C-0.175625 2.2784375 -0.175625 2.2784375 -1.375 2.5625 C-4.38675506 3.83156035 -4.38675506 3.83156035 -5.25 7.5625 C-5.4975 8.696875 -5.745 9.83125 -6 11 C-7 12 -7 12 -9.06640625 12.09765625 C-9.89011719 12.08605469 -10.71382813 12.07445313 -11.5625 12.0625 C-12.38878906 12.05347656 -13.21507813 12.04445313 -14.06640625 12.03515625 C-14.70449219 12.02355469 -15.34257813 12.01195313 -16 12 C-16.33 10.35 -16.66 8.7 -17 7 C-15.02 6.34 -13.04 5.68 -11 5 C-11 4.34 -11 3.68 -11 3 C-7.37 2.01 -3.74 1.02 0 0 Z " fill="#B55754" transform="translate(81,103)"/>
<path d="M0 0 C0.66 0 1.32 0 2 0 C4.95534402 4.8916039 7.1074692 9.60628722 9 15 C6.69 16.32 4.38 17.64 2 19 C-0.52775351 15.20836973 -0.22443035 12.19125969 -0.125 7.8125 C-0.11597656 7.06291016 -0.10695312 6.31332031 -0.09765625 5.54101562 C-0.07412578 3.69387346 -0.03825561 1.84689588 0 0 Z " fill="#F8C00B" transform="translate(50,34)"/>
<path d="M0 0 C1.9375 0.75 1.9375 0.75 3.9375 2.75 C3.2775 3.41 2.6175 4.07 1.9375 4.75 C2.9275 5.08 3.9175 5.41 4.9375 5.75 C4.6075 7.07 4.2775 8.39 3.9375 9.75 C3.9375 8.76 3.9375 7.77 3.9375 6.75 C2.6175 6.75 1.2975 6.75 -0.0625 6.75 C0.288125 7.3275 0.63875 7.905 1 8.5 C2.08667407 11.10801776 1.86815133 12.14417629 0.9375 14.75 C-1.625 12.625 -1.625 12.625 -4.0625 9.75 C-3.875 6.4375 -3.875 6.4375 -3.0625 3.75 C-3.7225 3.75 -4.3825 3.75 -5.0625 3.75 C-5.0625 3.09 -5.0625 2.43 -5.0625 1.75 C-2.0625 -0.25 -2.0625 -0.25 0 0 Z " fill="#A34B43" transform="translate(95.0625,22.25)"/>
<path d="M0 0 C0.82757813 0.65484375 1.65515625 1.3096875 2.5078125 1.984375 C6.16170935 4.42030623 9.59100163 4.46586038 13.875 4.25 C14.56335938 4.23195313 15.25171875 4.21390625 15.9609375 4.1953125 C17.6412381 4.14863748 19.32081163 4.07690939 21 4 C21 4.66 21 5.32 21 6 C16.4863312 8.2568344 9.70676268 8.89044903 4.91015625 7.3125 C2.49198917 5.79892843 1.1597667 4.41082867 0.125 1.75 C0.08375 1.1725 0.0425 0.595 0 0 Z " fill="#AA522C" transform="translate(52,72)"/>
<path d="M0 0 C11.52164009 -0.18451025 11.52164009 -0.18451025 17 1 C17 1.33 17 1.66 17 2 C15.02 2 13.04 2 11 2 C11 2.66 11 3.32 11 4 C10.01 4.495 10.01 4.495 9 5 C9 5.99 9 6.98 9 8 C7.53515625 6.73046875 6.0703125 5.4609375 4.60546875 4.19140625 C2.89287029 2.79128769 2.89287029 2.79128769 0 2 C0 1.34 0 0.68 0 0 Z " fill="#F9C53E" transform="translate(31,60)"/>
<path d="M0 0 C0.33 0 0.66 0 1 0 C1.3125 2.6875 1.3125 2.6875 1 6 C-1.5 8.875 -1.5 8.875 -4 11 C-4.33 10.01 -4.66 9.02 -5 8 C-9.455 9.485 -9.455 9.485 -14 11 C-11.76056718 7.64085078 -10.73157917 7.18318364 -7 6 C-6.01 6 -5.02 6 -4 6 C-4 5.34 -4 4.68 -4 4 C-3.34 4 -2.68 4 -2 4 C-2 3.34 -2 2.68 -2 2 C-1.34 2 -0.68 2 0 2 C0 1.34 0 0.68 0 0 Z " fill="#FDE9BD" transform="translate(60,80)"/>
<path d="M0 0 C0.66 0.33 1.32 0.66 2 1 C2 5.95 2 10.9 2 16 C1.34 15.34 0.68 14.68 0 14 C0 12.68 0 11.36 0 10 C-0.66 10 -1.32 10 -2 10 C-2.1953125 3.9453125 -2.1953125 3.9453125 -2 2 C-1.34 1.34 -0.68 0.68 0 0 Z " fill="#FAC00C" transform="translate(75,77)"/>
<path d="M0 0 C0.33 0.99 0.66 1.98 1 3 C1.66 3 2.32 3 3 3 C3.33 4.32 3.66 5.64 4 7 C-0.455 8.485 -0.455 8.485 -5 10 C-5 6.60406522 -4.47834052 5.93380119 -2.5 3.3125 C-2.0359375 2.68988281 -1.571875 2.06726563 -1.09375 1.42578125 C-0.7328125 0.95527344 -0.371875 0.48476562 0 0 Z " fill="#A9423F" transform="translate(78,67)"/>
<path d="M0 0 C3.25543229 0.34879632 4.01873107 1.02133261 6.25 3.5625 C6.8275 4.366875 7.405 5.17125 8 6 C7.01 6 6.02 6 5 6 C4.67 6.66 4.34 7.32 4 8 C2.35 8 0.7 8 -1 8 C-1.33 6.68 -1.66 5.36 -2 4 C-0.35 3.67 1.3 3.34 3 3 C1.68 2.67 0.36 2.34 -1 2 C-0.67 1.34 -0.34 0.68 0 0 Z " fill="#C16460" transform="translate(97,25)"/>
<path d="M0 0 C0.33 0.66 0.66 1.32 1 2 C1.66 2 2.32 2 3 2 C3 2.66 3 3.32 3 4 C2.01 4 1.02 4 0 4 C0 5.98 0 7.96 0 10 C-3.875 9.125 -3.875 9.125 -5 8 C-5.04063832 6.33382885 -5.042721 4.66611905 -5 3 C-3.68 3 -2.36 3 -1 3 C-0.67 2.01 -0.34 1.02 0 0 Z " fill="#B04043" transform="translate(102,30)"/>
<path d="M0 0 C2.97 0.495 2.97 0.495 6 1 C6.33 1.99 6.66 2.98 7 4 C6.34 4 5.68 4 5 4 C5 4.66 5 5.32 5 6 C2.69 6.33 0.38 6.66 -2 7 C-2 5 -2 5 0 3 C0 2.01 0 1.02 0 0 Z " fill="#F7C113" transform="translate(53,78)"/>
<path d="M0 0 C0.99 0.495 0.99 0.495 2 1 C1.67 5.62 1.34 10.24 1 15 C2.65 15 4.3 15 6 15 C6.33 13.68 6.66 12.36 7 11 C7.66 12.32 8.32 13.64 9 15 C6.69 16.32 4.38 17.64 2 19 C-0.52775351 15.20836973 -0.22443035 12.19125969 -0.125 7.8125 C-0.11597656 7.06291016 -0.10695312 6.31332031 -0.09765625 5.54101562 C-0.07412578 3.69387346 -0.03825561 1.84689588 0 0 Z " fill="#F7C135" transform="translate(50,34)"/>
<path d="M0 0 C0.33 0 0.66 0 1 0 C1.57934159 5.40718817 1.34220083 8.10649656 -2 12.5 C-2.98191175 13.68193081 -3.97612198 14.85423174 -5 16 C-6.32 15.67 -7.64 15.34 -9 15 C-8.34 14.67 -7.68 14.34 -7 14 C-6.67 13.34 -6.34 12.68 -6 12 C-5.34 12.33 -4.68 12.66 -4 13 C-4 11.68 -4 10.36 -4 9 C-3.34 9 -2.68 9 -2 9 C-1.34 6.03 -0.68 3.06 0 0 Z " fill="#EEA822" transform="translate(77,60)"/>
<path d="M0 0 C0.66 0.33 1.32 0.66 2 1 C1 4 1 4 -1 5 C-1.65213292 7.02463255 -1.65213292 7.02463255 -2 9 C-2.66 9 -3.32 9 -4 9 C-3.649375 9.9075 -3.29875 10.815 -2.9375 11.75 C-2.03531221 14.87758436 -1.86618493 16.05208081 -3 19 C-5.34515209 15.33569986 -5.36881381 12.27824017 -5 8 C-3.64184747 4.72808708 -2.50104494 2.50104494 0 0 Z " fill="#E9A026" transform="translate(55,53)"/>
<path d="M0 0 C3.38822061 0.3566548 6.0349862 1.36413032 9 3 C9.66 3.33 10.32 3.66 11 4 C10.34 5.65 9.68 7.3 9 9 C8.113125 8.21625 7.22625 7.4325 6.3125 6.625 C3.69279481 4.42843009 1.28284399 3.06209659 -2 2 C-1.34 1.34 -0.68 0.68 0 0 Z " fill="#AB512C" transform="translate(68,49)"/>
<path d="M0 0 C1.32 0.66 2.64 1.32 4 2 C3.34 2 2.68 2 2 2 C2.14086602 4.60452271 2.28748464 7.20850197 2.4375 9.8125 C2.47681641 10.55048828 2.51613281 11.28847656 2.55664062 12.04882812 C2.74381035 15.23071342 2.98720793 17.96162378 4 21 C1.525 20.01 1.525 20.01 -1 19 C-0.83628906 18.32582031 -0.67257813 17.65164062 -0.50390625 16.95703125 C0.0875358 13.48632094 0.09539046 10.20677876 0.0625 6.6875 C0.04896484 4.80611328 0.04896484 4.80611328 0.03515625 2.88671875 C0.02355469 1.93410156 0.01195312 0.98148438 0 0 Z " fill="#FAE0A3" transform="translate(48,32)"/>
<path d="M0 0 C0.33 0 0.66 0 1 0 C1.19344057 3.84117703 0.64305823 6.67091194 -0.75 10.25 C-1.07484375 11.12140625 -1.3996875 11.9928125 -1.734375 12.890625 C-3 15 -3 15 -5.140625 15.796875 C-5.75421875 15.86390625 -6.3678125 15.9309375 -7 16 C-6.66226563 15.26394531 -6.32453125 14.52789062 -5.9765625 13.76953125 C-5.53054687 12.79371094 -5.08453125 11.81789063 -4.625 10.8125 C-4.18414062 9.84957031 -3.74328125 8.88664062 -3.2890625 7.89453125 C-2.12678149 5.28468208 -1.04075219 2.66024041 0 0 Z " fill="#AD514D" transform="translate(106,73)"/>
<path d="M0 0 C0.99 0 1.98 0 3 0 C3.625 1.8125 3.625 1.8125 4 4 C3.01 5.485 3.01 5.485 2 7 C3.32 7.33 4.64 7.66 6 8 C3.36 8.33 0.72 8.66 -2 9 C-1.34 6.03 -0.68 3.06 0 0 Z " fill="#9D4245" transform="translate(76,106)"/>
<path d="M0 0 C1.875 0.3125 1.875 0.3125 4 1 C4.66 1.99 5.32 2.98 6 4 C5.01 4 4.02 4 3 4 C3 4.66 3 5.32 3 6 C1.35 5.67 -0.3 5.34 -2 5 C-2 4.01 -2 3.02 -2 2 C-1.34 2 -0.68 2 0 2 C0 1.34 0 0.68 0 0 Z " fill="#D07770" transform="translate(32,95)"/>
<path d="M0 0 C1.31471568 0.28151087 2.62675767 0.57553339 3.9375 0.875 C4.66839844 1.03742187 5.39929688 1.19984375 6.15234375 1.3671875 C8 2 8 2 9 4 C4.545 4.495 4.545 4.495 0 5 C0 3.35 0 1.7 0 0 Z " fill="#F8BF0C" transform="translate(81,60)"/>
<path d="M0 0 C4.95 0 9.9 0 15 0 C15 0.33 15 0.66 15 1 C13.35 1.33 11.7 1.66 10 2 C10 2.99 10 3.98 10 5 C8.68 5 7.36 5 6 5 C6 3.68 6 2.36 6 1 C4.02 1 2.04 1 0 1 C0 0.67 0 0.34 0 0 Z " fill="#CF6867" transform="translate(58,13)"/>
<path d="M0 0 C2.475 0.495 2.475 0.495 5 1 C5.33 2.65 5.66 4.3 6 6 C5.01 6 4.02 6 3 6 C2.67 6.66 2.34 7.32 2 8 C1.34 5.36 0.68 2.72 0 0 Z " fill="#AC3C41" transform="translate(62,80)"/>
<path d="M0 0 C0.66 0.33 1.32 0.66 2 1 C1.67 1.66 1.34 2.32 1 3 C0.34 3 -0.32 3 -1 3 C-1 3.66 -1 4.32 -1 5 C0.65 5 2.3 5 4 5 C3.38125 5.268125 2.7625 5.53625 2.125 5.8125 C-0.2995233 6.95556848 -0.2995233 6.95556848 -2 10 C-2.66 10 -3.32 10 -4 10 C-3.125 4.25 -3.125 4.25 -2 2 C-1.34 2 -0.68 2 0 2 C0 1.34 0 0.68 0 0 Z " fill="#F8C843" transform="translate(48,82)"/>
<path d="M0 0 C0 0.66 0 1.32 0 2 C-2.40545638 3.20272819 -3.94996953 3.10071472 -6.625 3.0625 C-7.85089844 3.04896484 -7.85089844 3.04896484 -9.1015625 3.03515625 C-10.04128906 3.01775391 -10.04128906 3.01775391 -11 3 C-11.33 2.34 -11.66 1.68 -12 1 C-7.93631321 0.22596442 -4.13574827 -0.0984702 0 0 Z " fill="#F8CC45" transform="translate(98,66)"/>
<path d="M0 0 C0.66 0 1.32 0 2 0 C3.11445498 2.22890995 3.16480286 3.53055106 3.1875 6 C3.20167969 6.70125 3.21585937 7.4025 3.23046875 8.125 C3 10 3 10 1 12 C1 9.69 1 7.38 1 5 C0.34 4.67 -0.32 4.34 -1 4 C-0.67 2.68 -0.34 1.36 0 0 Z " fill="#AC635B" transform="translate(66,30)"/>
<path d="M0 0 C2.6875 -0.3125 2.6875 -0.3125 5 0 C5 1.32 5 2.64 5 4 C2.36 4.33 -0.28 4.66 -3 5 C-1.8125 2.5 -1.8125 2.5 0 0 Z " fill="#D17A6E" transform="translate(27,29)"/>
<path d="M0 0 C2.56864728 1.28432364 2.946539 2.36634751 4 5 C4 6.32 4 7.64 4 9 C2.68 9 1.36 9 0 9 C0 6.03 0 3.06 0 0 Z " fill="#F7C419" transform="translate(52,36)"/>
<path d="M0 0 C0.33 0.66 0.66 1.32 1 2 C1.99 2 2.98 2 4 2 C4 3.32 4 4.64 4 6 C2.35 6 0.7 6 -1 6 C-1.625 4.125 -1.625 4.125 -2 2 C-1.34 1.34 -0.68 0.68 0 0 Z " fill="#CF7F70" transform="translate(95,93)"/>
<path d="M0 0 C0.33 1.32 0.66 2.64 1 4 C1.66 4 2.32 4 3 4 C3 3.34 3 2.68 3 2 C3.99 2.33 4.98 2.66 6 3 C4.02 5.97 4.02 5.97 2 9 C-0.29013653 5.5647952 -0.17842973 4.014669 0 0 Z " fill="#AC5C56" transform="translate(59,88)"/>
<path d="M0 0 C0.99 0.33 1.98 0.66 3 1 C3 1.66 3 2.32 3 3 C3.66 3 4.32 3 5 3 C5 4.98 5 6.96 5 9 C5.66 9 6.32 9 7 9 C6.67 10.32 6.34 11.64 6 13 C3.81673892 8.72886302 1.68673918 4.49797113 0 0 Z " fill="#FDE7AC" transform="translate(52,35)"/>
<path d="M0 0 C0 1.98 0 3.96 0 6 C-1.32 6 -2.64 6 -4 6 C-4.33 4.35 -4.66 2.7 -5 1 C-2 0 -2 0 0 0 Z " fill="#FBBB0F" transform="translate(48,62)"/>
<path d="M0 0 C2.97 0 5.94 0 9 0 C9.33 0.66 9.66 1.32 10 2 C3.375 3.125 3.375 3.125 0 2 C0 1.34 0 0.68 0 0 Z " fill="#F7C41A" transform="translate(31,60)"/>
<path d="M0 0 C2.475 0.495 2.475 0.495 5 1 C5.33 2.65 5.66 4.3 6 6 C3.5625 5.25 3.5625 5.25 1 4 C0.1875 1.875 0.1875 1.875 0 0 Z " fill="#FEE2B9" transform="translate(89,60)"/>
<path d="M0 0 C1.65 0 3.3 0 5 0 C4.34 1.65 3.68 3.3 3 5 C0 5 0 5 -2 4 C-1.34 2.68 -0.68 1.36 0 0 Z " fill="#A5413E" transform="translate(48,54)"/>
<path d="M0 0 C0.99 0.99 1.98 1.98 3 3 C2.75546876 6.34192692 2.39456443 7.60543557 0 10 C0 6.7 0 3.4 0 0 Z " fill="#FBC108" transform="translate(74,59)"/>
<path d="M0 0 C-5.28 -0.33 -10.56 -0.66 -16 -1 C-16 -1.33 -16 -1.66 -16 -2 C-14.08591243 -2.24979445 -12.16848389 -2.47408014 -10.25 -2.6875 C-9.18265625 -2.81511719 -8.1153125 -2.94273438 -7.015625 -3.07421875 C-4 -3 -4 -3 0 0 Z " fill="#FBE0A2" transform="translate(48,61)"/>
<path d="M0 0 C0.763125 0.20625 1.52625 0.4125 2.3125 0.625 C1.755625 0.893125 1.19875 1.16125 0.625 1.4375 C-1.88462523 2.72622647 -4.28084236 4.15426478 -6.6875 5.625 C-6.375 3.75 -6.375 3.75 -5.6875 1.625 C-2.6875 -0.375 -2.6875 -0.375 0 0 Z " fill="#B05324" transform="translate(59.6875,49.375)"/>
<path d="M0 0 C0.33 0 0.66 0 1 0 C1 1.98 1 3.96 1 6 C0.34 6 -0.32 6 -1 6 C-0.67 7.32 -0.34 8.64 0 10 C-0.66 10 -1.32 10 -2 10 C-2.33 10.66 -2.66 11.32 -3 12 C-2.49202991 7.6822542 -1.80317221 3.96697886 0 0 Z " fill="#A1464E" transform="translate(16,42)"/>
<path d="M0 0 C0.78375 0.04125 1.5675 0.0825 2.375 0.125 C2.045 1.775 1.715 3.425 1.375 5.125 C-0.605 4.135 -2.585 3.145 -4.625 2.125 C-2.625 0.125 -2.625 0.125 0 0 Z " fill="#B14B49" transform="translate(89.625,25.875)"/>
<path d="M0 0 C0 0.66 0 1.32 0 2 C-4.61073111 3.29676812 -8.33840089 2.71109139 -13 2 C-13 1.67 -13 1.34 -13 1 C-11.58366664 0.83052421 -10.16691467 0.66454493 -8.75 0.5 C-7.56664063 0.36078125 -7.56664063 0.36078125 -6.359375 0.21875 C-4 0 -4 0 0 0 Z " fill="#B8661E" transform="translate(73,76)"/>
<path d="M0 0 C0.66 0 1.32 0 2 0 C1.01 3.96 0.02 7.92 -1 12 C-1.33 12 -1.66 12 -2 12 C-2.05422947 10.5629191 -2.09289723 9.12524538 -2.125 7.6875 C-2.14820312 6.88699219 -2.17140625 6.08648437 -2.1953125 5.26171875 C-2 3 -2 3 0 0 Z " fill="#A84E49" transform="translate(23,46)"/>
<path d="M0 0 C2.64 0 5.28 0 8 0 C8 1.65 8 3.3 8 5 C7.38125 4.2884375 7.38125 4.2884375 6.75 3.5625 C4.817815 1.83733482 3.51807725 1.43415125 1 1 C0.67 2.32 0.34 3.64 0 5 C0 3.35 0 1.7 0 0 Z " fill="#A85059" transform="translate(61,79)"/>
<path d="M0 0 C0.33 0.66 0.66 1.32 1 2 C1.66 1.67 2.32 1.34 3 1 C4.99960012 0.960008 7.00047242 0.95653201 9 1 C9 1.33 9 1.66 9 2 C7.906875 2.309375 6.81375 2.61875 5.6875 2.9375 C3.44592006 3.58337897 1.2130649 4.2623117 -1 5 C-0.67 3.35 -0.34 1.7 0 0 Z " fill="#B65654" transform="translate(79,54)"/>
<path d="M0 0 C0.6875 1.75 0.6875 1.75 1 4 C-0.4375 6.25 -0.4375 6.25 -2 8 C-2 6.68 -2 5.36 -2 4 C-2.99 3.67 -3.98 3.34 -5 3 C-3.35 2.01 -1.7 1.02 0 0 Z " fill="#F7C850" transform="translate(83,36)"/>
<path d="M0 0 C0 0.66 0 1.32 0 2 C-2.30276574 4.21747812 -3.52480092 4.96760006 -6.75 5.1875 C-7.86375 5.0946875 -7.86375 5.0946875 -9 5 C-4.22727273 0 -4.22727273 0 0 0 Z " fill="#F6E3CB" transform="translate(47,26)"/>
<path d="M0 0 C3.125 -0.1875 3.125 -0.1875 6 0 C6 0.66 6 1.32 6 2 C3.29120665 3.35439668 0.99066732 3.06501451 -2 3 C-1.34 2.01 -0.68 1.02 0 0 Z " fill="#B63D43" transform="translate(71,18)"/>
<path d="M0 0 C1.65 0 3.3 0 5 0 C5 0.66 5 1.32 5 2 C4.34 2 3.68 2 3 2 C3 2.66 3 3.32 3 4 C2.34 4 1.68 4 1 4 C0.67 4.66 0.34 5.32 0 6 C0 4.02 0 2.04 0 0 Z " fill="#FEE0AD" transform="translate(67,42)"/>
<path d="M0 0 C0.66 0 1.32 0 2 0 C2.33 1.32 2.66 2.64 3 4 C1.35 4.66 -0.3 5.32 -2 6 C-2 3 -2 3 0 0 Z " fill="#A85230" transform="translate(75,71)"/>
<path d="M0 0 C2.9375 0.375 2.9375 0.375 6 1 C6.33 1.66 6.66 2.32 7 3 C6.34 3 5.68 3 5 3 C5 3.66 5 4.32 5 5 C4.34 5 3.68 5 3 5 C1.375 2.5 1.375 2.5 0 0 Z " fill="#A55752" transform="translate(36,44)"/>
</svg>
