<?xml version="1.0" encoding="UTF-8"?>
<svg version="1.1" xmlns="http://www.w3.org/2000/svg" width="128" height="128">
<path d="M0 0 C3.62917243 2.03163144 6.95403935 4.42759813 10.3125 6.875 C11.21806641 7.51308594 12.12363281 8.15117187 13.05664062 8.80859375 C19.70580209 13.55870313 19.70580209 13.55870313 22 17 C22.1953125 20.35546875 22.1953125 20.35546875 22.125 24.1875 C22.10695313 25.45980469 22.08890625 26.73210938 22.0703125 28.04296875 C22.04710938 29.01878906 22.02390625 29.99460937 22 31 C22.62044189 30.98428955 23.24088379 30.9685791 23.88012695 30.95239258 C26.69082528 30.89003786 29.50137812 30.85100852 32.3125 30.8125 C33.28896484 30.78736328 34.26542969 30.76222656 35.27148438 30.73632812 C36.20927734 30.72666016 37.14707031 30.71699219 38.11328125 30.70703125 C38.97735596 30.6913208 39.84143066 30.67561035 40.73168945 30.65942383 C43 31 43 31 44.78198242 32.29956055 C46.81165068 35.13312227 46.35950046 37.64466238 46 41 C44.89624023 42.69384766 44.89624023 42.69384766 43 44 C39.96899414 44.38818359 39.96899414 44.38818359 36.28515625 44.3984375 C35.63300644 44.40130768 34.98085663 44.40417786 34.3089447 44.40713501 C32.93129609 44.40917394 31.55361842 44.40365586 30.17602539 44.39111328 C28.0730673 44.37508056 25.97203835 44.3909517 23.86914062 44.41015625 C22.52864161 44.40817328 21.18814379 44.40432848 19.84765625 44.3984375 C18.63086182 44.39505371 17.41406738 44.39166992 16.16040039 44.38818359 C12.77102694 43.97187585 11.37512547 43.4105858 9 41 C8.25 38.3125 8.25 38.3125 8 36 C5.69 38.31 3.38 40.62 1 43 C4.27640806 46.93168968 7.5734857 50.56601636 11.3125 54.0625 C13.64096163 56.40444693 14.99635699 57.99239719 16.4375 61 C15.94125295 64.40283694 15.25977705 65.13997695 13.0078125 67.62890625 C12.37125732 68.33289551 11.73470215 69.03688477 11.07885742 69.76220703 C7.5758798 73.53299891 4.04153099 77.26299019 0.4375 80.9375 C-0.29146484 81.70384766 -1.02042969 82.47019531 -1.77148438 83.25976562 C-7.1302349 88.70533659 -7.1302349 88.70533659 -11.34375 90.1328125 C-14 90 -14 90 -16.9375 87.9375 C-19 85 -19 85 -18.86743164 82.08544922 C-17.88303131 78.58394305 -16.78159766 77.19709404 -14.18359375 74.6953125 C-13.41982422 73.94765625 -12.65605469 73.2 -11.86914062 72.4296875 C-11.06669922 71.66914062 -10.26425781 70.90859375 -9.4375 70.125 C-8.63119141 69.34125 -7.82488281 68.5575 -6.99414062 67.75 C-5.0069052 65.82155852 -3.00895569 63.90576135 -1 62 C-1.90172468 60.82174642 -2.82201502 59.65768423 -3.75 58.5 C-4.26046875 57.8503125 -4.7709375 57.200625 -5.296875 56.53125 C-7.11404296 54.55427485 -7.11404296 54.55427485 -11 55 C-12.82732262 56.27554449 -12.82732262 56.27554449 -14.49584961 58.10522461 C-15.49224709 59.12144142 -15.49224709 59.12144142 -16.5087738 60.15818787 C-17.21615189 60.89875931 -17.92352997 61.63933075 -18.65234375 62.40234375 C-19.38949112 63.1546376 -20.12663849 63.90693146 -20.88612366 64.68202209 C-24.0446748 67.90608089 -27.1792492 71.15309993 -30.31616211 74.39819336 C-32.60756716 76.76185099 -34.91079797 79.11351712 -37.21484375 81.46484375 C-37.9201976 82.20339096 -38.62555145 82.94193817 -39.35227966 83.7028656 C-40.01969681 84.38349564 -40.68711395 85.06412567 -41.37475586 85.76538086 C-42.24601357 86.66805946 -42.24601357 86.66805946 -43.13487244 87.588974 C-45.42309894 89.32008728 -47.16434194 89.70979704 -50 90 C-52.70637529 89.02269781 -53.70256222 88.59487555 -55 86 C-55.40100098 83.256073 -55.40100098 83.256073 -55 80 C-53.25682137 77.69529251 -51.6439626 75.88226348 -49.58398438 73.90283203 C-49.00852371 73.32649521 -48.43306305 72.75015839 -47.84016418 72.15635681 C-45.93857045 70.25893612 -44.01662892 68.38363876 -42.09375 66.5078125 C-40.76965153 65.19490703 -39.44687347 63.88066866 -38.12536621 62.56515503 C-34.6466081 59.10928632 -31.15020941 55.67181433 -27.64984131 52.237854 C-24.07995875 48.72939009 -20.52703844 45.20384154 -16.97265625 41.6796875 C-9.99827563 34.76962164 -3.00514139 27.87887017 4 21 C0.52263974 17.21965377 0.52263974 17.21965377 -4 15 C-4.86882812 15.92683594 -5.73765625 16.85367188 -6.6328125 17.80859375 C-7.79619317 19.01888494 -8.96029382 20.22848434 -10.125 21.4375 C-10.69476563 22.04916016 -11.26453125 22.66082031 -11.8515625 23.29101562 C-14.61947871 26.13756582 -16.40566464 27.80975547 -20.24609375 29.0390625 C-23 29 -23 29 -25.9375 26.9375 C-28 24 -28 24 -27.87670898 21.09692383 C-26.86645475 17.52825912 -25.67496175 16.08045145 -23.03515625 13.51171875 C-22.23529297 12.72345703 -21.43542969 11.93519531 -20.61132812 11.12304688 C-19.77021484 10.31931641 -18.92910156 9.51558594 -18.0625 8.6875 C-17.22525391 7.86443359 -16.38800781 7.04136719 -15.52539062 6.19335938 C-6.9041461 -2.21981006 -6.9041461 -2.21981006 0 0 Z " fill="#3489FB" transform="translate(70,22)"/>
<path d="M0 0 C2.14285714 7.42857143 2.14285714 7.42857143 3 11 C3.66 11 4.32 11 5 11 C3.64819215 14.00790952 2.13481143 16.12461704 -0.17700195 18.4675293 C-0.82139725 19.1246843 -1.46579254 19.78183929 -2.12971497 20.45890808 C-2.82554184 21.1569606 -3.52136871 21.85501312 -4.23828125 22.57421875 C-4.95606247 23.29865677 -5.67384369 24.02309479 -6.41337585 24.76948547 C-7.93138314 26.2976078 -9.45210784 27.82303483 -10.9753418 29.34594727 C-13.303904 31.67888784 -15.61600906 34.02734277 -17.92773438 36.37695312 C-19.40526789 37.86035388 -20.88375226 39.34280826 -22.36328125 40.82421875 C-23.05303543 41.52834396 -23.74278961 42.23246918 -24.45344543 42.95793152 C-25.10729721 43.60563004 -25.76114899 44.25332855 -26.43481445 44.9206543 C-27.00392044 45.49261032 -27.57302643 46.06456635 -28.15937805 46.65385437 C-30.43450764 48.31777876 -32.21448235 48.70419048 -35 49 C-37.70637529 48.02269781 -38.70256222 47.59487555 -40 45 C-40.34036344 41.58915599 -40.4605341 39.68809061 -38.52613831 36.79788208 C-37.8363237 36.11837494 -37.14650909 35.4388678 -36.43579102 34.73876953 C-35.26941856 33.56823532 -35.26941856 33.56823532 -34.07948303 32.37405396 C-33.22954269 31.55194427 -32.37960236 30.72983459 -31.50390625 29.8828125 C-30.64063217 29.02565643 -29.77735809 28.16850037 -28.88792419 27.28536987 C-26.12651578 24.55092021 -23.34468219 21.83829371 -20.5625 19.125 C-18.69074548 17.27476362 -16.820286 15.42321617 -14.95117188 13.5703125 C-11.5394756 10.20080773 -8.12641993 6.83286057 -4.69360352 3.48486328 C-3.65768822 2.47276291 -3.65768822 2.47276291 -2.60084534 1.44021606 C-1 0 -1 0 0 0 Z " fill="#2A64F1" transform="translate(55,63)"/>
<path d="M0 0 C3.16891758 1.75073578 6.03558993 3.8415956 8.9375 6 C9.71673828 6.55945313 10.49597656 7.11890625 11.29882812 7.6953125 C15.35292785 10.63728846 15.35292785 10.63728846 17 12 C17 12.33 17 12.66 17 13 C14.69 13.33 12.38 13.66 10 14 C9.7525 14.804375 9.505 15.60875 9.25 16.4375 C8 19 8 19 6.15625 19.8125 C3.33630416 20.05771268 2.44275372 19.29140197 0.25 17.5625 C-0.36359375 17.08941406 -0.9771875 16.61632812 -1.609375 16.12890625 C-2.06828125 15.75636719 -2.5271875 15.38382813 -3 15 C-6.74144039 18.13059298 -10.2484994 21.23219578 -13.5625 24.8125 C-15.83654351 27.0967182 -17.05577925 28.0223117 -20.125 29.25 C-23 29 -23 29 -25.9375 26.9375 C-28 24 -28 24 -27.87670898 21.09692383 C-26.86645475 17.52825912 -25.67496175 16.08045145 -23.03515625 13.51171875 C-21.83536133 12.32932617 -21.83536133 12.32932617 -20.61132812 11.12304688 C-19.77021484 10.31931641 -18.92910156 9.51558594 -18.0625 8.6875 C-16.80663086 7.45290039 -16.80663086 7.45290039 -15.52539062 6.19335938 C-6.97334018 -2.15228599 -6.97334018 -2.15228599 0 0 Z " fill="#2B65EE" transform="translate(70,22)"/>
<path d="M0 0 C2.875 2.125 2.875 2.125 5 5 C5.57167363 9.00171543 5.36938628 11.22764686 3.625 14.875 C2 17 2 17 0 18 C-4.4131016 18.51968957 -7.86159151 18.85380637 -11.5 16.125 C-14.02498318 12.5479405 -14.3446536 10.39433343 -14 6 C-12.63676551 2.84303591 -11.64942415 1.38614409 -8.6875 -0.375 C-5.30671597 -1.16122884 -3.32201297 -1.03812905 0 0 Z " fill="#3489FA" transform="translate(105,17)"/>
<path d="M0 0 C0.83265381 0.00523682 1.66530762 0.01047363 2.52319336 0.01586914 C3.42231445 0.0190918 4.32143555 0.02231445 5.24780273 0.02563477 C6.66609375 0.03820313 6.66609375 0.03820313 8.11303711 0.05102539 C9.06243164 0.05553711 10.01182617 0.06004883 10.98999023 0.06469727 C13.34356776 0.07652429 15.69702188 0.09300514 18.05053711 0.11352539 C18.67553711 2.48852539 18.67553711 2.48852539 19.05053711 5.11352539 C17.05053711 7.11352539 17.05053711 7.11352539 15.20288086 7.35644531 C14.47198242 7.35233643 13.74108398 7.34822754 12.98803711 7.34399414 C12.19139648 7.34206055 11.39475586 7.34012695 10.57397461 7.33813477 C9.74124023 7.32588867 8.90850586 7.31364258 8.05053711 7.30102539 C7.21780273 7.30038086 6.38506836 7.29973633 5.52709961 7.29907227 C-0.66859774 7.25395796 -0.66859774 7.25395796 -2.94946289 6.11352539 C-2.99218389 4.44740634 -2.99010121 2.77969654 -2.94946289 1.11352539 C-1.94946289 0.11352539 -1.94946289 0.11352539 0 0 Z " fill="#F0AC12" transform="translate(20.949462890625,49.886474609375)"/>
<path d="M0 0 C0.83265381 0.00523682 1.66530762 0.01047363 2.52319336 0.01586914 C3.42231445 0.0190918 4.32143555 0.02231445 5.24780273 0.02563477 C6.66609375 0.03820313 6.66609375 0.03820313 8.11303711 0.05102539 C9.06243164 0.05553711 10.01182617 0.06004883 10.98999023 0.06469727 C13.34356776 0.07652429 15.69702188 0.09300514 18.05053711 0.11352539 C18.67553711 2.48852539 18.67553711 2.48852539 19.05053711 5.11352539 C17.05053711 7.11352539 17.05053711 7.11352539 15.20288086 7.35644531 C14.47198242 7.35233643 13.74108398 7.34822754 12.98803711 7.34399414 C12.19139648 7.34206055 11.39475586 7.34012695 10.57397461 7.33813477 C9.74124023 7.32588867 8.90850586 7.31364258 8.05053711 7.30102539 C7.21780273 7.30038086 6.38506836 7.29973633 5.52709961 7.29907227 C-0.66859774 7.25395796 -0.66859774 7.25395796 -2.94946289 6.11352539 C-2.99218389 4.44740634 -2.99010121 2.77969654 -2.94946289 1.11352539 C-1.94946289 0.11352539 -1.94946289 0.11352539 0 0 Z " fill="#13B86D" transform="translate(14.949462890625,37.886474609375)"/>
<path d="M0 0 C1.17079102 0.01160156 1.17079102 0.01160156 2.36523438 0.0234375 C3.53022461 0.01183594 3.53022461 0.01183594 4.71875 0 C8.62825605 0.01346944 10.60720469 0.05975105 13.92773438 2.2734375 C13.59773438 3.9234375 13.26773438 5.5734375 12.92773438 7.2734375 C6.32773437 7.2734375 -0.27226563 7.2734375 -7.07226562 7.2734375 C-7.40226562 5.6234375 -7.73226563 3.9734375 -8.07226562 2.2734375 C-5.45410824 -0.34471989 -3.56758224 0.01231262 0 0 Z " fill="#D141C2" transform="translate(26.072265625,24.7265625)"/>
<path d="M0 0 C5.94 0 11.88 0 18 0 C16.68 0.33 15.36 0.66 14 1 C14 1.66 14 2.32 14 3 C15.32 3.33 16.64 3.66 18 4 C14.68929162 5.00109515 11.69915231 5.10356134 8.25 5.0625 C7.26515625 5.05347656 6.2803125 5.04445313 5.265625 5.03515625 C4.51796875 5.02355469 3.7703125 5.01195312 3 5 C3 3.68 3 2.36 3 1 C2.34 1 1.68 1 1 1 C1.33 1.99 1.66 2.98 2 4 C1.34 4 0.68 4 0 4 C0 2.68 0 1.36 0 0 Z " fill="#03C267" transform="translate(13,39)"/>
<path d="M0 0 C5.61 0 11.22 0 17 0 C17.33 1.32 17.66 2.64 18 4 C12.06 4 6.12 4 0 4 C0 2.68 0 1.36 0 0 Z " fill="#E12EC8" transform="translate(18,27)"/>
<path d="M0 0 C6.27 0 12.54 0 19 0 C18.34 1.65 17.68 3.3 17 5 C12.38 5 7.76 5 3 5 C4 3 4 3 7 2 C4.69 2.33 2.38 2.66 0 3 C0 2.01 0 1.02 0 0 Z " fill="#F8A710" transform="translate(19,51)"/>
<path d="M0 0 C0.99 0.33 1.98 0.66 3 1 C2.875 2.8125 2.875 2.8125 2 5 C1.030625 5.474375 0.06125 5.94875 -0.9375 6.4375 C-4.18718232 7.71853847 -4.18718232 7.71853847 -5.375 10.6875 C-5.58125 11.450625 -5.7875 12.21375 -6 13 C-8.31 13.33 -10.62 13.66 -13 14 C-8.88380164 9.08064098 -4.59589638 4.47352044 0 0 Z " fill="#345FED" transform="translate(28,89)"/>
<path d="M0 0 C0 1.65 0 3.3 0 5 C-0.78375 5.28875 -1.5675 5.5775 -2.375 5.875 C-5.09671632 6.84912254 -5.09671632 6.84912254 -7 9 C-7.6425235 11.06874034 -7.6425235 11.06874034 -8 13 C-10.31 13.33 -12.62 13.66 -15 14 C-3.28571429 0 -3.28571429 0 0 0 Z " fill="#3461EB" transform="translate(46,73)"/>
<path d="M0 0 C-1.59092052 4.13639336 -4.60474918 7.23213248 -8 10 C-8.66 10 -9.32 10 -10 10 C-10 9.01 -10 8.02 -10 7 C-9.34 7 -8.68 7 -8 7 C-7.896875 6.21625 -7.79375 5.4325 -7.6875 4.625 C-6.50570338 0.11268564 -4.39883591 0 0 0 Z " fill="#2A8FF9" transform="translate(73,98)"/>
<path d="M0 0 C1.32 0 2.64 0 4 0 C4 0.66 4 1.32 4 2 C5.65 2 7.3 2 9 2 C7.3125 4.0625 7.3125 4.0625 5 6 C1.60845705 5.83849795 0.41703243 5.41703243 -2 3 C-1.34 3 -0.68 3 0 3 C0 2.01 0 1.02 0 0 Z " fill="#385DEB" transform="translate(18,106)"/>
<path d="M0 0 C6.6 0 13.2 0 20 0 C20.33 1.65 20.66 3.3 21 5 C19.02 5.99 19.02 5.99 17 7 C17.33 5.35 17.66 3.7 18 2 C12.06 1.67 6.12 1.34 0 1 C0 0.67 0 0.34 0 0 Z " fill="#E0A715" transform="translate(19,50)"/>
<path d="M0 0 C2.88437779 1.29299694 4.87219421 2.65941363 7 5 C4.69 5.33 2.38 5.66 0 6 C0 6.66 0 7.32 0 8 C-0.66 8 -1.32 8 -2 8 C-1.125 2.25 -1.125 2.25 0 0 Z " fill="#266AE0" transform="translate(80,30)"/>
<path d="M0 0 C0.33 0.66 0.66 1.32 1 2 C0.36729133 3.34977849 -0.30062468 4.68352881 -1 6 C-1 6.66 -1 7.32 -1 8 C-3.046875 8.51171875 -5.09375 9.0234375 -7.140625 9.53515625 C-8.06101563 9.76525391 -8.06101563 9.76525391 -9 10 C-8.06409496 8.8944811 -7.12620142 7.79064547 -6.1875 6.6875 C-5.66542969 6.07261719 -5.14335938 5.45773438 -4.60546875 4.82421875 C-3.12827531 3.14575321 -1.59960869 1.56117966 0 0 Z " fill="#3E86F1" transform="translate(65,88)"/>
<path d="M0 0 C6.27 0 12.54 0 19 0 C19 0.33 19 0.66 19 1 C17.87980469 1.06058594 16.75960937 1.12117188 15.60546875 1.18359375 C14.13280016 1.26801424 12.66014456 1.35266149 11.1875 1.4375 C10.44951172 1.47681641 9.71152344 1.51613281 8.95117188 1.55664062 C5.76928658 1.74381035 3.03837622 1.98720793 0 3 C0 2.01 0 1.02 0 0 Z " fill="#FDA800" transform="translate(19,51)"/>
<path d="M0 0 C1.32 0 2.64 0 4 0 C4.5625 1.9375 4.5625 1.9375 5 4 C4 5 4 5 1.4375 5.0625 C0.2309375 5.0315625 0.2309375 5.0315625 -1 5 C-0.67 3.35 -0.34 1.7 0 0 Z " fill="#4182FA" transform="translate(58,106)"/>
<path d="M0 0 C0.66 0 1.32 0 2 0 C2 1.65 2 3.3 2 5 C-0.31 5.33 -2.62 5.66 -5 6 C-3.38405168 3.95880212 -1.7143618 1.95927063 0 0 Z " fill="#3462E7" transform="translate(52,65)"/>
<path d="M0 0 C-0.99 0.495 -0.99 0.495 -2 1 C-2 1.66 -2 2.32 -2 3 C-3.65 3 -5.3 3 -7 3 C-7 2.34 -7 1.68 -7 1 C-7.66 0.67 -8.32 0.34 -9 0 C-5.52176885 -1.15941038 -3.54104422 -0.70820884 0 0 Z " fill="#4D84D7" transform="translate(105,17)"/>
<path d="M0 0 C1.65 0 3.3 0 5 0 C3.1875 2 3.1875 2 1 4 C0.01 4 -0.98 4 -2 4 C-1.34 2.68 -0.68 1.36 0 0 Z " fill="#3062E7" transform="translate(22,108)"/>
</svg>
