<?xml version="1.0" encoding="UTF-8"?>
<svg version="1.1" xmlns="http://www.w3.org/2000/svg" width="128" height="128">
<path d="M0 0 C1.51672302 -0.01418472 1.51672302 -0.01418472 3.06408691 -0.02865601 C4.7000885 -0.01954697 4.7000885 -0.01954697 6.36914062 -0.01025391 C7.48977905 -0.01312408 8.61041748 -0.01599426 9.76501465 -0.01895142 C12.13550318 -0.02099387 14.5060085 -0.0154514 16.87646484 -0.00292969 C20.51112446 0.0131206 24.14467197 -0.00277309 27.77929688 -0.02197266 C30.08008059 -0.01999026 32.38086361 -0.01614665 34.68164062 -0.01025391 C35.77230835 -0.0163266 36.86297607 -0.02239929 37.98669434 -0.02865601 C38.99784302 -0.01919952 40.0089917 -0.00974304 41.05078125 0 C42.38622986 0.00358017 42.38622986 0.00358017 43.74865723 0.00723267 C46.54483306 0.4750985 47.26629799 1.20952351 49.02539062 3.38818359 C49.32167659 6.31045613 49.43506408 9.01960841 49.41357422 11.94287109 C49.41883118 12.81631165 49.42408813 13.6897522 49.42950439 14.58966064 C49.44272387 17.48101609 49.43395943 20.3718224 49.42382812 23.26318359 C49.4258483 25.26953233 49.42875926 27.27588035 49.43252563 29.28222656 C49.43695163 33.48884059 49.43050903 37.69526362 49.41650391 41.90185547 C49.39941193 47.29925743 49.40925163 52.69621188 49.4272213 58.09359741 C49.43805167 62.23709497 49.43461622 66.38048609 49.42683792 70.52398682 C49.42483385 72.5143438 49.42730243 74.50471038 49.43427658 76.49505615 C49.44187873 79.27479727 49.43030426 82.0538094 49.41357422 84.83349609 C49.41964691 85.6595636 49.4257196 86.4856311 49.43197632 87.33673096 C49.36916421 92.957966 49.36916421 92.957966 47.68908119 95.06051636 C44.82445956 97.34655702 42.15696732 97.51837863 38.63330078 97.54931641 C37.74873199 97.55892395 36.86416321 97.56853149 35.95278931 97.57843018 C34.5230629 97.58480499 34.5230629 97.58480499 33.06445312 97.59130859 C32.08173431 97.59700867 31.0990155 97.60270874 30.08651733 97.60858154 C28.00690792 97.61802878 25.92728355 97.62456443 23.84765625 97.62841797 C20.66965582 97.63812475 17.4923018 97.66915145 14.31445312 97.70068359 C12.29362363 97.70721371 10.27278951 97.71246415 8.25195312 97.71630859 C7.30285065 97.7286554 6.35374817 97.7410022 5.37588501 97.75372314 C-3.10256756 97.72516164 -3.10256756 97.72516164 -6.97460938 94.38818359 C-7.78710937 91.70068359 -7.78710937 91.70068359 -7.97460938 89.38818359 C-9.81925781 89.40558594 -9.81925781 89.40558594 -11.70117188 89.42333984 C-13.33398285 89.43272381 -14.96679547 89.44182336 -16.59960938 89.45068359 C-17.81197266 89.46325195 -17.81197266 89.46325195 -19.04882812 89.47607422 C-23.47802856 89.4940791 -27.61344362 89.28441021 -31.97460938 88.38818359 C-31.93335937 89.33693359 -31.89210938 90.28568359 -31.84960938 91.26318359 C-31.97460938 94.38818359 -31.97460938 94.38818359 -33.97460938 96.38818359 C-35.84960937 96.65380859 -35.84960937 96.65380859 -37.97460938 96.63818359 C-38.67585938 96.64333984 -39.37710938 96.64849609 -40.09960938 96.65380859 C-41.97460938 96.38818359 -41.97460938 96.38818359 -43.97460938 94.38818359 C-44.24452844 91.69978975 -44.06198294 89.09676423 -43.97460938 86.38818359 C-46.28460938 86.05818359 -48.59460938 85.72818359 -50.97460938 85.38818359 C-50.97460938 83.73818359 -50.97460938 82.08818359 -50.97460938 80.38818359 C-49.48960938 79.89318359 -49.48960938 79.89318359 -47.97460938 79.38818359 C-48.02681641 78.39238281 -48.02681641 78.39238281 -48.08007812 77.37646484 C-48.35965874 68.25681144 -48.35965874 68.25681144 -44.97460938 64.38818359 C-42.33043523 62.65294431 -41.18994995 62.38818359 -37.97460938 62.38818359 C-37.87664063 61.53095703 -37.77867188 60.67373047 -37.67773438 59.79052734 C-35.8297395 45.65973898 -35.8297395 45.65973898 -29.41992188 40.22021484 C-24.94142545 37.83879214 -21.56505791 37.93388879 -16.59960938 38.13818359 C-15.06107662 38.18418806 -13.52249836 38.22868681 -11.98388672 38.27197266 C-10.64746094 38.31070964 -9.31103516 38.34944661 -7.97460938 38.38818359 C-7.99031982 37.34364014 -8.00603027 36.29909668 -8.0222168 35.22290039 C-8.07650635 31.34846708 -8.11095568 27.4740674 -8.1394043 23.59936523 C-8.15449321 21.92222439 -8.17496685 20.24512302 -8.20092773 18.56811523 C-8.23730748 16.15777856 -8.25433423 13.74796341 -8.26757812 11.33740234 C-8.28306198 10.58730392 -8.29854584 9.83720551 -8.3144989 9.06437683 C-8.31618001 3.86731604 -8.31618001 3.86731604 -6.76423645 1.69035339 C-4.39644941 -0.0324976 -2.91528615 0.00781552 0 0 Z " fill="#DDF1F9" transform="translate(64.974609375,15.61181640625)"/>
<path d="M0 0 C1.09828125 -0.01546875 2.1965625 -0.0309375 3.328125 -0.046875 C10.21009378 -0.01386796 14.80037773 0.76383368 20.625 4.5 C24.74232055 9.73010989 25.55197458 15.21007627 26.62109375 21.70703125 C27.34417285 24.70485556 27.34417285 24.70485556 30.08203125 25.796875 C30.92121094 26.02890625 31.76039062 26.2609375 32.625 26.5 C34.875 27.9375 34.875 27.9375 36.625 30.5 C37.05611283 33.39099189 37.2509778 36.21589367 37.3515625 39.13671875 C37.44179687 39.91660156 37.53203125 40.69648437 37.625 41.5 C38.285 41.83 38.945 42.16 39.625 42.5 C39.295 44.15 38.965 45.8 38.625 47.5 C36.975 47.83 35.325 48.16 33.625 48.5 C33.439375 50.418125 33.439375 50.418125 33.25 52.375 C32.875 56.25 32.875 56.25 30.625 58.5 C27.125 58.75 27.125 58.75 23.625 58.5 C21.625 56.5 21.625 56.5 21.5 53.375 C21.54125 52.42625 21.5825 51.4775 21.625 50.5 C20.08005859 50.60828125 20.08005859 50.60828125 18.50390625 50.71875 C10.81439882 51.23059451 3.14539839 51.60451616 -4.5625 51.625 C-5.60265259 51.63176758 -5.60265259 51.63176758 -6.66381836 51.63867188 C-10.66934141 51.62696125 -14.44518355 51.2700729 -18.375 50.5 C-18.33375 51.44875 -18.2925 52.3975 -18.25 53.375 C-18.375 56.5 -18.375 56.5 -20.375 58.5 C-22.25 58.765625 -22.25 58.765625 -24.375 58.75 C-25.07625 58.75515625 -25.7775 58.7603125 -26.5 58.765625 C-28.375 58.5 -28.375 58.5 -30.375 56.5 C-30.64491906 53.81160615 -30.46237357 51.20858064 -30.375 48.5 C-32.685 48.17 -34.995 47.84 -37.375 47.5 C-37.375 45.85 -37.375 44.2 -37.375 42.5 C-35.89 42.005 -35.89 42.005 -34.375 41.5 C-34.42720703 40.50419922 -34.42720703 40.50419922 -34.48046875 39.48828125 C-34.76004937 30.36862785 -34.76004937 30.36862785 -31.375 26.5 C-28.73082586 24.76476072 -27.59034057 24.5 -24.375 24.5 C-24.27703125 23.64277344 -24.1790625 22.78554687 -24.078125 21.90234375 C-23.02609093 13.85791079 -22.20721847 7.98440987 -16.0078125 2.34765625 C-11.19671945 -0.72813238 -5.50516034 -0.07699525 0 0 Z " fill="#FC4941" transform="translate(51.375,53.5)"/>
<path d="M0 0 C1.51672302 -0.01418472 1.51672302 -0.01418472 3.06408691 -0.02865601 C4.7000885 -0.01954697 4.7000885 -0.01954697 6.36914062 -0.01025391 C7.48977905 -0.01312408 8.61041748 -0.01599426 9.76501465 -0.01895142 C12.13550318 -0.02099387 14.5060085 -0.0154514 16.87646484 -0.00292969 C20.51112446 0.0131206 24.14467197 -0.00277309 27.77929688 -0.02197266 C30.08008059 -0.01999026 32.38086361 -0.01614665 34.68164062 -0.01025391 C35.77230835 -0.0163266 36.86297607 -0.02239929 37.98669434 -0.02865601 C38.99784302 -0.01919952 40.0089917 -0.00974304 41.05078125 0 C42.38622986 0.00358017 42.38622986 0.00358017 43.74865723 0.00723267 C46.54483306 0.4750985 47.26629799 1.20952351 49.02539062 3.38818359 C49.32167659 6.31045613 49.43506408 9.01960841 49.41357422 11.94287109 C49.41883118 12.81631165 49.42408813 13.6897522 49.42950439 14.58966064 C49.44272387 17.48101609 49.43395943 20.3718224 49.42382812 23.26318359 C49.4258483 25.26953233 49.42875926 27.27588035 49.43252563 29.28222656 C49.43695163 33.48884059 49.43050903 37.69526362 49.41650391 41.90185547 C49.39941193 47.29925743 49.40925163 52.69621188 49.4272213 58.09359741 C49.43805167 62.23709497 49.43461622 66.38048609 49.42683792 70.52398682 C49.42483385 72.5143438 49.42730243 74.50471038 49.43427658 76.49505615 C49.44187873 79.27479727 49.43030426 82.0538094 49.41357422 84.83349609 C49.42268326 86.07259735 49.42268326 86.07259735 49.43197632 87.33673096 C49.36916421 92.957966 49.36916421 92.957966 47.68908119 95.06051636 C44.82445956 97.34655702 42.15696732 97.51837863 38.63330078 97.54931641 C37.74873199 97.55892395 36.86416321 97.56853149 35.95278931 97.57843018 C34.5230629 97.58480499 34.5230629 97.58480499 33.06445312 97.59130859 C32.08173431 97.59700867 31.0990155 97.60270874 30.08651733 97.60858154 C28.00690792 97.61802878 25.92728355 97.62456443 23.84765625 97.62841797 C20.66965582 97.63812475 17.4923018 97.66915145 14.31445312 97.70068359 C12.29362363 97.70721371 10.27278951 97.71246415 8.25195312 97.71630859 C7.30285065 97.7286554 6.35374817 97.7410022 5.37588501 97.75372314 C-3.40236548 97.72415171 -3.40236548 97.72415171 -6.97460938 94.38818359 C-7.96460938 91.41818359 -7.96460938 91.41818359 -8.97460938 88.38818359 C-3.36460938 88.38818359 2.24539062 88.38818359 8.02539062 88.38818359 C9.01539063 91.85318359 9.01539063 91.85318359 10.02539062 95.38818359 C12.35833838 95.43060083 14.69241629 95.42911297 17.02539062 95.38818359 C18.83006046 93.58351376 18.4403162 90.65715544 18.64648438 88.20068359 C18.77152344 87.60255859 18.8965625 87.00443359 19.02539062 86.38818359 C26.47895055 82.66140363 35.69992264 86.02620672 44.02539062 86.38818359 C43.69539063 59.98818359 43.36539063 33.58818359 43.02539062 6.38818359 C39.06539062 6.38818359 35.10539062 6.38818359 31.02539062 6.38818359 C30.36539063 7.70818359 29.70539063 9.02818359 29.02539062 10.38818359 C26.07508673 11.86333554 23.37043724 11.67510701 20.08789062 11.76318359 C18.84136719 11.81216797 17.59484375 11.86115234 16.31054688 11.91162109 C15.22644531 11.73888672 14.14234375 11.56615234 13.02539062 11.38818359 C12.03539063 9.73818359 11.04539062 8.08818359 10.02539062 6.38818359 C6.06539062 6.38818359 2.10539062 6.38818359 -1.97460938 6.38818359 C-2.30460937 16.94818359 -2.63460937 27.50818359 -2.97460938 38.38818359 C-4.62460937 38.38818359 -6.27460937 38.38818359 -7.97460938 38.38818359 C-8.04875258 33.45861101 -8.10320755 28.52936278 -8.1394043 23.59936523 C-8.15449321 21.92222439 -8.17496685 20.24512302 -8.20092773 18.56811523 C-8.23730748 16.15777856 -8.25433423 13.74796341 -8.26757812 11.33740234 C-8.28306198 10.58730392 -8.29854584 9.83720551 -8.3144989 9.06437683 C-8.31618001 3.86731604 -8.31618001 3.86731604 -6.76423645 1.69035339 C-4.39644941 -0.0324976 -2.91528615 0.00781552 0 0 Z " fill="#64AFF0" transform="translate(64.974609375,15.61181640625)"/>
<path d="M0 0 C1.1653125 0.01804688 2.330625 0.03609375 3.53125 0.0546875 C6.39668249 0.1016618 9.26041168 0.16733707 12.125 0.25 C12.125 0.91 12.125 1.57 12.125 2.25 C11.46491943 2.25410889 10.80483887 2.25821777 10.12475586 2.26245117 C7.1031244 2.29556276 4.08346253 2.36622502 1.0625 2.4375 C0.02416016 2.44330078 -1.01417969 2.44910156 -2.08398438 2.45507812 C-8.97522317 2.65197066 -12.78222661 3.49301387 -17.875 8.25 C-20.03823184 13.2348386 -20.4879941 17.90819431 -19.875 23.25 C-17.6655817 25.35183458 -17.6655817 25.35183458 -14.875 27.25 C-9.875 33.85810811 -9.875 33.85810811 -9.875 38.25 C-9.235625 38.559375 -8.59625 38.86875 -7.9375 39.1875 C-5.875 40.25 -5.875 40.25 -4.875 41.25 C-3.08662378 41.37524459 -1.29271786 41.42573676 0.5 41.4375 C1.47710937 41.45167969 2.45421875 41.46585938 3.4609375 41.48046875 C6.35287022 41.44541983 6.35287022 41.44541983 9.125 39.25 C9.125 38.59 9.125 37.93 9.125 37.25 C5.66 37.745 5.66 37.745 2.125 38.25 C2.125 32.64 2.125 27.03 2.125 21.25 C6.745 21.25 11.365 21.25 16.125 21.25 C16.125 22.24 16.125 23.23 16.125 24.25 C19.46873475 23.69271087 22.15812999 22.89826111 25.125 21.25 C25.125 22.57 25.125 23.89 25.125 25.25 C23.475 25.58 21.825 25.91 20.125 26.25 C20.125 26.91 20.125 27.57 20.125 28.25 C19.465 28.25 18.805 28.25 18.125 28.25 C17.465 30.23 16.805 32.21 16.125 34.25 C15.465 34.25 14.805 34.25 14.125 34.25 C13.939375 35.36375 13.939375 35.36375 13.75 36.5 C13.15938237 39.09871755 12.56213552 41.01445586 11.125 43.25 C5.8904602 44.9948466 0.25700089 44.43591138 -5.22387695 44.43530273 C-7.40531554 44.43746805 -9.58623041 44.45557234 -11.76757812 44.47460938 C-19.24955056 44.50469444 -26.65373318 44.48567034 -33.875 42.25 C-35.51430993 40.61069007 -35.08501367 38.75256326 -35.125 36.5 C-35.07657285 32.26262431 -34.75895241 29.54594561 -31.875 26.25 C-29.23082586 24.51476072 -28.09034057 24.25 -24.875 24.25 C-24.77703125 23.39277344 -24.6790625 22.53554687 -24.578125 21.65234375 C-23.52399076 13.59185174 -22.67961111 7.7810354 -16.5390625 2.08203125 C-11.62868369 -1.07089361 -5.5999659 -0.16433308 0 0 Z " fill="#E33B19" transform="translate(51.875,53.75)"/>
<path d="M0 0 C1.67983924 0.26998476 3.35153676 0.59030245 5.01953125 0.92578125 C14.75924013 2.5084673 24.53556493 2.26237585 34.37866211 2.20581055 C37.71801235 2.18733115 41.05708787 2.18530286 44.39648438 2.18554688 C46.51823158 2.18063869 48.63997691 2.17481345 50.76171875 2.16796875 C51.76055588 2.16685593 52.75939301 2.1657431 53.78849792 2.16459656 C54.70738297 2.15821671 55.62626801 2.15183685 56.57299805 2.14526367 C57.382061 2.14145187 58.19112396 2.13764008 59.02470398 2.13371277 C61.07669344 2.1223969 61.07669344 2.1223969 63 1 C64.82758947 0.74616813 66.66264455 0.54423011 68.5 0.375 C69.96953125 0.23191406 69.96953125 0.23191406 71.46875 0.0859375 C74 0 74 0 76 1 C75.67 2.65 75.34 4.3 75 6 C73.35 6.33 71.7 6.66 70 7 C69.814375 8.918125 69.814375 8.918125 69.625 10.875 C69.25 14.75 69.25 14.75 67 17 C63.5 17.25 63.5 17.25 60 17 C58 15 58 15 57.875 11.875 C57.91625 10.92625 57.9575 9.9775 58 9 C56.45505859 9.10828125 56.45505859 9.10828125 54.87890625 9.21875 C47.18939882 9.73059451 39.52039839 10.10451616 31.8125 10.125 C30.77234741 10.13176758 30.77234741 10.13176758 29.71118164 10.13867188 C25.70565859 10.12696125 21.92981645 9.7700729 18 9 C18.04125 9.94875 18.0825 10.8975 18.125 11.875 C18 15 18 15 16 17 C14.125 17.265625 14.125 17.265625 12 17.25 C10.948125 17.25773437 10.948125 17.25773437 9.875 17.265625 C8 17 8 17 6 15 C5.73008094 12.31160615 5.91262643 9.70858064 6 7 C3.69 6.67 1.38 6.34 -1 6 C-1.042721 4.33388095 -1.04063832 2.66617115 -1 1 C-0.67 0.67 -0.34 0.34 0 0 Z " fill="#A3A2AF" transform="translate(15,95)"/>
<path d="M0 0 C1.82917969 -0.04253906 1.82917969 -0.04253906 3.6953125 -0.0859375 C13.70199617 -0.10778615 13.70199617 -0.10778615 17.390625 2.87890625 C21.29494032 7.45896845 21.70617593 10.59850985 21.625 16.5 C20.82320312 16.4278125 20.02140625 16.355625 19.1953125 16.28125 C5.68693897 15.17852563 -7.89704748 14.83752128 -21.375 16.5 C-20.864111 10.47150979 -20.27253772 6.19988513 -15.64990234 1.89257812 C-11.04932568 -0.92365812 -5.24427275 -0.01101738 0 0 Z " fill="#FDF8F7" transform="translate(52.375,56.5)"/>
<path d="M0 0 C1.02083176 0.00022659 2.04166351 0.00045319 3.09342957 0.00068665 C4.7435479 0.02391243 4.7435479 0.02391243 6.42700195 0.04760742 C8.11863213 0.05397469 8.11863213 0.05397469 9.84443665 0.06047058 C13.45162687 0.07728306 17.05826142 0.11494089 20.6652832 0.15307617 C23.10863452 0.16811965 25.55199458 0.18180863 27.99536133 0.1940918 C33.98969202 0.22719501 39.98369792 0.27742024 45.9777832 0.34057617 C48.50962373 4.16651381 48.24600733 8.09037901 48.20483398 12.50561523 C48.20512604 13.32549927 48.20541809 14.1453833 48.20571899 14.9901123 C48.20432752 17.69558354 48.1887749 20.40077814 48.1730957 23.10620117 C48.16936493 24.98378346 48.16651826 26.8613677 48.16452026 28.73895264 C48.15688891 33.67750435 48.13724466 38.61593818 48.1151123 43.55444336 C48.09464318 48.59511724 48.08551626 53.6358102 48.07543945 58.67651367 C48.05399833 68.56458626 48.01986835 78.45257141 47.9777832 88.34057617 C45.08070797 85.44350094 45.66997882 82.46924329 45.65893555 78.58618164 C45.64386711 77.38605438 45.64386711 77.38605438 45.62849426 76.16168213 C45.5975405 73.51038346 45.58059348 70.85918631 45.5637207 68.20776367 C45.54501884 66.3721529 45.52544618 64.53655081 45.5050354 62.70095825 C45.45360439 57.86441151 45.41403753 53.02783686 45.37689209 48.19116211 C45.33692103 43.25782303 45.28579732 38.32460113 45.2355957 33.39135742 C45.13870662 23.70784586 45.05434355 14.02426829 44.9777832 4.34057617 C42.5191592 4.28673769 40.0617077 4.24698579 37.6027832 4.21557617 C36.90411133 4.19881836 36.20543945 4.18206055 35.4855957 4.16479492 C33.64880834 4.1471335 31.81176358 4.23754357 29.9777832 4.34057617 C29.3177832 5.00057617 28.6577832 5.66057617 27.9777832 6.34057617 C27.4827832 5.84557617 27.4827832 5.84557617 26.9777832 5.34057617 C25.00623891 5.05311979 23.02437447 4.83473494 21.0402832 4.65307617 C19.95875977 4.54608398 18.87723633 4.4390918 17.76293945 4.32885742 C14.83461957 4.01432291 14.83461957 4.01432291 12.9777832 6.34057617 C12.9777832 5.68057617 12.9777832 5.02057617 12.9777832 4.34057617 C10.66493865 4.480839 8.3525073 4.62793175 6.0402832 4.77807617 C4.75250977 4.85928711 3.46473633 4.94049805 2.13793945 5.02416992 C-0.88245636 4.98976805 -0.88245636 4.98976805 -2.0222168 6.34057617 C-2.18193657 8.71396257 -2.28146009 11.06175889 -2.33862305 13.43823242 C-2.35940414 14.14709091 -2.38018524 14.8559494 -2.40159607 15.58628845 C-2.46716277 17.85844922 -2.5260091 20.13072882 -2.5847168 22.40307617 C-2.62789529 23.94019801 -2.67150935 25.47730767 -2.71557617 27.0144043 C-2.82285128 30.78967208 -2.92409817 34.56505977 -3.0222168 38.34057617 C-4.6722168 38.34057617 -6.3222168 38.34057617 -8.0222168 38.34057617 C-8.09636 33.41100359 -8.15081497 28.48175536 -8.18701172 23.55175781 C-8.20210063 21.87461697 -8.22257427 20.1975156 -8.24853516 18.52050781 C-8.2849149 16.11017114 -8.30194166 13.70035598 -8.31518555 11.28979492 C-8.3306694 10.5396965 -8.34615326 9.78959808 -8.36210632 9.01676941 C-8.36378678 3.82173021 -8.36378678 3.82173021 -6.81481934 1.63977051 C-4.4266817 -0.09103977 -2.93553728 -0.02174472 0 0 Z " fill="#5AAFFC" transform="translate(65.022216796875,15.659423828125)"/>
<path d="M0 0 C2.375 2.6875 2.375 2.6875 4 6 C4.70167058 7.21221448 5.41009615 8.42054243 6.125 9.625 C7.17488893 11.51480008 8.19953998 13.42125107 9.125 15.375 C9.90156034 17.19056909 9.90156034 17.19056909 12 18 C-8.57894737 18.40350877 -8.57894737 18.40350877 -16 16 C-17.63930993 14.36069007 -17.21001367 12.50256326 -17.25 10.25 C-17.20157285 6.01262431 -16.88395241 3.29594561 -14 0 C-9.3442235 -2.99589096 -4.96616708 -1.88515038 0 0 Z " fill="#F95256" transform="translate(34,80)"/>
<path d="M0 0 C0.86367187 0.05542969 1.72734375 0.11085938 2.6171875 0.16796875 C5.90296851 1.01244518 7.13843708 2.07067699 9.125 4.8125 C9.515625 7.828125 9.515625 7.828125 9.375 11.0625 C9.33890625 12.14015625 9.3028125 13.2178125 9.265625 14.328125 C9.19601563 15.55789062 9.19601563 15.55789062 9.125 16.8125 C8.42632812 16.87308594 7.72765625 16.93367188 7.0078125 16.99609375 C6.09773438 17.07988281 5.18765625 17.16367188 4.25 17.25 C3.34507813 17.33121094 2.44015625 17.41242188 1.5078125 17.49609375 C-0.88610861 17.68239285 -0.88610861 17.68239285 -2.875 18.8125 C-5.59260108 18.88431821 -8.28359388 18.90549506 -11 18.875 C-11.75410156 18.87048828 -12.50820312 18.86597656 -13.28515625 18.86132812 C-15.14847127 18.84953499 -17.01174555 18.83159942 -18.875 18.8125 C-17.885 18.1525 -16.895 17.4925 -15.875 16.8125 C-14.87331469 14.86417065 -14.87331469 14.86417065 -14.1875 12.6875 C-13.93613281 11.96304688 -13.68476562 11.23859375 -13.42578125 10.4921875 C-13.24402344 9.93789062 -13.06226562 9.38359375 -12.875 8.8125 C-12.215 8.8125 -11.555 8.8125 -10.875 8.8125 C-10.730625 8.19375 -10.58625 7.575 -10.4375 6.9375 C-9.875 4.8125 -9.875 4.8125 -8.875 2.8125 C-8.215 2.8125 -7.555 2.8125 -6.875 2.8125 C-6.875 2.1525 -6.875 1.4925 -6.875 0.8125 C-4.34178975 -0.45410512 -2.81236203 -0.22115013 0 0 Z " fill="#F9583B" transform="translate(78.875,79.1875)"/>
<path d="M0 0 C-0.33 1.65 -0.66 3.3 -1 5 C-2.65 5.33 -4.3 5.66 -6 6 C-6.185625 7.918125 -6.185625 7.918125 -6.375 9.875 C-6.75 13.75 -6.75 13.75 -9 16 C-12.5 16.25 -12.5 16.25 -16 16 C-18 14 -18 14 -18.125 10.875 C-18.08375 9.92625 -18.0425 8.9775 -18 8 C-19.18335937 8.08378906 -20.36671875 8.16757813 -21.5859375 8.25390625 C-38.2269178 9.35720483 -38.2269178 9.35720483 -46 8 C-46.33 7.34 -46.66 6.68 -47 6 C-44.03495886 3.03495886 -40.70154533 3.53412718 -36.7109375 3.3671875 C-35.89251373 3.32562531 -35.07408997 3.28406311 -34.23086548 3.24124146 C-31.61258989 3.11031675 -28.99390841 2.99251512 -26.375 2.875 C-24.60152028 2.78862293 -22.82808183 2.70139412 -21.0546875 2.61328125 C-16.7035425 2.3989619 -12.35198867 2.19641104 -8 2 C-7.67 1.34 -7.34 0.68 -7 0 C-4.0262656 -1.09036928 -3.11592499 -1.03864166 0 0 Z " fill="#9AA7BA" transform="translate(91,96)"/>
<path d="M0 0 C1.98246714 0.09051028 3.96210888 0.24724235 5.9375 0.4375 C9.96272273 0.84568198 9.96272273 0.84568198 14 1 C14.33 0.67 14.66 0.34 15 0 C17.12119924 -0.15193163 19.24855315 -0.22183514 21.375 -0.25 C22.53773437 -0.27578125 23.70046875 -0.3015625 24.8984375 -0.328125 C28 0 28 0 29.67829895 1.05171204 C31.69845261 4.02957232 31.34593633 7.03369146 31.2487793 10.50073242 C31.23946381 11.26194901 31.23014832 12.02316559 31.22055054 12.80744934 C31.18617113 15.32390786 31.13028002 17.83940756 31.07421875 20.35546875 C31.0461869 22.09993956 31.01949636 23.84443239 30.99409485 25.58894348 C30.92362146 30.18088022 30.83490616 34.77229123 30.74243164 39.36383057 C30.65128614 44.04901332 30.57733604 48.73446369 30.50195312 53.41992188 C30.351496 62.61362566 30.18177261 71.8068658 30 81 C29.67 81 29.34 81 29 81 C28.67 55.26 28.34 29.52 28 3 C24.04 3 20.08 3 16 3 C15.34 4.32 14.68 5.64 14 7 C11.04969611 8.47515195 8.34504661 8.28692341 5.0625 8.375 C3.81597656 8.42398437 2.56945312 8.47296875 1.28515625 8.5234375 C0.20105469 8.35070313 -0.88304688 8.17796875 -2 8 C-3.04934509 6.36395212 -4.05096447 4.69620439 -5 3 C-7.71655372 2.183093 -7.71655372 2.183093 -10.6875 2.1875 C-11.68136719 2.13980469 -12.67523438 2.09210937 -13.69921875 2.04296875 C-14.45847656 2.02878906 -15.21773438 2.01460937 -16 2 C-16 1.67 -16 1.34 -16 1 C-14.92878906 1.01160156 -13.85757813 1.02320312 -12.75390625 1.03515625 C-11.35677257 1.04453299 -9.95963701 1.05363331 -8.5625 1.0625 C-7.85544922 1.07087891 -7.14839844 1.07925781 -6.41992188 1.08789062 C-4.61306441 1.09653588 -2.80612397 1.05220011 -1 1 C-0.67 0.67 -0.34 0.34 0 0 Z " fill="#7FBAF1" transform="translate(80,19)"/>
<path d="M0 0 C1.02083176 0.00022659 2.04166351 0.00045319 3.09342957 0.00068665 C4.7435479 0.02391243 4.7435479 0.02391243 6.42700195 0.04760742 C8.11863213 0.05397469 8.11863213 0.05397469 9.84443665 0.06047058 C13.45162687 0.07728306 17.05826142 0.11494089 20.6652832 0.15307617 C23.10863452 0.16811965 25.55199458 0.18180863 27.99536133 0.1940918 C33.98969202 0.22719501 39.98369792 0.27742024 45.9777832 0.34057617 C45.9777832 0.67057617 45.9777832 1.00057617 45.9777832 1.34057617 C30.7977832 1.34057617 15.6177832 1.34057617 -0.0222168 1.34057617 C-0.0222168 2.00057617 -0.0222168 2.66057617 -0.0222168 3.34057617 C3.9377832 3.34057617 7.8977832 3.34057617 11.9777832 3.34057617 C11.9777832 3.67057617 11.9777832 4.00057617 11.9777832 4.34057617 C10.5875293 4.43145508 10.5875293 4.43145508 9.16918945 4.52416992 C7.97165039 4.60795898 6.77411133 4.69174805 5.5402832 4.77807617 C4.34532227 4.85928711 3.15036133 4.94049805 1.91918945 5.02416992 C-0.90791924 5.01713731 -0.90791924 5.01713731 -2.0222168 6.34057617 C-2.18193657 8.71396257 -2.28146009 11.06175889 -2.33862305 13.43823242 C-2.35940414 14.14709091 -2.38018524 14.8559494 -2.40159607 15.58628845 C-2.46716277 17.85844922 -2.5260091 20.13072882 -2.5847168 22.40307617 C-2.62789529 23.94019801 -2.67150935 25.47730767 -2.71557617 27.0144043 C-2.82285128 30.78967208 -2.92409817 34.56505977 -3.0222168 38.34057617 C-4.6722168 38.34057617 -6.3222168 38.34057617 -8.0222168 38.34057617 C-8.09636 33.41100359 -8.15081497 28.48175536 -8.18701172 23.55175781 C-8.20210063 21.87461697 -8.22257427 20.1975156 -8.24853516 18.52050781 C-8.2849149 16.11017114 -8.30194166 13.70035598 -8.31518555 11.28979492 C-8.3306694 10.5396965 -8.34615326 9.78959808 -8.36210632 9.01676941 C-8.36378678 3.82173021 -8.36378678 3.82173021 -6.81481934 1.63977051 C-4.4266817 -0.09103977 -2.93553728 -0.02174472 0 0 Z " fill="#66AFF1" transform="translate(65.022216796875,15.659423828125)"/>
<path d="M0 0 C1.5675 0.020625 3.135 0.04125 4.75 0.0625 C4.75 5.6725 4.75 11.2825 4.75 17.0625 C2.77 17.0625 0.79 17.0625 -1.25 17.0625 C-1.25 16.4025 -1.25 15.7425 -1.25 15.0625 C-1.91 15.0625 -2.57 15.0625 -3.25 15.0625 C-4.25484204 13.10664675 -5.25373805 11.14773763 -6.25 9.1875 C-6.806875 8.09695312 -7.36375 7.00640625 -7.9375 5.8828125 C-9.25 3.0625 -9.25 3.0625 -9.25 1.0625 C-6.09493858 0.12630187 -3.28413498 -0.0432123 0 0 Z " fill="#E03307" transform="translate(47.25,74.9375)"/>
<path d="M0 0 C4.62 0 9.24 0 14 0 C14 0.99 14 1.98 14 3 C13.34 3 12.68 3 12 3 C11.82984375 3.59167969 11.6596875 4.18335937 11.484375 4.79296875 C10.03109811 9.53157903 8.76354594 13.56853164 5 17 C3.35 17 1.7 17 0 17 C0 11.39 0 5.78 0 0 Z " fill="#DE3206" transform="translate(54,75)"/>
<path d="M0 0 C0.99 0.66 1.98 1.32 3 2 C3.29296875 4.8203125 3.29296875 4.8203125 3.1875 8.125 C3.16042969 9.22070312 3.13335937 10.31640625 3.10546875 11.4453125 C3.07066406 12.28835937 3.03585938 13.13140625 3 14 C2.30132812 14.06058594 1.60265625 14.12117188 0.8828125 14.18359375 C-0.02726562 14.26738281 -0.93734375 14.35117188 -1.875 14.4375 C-2.77992187 14.51871094 -3.68484375 14.59992188 -4.6171875 14.68359375 C-7.01110861 14.86989285 -7.01110861 14.86989285 -9 16 C-11.71760108 16.07181821 -14.40859388 16.09299506 -17.125 16.0625 C-17.87910156 16.05798828 -18.63320312 16.05347656 -19.41015625 16.04882812 C-21.27347127 16.03703499 -23.13674555 16.01909942 -25 16 C-24.01 15.34 -23.02 14.68 -22 14 C-20.99831469 12.05167065 -20.99831469 12.05167065 -20.3125 9.875 C-20.06113281 9.15054688 -19.80976562 8.42609375 -19.55078125 7.6796875 C-19.36902344 7.12539062 -19.18726562 6.57109375 -19 6 C-18.34 6 -17.68 6 -17 6 C-16.67 4.68 -16.34 3.36 -16 2 C-15.34 2 -14.68 2 -14 2 C-14 4.64 -14 7.28 -14 10 C-13.01 10 -12.02 10 -11 10 C-11 10.66 -11 11.32 -11 12 C-9.51793505 11.745504 -8.03931385 11.47088238 -6.5625 11.1875 C-5.73878906 11.03667969 -4.91507813 10.88585937 -4.06640625 10.73046875 C-3.38449219 10.48941406 -2.70257813 10.24835938 -2 10 C-1.67 9.01 -1.34 8.02 -1 7 C-0.67 7.99 -0.34 8.98 0 10 C0.66 10.33 1.32 10.66 2 11 C2 8.69 2 6.38 2 4 C1.34 4 0.68 4 0 4 C0 2.68 0 1.36 0 0 Z " fill="#FC514C" transform="translate(85,82)"/>
<path d="M0 0 C3.51313719 1.247229 6.24851835 2.52815814 8.6015625 5.43359375 C8.6015625 6.42359375 8.6015625 7.41359375 8.6015625 8.43359375 C5.5994841 7.99211163 3.56143893 7.41026609 0.9140625 5.87109375 C-4.68200285 3.44261256 -10.0929321 3.90777673 -15.9609375 5.24609375 C-16.7653125 5.63796875 -17.5696875 6.02984375 -18.3984375 6.43359375 C-18.7284375 7.42359375 -19.0584375 8.41359375 -19.3984375 9.43359375 C-20.3884375 9.43359375 -21.3784375 9.43359375 -22.3984375 9.43359375 C-22.3984375 7.78359375 -22.3984375 6.13359375 -22.3984375 4.43359375 C-14.7167894 0.02375873 -9.07189986 -2.14238677 0 0 Z " fill="#6FB3F2" transform="translate(94.3984375,46.56640625)"/>
<path d="M0 0 C1.21236328 0.02707031 1.21236328 0.02707031 2.44921875 0.0546875 C3.37154297 0.08949219 3.37154297 0.08949219 4.3125 0.125 C4.3125 0.785 4.3125 1.445 4.3125 2.125 C5.3025 2.455 6.2925 2.785 7.3125 3.125 C7.3125 4.445 7.3125 5.765 7.3125 7.125 C6.3225 7.455 5.3325 7.785 4.3125 8.125 C3.9825 9.775 3.6525 11.425 3.3125 13.125 C1.3210944 13.50633299 -0.68029077 13.83825582 -2.6875 14.125 C-3.0175 13.795 -3.3475 13.465 -3.6875 13.125 C-3.40019945 10.78555264 -3.06813221 8.4510857 -2.6875 6.125 C-4.3375 6.125 -5.9875 6.125 -7.6875 6.125 C-7.6875 4.805 -7.6875 3.485 -7.6875 2.125 C-4.48369983 -0.01086678 -3.66810033 -0.10632175 0 0 Z " fill="#CFEAF9" transform="translate(87.6875,53.875)"/>
<path d="M0 0 C0.79921875 0.20367187 1.5984375 0.40734375 2.421875 0.6171875 C3.02515625 0.78476563 3.6284375 0.95234375 4.25 1.125 C4.25 2.115 4.25 3.105 4.25 4.125 C0.95 4.125 -2.35 4.125 -5.75 4.125 C-5.62625 5.424375 -5.5025 6.72375 -5.375 8.0625 C-5.30539063 8.79339844 -5.23578125 9.52429688 -5.1640625 10.27734375 C-5.02742188 10.88707031 -4.89078125 11.49679688 -4.75 12.125 C-4.09 12.455 -3.43 12.785 -2.75 13.125 C-2.75 13.785 -2.75 14.445 -2.75 15.125 C-9.5 16.25 -9.5 16.25 -11.75 15.125 C-12.32563851 5.33914538 -12.32563851 5.33914538 -8.75 1.125 C-5.50689504 -0.99280346 -3.69924941 -0.97921308 0 0 Z " fill="#FC514F" transform="translate(28.75,78.875)"/>
<path d="M0 0 C1.81293089 0.14037521 3.6253443 0.28744889 5.4375 0.4375 C6.95150391 0.55931641 6.95150391 0.55931641 8.49609375 0.68359375 C11 1 11 1 12 2 C12.1875 4.9375 12.1875 4.9375 12 8 C10 10 10 10 8.125 10.265625 C7.42375 10.26046875 6.7225 10.2553125 6 10.25 C5.29875 10.25515625 4.5975 10.2603125 3.875 10.265625 C2 10 2 10 0 8 C-0.26991906 5.31160615 -0.08737357 2.70858064 0 0 Z " fill="#2A2E31" transform="translate(21,102)"/>
<path d="M0 0 C0.9583374 0.04713135 1.9166748 0.0942627 2.90405273 0.14282227 C3.93852539 0.19116211 4.97299805 0.23950195 6.03881836 0.28930664 C7.12743164 0.34538086 8.21604492 0.40145508 9.33764648 0.45922852 C10.43012695 0.51143555 11.52260742 0.56364258 12.64819336 0.61743164 C15.35743724 0.74756999 18.06635442 0.88254906 20.77514648 1.02172852 C17.16289983 4.00263117 14.44827536 4.5723892 9.77514648 5.02172852 C9.44514648 6.34172852 9.11514648 7.66172852 8.77514648 9.02172852 C8.11514648 9.02172852 7.45514648 9.02172852 6.77514648 9.02172852 C6.77514648 7.70172852 6.77514648 6.38172852 6.77514648 5.02172852 C5.78514648 5.51672852 5.78514648 5.51672852 4.77514648 6.02172852 C4.44514648 7.01172852 4.11514648 8.00172852 3.77514648 9.02172852 C1.46514648 9.02172852 -0.84485352 9.02172852 -3.22485352 9.02172852 C-3.32250977 2.86938477 -3.32250977 2.86938477 -3.22485352 1.02172852 C-2.22485352 0.02172852 -2.22485352 0.02172852 0 0 Z " fill="#80BBF6" transform="translate(87.224853515625,100.978271484375)"/>
<path d="M0 0 C0.1953125 6.0546875 0.1953125 6.0546875 0 8 C-2 10 -2 10 -5.5 10.25 C-9 10 -9 10 -11 8 C-11.125 4.375 -11.125 4.375 -11 1 C-7.26562152 0.12132271 -3.83225427 -0.08912219 0 0 Z " fill="#2E3C4F" transform="translate(84,102)"/>
<path d="M0 0 C4.34972678 5.37992523 5.63029583 11.31152076 6.65234375 18.0546875 C7.23235854 20.13914682 7.23235854 20.13914682 9.44140625 21.1953125 C10.07949219 21.44023438 10.71757813 21.68515625 11.375 21.9375 C9.725 21.9375 8.075 21.9375 6.375 21.9375 C6.045 20.2875 5.715 18.6375 5.375 16.9375 C3.065 16.6075 0.755 16.2775 -1.625 15.9375 C-0.305 15.6075 1.015 15.2775 2.375 14.9375 C1.44062402 9.29436085 0.561918 5.124418 -3.625 0.9375 C-6.25223396 -0.37611698 -8.35110561 -0.27503909 -11.2890625 -0.37890625 C-12.41054688 -0.42080078 -13.53203125 -0.46269531 -14.6875 -0.50585938 C-15.863125 -0.54517578 -17.03875 -0.58449219 -18.25 -0.625 C-20.02503906 -0.68977539 -20.02503906 -0.68977539 -21.8359375 -0.75585938 C-24.76550328 -0.86217426 -27.69515588 -0.96420642 -30.625 -1.0625 C-30.625 -1.3925 -30.625 -1.7225 -30.625 -2.0625 C-26.89629547 -2.26006803 -23.16703204 -2.44378099 -19.4375 -2.625 C-18.38240234 -2.68107422 -17.32730469 -2.73714844 -16.24023438 -2.79492188 C-15.21865234 -2.84326172 -14.19707031 -2.89160156 -13.14453125 -2.94140625 C-12.20714111 -2.9885376 -11.26975098 -3.03566895 -10.30395508 -3.08422852 C-6.00936085 -3.04939585 -3.41361903 -2.68212924 0 0 Z " fill="#DC6249" transform="translate(71.625,58.0625)"/>
<path d="M0 0 C2.19510603 0.25361783 4.38228739 0.57765908 6.5625 0.9375 C8.35880859 1.22947266 8.35880859 1.22947266 10.19140625 1.52734375 C11.11824219 1.68332031 12.04507812 1.83929688 13 2 C13 3.65 13 5.3 13 7 C13.66 7.33 14.32 7.66 15 8 C12.89551062 7.85890014 10.7914123 7.71195825 8.6875 7.5625 C7.51574219 7.48128906 6.34398437 7.40007812 5.13671875 7.31640625 C2 7 2 7 -1 6 C-1.042721 4.33388095 -1.04063832 2.66617115 -1 1 C-0.67 0.67 -0.34 0.34 0 0 Z " fill="#898D9A" transform="translate(15,95)"/>
<path d="M0 0 C0.66 0 1.32 0 2 0 C2 1.32 2 2.64 2 4 C0.35 4.33 -1.3 4.66 -3 5 C-3 5.66 -3 6.32 -3 7 C-3.66 7 -4.32 7 -5 7 C-5.66 8.98 -6.32 10.96 -7 13 C-8.32 13 -9.64 13 -11 13 C-11.66 14.32 -12.32 15.64 -13 17 C-13.66 16.67 -14.32 16.34 -15 16 C-14.70480469 15.43667969 -14.40960938 14.87335938 -14.10546875 14.29296875 C-12.96330814 12.02963275 -12.96330814 12.02963275 -12.17578125 9.67578125 C-11.29107625 7.25385128 -10.4293062 5.15051575 -9 3 C-5.375 2.0625 -5.375 2.0625 -2 2 C-1.34 1.34 -0.68 0.68 0 0 Z " fill="#F94837" transform="translate(75,75)"/>
<path d="M0 0 C0.99 0.66 1.98 1.32 3 2 C-0.3 2.33 -3.6 2.66 -7 3 C-6.484375 3.7425 -5.96875 4.485 -5.4375 5.25 C-4 8 -4 8 -4.3125 10.3125 C-4.539375 10.869375 -4.76625 11.42625 -5 12 C-6.11375 10.8553125 -6.11375 10.8553125 -7.25 9.6875 C-9.823554 7.04428801 -9.823554 7.04428801 -12.3125 5.3125 C-13.1478125 4.6628125 -13.1478125 4.6628125 -14 4 C-14 3.34 -14 2.68 -14 2 C-9.5048914 -0.32005605 -4.96364462 -0.6320746 0 0 Z " fill="#FC4942" transform="translate(45,73)"/>
<path d="M0 0 C2 2 2 2 2.25 4.5 C2 7 2 7 0 9 C-3.625 8.625 -3.625 8.625 -7 8 C-7 5.69 -7 3.38 -7 1 C-4.48718205 -0.25640898 -2.78302919 -0.20872719 0 0 Z " fill="#FED123" transform="translate(31,84)"/>
<path d="M0 0 C0.125 2.875 0.125 2.875 0 6 C-2 8 -2 8 -4.5 8.25 C-7 8 -7 8 -9 6 C-9.125 2.875 -9.125 2.875 -9 0 C-5.93109813 -1.53445094 -3.29905734 -0.54984289 0 0 Z " fill="#F7D213" transform="translate(81,85)"/>
<path d="M0 0 C1.21236328 0.02707031 1.21236328 0.02707031 2.44921875 0.0546875 C3.37154297 0.08949219 3.37154297 0.08949219 4.3125 0.125 C4.3125 0.785 4.3125 1.445 4.3125 2.125 C5.3025 2.455 6.2925 2.785 7.3125 3.125 C6.9825 4.115 6.6525 5.105 6.3125 6.125 C5.63703125 6.04121094 4.9615625 5.95742188 4.265625 5.87109375 C3.37359375 5.76925781 2.4815625 5.66742188 1.5625 5.5625 C0.68078125 5.45808594 -0.2009375 5.35367188 -1.109375 5.24609375 C-3.57182451 5.13043324 -5.35288064 5.38861305 -7.6875 6.125 C-7.6875 4.805 -7.6875 3.485 -7.6875 2.125 C-4.48369983 -0.01086678 -3.66810033 -0.10632175 0 0 Z " fill="#71B3F3" transform="translate(87.6875,53.875)"/>
<path d="M0 0 C0 0.33 0 0.66 0 1 C-0.97348389 1.02505615 -1.94696777 1.0501123 -2.94995117 1.07592773 C-6.57491347 1.17037278 -10.19970066 1.27050167 -13.82446289 1.37231445 C-15.39082736 1.41552339 -16.95723467 1.45720791 -18.52368164 1.49731445 C-20.7802418 1.55535871 -23.03658908 1.61895302 -25.29296875 1.68359375 C-25.98899704 1.70030624 -26.68502533 1.71701874 -27.40214539 1.73423767 C-31.03872797 1.84408419 -34.45792427 2.15721991 -38 3 C-38 2.34 -38 1.68 -38 1 C-25.70172644 -2.03393533 -12.48939734 -1.85028109 0 0 Z " fill="#F46864" transform="translate(69,72)"/>
<path d="M0 0 C-0.33 0.99 -0.66 1.98 -1 3 C-15.19 3 -29.38 3 -44 3 C-44 2.67 -44 2.34 -44 2 C-42.91992676 1.97494385 -41.83985352 1.9498877 -40.72705078 1.92407227 C-36.72757688 1.83004428 -32.72827853 1.72981246 -28.72900391 1.62768555 C-26.99662374 1.5843192 -25.26420037 1.54264537 -23.53173828 1.50268555 C-21.04446373 1.44502406 -18.55740707 1.38131802 -16.0703125 1.31640625 C-14.90461227 1.29133751 -14.90461227 1.29133751 -13.71536255 1.26576233 C-8.88386278 1.13203229 -4.85496137 -0.10554264 0 0 Z " fill="#BA7E85" transform="translate(84,96)"/>
<path d="M0 0 C3 2 3 2 3.8125 4 C3.874375 4.66 3.93625 5.32 4 6 C3.34 6.66 2.68 7.32 2 8 C1.835 8.66 1.67 9.32 1.5 10 C1 12 1 12 -1 14 C-4.125 14.125 -4.125 14.125 -7 14 C-7 13.67 -7 13.34 -7 13 C-5.02 12.34 -3.04 11.68 -1 11 C-0.957279 9.33388095 -0.95936168 7.66617115 -1 6 C-2.18424326 4.58422523 -2.18424326 4.58422523 -5.5625 4.9375 C-7.2640625 4.9684375 -7.2640625 4.9684375 -9 5 C-9 6.98 -9 8.96 -9 11 C-9.33 11 -9.66 11 -10 11 C-10.33 8.36 -10.66 5.72 -11 3 C-8.47946405 1.73973202 -7.1457902 2.08125555 -4.375 2.4375 C-3.14910156 2.59025391 -3.14910156 2.59025391 -1.8984375 2.74609375 C-1.27195312 2.82988281 -0.64546875 2.91367188 0 3 C0 2.01 0 1.02 0 0 Z " fill="#F65F35" transform="translate(33,80)"/>
<path d="M0 0 C1.97909398 -0.02686553 3.95828971 -0.04633375 5.9375 -0.0625 C7.03964844 -0.07410156 8.14179687 -0.08570312 9.27734375 -0.09765625 C12 0 12 0 13 1 C13.08843793 3.44830426 13.11528752 5.86820599 13.09765625 8.31640625 C13.0962413 9.04746078 13.09482635 9.77851532 13.09336853 10.53172302 C13.08775408 12.87535632 13.07519922 15.21889539 13.0625 17.5625 C13.05748686 19.14778508 13.05292363 20.73307166 13.04882812 22.31835938 C13.03777997 26.2122761 13.02050572 30.10612205 13 34 C12.67 34 12.34 34 12 34 C11.67 23.44 11.34 12.88 11 2 C4.18130056 1.5881538 4.18130056 1.5881538 -1 4 C-0.67 2.68 -0.34 1.36 0 0 Z " fill="#D4F5FE" transform="translate(96,21)"/>
<path d="M0 0 C0.99 0.66 1.98 1.32 3 2 C3.41820365 6.02590716 3.12945079 9.94387531 3 14 C-2.94 14.495 -2.94 14.495 -9 15 C-7.37660195 13.29115995 -5.70680947 11.62553283 -4 10 C-3.34 10 -2.68 10 -2 10 C-1.67 9.01 -1.34 8.02 -1 7 C-0.67 7.99 -0.34 8.98 0 10 C0.66 10.33 1.32 10.66 2 11 C2 8.69 2 6.38 2 4 C1.34 4 0.68 4 0 4 C0 2.68 0 1.36 0 0 Z " fill="#FB514E" transform="translate(85,82)"/>
<path d="M0 0 C4.54260035 1.78459299 6.82692679 5.00577555 9.25 9.125 C10 11 10 11 10 14 C10.5775 14.268125 11.155 14.53625 11.75 14.8125 C14.0325868 16.01719859 15.9737942 17.40798115 18 19 C15.375 19.5 15.375 19.5 12 19 C8.30433887 15.5217307 5.95575351 11.08020996 3.75 6.5625 C2.42736616 2.96134192 2.42736616 2.96134192 0 2 C0 1.34 0 0.68 0 0 Z " fill="#E3320B" transform="translate(32,78)"/>
<path d="M0 0 C1.32 0 2.64 0 4 0 C4 0.66 4 1.32 4 2 C4.66 2 5.32 2 6 2 C6.33 1.34 6.66 0.68 7 0 C7 1.65 7 3.3 7 5 C6.34 5 5.68 5 5 5 C5 5.66 5 6.32 5 7 C3.33388095 7.042721 1.66617115 7.04063832 0 7 C-1 6 -1 6 -1.125 3.5 C-1 1 -1 1 0 0 Z " fill="#31282A" transform="translate(76,104)"/>
<path d="M0 0 C1.13888672 0.10828125 1.13888672 0.10828125 2.30078125 0.21875 C3.29464844 0.3115625 4.28851563 0.404375 5.3125 0.5 C6.79169922 0.63921875 6.79169922 0.63921875 8.30078125 0.78125 C11.04702139 1.04038857 11.04702139 1.04038857 14 1 C13.01 3.64 12.02 6.28 11 9 C10.29875 8.236875 9.5975 7.47375 8.875 6.6875 C6.03647396 4.03409522 3.53050949 2.55999257 0 1 C0 0.67 0 0.34 0 0 Z " fill="#E1EBEB" transform="translate(64,54)"/>
<path d="M0 0 C0 1.32 0 2.64 0 4 C-1.65 4.33 -3.3 4.66 -5 5 C-5 5.66 -5 6.32 -5 7 C-5.66 7 -6.32 7 -7 7 C-7.66 8.98 -8.32 10.96 -9 13 C-9.66 13 -10.32 13 -11 13 C-11 11.68 -11 10.36 -11 9 C-10.34 9 -9.68 9 -9 9 C-8.773125 8.2575 -8.54625 7.515 -8.3125 6.75 C-6.65039308 3.26749027 -4.13573795 0 0 0 Z " fill="#E33514" transform="translate(77,75)"/>
<path d="M0 0 C0.33 0 0.66 0 1 0 C1.33 8.58 1.66 17.16 2 26 C0.68 26 -0.64 26 -2 26 C-1.76228882 24.91972534 -1.76228882 24.91972534 -1.51977539 23.81762695 C-1.02714994 21.14717588 -0.79997351 18.62795454 -0.68359375 15.91796875 C-0.64169922 14.98662109 -0.59980469 14.05527344 -0.55664062 13.09570312 C-0.51732422 12.13599609 -0.47800781 11.17628906 -0.4375 10.1875 C-0.37272461 8.71893555 -0.37272461 8.71893555 -0.30664062 7.22070312 C-0.2009774 4.81392973 -0.09887673 2.40706017 0 0 Z " fill="#59B0FC" transform="translate(60,27)"/>
<path d="M0 0 C2.97 0 5.94 0 9 0 C9 1.32 9 2.64 9 4 C6.03 4 3.06 4 0 4 C0 2.68 0 1.36 0 0 Z " fill="#A9D2FB" transform="translate(81,20)"/>
<path d="M0 0 C1.134375 0.020625 2.26875 0.04125 3.4375 0.0625 C3.7675 1.0525 4.0975 2.0425 4.4375 3.0625 C-1.1725 3.0625 -6.7825 3.0625 -12.5625 3.0625 C-12.2325 2.4025 -11.9025 1.7425 -11.5625 1.0625 C-10.428125 1.083125 -9.29375 1.10375 -8.125 1.125 C-4.04050174 1.05334214 -4.08449826 0.07165786 0 0 Z " fill="#66ADE6" transform="translate(86.5625,109.9375)"/>
<path d="M0 0 C1.65 0 3.3 0 5 0 C5.33 1.65 5.66 3.3 6 5 C4.34385343 5.38218767 2.67542976 5.71395102 1 6 C0 5 0 5 -0.0625 2.4375 C-0.041875 1.633125 -0.02125 0.82875 0 0 Z " fill="#74B3EE" transform="translate(84,62)"/>
<path d="M0 0 C0 0.99 0 1.98 0 3 C-3.57644848 4.2380014 -6.33694766 3.74926071 -10 3 C-10 2.34 -10 1.68 -10 1 C-6.78548731 -0.60725635 -3.56387464 -0.05748185 0 0 Z " fill="#FD4F52" transform="translate(84,80)"/>
<path d="M0 0 C2.125 0.9375 2.125 0.9375 4 2 C3.51789062 2.32613281 3.03578125 2.65226562 2.5390625 2.98828125 C1.59160156 3.64376953 1.59160156 3.64376953 0.625 4.3125 C-0.00148438 4.74175781 -0.62796875 5.17101563 -1.2734375 5.61328125 C-3.26378845 7.06920339 -3.26378845 7.06920339 -5 10 C-5.75 8.3125 -5.75 8.3125 -6 6 C-4.21482174 3.35301155 -2.87978754 1.43989377 0 0 Z " fill="#D6411F" transform="translate(37,55)"/>
<path d="M0 0 C0.66 0 1.32 0 2 0 C2 0.99 2 1.98 2 3 C2.99 3 3.98 3 5 3 C5 3.99 5 4.98 5 6 C5.99 6.33 6.98 6.66 8 7 C7 8 7 8 4.5625 8.1875 C2 8 2 8 0 6 C-0.125 2.875 -0.125 2.875 0 0 Z " fill="#FCC421" transform="translate(72,85)"/>
<path d="M0 0 C2 1.375 2 1.375 4 3 C4 3.66 4 4.32 4 5 C4.66 5.33 5.32 5.66 6 6 C3.36 6 0.72 6 -2 6 C-2 4.68 -2 3.36 -2 2 C-1.34 2 -0.68 2 0 2 C0 1.34 0 0.68 0 0 Z " fill="#FA4E43" transform="translate(40,92)"/>
<path d="M0 0 C0.33 0 0.66 0 1 0 C1.09796875 0.62648438 1.1959375 1.25296875 1.296875 1.8984375 C1.44640625 2.71570313 1.5959375 3.53296875 1.75 4.375 C1.88921875 5.18710938 2.0284375 5.99921875 2.171875 6.8359375 C2.81749261 9.17709092 2.81749261 9.17709092 5.078125 10.2890625 C5.71234375 10.52367188 6.3465625 10.75828125 7 11 C5.35 11 3.7 11 2 11 C1.67 9.35 1.34 7.7 1 6 C-1.31 5.67 -3.62 5.34 -6 5 C-5.38125 4.731875 -4.7625 4.46375 -4.125 4.1875 C-1.7004767 3.04443152 -1.7004767 3.04443152 0 0 Z " fill="#E36761" transform="translate(76,69)"/>
<path d="M0 0 C1.485 0.99 1.485 0.99 3 2 C3.29296875 4.8203125 3.29296875 4.8203125 3.1875 8.125 C3.16042969 9.22070312 3.13335937 10.31640625 3.10546875 11.4453125 C3.07066406 12.28835937 3.03585938 13.13140625 3 14 C1.68 14 0.36 14 -1 14 C-1 13.34 -1 12.68 -1 12 C-0.01 12 0.98 12 2 12 C2 9.36 2 6.72 2 4 C1.34 4 0.68 4 0 4 C0 2.68 0 1.36 0 0 Z " fill="#F86066" transform="translate(85,82)"/>
<path d="M0 0 C4.29 0 8.58 0 13 0 C13 0.33 13 0.66 13 1 C12.24074219 1.01417969 11.48148438 1.02835938 10.69921875 1.04296875 C7.72071806 1.18590588 4.92030703 1.38837227 2 2 C-0.28795759 4.35547425 -0.28795759 4.35547425 -1 7 C-1.66 6.67 -2.32 6.34 -3 6 C-2.01 4.02 -1.02 2.04 0 0 Z " fill="#6CAEE4" transform="translate(95,19)"/>
<path d="M0 0 C3.96 0 7.92 0 12 0 C12.99 1.98 13.98 3.96 15 6 C14.01 5.67 13.02 5.34 12 5 C12 4.34 12 3.68 12 3 C11.34 3 10.68 3 10 3 C10 2.34 10 1.68 10 1 C6.7 1 3.4 1 0 1 C0 0.67 0 0.34 0 0 Z " fill="#CFF0FE" transform="translate(63,21)"/>
<path d="M0 0 C1.32 0.33 2.64 0.66 4 1 C4 2.65 4 4.3 4 6 C2.68 6.33 1.36 6.66 0 7 C0 4.69 0 2.38 0 0 Z " fill="#F5C00A" transform="translate(24,85)"/>
<path d="M0 0 C0 0.99 0 1.98 0 3 C0.66 3.33 1.32 3.66 2 4 C-0.97 3.505 -0.97 3.505 -4 3 C-4 2.34 -4 1.68 -4 1 C-5.32 0.67 -6.64 0.34 -8 0 C-4.71023192 -1.09658936 -3.28696233 -0.79953138 0 0 Z " fill="#8192A0" transform="translate(28,99)"/>
<path d="M0 0 C0.66 0 1.32 0 2 0 C1.62403791 2.78211944 1.32681541 4.5879284 -0.4375 6.8125 C-2 8 -2 8 -4 8 C-2.66666667 5.33333333 -1.33333333 2.66666667 0 0 Z " fill="#E13410" transform="translate(64,88)"/>
<path d="M0 0 C1.32 0 2.64 0 4 0 C4 1.98 4 3.96 4 6 C3.01 6 2.02 6 1 6 C0.67 4.02 0.34 2.04 0 0 Z " fill="#2A2D33" transform="translate(76,104)"/>
<path d="M0 0 C2.64 0 5.28 0 8 0 C8 0.99 8 1.98 8 3 C6.68 3.33 5.36 3.66 4 4 C3.67 3.01 3.34 2.02 3 1 C2.01 0.67 1.02 0.34 0 0 Z " fill="#95A6BF" transform="translate(72,99)"/>
<path d="M0 0 C0 0.99 0 1.98 0 3 C-2.64 3 -5.28 3 -8 3 C-6.23110084 -0.53779831 -3.70375662 0 0 0 Z " fill="#99A9B1" transform="translate(68,100)"/>
<path d="M0 0 C1.98 0 3.96 0 6 0 C6 0.99 6 1.98 6 3 C4.02 3 2.04 3 0 3 C0 2.01 0 1.02 0 0 Z " fill="#DFECFA" transform="translate(84,106)"/>
<path d="M0 0 C2.0625 2.25 2.0625 2.25 4 5 C3.75 7.3125 3.75 7.3125 3 9 C2.01 8.01 1.02 7.02 0 6 C0.66 6 1.32 6 2 6 C2 5.34 2 4.68 2 4 C1.34 4 0.68 4 0 4 C0 2.68 0 1.36 0 0 Z " fill="#F8442C" transform="translate(37,76)"/>
<path d="M0 0 C7.75 0.75 7.75 0.75 10 3 C9.34 3.66 8.68 4.32 8 5 C5.36 3.68 2.72 2.36 0 1 C0 0.67 0 0.34 0 0 Z " fill="#EFDDDC" transform="translate(64,54)"/>
<path d="M0 0 C1.98 0 3.96 0 6 0 C2.25 3 2.25 3 0 3 C-0.33 3.99 -0.66 4.98 -1 6 C-1.99 5.67 -2.98 5.34 -4 5 C-3.34 4.67 -2.68 4.34 -2 4 C-0.86649466 1.98330173 -0.86649466 1.98330173 0 0 Z " fill="#86C1F0" transform="translate(76,50)"/>
<path d="M0 0 C1.65 0 3.3 0 5 0 C5.33 0.99 5.66 1.98 6 3 C4.02 3 2.04 3 0 3 C0 2.01 0 1.02 0 0 Z " fill="#76B9F7" transform="translate(84,103)"/>
<path d="M0 0 C0.66 0.33 1.32 0.66 2 1 C0.7260411 3.03833424 -0.61061923 5.03852126 -2 7 C-2.66 7 -3.32 7 -4 7 C-4 5.68 -4 4.36 -4 3 C-2 1.25 -2 1.25 0 0 Z " fill="#73B2E4" transform="translate(76,48)"/>
</svg>
