<svg width="32" height="32" viewBox="0 0 32 32" fill="none" xmlns="http://www.w3.org/2000/svg">
<path d="M7.44811 24.1263C6.77811 22.7703 6.28911 21.0233 6.32511 18.8263C6.35811 16.8183 6.86011 14.8463 7.70811 13.0253C8.11111 12.1603 9.56811 8.91534 9.63211 8.77634C9.70011 8.62734 9.94411 8.06634 9.98211 7.54534C9.99711 7.34134 10.2251 7.22734 10.3931 7.34434C11.1191 7.84834 12.4691 9.00934 12.5321 10.7073C12.5411 10.9403 12.8261 11.0483 12.9861 10.8783C13.9781 9.82134 16.0151 7.06734 14.6701 3.35334C14.5921 3.13834 14.8101 2.93434 15.0201 3.02334C16.5561 3.67434 20.6331 5.96934 19.9081 11.7663C19.9081 11.7663 19.7801 12.5673 19.6181 13.1803C19.5581 13.4073 19.8021 13.5913 20.0051 13.4733C20.6711 13.0863 21.6591 12.1653 21.4721 10.1513C21.4511 9.92234 21.7101 9.77834 21.8931 9.91734C23.2181 10.9253 26.6261 14.2113 25.4231 20.6613C25.4231 20.6613 24.1301 28.6013 16.0091 28.9633C16.0031 28.9633 15.9971 28.9643 15.9911 28.9653C15.9401 28.9723 15.6471 29.0063 15.1821 29.0023C11.8931 28.9713 8.90511 27.0753 7.44811 24.1263Z" fill="#F86C1D"/>
<path d="M21.5628 20.51C21.5628 20.981 21.1808 21.364 20.7088 21.364C20.2378 21.364 19.8548 20.982 19.8548 20.51V18.914L15.6048 23.164C15.4448 23.324 15.2278 23.414 15.0008 23.414C14.7748 23.414 14.5578 23.324 14.3978 23.164L12.4158 21.182L11.0798 22.518C10.7468 22.851 10.2058 22.851 9.8728 22.518C9.5398 22.185 9.5398 21.644 9.8728 21.311L11.8128 19.372C12.1458 19.039 12.6868 19.039 13.0198 19.372L15.0018 21.354L18.6488 17.707H17.0528C16.5818 17.707 16.1988 17.325 16.1988 16.853C16.1988 16.381 16.5818 16 17.0528 16H20.7098C21.1808 16 21.5638 16.382 21.5638 16.854L21.5628 20.51Z" fill="white"/>
</svg>
