<?xml version="1.0" encoding="UTF-8"?>
<svg version="1.1" xmlns="http://www.w3.org/2000/svg" width="128" height="128">
<path d="M0 0 C7.59845476 7.01722967 11.90280037 15.93999719 12.78125 26.24609375 C12.91906746 38.25343976 9.12099085 46.37677943 0.96875 55.01171875 C-0.29370431 56.30122565 -1.56154816 57.58559578 -2.84375 58.85546875 C-6.39558565 62.61872319 -6.91356405 66.04591781 -7.69140625 70.96484375 C-8.39679362 74.01629724 -9.65838626 75.48584368 -12.21875 77.24609375 C-12.87875 77.24609375 -13.53875 77.24609375 -14.21875 77.24609375 C-14.0640625 79.07140625 -14.0640625 79.07140625 -13.90625 80.93359375 C-13.88668525 84.61176718 -14.11958146 85.12343792 -16.59375 88.18359375 C-20.39242482 91.16826683 -22.37647359 91.71169725 -27.21875 91.24609375 C-30.46875 89.87109375 -30.46875 89.87109375 -33.21875 87.24609375 C-33.9195664 84.68917572 -34.29143022 82.1744167 -34.6640625 79.55078125 C-35.02552963 76.98867137 -35.02552963 76.98867137 -37.65625 75.37109375 C-40.82948486 72.73963069 -40.87543876 71.27456602 -41.71875 67.30859375 C-42.86768764 62.05268013 -43.98127225 59.73024212 -48.21875 56.24609375 C-56.33340682 48.22842486 -60.60256755 40.47686175 -61.25 28.96875 C-61.13228246 18.71260972 -57.52594869 9.4652592 -50.53125 1.93359375 C-36.31100297 -11.24809591 -15.23734617 -12.04501484 0 0 Z " fill="#FDDD14" transform="translate(88.21875,24.75390625)"/>
<path d="M0 0 C0.66 0 1.32 0 2 0 C2.24218448 7.26553441 1.31556657 13.84660676 0 21 C4.95 21 9.9 21 15 21 C14.1162903 25.41854849 13.4307487 27.30680616 11.125 30.9375 C8.88016631 34.55387885 6.83537036 38.15446211 5 42 C2.96396737 46.24911157 0.80382936 50.20126345 -2 54 C-2.66 54 -3.32 54 -4 54 C-4.0272616 51.95840905 -4.04651345 49.91671037 -4.0625 47.875 C-4.07410156 46.73804688 -4.08570313 45.60109375 -4.09765625 44.4296875 C-4 41 -4 41 -3 35 C-7.95 35 -12.9 35 -18 35 C-17.12973583 29.77841501 -16.51340608 27.64392149 -13.9453125 23.33984375 C-13.33042969 22.29892578 -12.71554688 21.25800781 -12.08203125 20.18554688 C-11.43621094 19.11369141 -10.79039063 18.04183594 -10.125 16.9375 C-9.48691406 15.86177734 -8.84882812 14.78605469 -8.19140625 13.67773438 C-6.47009466 10.77953438 -4.73787525 7.88828858 -3 5 C-2.47776855 4.06099854 -1.95553711 3.12199707 -1.41748047 2.15454102 C-0.94971191 1.44354248 -0.48194336 0.73254395 0 0 Z " fill="#2AA611" transform="translate(65,31)"/>
<path d="M0 0 C6.6 0 13.2 0 20 0 C20 8 20 8 17.625 10.9375 C13.82632518 13.92217308 11.84227641 14.4656035 7 14 C1.42105263 10.84210526 1.42105263 10.84210526 0 8 C0 5.36 0 2.72 0 0 Z " fill="#526A66" transform="translate(54,102)"/>
<path d="M0 0 C0.60869565 7.1826087 0.60869565 7.1826087 -2.1875 10.9375 C-5 13 -5 13 -10 14 C-10 9.71 -10 5.42 -10 1 C-2.25 0 -2.25 0 0 0 Z " fill="#374A4C" transform="translate(74,102)"/>
<path d="M0 0 C0.78246094 -0.01417969 1.56492187 -0.02835938 2.37109375 -0.04296875 C4.5625 0.1875 4.5625 0.1875 7.5625 2.1875 C6.6875 7.0625 6.6875 7.0625 5.5625 8.1875 C3.91909133 8.28604655 2.2713539 8.31722411 0.625 8.3125 C-0.27089844 8.31507812 -1.16679687 8.31765625 -2.08984375 8.3203125 C-4.4375 8.1875 -4.4375 8.1875 -6.4375 7.1875 C-6.4375 5.2075 -6.4375 3.2275 -6.4375 1.1875 C-4.0978331 0.01766655 -2.60358473 0.0213759 0 0 Z " fill="#FAE661" transform="translate(14.4375,48.8125)"/>
<path d="M0 0 C1.19109375 -0.00386719 1.19109375 -0.00386719 2.40625 -0.0078125 C4.5 0.125 4.5 0.125 6.5 1.125 C6.5 3.105 6.5 5.085 6.5 7.125 C4.02224905 8.36387548 2.26346293 8.29241669 -0.5 8.3125 C-1.8303125 8.33376953 -1.8303125 8.33376953 -3.1875 8.35546875 C-5.5 8.125 -5.5 8.125 -7.5 6.125 C-7.25 3.5625 -7.25 3.5625 -6.5 1.125 C-4.13386544 -0.05806728 -2.63219264 -0.00854608 0 0 Z " fill="#FDE460" transform="translate(113.5,48.875)"/>
<path d="M0 0 C3.68948553 0.57391997 5.22025262 2.08619605 7.71875 4.76953125 C8.8125 6.4375 8.8125 6.4375 8.6875 9.3125 C8.254375 10.364375 8.254375 10.364375 7.8125 11.4375 C5.6875 12.3125 5.6875 12.3125 2.8125 12.4375 C0.32501408 10.80636169 -1.50912853 8.88747177 -3.1875 6.4375 C-3.625 3.625 -3.625 3.625 -3.1875 1.4375 C-2.1875 0.4375 -2.1875 0.4375 0 0 Z " fill="#F7E760" transform="translate(96.1875,81.5625)"/>
<path d="M0 0 C0.70125 0.28875 1.4025 0.5775 2.125 0.875 C3 3 3 3 3.125 5.875 C1.49386169 8.36248592 -0.42502823 10.19662853 -2.875 11.875 C-5.6875 12.3125 -5.6875 12.3125 -7.875 11.875 C-8.875 10.875 -8.875 10.875 -9.3125 8.6875 C-8.73858003 4.99801447 -7.22630395 3.46724738 -4.54296875 0.96875 C-2.875 -0.125 -2.875 -0.125 0 0 Z " fill="#FCE45F" transform="translate(101.875,12.125)"/>
<path d="M0 0 C2.1875 0.5 2.1875 0.5 3.1875 1.5 C3.625 3.6875 3.625 3.6875 3.1875 6.5 C1.50912853 8.94997177 -0.32501408 10.86886169 -2.8125 12.5 C-5.6875 12.375 -5.6875 12.375 -7.8125 11.5 C-8.4765625 9.734375 -8.4765625 9.734375 -8.8125 7.5 C-6.77807504 3.73707865 -4.26725283 0.75862273 0 0 Z " fill="#F9E564" transform="translate(31.8125,81.5)"/>
<path d="M0 0 C3.54099693 0.19672205 5.00869311 1.00695448 7.8125 3.25 C10 6 10 6 10.375 8.75 C10 11 10 11 9 12 C6.8125 12.4375 6.8125 12.4375 4 12 C1.54902912 10.32094409 -0.36178818 8.48355245 -2 6 C-1.94162863 3.37328813 -1.88893674 1.88893674 0 0 Z " fill="#FCE363" transform="translate(25,12)"/>
<path d="M0 0 C0.33 0 0.66 0 1 0 C1 2.31 1 4.62 1 7 C0.01 7 -0.98 7 -2 7 C-2 7.66 -2 8.32 -2 9 C2.95 9 7.9 9 13 9 C12.67 14.28 12.34 19.56 12 25 C12.66 25 13.32 25 14 25 C13.01 27.475 13.01 27.475 12 30 C11.34 30 10.68 30 10 30 C9.9727384 27.95840905 9.95348655 25.91671037 9.9375 23.875 C9.92589844 22.73804687 9.91429687 21.60109375 9.90234375 20.4296875 C10 17 10 17 11 11 C6.05 11 1.1 11 -4 11 C-3.16017048 5.9610229 -2.76910749 3.92290228 0 0 Z " fill="#5EAC08" transform="translate(51,55)"/>
<path d="M0 0 C0.66 0 1.32 0 2 0 C0.54923176 3.79431694 -1.15431859 7.38246443 -3 11 C-3.515625 12.093125 -4.03125 13.18625 -4.5625 14.3125 C-6 17 -6 17 -8 18 C-8.33 15.69 -8.66 13.38 -9 11 C-7.35 10.67 -5.7 10.34 -4 10 C-4 8.68 -4 7.36 -4 6 C-3.34 6 -2.68 6 -2 6 C-2 5.01 -2 4.02 -2 3 C-1.34 3 -0.68 3 0 3 C0 2.01 0 1.02 0 0 Z " fill="#42A808" transform="translate(73,62)"/>
<path d="M0 0 C0.66 0 1.32 0 2 0 C2.24091535 7.2274605 1.34495828 13.90294338 0 21 C-0.66 21 -1.32 21 -2 21 C-2 18.03 -2 15.06 -2 12 C-1.34 12 -0.68 12 0 12 C0 9.69 0 7.38 0 5 C-0.66 5 -1.32 5 -2 5 C-1.34 3.35 -0.68 1.7 0 0 Z " fill="#63A804" transform="translate(65,31)"/>
<path d="M0 0 C5.28 0 10.56 0 16 0 C15.01574101 4.92129494 14.1837982 6.40538913 11 10 C10.875 7.125 10.875 7.125 11 4 C11.66 3.34 12.32 2.68 13 2 C8.71 1.67 4.42 1.34 0 1 C0 0.67 0 0.34 0 0 Z " fill="#42A306" transform="translate(64,52)"/>
<path d="M0 0 C4.62 0 9.24 0 14 0 C14 1.98 14 3.96 14 6 C13.34 4.68 12.68 3.36 12 2 C10.02 2.99 10.02 2.99 8 4 C8 3.01 8 2.02 8 1 C5.36 1 2.72 1 0 1 C0 0.67 0 0.34 0 0 Z " fill="#F2DD20" transform="translate(48,66)"/>
<path d="M0 0 C1.1015625 3.7265625 1.1015625 3.7265625 0.1875 6.1875 C-1 8 -1 8 -3 9 C-3.72159424 10.64363134 -4.39351421 12.31050386 -5 14 C-5.66 14 -6.32 14 -7 14 C-5.53967505 8.68972746 -3.01679014 4.53669968 0 0 Z " fill="#58A90D" transform="translate(62,36)"/>
<path d="M0 0 C0.33 0 0.66 0 1 0 C1.83288874 6.25307239 2.03863773 11.76817361 1 18 C0.67 18 0.34 18 0 18 C-0.73030908 11.78675502 -1.23180249 6.15901243 0 0 Z " fill="#F7DC25" transform="translate(28,44)"/>
<path d="M0 0 C1 3 1 3 1 5 C0.01 5.495 0.01 5.495 -1 6 C-1.72159424 7.64363134 -2.39351421 9.31050386 -3 11 C-3.66 10.67 -4.32 10.34 -5 10 C-3.66511872 6.40608886 -2.03977277 3.24509304 0 0 Z " fill="#E3D51C" transform="translate(77,59)"/>
<path d="M0 0 C0.66 0 1.32 0 2 0 C0.55049545 3.7910119 -1.15172566 7.3874638 -3 11 C-3.33 11 -3.66 11 -4 11 C-4 9.35 -4 7.7 -4 6 C-3.34 6 -2.68 6 -2 6 C-2 5.01 -2 4.02 -2 3 C-1.34 3 -0.68 3 0 3 C0 2.01 0 1.02 0 0 Z " fill="#4FA60C" transform="translate(73,62)"/>
<path d="M0 0 C1.65 0.33 3.3 0.66 5 1 C4.67 1.66 4.34 2.32 4 3 C2.35 3 0.7 3 -1 3 C-1 3.66 -1 4.32 -1 5 C-1.99 5 -2.98 5 -4 5 C-4 4.01 -4 3.02 -4 2 C-2.68 2 -1.36 2 0 2 C0 1.34 0 0.68 0 0 Z " fill="#F9DC23" transform="translate(76,19)"/>
<path d="M0 0 C0.99 0 1.98 0 3 0 C3 0.66 3 1.32 3 2 C4.32 2 5.64 2 7 2 C7 2.99 7 3.98 7 5 C3.85262818 4.30058404 0.97411124 3.23921302 -2 2 C-1.34 1.34 -0.68 0.68 0 0 Z " fill="#FBDC22" transform="translate(49,19)"/>
<path d="M0 0 C0.66 0.33 1.32 0.66 2 1 C1.67 2.65 1.34 4.3 1 6 C-0.32 5.67 -1.64 5.34 -3 5 C-3 4.01 -3 3.02 -3 2 C-2.01 2 -1.02 2 0 2 C0 1.34 0 0.68 0 0 Z " fill="#F7E469" transform="translate(103,13)"/>
<path d="M0 0 C-0.66 1.32 -1.32 2.64 -2 4 C-3.32 4 -4.64 4 -6 4 C-6 3.01 -6 2.02 -6 1 C-3 0 -3 0 0 0 Z " fill="#F6EB55" transform="translate(35,86)"/>
<path d="M0 0 C0.66 0.33 1.32 0.66 2 1 C1.67 2.65 1.34 4.3 1 6 C-0.65 6.33 -2.3 6.66 -4 7 C-3.01 6.67 -2.02 6.34 -1 6 C-0.67 4.02 -0.34 2.04 0 0 Z " fill="#F4E76B" transform="translate(103,87)"/>
<path d="M0 0 C0.33 0.66 0.66 1.32 1 2 C2.66500443 2.34153937 4.33178677 2.67449498 6 3 C6.66 3.66 7.32 4.32 8 5 C5.125 5.125 5.125 5.125 2 5 C1.34 4.34 0.68 3.68 0 3 C0 2.01 0 1.02 0 0 Z " fill="#F2E86A" transform="translate(106,52)"/>
<path d="M0 0 C0 1.65 0 3.3 0 5 C-1.65 4.67 -3.3 4.34 -5 4 C-5 3.34 -5 2.68 -5 2 C-2 0 -2 0 0 0 Z " fill="#F8E956" transform="translate(112,50)"/>
<path d="M0 0 C0.66 0 1.32 0 2 0 C1.34 1.98 0.68 3.96 0 6 C-0.99 6 -1.98 6 -3 6 C-1.125 1.125 -1.125 1.125 0 0 Z " fill="#FDE552" transform="translate(29,15)"/>
</svg>
