<?xml version="1.0" encoding="UTF-8"?>
<svg version="1.1" xmlns="http://www.w3.org/2000/svg" width="128" height="128">
<path d="M0 0 C0.6328125 2.50390625 0.6328125 2.50390625 1.125 5.5625 C1.29257813 6.57441406 1.46015625 7.58632813 1.6328125 8.62890625 C1.75398438 9.41136719 1.87515625 10.19382812 2 11 C-1.16509584 11.96201289 -3.7725819 11.98764672 -7.0625 11.8125 C-15.92361837 11.69141639 -24.42419943 13.9906074 -33 16 C-33.33 18.31 -33.66 20.62 -34 23 C-33.05898437 22.99097656 -32.11796875 22.98195313 -31.1484375 22.97265625 C-21.30120848 23.20711408 -21.30120848 23.20711408 -17.91015625 25.2734375 C-15.02168127 28.53733761 -13.48475857 32.1640666 -11.75 36.125 C-9.33537839 41.34089832 -6.38672426 42.72857138 -1.25 44.9453125 C1 46 1 46 3.125 48.1875 C4.74544698 53.39607958 5.12412888 58.23080446 3.0390625 63.3671875 C-1.57929 71.08223878 -9.48243735 77.15661888 -18 80 C-21.11552429 80.27415466 -21.11552429 80.27415466 -24.65112305 80.30639648 C-25.29903305 80.31472 -25.94694305 80.32304352 -26.61448669 80.33161926 C-28.74695944 80.35562322 -30.87912541 80.36448116 -33.01171875 80.37109375 C-34.50519394 80.38007033 -35.99866827 80.38919235 -37.49214172 80.39845276 C-40.62165504 80.41492132 -43.7510617 80.42263844 -46.88061523 80.42553711 C-50.86732929 80.43090608 -54.85302296 80.46853209 -58.83944988 80.51428127 C-61.92551718 80.54420981 -65.01134399 80.55126412 -68.09754372 80.55226326 C-69.5658108 80.55643758 -71.03408048 80.56875842 -72.50220299 80.58978081 C-84.72240185 80.75077938 -93.28013542 78.30336444 -102.3046875 69.80859375 C-106.25071431 65.59889233 -108.21853033 61.8131793 -108.5 55.9375 C-108.30902668 51.1190963 -107.14858875 48.61161651 -104 45 C-103.01 44.505 -103.01 44.505 -102 44 C-103.32 43.67 -104.64 43.34 -106 43 C-106.08153933 41.41753293 -106.13943557 39.83383727 -106.1875 38.25 C-106.22230469 37.36828125 -106.25710937 36.4865625 -106.29296875 35.578125 C-105.93416113 32.42061793 -105.19179337 31.2805383 -103 29 C-100.55151367 28.37817383 -100.55151367 28.37817383 -97.66796875 28.20703125 C-96.62189453 28.13419922 -95.57582031 28.06136719 -94.49804688 27.98632812 C-93.40556641 27.92896484 -92.31308594 27.87160156 -91.1875 27.8125 C-89.03502863 27.67516283 -86.88267922 27.53589805 -84.73046875 27.39453125 C-83.77551514 27.34143799 -82.82056152 27.28834473 -81.83666992 27.23364258 C-78.85080903 26.98771187 -75.94749516 26.53033667 -73 26 C-73.97453125 25.41992188 -73.97453125 25.41992188 -74.96875 24.828125 C-75.8040625 24.30734375 -76.639375 23.7865625 -77.5 23.25 C-78.3353125 22.73953125 -79.170625 22.2290625 -80.03125 21.703125 C-80.6809375 21.14109375 -81.330625 20.5790625 -82 20 C-82 18.68 -82 17.36 -82 16 C-83.65 16 -85.3 16 -87 16 C-87 14.02 -87 12.04 -87 10 C-85.35 10 -83.7 10 -82 10 C-81.67 8.35 -81.34 6.7 -81 5 C-79.35 5 -77.7 5 -76 5 C-76 3.35 -76 1.7 -76 0 C-68.08 0 -60.16 0 -52 0 C-52 1.65 -52 3.3 -52 5 C-51.01 4.9175 -50.02 4.835 -49 4.75 C-45.03057473 4.71006614 -42.55970306 6.08520482 -39.28515625 8.22265625 C-33.62982914 10.14643419 -26.35791807 7.52787963 -20.6875 6.125 C-19.98560547 5.96386719 -19.28371094 5.80273438 -18.56054688 5.63671875 C-14.81047191 4.71439335 -12.54764349 3.89149721 -10 1 C-8.02734375 0.234375 -8.02734375 0.234375 -5.9375 -0.25 C-5.24527344 -0.42015625 -4.55304688 -0.5903125 -3.83984375 -0.765625 C-2 -1 -2 -1 0 0 Z M-7 4 C-7 5.32 -7 6.64 -7 8 C-5.35 8 -3.7 8 -2 8 C-2.33 6.35 -2.66 4.7 -3 3 C-4.36893239 2.94729537 -4.36893239 2.94729537 -7 4 Z " fill="#385E20" transform="translate(116,24)"/>
<path d="M0 0 C0.6328125 2.50390625 0.6328125 2.50390625 1.125 5.5625 C1.29257813 6.57441406 1.46015625 7.58632813 1.6328125 8.62890625 C1.75398438 9.41136719 1.87515625 10.19382812 2 11 C-1.16509584 11.96201289 -3.7725819 11.98764672 -7.0625 11.8125 C-15.92361837 11.69141639 -24.42419943 13.9906074 -33 16 C-33.33 18.31 -33.66 20.62 -34 23 C-33.05898437 22.99097656 -32.11796875 22.98195313 -31.1484375 22.97265625 C-21.30120848 23.20711408 -21.30120848 23.20711408 -17.91015625 25.2734375 C-16.29633985 27.09700722 -15.15663384 28.85580837 -14 31 C-13.51917969 31.86367188 -13.03835937 32.72734375 -12.54296875 33.6171875 C-9 40.3517562 -9 40.3517562 -9 43 C-41.01 43 -73.02 43 -106 43 C-106 33 -106 33 -103 29 C-100.55151367 28.37817383 -100.55151367 28.37817383 -97.66796875 28.20703125 C-96.62189453 28.13419922 -95.57582031 28.06136719 -94.49804688 27.98632812 C-93.40556641 27.92896484 -92.31308594 27.87160156 -91.1875 27.8125 C-89.03502863 27.67516283 -86.88267922 27.53589805 -84.73046875 27.39453125 C-83.77551514 27.34143799 -82.82056152 27.28834473 -81.83666992 27.23364258 C-78.85080903 26.98771187 -75.94749516 26.53033667 -73 26 C-73.6496875 25.61328125 -74.299375 25.2265625 -74.96875 24.828125 C-75.8040625 24.30734375 -76.639375 23.7865625 -77.5 23.25 C-78.3353125 22.73953125 -79.170625 22.2290625 -80.03125 21.703125 C-80.6809375 21.14109375 -81.330625 20.5790625 -82 20 C-82 18.68 -82 17.36 -82 16 C-83.65 16 -85.3 16 -87 16 C-87 14.02 -87 12.04 -87 10 C-85.35 10 -83.7 10 -82 10 C-81.67 8.35 -81.34 6.7 -81 5 C-79.35 5 -77.7 5 -76 5 C-76 3.35 -76 1.7 -76 0 C-68.08 0 -60.16 0 -52 0 C-52 1.65 -52 3.3 -52 5 C-51.01 4.9175 -50.02 4.835 -49 4.75 C-45.03057473 4.71006614 -42.55970306 6.08520482 -39.28515625 8.22265625 C-33.62982914 10.14643419 -26.35791807 7.52787963 -20.6875 6.125 C-19.98560547 5.96386719 -19.28371094 5.80273438 -18.56054688 5.63671875 C-14.81047191 4.71439335 -12.54764349 3.89149721 -10 1 C-8.02734375 0.234375 -8.02734375 0.234375 -5.9375 -0.25 C-5.24527344 -0.42015625 -4.55304688 -0.5903125 -3.83984375 -0.765625 C-2 -1 -2 -1 0 0 Z M-7 4 C-7 5.32 -7 6.64 -7 8 C-5.35 8 -3.7 8 -2 8 C-2.33 6.35 -2.66 4.7 -3 3 C-4.36893239 2.94729537 -4.36893239 2.94729537 -7 4 Z " fill="#72A54F" transform="translate(116,24)"/>
<path d="M0 0 C3.35578068 3.94797727 3.60338721 6.69444886 3.515625 11.77734375 C2.45332744 19.18155776 -2.70725715 23.63981786 -8.4375 27.9375 C-14.1767434 31.96718153 -18.46691775 33.7420222 -25.52612305 33.80639648 C-26.17403305 33.81472 -26.82194305 33.82304352 -27.48948669 33.83161926 C-29.62195944 33.85562322 -31.75412541 33.86448116 -33.88671875 33.87109375 C-35.38019394 33.88007033 -36.87366827 33.88919235 -38.36714172 33.89845276 C-41.49665504 33.91492132 -44.6260617 33.92263844 -47.75561523 33.92553711 C-51.74232929 33.93090608 -55.72802296 33.96853209 -59.71444988 34.01428127 C-62.80051718 34.04420981 -65.88634399 34.05126412 -68.97254372 34.05226326 C-70.4408108 34.05643758 -71.90908048 34.06875842 -73.37720299 34.08978081 C-85.59740185 34.25077938 -94.15513542 31.80336444 -103.1796875 23.30859375 C-107.12571431 19.09889233 -109.09353033 15.3131793 -109.375 9.4375 C-109.17718236 4.79585042 -108.0391697 2.01574411 -104.875 -1.5 C-101.04830411 -4.21792038 -96.68340242 -3.8216516 -92.1784668 -3.85058594 C-91.30155182 -3.86384415 -90.42463684 -3.87710236 -89.52114868 -3.89076233 C-86.62220481 -3.93184359 -83.72333611 -3.95858601 -80.82421875 -3.984375 C-78.80645598 -4.00817307 -76.78869979 -4.03253408 -74.77095032 -4.05743408 C-70.54013076 -4.10735691 -66.30931339 -4.15013775 -62.07836914 -4.18798828 C-56.66450498 -4.23703353 -51.25104465 -4.30415885 -45.83745098 -4.37673569 C-41.66901837 -4.43053352 -37.50052566 -4.47445359 -33.33194923 -4.51544952 C-31.33649041 -4.53629855 -29.34106144 -4.56024976 -27.34567833 -4.58739471 C-24.55034846 -4.62398119 -21.75520939 -4.6471901 -18.9597168 -4.66699219 C-18.1402507 -4.68039139 -17.32078461 -4.69379059 -16.47648621 -4.70759583 C-10.21730281 -4.73016303 -4.89653584 -4.25785726 0 0 Z M-98.875 1.5 C-99.535 2.82 -100.195 4.14 -100.875 5.5 C-101.535 5.5 -102.195 5.5 -102.875 5.5 C-103.22683817 9.89797715 -103.28053749 13.48615627 -101.625 17.625 C-98.03355674 21.37969068 -93.99304462 23.59737097 -89.45703125 26.08203125 C-86.875 27.5 -86.875 27.5 -85.875 28.5 C-83.9091924 28.62560884 -81.93885667 28.68080282 -79.96923828 28.70874023 C-78.70346954 28.72803085 -77.43770081 28.74732147 -76.13357544 28.76719666 C-74.73749822 28.78201349 -73.34140959 28.79578539 -71.9453125 28.80859375 C-71.24284267 28.81516558 -70.54037285 28.8217374 -69.81661606 28.82850838 C-66.08870204 28.86116179 -62.36081704 28.88558203 -58.6328125 28.9050293 C-55.56174231 28.92274748 -52.49160695 28.95740117 -49.42089844 29.00756836 C-45.70431736 29.06821502 -41.98859388 29.09856732 -38.2715416 29.10820198 C-36.86265981 29.1166944 -35.453797 29.13535698 -34.04520035 29.1649456 C-24.68154701 29.35082864 -17.43288067 28.37521752 -9.875 22.5 C-7.44957026 19.85759878 -7.44957026 19.85759878 -6.875 16.5 C-6.235625 16.190625 -5.59625 15.88125 -4.9375 15.5625 C-2.93889179 14.6654837 -2.93889179 14.6654837 -1.875 13.5 C-1.37330585 10.66926564 -1.37330585 10.66926564 -1.875 7.5 C-4.208492 4.66588845 -4.208492 4.66588845 -6.875 2.5 C-7.37 2.005 -7.37 2.005 -7.875 1.5 C-10.70540672 1.40479094 -13.51134993 1.37446369 -16.34204102 1.38647461 C-17.22976196 1.38632858 -18.11748291 1.38618256 -19.03210449 1.3860321 C-21.98106284 1.38673157 -24.92995887 1.39452552 -27.87890625 1.40234375 C-29.91771917 1.40420781 -31.95653254 1.40563177 -33.99534607 1.40663147 C-39.37284574 1.41045759 -44.75031858 1.42028868 -50.12780762 1.43133545 C-55.61059201 1.44154755 -61.09338072 1.44612866 -66.57617188 1.45117188 C-77.34245973 1.46191086 -88.10872764 1.47898841 -98.875 1.5 Z " fill="#4C7B2C" transform="translate(116.875,70.5)"/>
<path d="M0 0 C5.88988128 -0.82458338 5.88988128 -0.82458338 8.625 1.20703125 C12.60815546 5.63621714 18 12.86327079 18 19 C-14.01 19 -46.02 19 -79 19 C-79 17.02 -79 15.04 -79 13 C-77.06833984 12.69255859 -77.06833984 12.69255859 -75.09765625 12.37890625 C-73.41923637 12.10698348 -71.7408528 11.83483649 -70.0625 11.5625 C-69.21236328 11.42779297 -68.36222656 11.29308594 -67.48632812 11.15429688 C-66.27299805 10.95610352 -66.27299805 10.95610352 -65.03515625 10.75390625 C-63.91185913 10.57323608 -63.91185913 10.57323608 -62.76586914 10.38891602 C-60.9829115 10.16240096 -60.9829115 10.16240096 -60 9 C-58.41943298 8.85998914 -56.83482084 8.76584566 -55.25 8.6875 C-49.2717664 8.24519632 -43.50311531 7.22309677 -37.625 6.0625 C-25.00149488 3.58933715 -12.93222467 1.61332219 0 2 C0 1.34 0 0.68 0 0 Z " fill="#70A34E" transform="translate(89,48)"/>
<path d="M0 0 C2.26979665 -0.10794277 4.54105196 -0.18556176 6.8125 -0.25 C8.07707031 -0.29640625 9.34164062 -0.3428125 10.64453125 -0.390625 C14 0 14 0 15.61328125 1.99609375 C16.29970703 2.98802734 16.29970703 2.98802734 17 4 C19.48155182 4.52799688 19.48155182 4.52799688 22.375 4.3125 C23.51066406 4.27769531 24.64632812 4.24289063 25.81640625 4.20703125 C27.21100179 4.13933244 28.60552651 4.07016797 30 4 C31.84242111 3.91995347 33.68487109 3.84056967 35.52734375 3.76171875 C40.68628329 3.53300373 45.84333481 3.27498314 51 3 C51 3.66 51 4.32 51 5 C50.01 5.03867187 50.01 5.03867187 49 5.078125 C35.25086762 5.86583571 21.68776703 8.55679017 8.171875 11.09375 C4.23821767 11.81335589 0.37084475 12.31473654 -3.625 12.5625 C-7.12727982 12.50020763 -7.12727982 12.50020763 -10 14 C-11.33802186 14.22513101 -12.68573023 14.39360807 -14.03515625 14.53515625 C-14.84404297 14.62216797 -15.65292969 14.70917969 -16.48632812 14.79882812 C-17.7615332 14.9293457 -17.7615332 14.9293457 -19.0625 15.0625 C-19.91650391 15.15337891 -20.77050781 15.24425781 -21.65039062 15.33789062 C-23.76651535 15.56250722 -25.88320894 15.78175227 -28 16 C-27.25 10.25 -27.25 10.25 -25 8 C-22.66503906 7.60522461 -22.66503906 7.60522461 -19.765625 7.40234375 C-18.71632813 7.32306641 -17.66703125 7.24378906 -16.5859375 7.16210938 C-15.48507813 7.08798828 -14.38421875 7.01386719 -13.25 6.9375 C-11.08838 6.7821817 -8.92691454 6.62469463 -6.765625 6.46484375 C-5.80430664 6.399021 -4.84298828 6.33319824 -3.85253906 6.26538086 C-0.8677102 5.98769266 2.04974131 5.52636413 5 5 C4.175 4.54625 3.35 4.0925 2.5 3.625 C1.675 3.08875 0.85 2.5525 0 2 C0 1.34 0 0.68 0 0 Z " fill="#4C7D2B" transform="translate(38,45)"/>
<path d="M0 0 C1.65 0 3.3 0 5 0 C7 2 7 2 7.3125 4.9375 C7 8 7 8 5.625 9.875 C4 11 4 11 2 11 C1.79375 11.7425 1.5875 12.485 1.375 13.25 C-0.73965922 17.47931844 -4.13061066 19.10534318 -8.29655457 21.09909058 C-11.4862627 22.16204457 -14.08136021 22.24031022 -17.44262695 22.22705078 C-18.72357742 22.22689972 -20.00452789 22.22674866 -21.32429504 22.22659302 C-22.71229205 22.2163813 -24.10028744 22.20594933 -25.48828125 22.1953125 C-26.91602887 22.1915795 -28.34377905 22.18873388 -29.77153015 22.18673706 C-33.51818999 22.17912318 -37.26469326 22.15949419 -41.0112915 22.1373291 C-44.83888634 22.11682214 -48.66650662 22.107725 -52.49414062 22.09765625 C-59.9961649 22.07624599 -67.49806046 22.04213741 -75 22 C-75 21.67 -75 21.34 -75 21 C-66.42 21 -57.84 21 -49 21 C-49 20.34 -49 19.68 -49 19 C-48.34 19.33 -47.68 19.66 -47 20 C-41.24603038 20.20189367 -35.70365299 19.73936242 -30 19 C-29.505 17.515 -29.505 17.515 -29 16 C-28.01 15.67 -27.02 15.34 -26 15 C-25.62875 15.66 -25.2575 16.32 -24.875 17 C-23.09105222 19.35303045 -23.09105222 19.35303045 -19.8125 19.25 C-18.4203125 19.12625 -18.4203125 19.12625 -17 19 C-16.34 17.35 -15.68 15.7 -15 14 C-14.34 14 -13.68 14 -13 14 C-12.34 12.35 -11.68 10.7 -11 9 C-10.01 9.66 -9.02 10.32 -8 11 C-4.89143 11.23314275 -2.98586231 10.99528744 0 10 C0 6.7 0 3.4 0 0 Z " fill="#375D20" transform="translate(108,76)"/>
<path d="M0 0 C0.6328125 2.50390625 0.6328125 2.50390625 1.125 5.5625 C1.37636719 7.08037109 1.37636719 7.08037109 1.6328125 8.62890625 C1.75398438 9.41136719 1.87515625 10.19382812 2 11 C-1.16509584 11.96201289 -3.7725819 11.98764672 -7.0625 11.8125 C-15.92361837 11.69141639 -24.42419943 13.9906074 -33 16 C-33.33 14.68 -33.66 13.36 -34 12 C-34.66 12 -35.32 12 -36 12 C-36 11.34 -36 10.68 -36 10 C-35.31897217 9.83395264 -34.63794434 9.66790527 -33.9362793 9.49682617 C-30.85054975 8.73796255 -27.76910318 7.96294208 -24.6875 7.1875 C-23.61564453 6.92646484 -22.54378906 6.66542969 -21.43945312 6.39648438 C-20.41142578 6.13544922 -19.38339844 5.87441406 -18.32421875 5.60546875 C-17.37635498 5.36981201 -16.42849121 5.13415527 -15.4519043 4.89135742 C-12.87730432 3.95539561 -11.79339989 3.01155277 -10 1 C-8.02734375 0.234375 -8.02734375 0.234375 -5.9375 -0.25 C-5.24527344 -0.42015625 -4.55304688 -0.5903125 -3.83984375 -0.765625 C-2 -1 -2 -1 0 0 Z M-7 4 C-7 5.32 -7 6.64 -7 8 C-5.35 8 -3.7 8 -2 8 C-2.33 6.35 -2.66 4.7 -3 3 C-4.36893239 2.94729537 -4.36893239 2.94729537 -7 4 Z " fill="#4E7B2C" transform="translate(116,24)"/>
<path d="M0 0 C7.92 0 15.84 0 24 0 C24 1.98 24 3.96 24 6 C16.08 6 8.16 6 0 6 C0 4.02 0 2.04 0 0 Z " fill="#4E7E2B" transform="translate(40,24)"/>
<path d="M0 0 C1.42041821 2.84083641 1.31452272 4.85477278 1 8 C-0.98322993 10.7912125 -2.12986121 11.82597224 -5.5 12.5 C-8 12 -8 12 -10.375 10.4375 C-12 8 -12 8 -11.9375 4.375 C-10.03286342 -2.4816917 -5.74620423 -1.11216856 0 0 Z " fill="#72A052" transform="translate(108,76)"/>
<path d="M0 0 C0.66 0.33 1.32 0.66 2 1 C2 1.66 2 2.32 2 3 C2.66 3 3.32 3 4 3 C4.32523926 6.57763189 4.42956587 8.39542581 2.3125 11.375 C0 13 0 13 -2.5 13.5 C-5.87013879 12.82597224 -7.01677007 11.7912125 -9 9 C-9.45742277 5.79804064 -9.55468045 3.92446741 -7.875 1.125 C-5.18282457 -0.49030526 -3.07846795 -0.26199727 0 0 Z " fill="#70A052" transform="translate(28,75)"/>
<path d="M0 0 C2.64 0 5.28 0 8 0 C9.39431504 2.78863007 9.25660094 4.92078868 9 8 C5.77626323 10.14915785 4.73296326 10.38286803 1 10 C-1 8 -1 8 -1.1875 5 C-1 2 -1 2 0 0 Z " fill="#749C53" transform="translate(36,86)"/>
<path d="M0 0 C2.64 0 5.28 0 8 0 C9.38125018 2.76250036 9.19079306 4.94731099 9 8 C7 10 7 10 3.875 10.125 C2.92625 10.08375 1.9775 10.0425 1 10 C-0.80411967 7.24075815 -1.0127245 6.11027897 -0.625 2.75 C-0.41875 1.8425 -0.2125 0.935 0 0 Z " fill="#739D53" transform="translate(84,86)"/>
<path d="M0 0 C1.39431504 2.78863007 1.25660094 4.92078868 1 8 C-2.22791555 10.1519437 -3.28400809 10.20086443 -7 10 C-8.57035335 7.50590939 -9.0274945 6.29556584 -8.75 3.3125 C-8.5025 2.549375 -8.255 1.78625 -8 1 C-5.29120665 -0.35439668 -2.99066732 -0.06501451 0 0 Z " fill="#739E55" transform="translate(76,86)"/>
<path d="M0 0 C1.39431504 2.78863007 1.25660094 4.92078868 1 8 C-2.22791555 10.1519437 -3.28400809 10.20086443 -7 10 C-8.57035335 7.50590939 -9.0274945 6.29556584 -8.75 3.3125 C-8.5025 2.549375 -8.255 1.78625 -8 1 C-5.29120665 -0.35439668 -2.99066732 -0.06501451 0 0 Z " fill="#75A154" transform="translate(60,86)"/>
<path d="M0 0 C0 0.66 0 1.32 0 2 C-0.845625 2.06058594 -1.69125 2.12117188 -2.5625 2.18359375 C-9.80592008 2.68569042 -9.80592008 2.68569042 -17 3.625 C-22.63868781 4.41490239 -28.36801371 3.55804742 -34 3 C-34 2.67 -34 2.34 -34 2 C-30.02132817 1.66058296 -26.04199752 1.32958345 -22.0625 1 C-20.94552734 0.90460937 -19.82855469 0.80921875 -18.67773438 0.7109375 C-12.42573608 0.19757694 -6.27276963 -0.10643087 0 0 Z " fill="#548733" transform="translate(89,48)"/>
<path d="M0 0 C1.98 0 3.96 0 6 0 C6 1.98 6 3.96 6 6 C4.02 6 2.04 6 0 6 C0 4.02 0 2.04 0 0 Z " fill="#507D30" transform="translate(29,34)"/>
<path d="M0 0 C0.33 0.66 0.66 1.32 1 2 C-0.4375 4.625 -0.4375 4.625 -2 7 C-4.64 6.67 -7.28 6.34 -10 6 C-9.443125 5.731875 -8.88625 5.46375 -8.3125 5.1875 C-3.87147737 3.00539268 -3.87147737 3.00539268 0 0 Z " fill="#547534" transform="translate(106,25)"/>
<path d="M0 0 C0.33 0.99 0.66 1.98 1 3 C-2.22791555 5.1519437 -3.28400809 5.20086443 -7 5 C-7.33 4.34 -7.66 3.68 -8 3 C-6.68 3 -5.36 3 -4 3 C-3.67 2.34 -3.34 1.68 -3 1 C-2.01 0.67 -1.02 0.34 0 0 Z " fill="#6C984A" transform="translate(60,91)"/>
</svg>
